<svg width="21" height="23" viewBox="0 0 21 23" fill="none" xmlns="http://www.w3.org/2000/svg">
<path d="M19.5737 18.1311C19.3356 16.7015 18.3332 15.5284 16.9579 15.0699L13.9048 14.0522V13.5984H13.1951V14.2641L12.6654 16.3828L11.2322 14.6629H10.19L8.75683 16.3828L8.22741 14.2641V13.5984H7.51773V14.0522L4.4647 15.0699C3.0897 15.5284 2.08728 16.7015 1.84883 18.1311L1.06641 22.8242H20.3558L19.5737 18.1311ZM8.98428 22.1145H5.07112L5.38692 18.9565L4.68079 18.8859L4.35789 22.1149H1.90454L2.54892 18.2482C2.74373 17.0783 3.56412 16.1188 4.68931 15.7434L7.62134 14.7658L8.40766 17.9108L9.20783 16.9506L9.63115 17.5857L8.98428 22.1145ZM11.7215 22.1145H9.70105L10.3721 17.4175L9.68153 16.3818L10.5225 15.3726H10.8997L11.7407 16.3818L11.0501 17.4175L11.7215 22.1145ZM17.0647 22.1145L16.7418 18.8855L16.0356 18.9561L16.3514 22.1142H12.4383L11.7914 17.5854L12.2147 16.9502L13.0149 17.9104L13.8012 14.7655L16.7332 15.7431C17.8584 16.1181 18.6785 17.078 18.8736 18.2479L19.518 22.1145H17.0647Z" fill="url(#paint0_linear)"/>
<path d="M6.25521 10.385C6.43618 11.0077 6.77044 11.5787 7.24166 12.0499L8.62554 13.4338C8.9605 13.7687 9.40582 13.9533 9.87989 13.9533H11.543C12.0167 13.9533 12.4624 13.7687 12.7974 13.4338L14.1812 12.0499C14.6525 11.5787 14.9867 11.0074 15.1677 10.385C16.0516 10.2849 16.7435 9.54119 16.7435 8.63067C16.7435 8.04838 16.4575 7.53493 16.0229 7.21132H16.0339V5.08228C16.0339 4.19412 15.3774 3.45606 14.5244 3.32796C13.9903 1.8419 12.5614 0.824219 10.9668 0.824219H10.7113C7.77641 0.824219 5.3887 3.21193 5.3887 6.1468V7.21132H5.3997C4.96502 7.53493 4.67902 8.04838 4.67902 8.63067C4.67902 9.54119 5.37095 10.2849 6.25521 10.385ZM14.6145 9.28961C14.6145 10.143 14.2824 10.9449 13.6791 11.5482L12.2953 12.932C12.0973 13.13 11.823 13.2436 11.5427 13.2436H9.87953C9.59921 13.2436 9.32528 13.13 9.12692 12.932L7.74305 11.5482C7.13983 10.9449 6.8077 10.143 6.8077 9.28996V7.56615H8.20186C9.7635 7.56615 11.24 7.01154 12.4067 5.99564L12.5153 6.17661C12.9681 6.93135 13.7515 7.43309 14.6145 7.54238V9.28961ZM16.0339 8.63067C16.0339 9.0987 15.728 9.49293 15.3075 9.63486C15.3174 9.52096 15.3242 9.40599 15.3242 9.28996V7.63144C15.7361 7.77835 16.0339 8.16867 16.0339 8.63067ZM6.09837 6.1468C6.09837 3.60332 8.16779 1.5339 10.7113 1.5339H10.9668C12.3301 1.5339 13.544 2.44938 13.9187 3.76051L13.9921 4.01777H14.2597C14.8466 4.01777 15.3242 4.49538 15.3242 5.08228V6.89232C15.2096 6.8689 15.0907 6.85648 14.9693 6.85648C14.2178 6.85648 13.5106 6.45622 13.1238 5.81148L12.5557 4.86477L12.2342 5.18625C11.1573 6.26319 9.72554 6.85648 8.20221 6.85648H6.45321C6.33186 6.85648 6.21299 6.8689 6.09837 6.89232V6.1468ZM6.09837 7.63144V9.28996C6.09837 9.40599 6.10512 9.52096 6.11505 9.63522C5.69457 9.49293 5.3887 9.0987 5.3887 8.63067C5.3887 8.16867 5.68641 7.77835 6.09837 7.63144Z" fill="url(#paint1_linear)"/>
<path d="M19.5737 18.1311C19.3356 16.7015 18.3332 15.5284 16.9579 15.0699L13.9048 14.0522V13.5984H13.1951V14.2641L12.6654 16.3828L11.2322 14.6629H10.19L8.75683 16.3828L8.22741 14.2641V13.5984H7.51773V14.0522L4.4647 15.0699C3.0897 15.5284 2.08728 16.7015 1.84883 18.1311L1.06641 22.8242H20.3558L19.5737 18.1311ZM8.98428 22.1145H5.07112L5.38692 18.9565L4.68079 18.8859L4.35789 22.1149H1.90454L2.54892 18.2482C2.74373 17.0783 3.56412 16.1188 4.68931 15.7434L7.62134 14.7658L8.40766 17.9108L9.20783 16.9506L9.63115 17.5857L8.98428 22.1145ZM11.7215 22.1145H9.70105L10.3721 17.4175L9.68153 16.3818L10.5225 15.3726H10.8997L11.7407 16.3818L11.0501 17.4175L11.7215 22.1145ZM17.0647 22.1145L16.7418 18.8855L16.0356 18.9561L16.3514 22.1142H12.4383L11.7914 17.5854L12.2147 16.9502L13.0149 17.9104L13.8012 14.7655L16.7332 15.7431C17.8584 16.1181 18.6785 17.078 18.8736 18.2479L19.518 22.1145H17.0647Z" stroke="url(#paint2_linear)" stroke-width="0.2"/>
<path d="M6.25521 10.385C6.43618 11.0077 6.77044 11.5787 7.24166 12.0499L8.62554 13.4338C8.9605 13.7687 9.40582 13.9533 9.87989 13.9533H11.543C12.0167 13.9533 12.4624 13.7687 12.7974 13.4338L14.1812 12.0499C14.6525 11.5787 14.9867 11.0074 15.1677 10.385C16.0516 10.2849 16.7435 9.54119 16.7435 8.63067C16.7435 8.04838 16.4575 7.53493 16.0229 7.21132H16.0339V5.08228C16.0339 4.19412 15.3774 3.45606 14.5244 3.32796C13.9903 1.8419 12.5614 0.824219 10.9668 0.824219H10.7113C7.77641 0.824219 5.3887 3.21193 5.3887 6.1468V7.21132H5.3997C4.96502 7.53493 4.67902 8.04838 4.67902 8.63067C4.67902 9.54119 5.37095 10.2849 6.25521 10.385ZM14.6145 9.28961C14.6145 10.143 14.2824 10.9449 13.6791 11.5482L12.2953 12.932C12.0973 13.13 11.823 13.2436 11.5427 13.2436H9.87953C9.59921 13.2436 9.32528 13.13 9.12692 12.932L7.74305 11.5482C7.13983 10.9449 6.8077 10.143 6.8077 9.28996V7.56615H8.20186C9.7635 7.56615 11.24 7.01154 12.4067 5.99564L12.5153 6.17661C12.9681 6.93135 13.7515 7.43309 14.6145 7.54238V9.28961ZM16.0339 8.63067C16.0339 9.0987 15.728 9.49293 15.3075 9.63486C15.3174 9.52096 15.3242 9.40599 15.3242 9.28996V7.63144C15.7361 7.77835 16.0339 8.16867 16.0339 8.63067ZM6.09837 6.1468C6.09837 3.60332 8.16779 1.5339 10.7113 1.5339H10.9668C12.3301 1.5339 13.544 2.44938 13.9187 3.76051L13.9921 4.01777H14.2597C14.8466 4.01777 15.3242 4.49538 15.3242 5.08228V6.89232C15.2096 6.8689 15.0907 6.85648 14.9693 6.85648C14.2178 6.85648 13.5106 6.45622 13.1238 5.81148L12.5557 4.86477L12.2342 5.18625C11.1573 6.26319 9.72554 6.85648 8.20221 6.85648H6.45321C6.33186 6.85648 6.21299 6.8689 6.09837 6.89232V6.1468ZM6.09837 7.63144V9.28996C6.09837 9.40599 6.10512 9.52096 6.11505 9.63522C5.69457 9.49293 5.3887 9.0987 5.3887 8.63067C5.3887 8.16867 5.68641 7.77835 6.09837 7.63144Z" stroke="url(#paint3_linear)" stroke-width="0.2"/>
<defs>
<linearGradient id="paint0_linear" x1="-11.1825" y1="-8.90514" x2="20.6532" y2="-8.60383" gradientUnits="userSpaceOnUse">
<stop stop-color="#0B9985"/>
<stop offset="1" stop-color="#0B9985"/>
</linearGradient>
<linearGradient id="paint1_linear" x1="-11.1825" y1="-8.90514" x2="20.6532" y2="-8.60383" gradientUnits="userSpaceOnUse">
<stop stop-color="#0B9985"/>
<stop offset="1" stop-color="#0B9985"/>
</linearGradient>
<linearGradient id="paint2_linear" x1="-11.1825" y1="-8.90514" x2="20.6532" y2="-8.60383" gradientUnits="userSpaceOnUse">
<stop stop-color="#0B9985"/>
<stop offset="1" stop-color="#0B9985"/>
</linearGradient>
<linearGradient id="paint3_linear" x1="-11.1825" y1="-8.90514" x2="20.6532" y2="-8.60383" gradientUnits="userSpaceOnUse">
<stop stop-color="#0B9985"/>
<stop offset="1" stop-color="#0B9985"/>
</linearGradient>
</defs>
</svg>
