<svg width="21" height="24" viewBox="0 0 21 24" fill="none" xmlns="http://www.w3.org/2000/svg">
<path d="M19.5073 18.3069C19.2692 16.8773 18.2668 15.7042 16.8915 15.2457L13.8384 14.228V13.7742H13.1287V14.4399L12.599 16.5586L11.1658 14.8387H10.1236L8.69042 16.5586L8.161 14.4399V13.7742H7.45132V14.228L4.39829 15.2457C3.02329 15.7042 2.02087 16.8773 1.78242 18.3069L1 23H20.2894L19.5073 18.3069ZM8.91787 22.2903H5.00471L5.32052 19.1323L4.61439 19.0616L4.29148 22.2907H1.83813L2.48252 18.424C2.67732 17.2541 3.49771 16.2946 4.6229 15.9192L7.55493 14.9416L8.34126 18.0865L9.14142 17.1264L9.56474 17.7615L8.91787 22.2903ZM11.6551 22.2903H9.63464L10.3056 17.5933L9.61513 16.5575L10.4561 15.5484H10.8333L11.6743 16.5575L10.9837 17.5933L11.6551 22.2903ZM16.9983 22.2903L16.6754 19.0613L15.9692 19.1319L16.285 22.29H12.3719L11.725 17.7612L12.1483 17.126L12.9485 18.0862L13.7348 14.9413L16.6668 15.9188C17.792 16.2939 18.6121 17.2537 18.8072 18.4236L19.4516 22.2903H16.9983Z" fill="#4F4F4F"/>
<path d="M6.18881 10.5608C6.36977 11.1835 6.70403 11.7545 7.17526 12.2257L8.55913 13.6095C8.8941 13.9445 9.33942 14.129 9.81348 14.129H11.4766C11.9503 14.129 12.396 13.9445 12.731 13.6095L14.1148 12.2257C14.5861 11.7545 14.9203 11.1832 15.1013 10.5608C15.9852 10.4607 16.6771 9.71697 16.6771 8.80645C16.6771 8.22416 16.3911 7.71071 15.9565 7.3871H15.9675V5.25806C15.9675 4.3699 15.311 3.63184 14.458 3.50374C13.9239 2.01768 12.495 1 10.9004 1H10.6449C7.71 1 5.32229 3.38771 5.32229 6.32258V7.3871H5.33329C4.89861 7.71071 4.61261 8.22416 4.61261 8.80645C4.61261 9.71697 5.30455 10.4607 6.18881 10.5608ZM14.5481 9.46539C14.5481 10.3188 14.216 11.1207 13.6127 11.7239L12.2289 13.1078C12.0309 13.3058 11.7566 13.4194 11.4763 13.4194H9.81313C9.53281 13.4194 9.25887 13.3058 9.06052 13.1078L7.67664 11.7239C7.07342 11.1207 6.74129 10.3188 6.74129 9.46574V7.74194H8.13545C9.6971 7.74194 11.1736 7.18732 12.3403 6.17142L12.4489 6.35239C12.9016 7.10713 13.6851 7.60887 14.5481 7.71816V9.46539ZM15.9675 8.80645C15.9675 9.27448 15.6616 9.66871 15.2411 9.81065C15.251 9.69674 15.2578 9.58177 15.2578 9.46574V7.80723C15.6697 7.95413 15.9675 8.34445 15.9675 8.80645ZM6.03197 6.32258C6.03197 3.7791 8.10139 1.70968 10.6449 1.70968H10.9004C12.2636 1.70968 13.4775 2.62516 13.8523 3.93629L13.9257 4.19355H14.1933C14.7802 4.19355 15.2578 4.67116 15.2578 5.25806V7.0681C15.1432 7.04468 15.0243 7.03226 14.9029 7.03226C14.1514 7.03226 13.4442 6.632 13.0574 5.98726L12.4893 5.04055L12.1678 5.36203C11.0909 6.43897 9.65913 7.03226 8.13581 7.03226H6.38681C6.26545 7.03226 6.14658 7.04468 6.03197 7.0681V6.32258ZM6.03197 7.80723V9.46574C6.03197 9.58177 6.03871 9.69674 6.04865 9.811C5.62816 9.66871 5.32229 9.27448 5.32229 8.80645C5.32229 8.34445 5.62 7.95413 6.03197 7.80723Z" fill="#4F4F4F"/>
<path d="M19.5073 18.3069C19.2692 16.8773 18.2668 15.7042 16.8915 15.2457L13.8384 14.228V13.7742H13.1287V14.4399L12.599 16.5586L11.1658 14.8387H10.1236L8.69042 16.5586L8.161 14.4399V13.7742H7.45132V14.228L4.39829 15.2457C3.02329 15.7042 2.02087 16.8773 1.78242 18.3069L1 23H20.2894L19.5073 18.3069ZM8.91787 22.2903H5.00471L5.32052 19.1323L4.61439 19.0616L4.29148 22.2907H1.83813L2.48252 18.424C2.67732 17.2541 3.49771 16.2946 4.6229 15.9192L7.55493 14.9416L8.34126 18.0865L9.14142 17.1264L9.56474 17.7615L8.91787 22.2903ZM11.6551 22.2903H9.63464L10.3056 17.5933L9.61513 16.5575L10.4561 15.5484H10.8333L11.6743 16.5575L10.9837 17.5933L11.6551 22.2903ZM16.9983 22.2903L16.6754 19.0613L15.9692 19.1319L16.285 22.29H12.3719L11.725 17.7612L12.1483 17.126L12.9485 18.0862L13.7348 14.9413L16.6668 15.9188C17.792 16.2939 18.6121 17.2537 18.8072 18.4236L19.4516 22.2903H16.9983Z" stroke="#4F4F4F" stroke-width="0.2"/>
<path d="M6.18881 10.5608C6.36977 11.1835 6.70403 11.7545 7.17526 12.2257L8.55913 13.6095C8.8941 13.9445 9.33942 14.129 9.81348 14.129H11.4766C11.9503 14.129 12.396 13.9445 12.731 13.6095L14.1148 12.2257C14.5861 11.7545 14.9203 11.1832 15.1013 10.5608C15.9852 10.4607 16.6771 9.71697 16.6771 8.80645C16.6771 8.22416 16.3911 7.71071 15.9565 7.3871H15.9675V5.25806C15.9675 4.3699 15.311 3.63184 14.458 3.50374C13.9239 2.01768 12.495 1 10.9004 1H10.6449C7.71 1 5.32229 3.38771 5.32229 6.32258V7.3871H5.33329C4.89861 7.71071 4.61261 8.22416 4.61261 8.80645C4.61261 9.71697 5.30455 10.4607 6.18881 10.5608ZM14.5481 9.46539C14.5481 10.3188 14.216 11.1207 13.6127 11.7239L12.2289 13.1078C12.0309 13.3058 11.7566 13.4194 11.4763 13.4194H9.81313C9.53281 13.4194 9.25887 13.3058 9.06052 13.1078L7.67664 11.7239C7.07342 11.1207 6.74129 10.3188 6.74129 9.46574V7.74194H8.13545C9.6971 7.74194 11.1736 7.18732 12.3403 6.17142L12.4489 6.35239C12.9016 7.10713 13.6851 7.60887 14.5481 7.71816V9.46539ZM15.9675 8.80645C15.9675 9.27448 15.6616 9.66871 15.2411 9.81065C15.251 9.69674 15.2578 9.58177 15.2578 9.46574V7.80723C15.6697 7.95413 15.9675 8.34445 15.9675 8.80645ZM6.03197 6.32258C6.03197 3.7791 8.10139 1.70968 10.6449 1.70968H10.9004C12.2636 1.70968 13.4775 2.62516 13.8523 3.93629L13.9257 4.19355H14.1933C14.7802 4.19355 15.2578 4.67116 15.2578 5.25806V7.0681C15.1432 7.04468 15.0243 7.03226 14.9029 7.03226C14.1514 7.03226 13.4442 6.632 13.0574 5.98726L12.4893 5.04055L12.1678 5.36203C11.0909 6.43897 9.65913 7.03226 8.13581 7.03226H6.38681C6.26545 7.03226 6.14658 7.04468 6.03197 7.0681V6.32258ZM6.03197 7.80723V9.46574C6.03197 9.58177 6.03871 9.69674 6.04865 9.811C5.62816 9.66871 5.32229 9.27448 5.32229 8.80645C5.32229 8.34445 5.62 7.95413 6.03197 7.80723Z" stroke="#4F4F4F" stroke-width="0.2"/>
</svg>
