<svg width="181" height="53" viewBox="0 0 181 53" fill="none" xmlns="http://www.w3.org/2000/svg">
<path d="M179.771 46.673C179.771 49.4442 177.48 51.6889 174.646 51.6889H6.90391C4.07098 51.6889 1.77148 49.4442 1.77148 46.673V6.67349C1.77148 3.90366 4.07098 1.65112 6.90391 1.65112H174.644C177.48 1.65112 179.77 3.90366 179.77 6.67349L179.771 46.673Z" fill="black"/>
<path d="M174.105 1.71155C177.191 1.71155 179.703 4.16042 179.703 7.16993V46.1699C179.703 49.1794 177.191 51.6283 174.105 51.6283H7.43815C4.35148 51.6283 1.83982 49.1794 1.83982 46.1699V7.16993C1.83982 4.16042 4.35148 1.71155 7.43815 1.71155H174.105ZM174.105 0.669925H7.43815C3.77315 0.669925 0.771484 3.59655 0.771484 7.16993V46.1699C0.771484 49.7433 3.77315 52.6699 7.43815 52.6699H174.105C177.77 52.6699 180.771 49.7433 180.771 46.1699V7.16993C180.771 3.59655 177.77 0.669925 174.105 0.669925Z" fill="#A6A6A6"/>
<path d="M40.9419 26.389C40.9033 22.1992 44.4606 20.1608 44.6233 20.0659C42.6086 17.202 39.4859 16.8107 38.3886 16.7795C35.7659 16.5104 33.2219 18.3096 31.8859 18.3096C30.5233 18.3096 28.4659 16.8055 26.2486 16.8497C23.3953 16.8926 20.7259 18.5033 19.2619 21.0045C16.2406 26.1043 18.4939 33.5988 21.3886 37.7211C22.8366 39.74 24.5286 41.9942 26.7433 41.9149C28.9099 41.8278 29.7193 40.5681 32.3339 40.5681C34.9246 40.5681 35.6846 41.9149 37.9433 41.8642C40.2686 41.8278 41.7326 39.8362 43.1299 37.7991C44.8033 35.4851 45.4753 33.2063 45.5019 33.0893C45.4473 33.0711 40.9859 31.4109 40.9419 26.389Z" fill="white"/>
<path d="M36.6753 14.0677C37.8406 12.6468 38.6379 10.7137 38.4166 8.75195C36.7299 8.82475 34.6206 9.88945 33.4059 11.2792C32.3313 12.5038 31.3713 14.511 31.6193 16.3986C33.5139 16.5364 35.4593 15.4665 36.6753 14.0677Z" fill="white"/>
<path d="M72.2984 41.6251H69.2704L67.6117 36.5434H61.8464L60.2664 41.6251H57.3184L63.0304 24.3247H66.5584L72.2984 41.6251ZM67.1117 34.4114L65.6117 29.8939C65.453 29.4324 65.1557 28.3456 64.717 26.6348H64.6637C64.489 27.3706 64.2077 28.4574 63.821 29.8939L62.3477 34.4114H67.1117Z" fill="white"/>
<path d="M86.9874 35.2344C86.9874 37.356 86.3993 39.033 85.2233 40.2641C84.17 41.36 82.862 41.9073 81.3007 41.9073C79.6153 41.9073 78.4047 41.3171 77.6673 40.1367H77.614V46.7082H74.7713V33.2571C74.7713 31.9233 74.7353 30.5544 74.666 29.1504H77.166L77.3247 31.1277H77.378C78.326 29.6379 79.7647 28.8943 81.6953 28.8943C83.2047 28.8943 84.4647 29.4754 85.4727 30.6389C86.4833 31.8037 86.9874 33.3351 86.9874 35.2344ZM84.0913 35.3358C84.0913 34.1216 83.8113 33.1206 83.2487 32.3328C82.634 31.5112 81.8087 31.1004 80.774 31.1004C80.0727 31.1004 79.4353 31.3292 78.866 31.7803C78.2953 32.2353 77.922 32.8294 77.7473 33.5652C77.6593 33.9084 77.6153 34.1892 77.6153 34.4102V36.4902C77.6153 37.3976 77.9007 38.1633 78.4713 38.7886C79.042 39.4139 79.7833 39.7259 80.6953 39.7259C81.766 39.7259 82.5993 39.3229 83.1953 38.5195C83.7927 37.7148 84.0913 36.654 84.0913 35.3358Z" fill="white"/>
<path d="M101.704 35.2344C101.704 37.356 101.116 39.033 99.9385 40.2641C98.8865 41.36 97.5785 41.9073 96.0171 41.9073C94.3318 41.9073 93.1211 41.3171 92.3851 40.1367H92.3318V46.7082H89.4891V33.2571C89.4891 31.9233 89.4531 30.5544 89.3838 29.1504H91.8838L92.0425 31.1277H92.0958C93.0425 29.6379 94.4811 28.8943 96.4131 28.8943C97.9211 28.8943 99.1811 29.4754 100.192 30.6389C101.198 31.8037 101.704 33.3351 101.704 35.2344ZM98.8078 35.3358C98.8078 34.1216 98.5265 33.1206 97.9638 32.3328C97.3491 31.5112 96.5265 31.1004 95.4905 31.1004C94.7878 31.1004 94.1518 31.3292 93.5811 31.7803C93.0105 32.2353 92.6385 32.8294 92.4638 33.5652C92.3771 33.9084 92.3318 34.1892 92.3318 34.4102V36.4902C92.3318 37.3976 92.6171 38.1633 93.1851 38.7886C93.7558 39.4126 94.4971 39.7259 95.4118 39.7259C96.4825 39.7259 97.3158 39.3229 97.9118 38.5195C98.5091 37.7148 98.8078 36.654 98.8078 35.3358Z" fill="white"/>
<path d="M118.157 36.7736C118.157 38.2452 117.633 39.4425 116.581 40.3668C115.425 41.3769 113.816 41.8813 111.748 41.8813C109.839 41.8813 108.308 41.5225 107.149 40.8036L107.808 38.4935C109.056 39.2293 110.425 39.5985 111.917 39.5985C112.988 39.5985 113.821 39.3619 114.42 38.8913C115.016 38.4207 115.313 37.7889 115.313 37.0011C115.313 36.2991 115.068 35.7076 114.576 35.2279C114.087 34.7482 113.269 34.3023 112.128 33.8902C109.021 32.7605 107.469 31.1056 107.469 28.9294C107.469 27.5072 108.013 26.3411 109.103 25.4337C110.188 24.525 111.636 24.0713 113.447 24.0713C115.061 24.0713 116.403 24.3456 117.473 24.8929L116.763 27.1523C115.763 26.6219 114.632 26.3567 113.367 26.3567C112.367 26.3567 111.585 26.5972 111.025 27.0756C110.552 27.5033 110.315 28.0246 110.315 28.6421C110.315 29.3259 110.585 29.8914 111.129 30.336C111.603 30.7468 112.463 31.1914 113.711 31.6711C115.237 32.2704 116.359 32.9711 117.08 33.7745C117.799 34.5753 118.157 35.5776 118.157 36.7736Z" fill="white"/>
<path d="M127.556 31.2303H124.422V37.287C124.422 38.8275 124.974 39.5971 126.081 39.5971C126.589 39.5971 127.01 39.5542 127.344 39.4684L127.422 41.5731C126.862 41.7772 126.125 41.8799 125.212 41.8799C124.089 41.8799 123.212 41.5458 122.578 40.8789C121.948 40.2107 121.63 39.0901 121.63 37.5158V31.2277H119.764V29.1477H121.63V26.8636L124.422 26.042V29.1477H127.556V31.2303Z" fill="white"/>
<path d="M141.693 35.285C141.693 37.2025 141.13 38.7768 140.008 40.0079C138.83 41.2754 137.268 41.9072 135.32 41.9072C133.442 41.9072 131.948 41.3001 130.833 40.0859C129.718 38.8717 129.161 37.339 129.161 35.4917C129.161 33.5586 129.734 31.9752 130.885 30.7441C132.033 29.5117 133.582 28.8955 135.53 28.8955C137.408 28.8955 138.918 29.5026 140.058 30.7181C141.149 31.8972 141.693 33.4195 141.693 35.285ZM138.744 35.3747C138.744 34.2242 138.492 33.2375 137.981 32.4146C137.385 31.4188 136.533 30.9222 135.429 30.9222C134.286 30.9222 133.418 31.4201 132.822 32.4146C132.312 33.2388 132.06 34.2411 132.06 35.4267C132.06 36.5772 132.312 37.5639 132.822 38.3855C133.437 39.3813 134.296 39.8779 135.404 39.8779C136.489 39.8779 137.341 39.3709 137.956 38.3595C138.48 37.521 138.744 36.5239 138.744 35.3747Z" fill="white"/>
<path d="M150.933 31.5879C150.652 31.5372 150.352 31.5112 150.037 31.5112C149.037 31.5112 148.264 31.8791 147.72 32.6162C147.247 33.2662 147.009 34.0878 147.009 35.0797V41.6252H144.168L144.195 33.079C144.195 31.6412 144.159 30.3321 144.088 29.1517H146.564L146.668 31.5385H146.747C147.047 30.7182 147.52 30.0578 148.168 29.5625C148.801 29.1166 149.485 28.8943 150.223 28.8943C150.485 28.8943 150.723 28.9125 150.933 28.945V31.5879Z" fill="white"/>
<path d="M163.646 34.7975C163.646 35.2941 163.613 35.7127 163.542 36.0546H155.014C155.047 37.287 155.459 38.2295 156.251 38.8795C156.97 39.4606 157.899 39.7518 159.041 39.7518C160.303 39.7518 161.455 39.5555 162.491 39.1616L162.937 41.0856C161.726 41.6004 160.297 41.8565 158.647 41.8565C156.663 41.8565 155.106 41.2871 153.973 40.1496C152.842 39.0121 152.275 37.4846 152.275 35.5684C152.275 33.6873 152.802 32.1208 153.857 30.8715C154.961 29.5377 156.453 28.8708 158.33 28.8708C160.174 28.8708 161.57 29.5377 162.518 30.8715C163.269 31.931 163.646 33.2414 163.646 34.7975ZM160.935 34.0786C160.954 33.257 160.769 32.5472 160.383 31.9479C159.891 31.177 159.135 30.7922 158.118 30.7922C157.189 30.7922 156.433 31.1679 155.855 31.9219C155.382 32.5212 155.101 33.2401 155.014 34.0773H160.935V34.0786Z" fill="white"/>
<path d="M66.1712 13.6815C66.1712 15.2116 65.7005 16.3634 64.7605 17.1369C63.8899 17.8506 62.6525 18.2081 61.0499 18.2081C60.2552 18.2081 59.5752 18.1743 59.0059 18.1067V9.74638C59.7485 9.62938 60.5485 9.56958 61.4125 9.56958C62.9392 9.56958 64.0899 9.89328 64.8659 10.5407C65.7352 11.2726 66.1712 12.3191 66.1712 13.6815ZM64.6979 13.7192C64.6979 12.7273 64.4285 11.9668 63.8899 11.4364C63.3512 10.9073 62.5645 10.6421 61.5285 10.6421C61.0885 10.6421 60.7139 10.6707 60.4032 10.7305V17.0862C60.5752 17.1122 60.8899 17.1239 61.3472 17.1239C62.4165 17.1239 63.2419 16.834 63.8232 16.2542C64.4045 15.6744 64.6979 14.8294 64.6979 13.7192Z" fill="white"/>
<path d="M73.9832 15.0178C73.9832 15.9603 73.7072 16.7325 73.1552 17.3383C72.5765 17.961 71.8098 18.2717 70.8525 18.2717C69.9298 18.2717 69.1952 17.974 68.6472 17.376C68.1005 16.7793 67.8271 16.0266 67.8271 15.1192C67.8271 14.1702 68.1085 13.3915 68.6738 12.787C69.2391 12.1825 69.9992 11.8796 70.9565 11.8796C71.8792 11.8796 72.6205 12.1773 73.1818 12.774C73.7152 13.3538 73.9832 14.1026 73.9832 15.0178ZM72.5338 15.062C72.5338 14.4965 72.4085 14.0116 72.1592 13.6073C71.8658 13.1185 71.4485 12.8741 70.9058 12.8741C70.3445 12.8741 69.9178 13.1185 69.6245 13.6073C69.3738 14.0116 69.2498 14.5043 69.2498 15.0867C69.2498 15.6522 69.3751 16.1371 69.6245 16.5414C69.9271 17.0302 70.3485 17.2746 70.8925 17.2746C71.4258 17.2746 71.8445 17.0263 72.1458 16.5284C72.4045 16.1163 72.5338 15.6275 72.5338 15.062Z" fill="white"/>
<path d="M84.4582 12.0046L82.4916 18.1328H81.2116L80.3969 15.4717C80.1902 14.8074 80.0222 14.147 79.8916 13.4918H79.8662C79.7449 14.1652 79.5769 14.8243 79.3609 15.4717L78.4956 18.1328H77.2009L75.3516 12.0046H76.7876L77.4982 14.9179C77.6702 15.6069 77.8116 16.2634 77.9249 16.8848H77.9502C78.0542 16.3726 78.2262 15.72 78.4689 14.9309L79.3609 12.0059H80.4996L81.3542 14.8685C81.5609 15.5666 81.7289 16.2387 81.8582 16.8861H81.8969C81.9916 16.2556 82.1342 15.5835 82.3236 14.8685L83.0862 12.0059H84.4582V12.0046Z" fill="white"/>
<path d="M91.7017 18.1326H90.3044V14.6226C90.3044 13.541 89.883 13.0002 89.0377 13.0002C88.623 13.0002 88.2884 13.1484 88.0284 13.4461C87.771 13.7438 87.6404 14.0948 87.6404 14.4965V18.1313H86.243V13.7555C86.243 13.2173 86.2257 12.6336 86.1924 12.0018H87.4204L87.4857 12.9599H87.5244C87.687 12.6622 87.9297 12.4165 88.2484 12.2202C88.627 11.9914 89.051 11.8757 89.515 11.8757C90.1017 11.8757 90.5897 12.0603 90.9777 12.4308C91.4604 12.8845 91.7017 13.5618 91.7017 14.4614V18.1326Z" fill="white"/>
<path d="M95.5552 18.1327H94.1592V9.19263H95.5552V18.1327Z" fill="white"/>
<path d="M103.782 15.0178C103.782 15.9603 103.506 16.7325 102.954 17.3383C102.375 17.961 101.607 18.2717 100.651 18.2717C99.7273 18.2717 98.9926 17.974 98.446 17.376C97.8993 16.7793 97.626 16.0266 97.626 15.1192C97.626 14.1702 97.9073 13.3915 98.4726 12.787C99.038 12.1825 99.798 11.8796 100.754 11.8796C101.678 11.8796 102.418 12.1773 102.981 12.774C103.514 13.3538 103.782 14.1026 103.782 15.0178ZM102.331 15.062C102.331 14.4965 102.206 14.0116 101.957 13.6073C101.665 13.1185 101.246 12.8741 100.705 12.8741C100.142 12.8741 99.7153 13.1185 99.4233 13.6073C99.1726 14.0116 99.0486 14.5043 99.0486 15.0867C99.0486 15.6522 99.174 16.1371 99.4233 16.5414C99.726 17.0302 100.147 17.2746 100.691 17.2746C101.225 17.2746 101.642 17.0263 101.943 16.5284C102.203 16.1163 102.331 15.6275 102.331 15.062Z" fill="white"/>
<path d="M110.545 18.1326H109.29L109.186 17.4267H109.147C108.718 17.9896 108.106 18.2717 107.311 18.2717C106.718 18.2717 106.238 18.0858 105.877 17.7166C105.549 17.3812 105.385 16.9639 105.385 16.4686C105.385 15.7198 105.705 15.1491 106.349 14.7539C106.991 14.3587 107.895 14.165 109.059 14.1741V14.0597C109.059 13.2524 108.625 12.8494 107.754 12.8494C107.134 12.8494 106.587 13.0015 106.115 13.3031L105.831 12.4087C106.415 12.0564 107.137 11.8796 107.987 11.8796C109.63 11.8796 110.454 12.7246 110.454 14.4146V16.6714C110.454 17.2837 110.485 17.7712 110.545 18.1326ZM109.094 16.0266V15.0815C107.553 15.0555 106.782 15.4676 106.782 16.3165C106.782 16.6363 106.87 16.8755 107.05 17.0354C107.23 17.1953 107.459 17.2746 107.733 17.2746C108.039 17.2746 108.326 17.1797 108.587 16.9912C108.85 16.8014 109.011 16.5609 109.071 16.2658C109.086 16.1995 109.094 16.1189 109.094 16.0266Z" fill="white"/>
<path d="M118.484 18.1327H117.244L117.179 17.1486H117.14C116.744 17.8974 116.07 18.2718 115.122 18.2718C114.364 18.2718 113.734 17.9819 113.234 17.4021C112.734 16.8223 112.484 16.0696 112.484 15.1453C112.484 14.1534 112.755 13.35 113.299 12.7364C113.826 12.1644 114.471 11.8784 115.239 11.8784C116.083 11.8784 116.674 12.1553 117.01 12.7104H117.036V9.19263H118.435V16.4817C118.435 17.0784 118.451 17.6283 118.484 18.1327ZM117.036 15.5483V14.5265C117.036 14.3497 117.023 14.2067 116.998 14.0975C116.919 13.7699 116.75 13.4943 116.492 13.272C116.232 13.0497 115.919 12.9379 115.558 12.9379C115.036 12.9379 114.628 13.1394 114.328 13.5437C114.031 13.948 113.88 14.4641 113.88 15.0946C113.88 15.7004 114.023 16.1918 114.31 16.5701C114.612 16.9731 115.02 17.1746 115.531 17.1746C115.99 17.1746 116.356 17.0069 116.635 16.6702C116.904 16.3595 117.036 15.9851 117.036 15.5483Z" fill="white"/>
<path d="M130.435 15.0178C130.435 15.9603 130.159 16.7325 129.607 17.3383C129.029 17.961 128.263 18.2717 127.305 18.2717C126.383 18.2717 125.649 17.974 125.099 17.376C124.553 16.7793 124.279 16.0266 124.279 15.1192C124.279 14.1702 124.561 13.3915 125.126 12.787C125.691 12.1825 126.451 11.8796 127.41 11.8796C128.331 11.8796 129.074 12.1773 129.634 12.774C130.167 13.3538 130.435 14.1026 130.435 15.0178ZM128.987 15.062C128.987 14.4965 128.862 14.0116 128.613 13.6073C128.318 13.1185 127.902 12.8741 127.358 12.8741C126.798 12.8741 126.371 13.1185 126.077 13.6073C125.826 14.0116 125.702 14.5043 125.702 15.0867C125.702 15.6522 125.827 16.1371 126.077 16.5414C126.379 17.0302 126.801 17.2746 127.345 17.2746C127.878 17.2746 128.298 17.0263 128.599 16.5284C128.857 16.1163 128.987 15.6275 128.987 15.062Z" fill="white"/>
<path d="M137.948 18.1326H136.552V14.6226C136.552 13.541 136.131 13.0002 135.284 13.0002C134.87 13.0002 134.535 13.1484 134.276 13.4461C134.018 13.7438 133.888 14.0948 133.888 14.4965V18.1313H132.49V13.7555C132.49 13.2173 132.474 12.6336 132.44 12.0018H133.667L133.732 12.9599H133.771C133.935 12.6622 134.178 12.4165 134.495 12.2202C134.875 11.9914 135.298 11.8757 135.763 11.8757C136.348 11.8757 136.836 12.0603 137.224 12.4308C137.708 12.8845 137.948 13.5618 137.948 14.4614V18.1326Z" fill="white"/>
<path d="M147.352 13.025H145.814V16.002C145.814 16.7586 146.087 17.1369 146.628 17.1369C146.879 17.1369 147.087 17.1161 147.251 17.0732L147.287 18.1067C147.011 18.2081 146.648 18.2588 146.202 18.2588C145.65 18.2588 145.22 18.095 144.91 17.7674C144.598 17.4398 144.443 16.8886 144.443 16.1151V13.025H143.524V12.0045H144.443V10.8813L145.812 10.4783V12.0032H147.351V13.025H147.352Z" fill="white"/>
<path d="M154.75 18.1327H153.351V14.6487C153.351 13.5502 152.93 13.0003 152.086 13.0003C151.438 13.0003 150.995 13.3188 150.752 13.9558C150.711 14.0897 150.687 14.2535 150.687 14.4459V18.1314H149.291V9.19263H150.687V12.8859H150.714C151.154 12.2138 151.784 11.8784 152.602 11.8784C153.18 11.8784 153.659 12.063 154.039 12.4335C154.512 12.895 154.75 13.5814 154.75 14.4888V18.1327Z" fill="white"/>
<path d="M162.381 14.7786C162.381 15.023 162.362 15.2284 162.329 15.3961H158.138C158.157 16.0019 158.357 16.4634 158.745 16.7832C159.1 17.0692 159.557 17.2122 160.117 17.2122C160.737 17.2122 161.302 17.116 161.812 16.9223L162.03 17.8687C161.434 18.1209 160.733 18.247 159.921 18.247C158.948 18.247 158.181 17.9675 157.626 17.4085C157.069 16.8495 156.793 16.0994 156.793 15.1582C156.793 14.2339 157.05 13.4643 157.569 12.8507C158.11 12.1955 158.842 11.8679 159.766 11.8679C160.67 11.8679 161.357 12.1955 161.821 12.8507C162.196 13.3707 162.381 14.0142 162.381 14.7786ZM161.048 14.4263C161.058 14.022 160.966 13.6736 160.777 13.3798C160.534 13.0015 160.165 12.8117 159.665 12.8117C159.209 12.8117 158.837 12.9963 158.553 13.3668C158.321 13.6619 158.184 14.0142 158.138 14.4263H161.048Z" fill="white"/>
</svg>
