<svg width="75" height="76" viewBox="0 0 75 76" fill="none" xmlns="http://www.w3.org/2000/svg">
<g clip-path="url(#clip0)">
<path d="M37.5 62.9509C37.1715 62.9509 36.9047 62.6841 36.9047 62.3557V12.8963C36.9047 12.5678 37.1715 12.301 37.5 12.301C37.8284 12.301 38.0952 12.5678 38.0952 12.8963V62.3557C38.0952 62.6841 37.8284 62.9509 37.5 62.9509Z" fill="#219653"/>
<path d="M62.2297 38.2212H12.7703C12.4419 38.2212 12.175 37.9544 12.175 37.626C12.175 37.2976 12.4419 37.0308 12.7703 37.0308H62.2297C62.5581 37.0308 62.8249 37.2976 62.8249 37.626C62.8249 37.9544 62.5581 38.2212 62.2297 38.2212Z" fill="#219653"/>
<path d="M20.0137 55.7075C19.8614 55.7075 19.7091 55.6493 19.5928 55.5331C19.3603 55.3006 19.3603 54.9239 19.5928 54.6914L54.5654 19.7188C54.7973 19.4863 55.1752 19.4863 55.4071 19.7188C55.6396 19.9513 55.6396 20.328 55.4071 20.5605L20.4345 55.5331C20.3183 55.6493 20.166 55.7075 20.0137 55.7075Z" fill="#219653"/>
<path d="M54.9863 55.7075C54.834 55.7075 54.6817 55.6493 54.5654 55.5331L19.5928 20.5605C19.3603 20.328 19.3603 19.9513 19.5928 19.7188C19.8248 19.4863 20.2026 19.4863 20.4345 19.7188L55.4071 54.6914C55.6396 54.9239 55.6396 55.3006 55.4071 55.5331C55.2909 55.6493 55.1386 55.7075 54.9863 55.7075Z" fill="#219653"/>
<path d="M9.48228 29.7458C5.13007 28.936 0.945596 31.8088 0.13646 36.161C-0.672677 40.5132 2.19946 44.6976 6.55226 45.5068C10.9045 46.3159 15.0884 43.4438 15.8975 39.091C16.7072 34.7388 13.8345 30.5549 9.48228 29.7458Z" fill="#F2C94C"/>
<path d="M8.0152 29.6099C7.69509 29.6099 7.38029 29.6305 7.07022 29.6672C11.0515 30.1355 14.1404 33.5185 14.1404 37.625C14.1404 41.7316 11.0509 45.1146 7.07022 45.5829C7.38029 45.6195 7.69509 45.6402 8.0152 45.6402C12.4418 45.6402 16.0304 42.0517 16.0304 37.625C16.0304 33.1984 12.4418 29.6099 8.0152 29.6099Z" fill="#DEA42E"/>
<path d="M8.01521 45.6402C8.33532 45.6402 8.65011 45.6195 8.96018 45.5829C4.97947 45.1146 1.89057 41.7316 1.89057 37.625C1.89057 33.5185 4.97947 30.1349 8.96018 29.6672C8.65011 29.6311 8.33532 29.6099 8.01521 29.6099C3.58858 29.6099 3.05176e-05 33.1984 3.05176e-05 37.625C3.05176e-05 42.0517 3.58858 45.6402 8.01521 45.6402Z" fill="#FFDC72"/>
<path d="M8.23549 33.0935C8.48709 33.0935 8.68671 33.2931 8.68671 33.5447V33.7757C9.30567 33.8489 9.83013 34.0485 10.3127 34.3527C10.4804 34.4466 10.6275 34.6043 10.6275 34.8559C10.6275 35.1813 10.3652 35.4329 10.0398 35.4329C9.93467 35.4329 9.83013 35.4016 9.72501 35.3384C9.35765 35.1181 9.00092 34.961 8.64478 34.8772V36.8911C10.2388 37.2898 10.9204 37.9294 10.9204 39.0522C10.9204 40.2056 10.0185 40.9717 8.68612 41.0975V41.7265C8.68612 41.9787 8.48709 42.1777 8.23489 42.1777C7.98329 42.1777 7.77363 41.9787 7.77363 41.7265V41.0762C6.98693 40.9923 6.26344 40.7088 5.62321 40.2576C5.44485 40.1424 5.33972 39.9747 5.33972 39.7544C5.33972 39.4296 5.59191 39.1774 5.91675 39.1774C6.04255 39.1774 6.16894 39.2193 6.26344 39.2931C6.75601 39.6493 7.23853 39.8908 7.81556 39.996V37.9294C6.28411 37.5308 5.57065 36.9537 5.57065 35.7684C5.57065 34.6456 6.46247 33.8696 7.77363 33.7644V33.5441C7.77363 33.2931 7.98329 33.0935 8.23549 33.0935ZM7.81556 36.6708V34.814C7.14463 34.8766 6.80857 35.2339 6.80857 35.6951C6.80857 36.1357 7.0082 36.4086 7.81556 36.6708ZM8.64478 38.1285V40.0379C9.31571 39.9647 9.68307 39.6292 9.68307 39.1254C9.68307 38.6636 9.45214 38.3807 8.64478 38.1285Z" fill="#F2F2F2"/>
<path d="M68.5209 29.7648C64.1769 28.9138 59.9659 31.7451 59.1142 36.0891C58.2631 40.433 61.0945 44.6447 65.4385 45.4957C69.7824 46.3468 73.9941 43.5154 74.8451 39.1715C75.6962 34.8275 72.8648 30.6165 68.5209 29.7648Z" fill="#F2C94C"/>
<path d="M66.9782 29.6099C66.6581 29.6099 66.3433 29.6305 66.0333 29.6672C70.014 30.1355 73.1029 33.5185 73.1029 37.625C73.1029 41.7316 70.014 45.1146 66.0333 45.5829C66.3433 45.6195 66.6581 45.6402 66.9782 45.6402C71.4049 45.6402 74.9934 42.0517 74.9934 37.625C74.9934 33.1984 71.4049 29.6099 66.9782 29.6099Z" fill="#DEA42E"/>
<path d="M66.9782 45.6402C67.2983 45.6402 67.6131 45.6195 67.9232 45.5829C63.9419 45.1146 60.853 41.7316 60.853 37.625C60.853 33.5185 63.9425 30.1349 67.9232 29.6672C67.6131 29.6311 67.2983 29.6099 66.9782 29.6099C62.5516 29.6099 58.963 33.1984 58.963 37.625C58.963 42.0517 62.5516 45.6402 66.9782 45.6402Z" fill="#FFDC72"/>
<path d="M67.1985 33.0935C67.4501 33.0935 67.6497 33.2931 67.6497 33.5447V33.7757C68.2687 33.8489 68.7926 34.0485 69.2757 34.3527C69.4434 34.4466 69.5905 34.6043 69.5905 34.8559C69.5905 35.1813 69.3283 35.4329 69.0028 35.4329C68.8977 35.4329 68.7926 35.4016 68.688 35.3384C68.3207 35.1181 67.9645 34.961 67.6072 34.8772V36.8911C69.2019 37.2898 69.884 37.9294 69.884 39.0522C69.884 40.2056 68.9816 40.9717 67.6497 41.0975V41.7265C67.6497 41.9787 67.4501 42.1777 67.1985 42.1777C66.9463 42.1777 66.7367 41.9787 66.7367 41.7265V41.0762C65.95 40.9923 65.2265 40.7088 64.5868 40.2576C64.4079 40.1424 64.3033 39.9747 64.3033 39.7544C64.3033 39.4296 64.5549 39.1774 64.8804 39.1774C65.0062 39.1774 65.132 39.2193 65.2265 39.2931C65.719 39.6493 66.2022 39.8908 66.7792 39.996V37.9294C65.2471 37.5308 64.5337 36.9537 64.5337 35.7684C64.5337 34.6456 65.4255 33.8696 66.7367 33.7644V33.5441C66.7367 33.2931 66.9469 33.0935 67.1985 33.0935ZM66.7792 36.6708V34.814C66.1077 34.8766 65.7722 35.2339 65.7722 35.6951C65.7722 36.1357 65.9712 36.4086 66.7792 36.6708ZM67.6072 38.1285V40.0379C68.2787 39.9647 68.6461 39.6292 68.6461 39.1254C68.6461 38.6636 68.4152 38.3807 67.6072 38.1285Z" fill="#F2F2F2"/>
<path d="M59.732 8.20857C55.3414 7.64336 51.3241 10.7447 50.7589 15.1347C50.1937 19.5253 53.2944 23.5426 57.685 24.1078C62.0756 24.673 66.0929 21.5723 66.6581 17.1817C67.2233 12.7917 64.1226 8.77437 59.732 8.20857Z" fill="#F2C94C"/>
<path d="M58.7115 8.14355C58.3913 8.14355 58.0766 8.16423 57.7665 8.20084C61.7472 8.6692 64.8361 12.0522 64.8361 16.1587C64.8361 20.2658 61.7472 23.6483 57.7665 24.1166C58.0766 24.1532 58.3913 24.1739 58.7115 24.1739C63.1381 24.1739 66.7266 20.5854 66.7266 16.1587C66.7266 11.7321 63.1381 8.14355 58.7115 8.14355Z" fill="#DEA42E"/>
<path d="M58.7114 24.1739C59.0315 24.1739 59.3463 24.1526 59.6564 24.116C55.6751 23.6483 52.5862 20.2652 52.5862 16.1587C52.5862 12.0522 55.6757 8.66861 59.6564 8.20084C59.3463 8.16423 59.0315 8.14355 58.7114 8.14355C54.2848 8.14355 50.6963 11.7315 50.6963 16.1587C50.6963 20.5854 54.2848 24.1739 58.7114 24.1739Z" fill="#FFDC72"/>
<path d="M58.9317 11.6272C59.1833 11.6272 59.383 11.8268 59.383 12.0784V12.3094C60.0019 12.3826 60.5258 12.5822 61.0089 12.8864C61.1767 12.9809 61.3237 13.138 61.3237 13.3896C61.3237 13.715 61.0615 13.9666 60.7361 13.9666C60.6309 13.9666 60.5258 13.9353 60.4213 13.8721C60.0539 13.6518 59.6978 13.4947 59.3404 13.4108V15.4248C60.9351 15.8235 61.6167 16.4631 61.6167 17.5859C61.6167 18.7399 60.7148 19.5054 59.3824 19.6312V20.2602C59.3824 20.5123 59.1833 20.7114 58.9312 20.7114C58.6796 20.7114 58.4699 20.5123 58.4699 20.2602V19.6105C57.6832 19.526 56.9591 19.2431 56.3195 18.7919C56.1411 18.6767 56.036 18.509 56.036 18.2887C56.036 17.9633 56.2882 17.7117 56.613 17.7117C56.7388 17.7117 56.8652 17.7536 56.9591 17.8268C57.4523 18.1836 57.9348 18.4251 58.5118 18.5297V16.4631C56.9804 16.0645 56.2669 15.488 56.2669 14.3021C56.2669 13.1799 57.1587 12.4039 58.4699 12.2987V12.0784C58.4699 11.8268 58.6801 11.6272 58.9317 11.6272ZM58.5118 15.2045V13.3476C57.8409 13.4108 57.5054 13.767 57.5054 14.2288C57.5054 14.6694 57.7045 14.9423 58.5118 15.2045ZM59.3404 16.6622V18.5716C60.012 18.4978 60.3793 18.1623 60.3793 17.6591C60.3793 17.1972 60.1484 16.9143 59.3404 16.6622Z" fill="#F2F2F2"/>
<path d="M18.104 8.35204C13.7932 7.34623 9.48288 10.0258 8.47707 14.3373C7.47126 18.6482 10.1509 22.9584 14.4623 23.9642C18.7732 24.9701 23.0835 22.2905 24.0893 17.979C25.0951 13.6681 22.4155 9.35785 18.104 8.35204Z" fill="#F2C94C"/>
<path d="M16.282 8.14355C15.9618 8.14355 15.647 8.16423 15.337 8.20084C19.3183 8.6692 22.4072 12.0522 22.4072 16.1587C22.4072 20.2658 19.3177 23.6483 15.337 24.1166C15.647 24.1532 15.9618 24.1739 16.282 24.1739C20.7086 24.1739 24.2971 20.5854 24.2971 16.1587C24.2971 11.7321 20.7086 8.14355 16.282 8.14355Z" fill="#DEA42E"/>
<path d="M16.282 24.1739C16.6021 24.1739 16.9169 24.1526 17.2269 24.116C13.2462 23.6483 10.1573 20.2652 10.1573 16.1587C10.1573 12.0522 13.2462 8.66861 17.2269 8.20084C16.9169 8.16423 16.6021 8.14355 16.282 8.14355C11.8553 8.14355 8.26678 11.7315 8.26678 16.1587C8.26678 20.5854 11.8553 24.1739 16.282 24.1739Z" fill="#FFDC72"/>
<path d="M16.5023 11.6272C16.7539 11.6272 16.9535 11.8268 16.9535 12.0784V12.3094C17.5725 12.3826 18.0969 12.5822 18.5794 12.8864C18.7472 12.9809 18.8942 13.138 18.8942 13.3896C18.8942 13.715 18.632 13.9666 18.3066 13.9666C18.2015 13.9666 18.0969 13.9353 17.9918 13.8721C17.6244 13.6518 17.2677 13.4947 16.9116 13.4108V15.4248C18.5056 15.8235 19.1872 16.4631 19.1872 17.5859C19.1872 18.7399 18.2853 19.5054 16.9529 19.6312V20.2602C16.9529 20.5123 16.7539 20.7114 16.5017 20.7114C16.2501 20.7114 16.0404 20.5123 16.0404 20.2602V19.6105C15.2537 19.526 14.5302 19.2431 13.89 18.7919C13.7116 18.6767 13.6065 18.509 13.6065 18.2887C13.6065 17.9633 13.8587 17.7117 14.1835 17.7117C14.3093 17.7117 14.4357 17.7536 14.5302 17.8268C15.0228 18.1836 15.5053 18.4251 16.0823 18.5297V16.4631C14.5509 16.0645 13.8374 15.488 13.8374 14.3021C13.8374 13.1799 14.7293 12.4039 16.0404 12.2987V12.0784C16.041 11.8268 16.2501 11.6272 16.5023 11.6272ZM16.0829 15.2045V13.3476C15.4114 13.4108 15.0759 13.767 15.0759 14.2288C15.0754 14.6694 15.275 14.9423 16.0829 15.2045ZM16.9116 16.6622V18.5716C17.5825 18.4978 17.9499 18.1623 17.9499 17.6591C17.9499 17.1972 17.7189 16.9143 16.9116 16.6622Z" fill="#F2F2F2"/>
<path d="M59.732 51.1401C55.3414 50.5743 51.3241 53.6756 50.7589 58.0656C50.1937 62.4562 53.2944 66.4735 57.685 67.0387C62.075 67.604 66.0923 64.5033 66.6581 60.1127C67.2233 55.7226 64.122 51.7053 59.732 51.1401Z" fill="#F2C94C"/>
<path d="M58.7115 51.0762C58.3913 51.0762 58.0766 51.0974 57.7665 51.1335C61.7472 51.6018 64.8361 54.9848 64.8361 59.0913C64.8361 63.1979 61.7472 66.5815 57.7665 67.0492C58.0766 67.0858 58.3913 67.1065 58.7115 67.1065C63.1381 67.1065 66.7266 63.518 66.7266 59.0913C66.7266 54.6647 63.1381 51.0762 58.7115 51.0762Z" fill="#DEA42E"/>
<path d="M58.7114 67.1065C59.0315 67.1065 59.3463 67.0858 59.6564 67.0492C55.6751 66.5815 52.5862 63.1979 52.5862 59.0913C52.5862 54.9842 55.6757 51.6012 59.6564 51.1335C59.3463 51.0974 59.0315 51.0762 58.7114 51.0762C54.2848 51.0762 50.6963 54.6647 50.6963 59.0913C50.6963 63.5186 54.2848 67.1065 58.7114 67.1065Z" fill="#FFDC72"/>
<path d="M58.9317 54.5605C59.1833 54.5605 59.383 54.7596 59.383 55.0112V55.2421C60.0019 55.3159 60.5258 55.515 61.0089 55.8191C61.1767 55.9136 61.3237 56.0707 61.3237 56.3223C61.3237 56.6478 61.0615 56.8994 60.7361 56.8994C60.6309 56.8994 60.5258 56.8681 60.4213 56.8055C60.0539 56.5846 59.6978 56.4275 59.3404 56.3436V58.3576C60.9351 58.7562 61.6167 59.3959 61.6167 60.5186C61.6167 61.6727 60.7148 62.4381 59.3824 62.5639V63.1935C59.3824 63.4451 59.1833 63.6447 58.9312 63.6447C58.6796 63.6447 58.4699 63.4451 58.4699 63.1935V62.5432C57.6832 62.4588 56.9591 62.1759 56.3195 61.7247C56.1411 61.6095 56.036 61.4418 56.036 61.2215C56.036 60.896 56.2882 60.6444 56.613 60.6444C56.7388 60.6444 56.8652 60.6864 56.9591 60.7596C57.4523 61.1163 57.9348 61.3573 58.5118 61.4624V59.3959C56.9804 58.9972 56.2669 58.4202 56.2669 57.2348C56.2669 56.1127 57.1587 55.336 58.4699 55.2315V55.0106C58.4699 54.7596 58.6801 54.5605 58.9317 54.5605ZM58.5118 58.1373V56.2804C57.8409 56.3436 57.5054 56.7003 57.5054 57.1616C57.5054 57.6022 57.7045 57.8751 58.5118 58.1373ZM59.3404 59.5955V61.5049C60.012 61.4311 60.3793 61.0957 60.3793 60.5919C60.3793 60.1306 60.1484 59.8471 59.3404 59.5955Z" fill="#F2F2F2"/>
<path d="M18.1064 51.2866C13.7955 50.2808 9.48523 52.9604 8.47942 57.2713C7.47361 61.5827 10.1532 65.893 14.4641 66.8982C18.7755 67.904 23.0858 65.2244 24.0916 60.9136C25.0968 56.6021 22.4178 52.2924 18.1064 51.2866Z" fill="#F2C94C"/>
<path d="M16.282 51.0762C15.9618 51.0762 15.647 51.0974 15.337 51.1335C19.3183 51.6018 22.4072 54.9848 22.4072 59.0913C22.4072 63.1979 19.3177 66.5815 15.337 67.0492C15.647 67.0858 15.9618 67.1065 16.282 67.1065C20.7086 67.1065 24.2971 63.518 24.2971 59.0913C24.2971 54.6647 20.7086 51.0762 16.282 51.0762Z" fill="#DEA42E"/>
<path d="M16.282 67.1065C16.6021 67.1065 16.9169 67.0858 17.2269 67.0492C13.2462 66.5815 10.1573 63.1979 10.1573 59.0913C10.1573 54.9842 13.2462 51.6012 17.2269 51.1335C16.9169 51.0974 16.6021 51.0762 16.282 51.0762C11.8553 51.0762 8.26678 54.6647 8.26678 59.0913C8.26678 63.5186 11.8553 67.1065 16.282 67.1065Z" fill="#FFDC72"/>
<path d="M16.5023 54.5605C16.7539 54.5605 16.9535 54.7596 16.9535 55.0112V55.2421C17.5725 55.3159 18.0969 55.515 18.5794 55.8191C18.7472 55.9136 18.8942 56.0707 18.8942 56.3223C18.8942 56.6478 18.632 56.8994 18.3066 56.8994C18.2015 56.8994 18.0969 56.8681 17.9918 56.8055C17.6244 56.5846 17.2677 56.4275 16.9116 56.3436V58.3576C18.5056 58.7562 19.1872 59.3959 19.1872 60.5186C19.1872 61.6727 18.2853 62.4381 16.9529 62.5639V63.1935C16.9529 63.4451 16.7539 63.6447 16.5017 63.6447C16.2501 63.6447 16.0404 63.4451 16.0404 63.1935V62.5432C15.2537 62.4588 14.5302 62.1759 13.89 61.7247C13.7116 61.6095 13.6065 61.4418 13.6065 61.2215C13.6065 60.896 13.8587 60.6444 14.1835 60.6444C14.3093 60.6444 14.4357 60.6864 14.5302 60.7596C15.0228 61.1163 15.5053 61.3573 16.0823 61.4624V59.3959C14.5509 58.9972 13.8374 58.4202 13.8374 57.2348C13.8374 56.1127 14.7293 55.336 16.0404 55.2315V55.0106C16.041 54.7596 16.2501 54.5605 16.5023 54.5605ZM16.0829 58.1373V56.2804C15.4114 56.3436 15.0759 56.7003 15.0759 57.1616C15.0754 57.6022 15.275 57.8751 16.0829 58.1373ZM16.9116 59.5955V61.5049C17.5825 61.4311 17.9499 61.0957 17.9499 60.5919C17.9499 60.1306 17.7189 59.8471 16.9116 59.5955Z" fill="#F2F2F2"/>
<path d="M40.5165 0.71802C36.4159 -0.948683 31.74 1.02396 30.0727 5.12516C28.4054 9.22577 30.3787 13.9016 34.4793 15.5689C38.5805 17.2356 43.2563 15.263 44.9236 11.1618C46.5903 7.06118 44.6177 2.38531 40.5165 0.71802Z" fill="#F2C94C"/>
<path d="M37.4967 0.128418C37.1766 0.128418 36.8618 0.149089 36.5517 0.185707C40.5324 0.654061 43.6219 4.03708 43.6219 8.1436C43.6219 12.2507 40.5324 15.6337 36.5517 16.1015C36.8618 16.1381 37.1766 16.1588 37.4967 16.1588C41.9233 16.1588 45.5119 12.5702 45.5119 8.1436C45.5119 3.71697 41.9233 0.128418 37.4967 0.128418Z" fill="#DEA42E"/>
<path d="M37.4967 16.1588C37.8168 16.1588 38.1316 16.1375 38.4417 16.1009C34.461 15.6331 31.3715 12.2501 31.3715 8.1436C31.3715 4.03708 34.461 0.653471 38.4417 0.185707C38.1316 0.149089 37.8168 0.128418 37.4967 0.128418C33.0701 0.128418 29.4815 3.71697 29.4815 8.1436C29.4815 12.5702 33.0701 16.1588 37.4967 16.1588Z" fill="#FFDC72"/>
<path d="M37.717 3.61182C37.9686 3.61182 38.1682 3.81144 38.1682 4.06304V4.29397C38.7872 4.36721 39.3116 4.56683 39.7942 4.871C39.9619 4.96491 40.109 5.1226 40.109 5.3742C40.109 5.69963 39.8467 5.95123 39.5213 5.95123C39.4162 5.95123 39.3116 5.91992 39.2065 5.85673C38.8391 5.63643 38.4824 5.47933 38.1257 5.39546V7.40944C39.7203 7.8081 40.4019 8.44774 40.4019 9.57049C40.4019 10.7239 39.5 11.49 38.1676 11.6158V12.2448C38.1676 12.497 37.9686 12.696 37.7164 12.696C37.4648 12.696 37.2551 12.497 37.2551 12.2448V11.5945C36.4684 11.5106 35.7444 11.2271 35.1047 10.7765C34.9264 10.6608 34.8212 10.493 34.8212 10.2727C34.8212 9.94789 35.0734 9.6957 35.3983 9.6957C35.5241 9.6957 35.6504 9.73763 35.7444 9.81146C36.2375 10.1676 36.72 10.4092 37.2971 10.5143V8.44774C35.7656 8.04907 35.0522 7.47205 35.0522 6.28669C35.0522 5.16394 35.944 4.38788 37.2551 4.28275V4.06245C37.2551 3.81144 37.4654 3.61182 37.717 3.61182ZM37.2977 7.18914V5.33227C36.6261 5.39546 36.2907 5.75219 36.2907 6.21346C36.2907 6.65405 36.4897 6.92691 37.2977 7.18914ZM38.1257 8.64736V10.5562C38.7972 10.483 39.1646 10.1475 39.1646 9.64372C39.1646 9.18187 38.9336 8.89896 38.1257 8.64736Z" fill="#F2F2F2"/>
<path d="M40.5171 59.6829C36.4165 58.0162 31.7406 59.9888 30.0733 64.09C28.406 68.1906 30.3793 72.8665 34.4799 74.5338C38.5811 76.2011 43.2569 74.2278 44.9236 70.1272C46.5909 66.026 44.6177 61.3502 40.5171 59.6829Z" fill="#F2C94C"/>
<path d="M37.4967 59.0916C37.1766 59.0916 36.8618 59.1128 36.5517 59.1494C40.5324 59.6172 43.6219 63.0002 43.6219 67.1067C43.6219 71.2132 40.5324 74.5969 36.5517 75.0646C36.8618 75.1012 37.1766 75.1225 37.4967 75.1225C41.9233 75.1225 45.5119 71.534 45.5119 67.1067C45.5119 62.6801 41.9233 59.0916 37.4967 59.0916Z" fill="#DEA42E"/>
<path d="M37.4967 75.1219C37.8168 75.1219 38.1316 75.1012 38.4417 75.0646C34.461 74.5963 31.3715 71.2133 31.3715 67.1067C31.3715 62.9996 34.461 59.6172 38.4417 59.1488C38.1316 59.1122 37.8168 59.0916 37.4967 59.0916C33.0701 59.0916 29.4815 62.6801 29.4815 67.1067C29.4815 71.5334 33.0701 75.1219 37.4967 75.1219Z" fill="#FFDC72"/>
<path d="M37.717 62.5754C37.9686 62.5754 38.1682 62.7745 38.1682 63.0267V63.257C38.7872 63.3308 39.3116 63.5299 39.7942 63.834C39.9619 63.9285 40.109 64.0862 40.109 64.3378C40.109 64.6627 39.8467 64.9143 39.5213 64.9143C39.4162 64.9143 39.3116 64.883 39.2065 64.8203C38.8391 64.5995 38.4824 64.4424 38.1257 64.3585V66.3725C39.7203 66.7711 40.4019 67.4114 40.4019 68.5335C40.4019 69.6876 39.5 70.453 38.1676 70.5788V71.2084C38.1676 71.46 37.9686 71.6596 37.7164 71.6596C37.4648 71.6596 37.2551 71.46 37.2551 71.2084V70.5581C36.4684 70.4743 35.7444 70.1908 35.1047 69.7395C34.9264 69.6244 34.8212 69.4566 34.8212 69.2363C34.8212 68.9115 35.0734 68.6593 35.3983 68.6593C35.5241 68.6593 35.6504 68.7013 35.7444 68.7751C36.2375 69.1312 36.72 69.3728 37.2971 69.4779V67.4114C35.7656 67.0127 35.0522 66.4357 35.0522 65.2503C35.0522 64.1276 35.944 63.3515 37.2551 63.2464V63.0261C37.2551 62.7745 37.4654 62.5754 37.717 62.5754ZM37.2977 66.1522V64.2953C36.6261 64.3585 36.2907 64.7152 36.2907 65.1765C36.2907 65.6171 36.4897 65.8899 37.2977 66.1522ZM38.1257 67.6098V69.5192C38.7972 69.446 39.1646 69.11 39.1646 68.6068C39.1646 68.1455 38.9336 67.862 38.1257 67.6098Z" fill="#F2F2F2"/>
<path d="M40.813 23.4222C32.9691 21.5907 25.1252 26.4644 23.2937 34.3083C21.4622 42.1522 26.3359 49.9961 34.1798 51.8282C42.0237 53.6596 49.8676 48.7859 51.6997 40.9414C53.5312 33.0975 48.6575 25.2536 40.813 23.4222Z" fill="#F2C94C"/>
<path d="M37.4967 23.04C36.9144 23.04 36.3415 23.0784 35.7769 23.1446C43.0207 23.9962 48.6421 30.1522 48.6421 37.6252C48.6421 45.0982 43.0213 51.2541 35.7769 52.1058C36.3415 52.1719 36.9144 52.2097 37.4967 52.2097C45.5515 52.2097 52.0818 45.6799 52.0818 37.6246C52.0818 29.5698 45.552 23.04 37.4967 23.04Z" fill="#DEA42E"/>
<path d="M37.4967 52.2103C38.0791 52.2103 38.652 52.1719 39.2166 52.1058C31.9721 51.2541 26.3513 45.0982 26.3513 37.6252C26.3513 30.1522 31.9721 23.9962 39.2166 23.1446C38.652 23.0784 38.0791 23.04 37.4967 23.04C29.4414 23.04 22.9116 29.5698 22.9116 37.6252C22.9116 45.6805 29.4414 52.2103 37.4967 52.2103Z" fill="#FFDC72"/>
<path d="M37.8971 29.3789C38.3554 29.3789 38.7181 29.7421 38.7181 30.1999V30.6198C39.8444 30.7533 40.7988 31.1159 41.6764 31.6699C41.9818 31.8412 42.2493 32.1276 42.2493 32.5859C42.2493 33.1777 41.7721 33.636 41.1803 33.636C40.9895 33.636 40.7988 33.5787 40.6074 33.4642C39.9394 33.0631 39.291 32.7767 38.6419 32.6243V36.289C41.543 37.0143 42.7838 38.1784 42.7838 40.2213C42.7838 42.3204 41.1425 43.7142 38.7181 43.9434V45.0886C38.7181 45.5463 38.3554 45.9095 37.8971 45.9095C37.4394 45.9095 37.0579 45.5463 37.0579 45.0886V43.905C35.6262 43.7526 34.3092 43.237 33.1445 42.416C32.8202 42.2064 32.6295 41.901 32.6295 41.5C32.6295 40.9082 33.0878 40.4499 33.6796 40.4499C33.9081 40.4499 34.1373 40.5267 34.3092 40.6596C35.2063 41.3086 36.0839 41.7481 37.134 41.9388V38.1784C34.3475 37.4531 33.0494 36.4036 33.0494 34.2461C33.0494 32.2038 34.6718 30.7916 37.0579 30.6003V30.1993C37.0579 29.7421 37.4394 29.3789 37.8971 29.3789ZM37.134 35.888V32.5091C35.9121 32.6243 35.3014 33.2728 35.3014 34.1126C35.3014 34.9147 35.664 35.4108 37.134 35.888ZM38.6419 38.541V42.0156C39.8633 41.8815 40.5312 41.2708 40.5312 40.3548C40.5312 39.5144 40.1113 38.9994 38.6419 38.541Z" fill="#F2F2F2"/>
<path d="M27.3695 30.973C27.2425 30.973 27.115 30.9334 27.0057 30.8513C26.7387 30.6499 26.6856 30.2708 26.887 30.0044C27.5845 29.0795 28.386 28.2302 29.2683 27.4801C29.5229 27.2634 29.9044 27.2947 30.1206 27.5492C30.3367 27.8038 30.306 28.1853 30.0515 28.4015C29.2364 29.0943 28.4964 29.8786 27.852 30.7326C27.7339 30.8903 27.5526 30.973 27.3695 30.973Z" fill="#219653"/>
</g>
<defs>
<clipPath id="clip0">
<rect width="75" height="75" fill="white" transform="translate(0 0.125977)"/>
</clipPath>
</defs>
</svg>
