<svg width="75" height="75" viewBox="0 0 75 75" fill="none" xmlns="http://www.w3.org/2000/svg">
<g clip-path="url(#clip0)">
<path d="M34.057 61.5665C30.462 61.0622 27.0953 59.7838 24.0508 57.7664C9.84736 48.3565 9.51484 27.5169 23.3701 17.7001L24.4451 20.1826C25.2243 21.9817 27.7885 21.9346 28.5061 20.1161L33.3502 7.84101C33.7955 6.71235 33.2416 5.43647 32.1125 4.99116L19.8618 0.158494C18.0468 -0.557522 16.2621 1.28232 17.0383 3.0747L18.0541 5.42109C-5.22354 19.5211 -6.35249 53.4368 16.7677 68.7543C21.4674 71.8682 26.661 73.8442 32.2045 74.6281C33.4084 74.7979 34.5175 73.9603 34.688 72.7622L35.9274 64.0516C36.0984 62.8493 35.2605 61.7354 34.057 61.5665Z" fill="#219653"/>
<path d="M42.7619 0.371701C41.5598 0.202219 40.4492 1.03718 40.2784 2.23762L39.039 10.9482C38.868 12.1504 39.7059 13.2644 40.9093 13.4331C58.4351 15.8917 67.6597 35.9835 57.7535 50.9296C56.0854 53.4469 54.0204 55.5818 51.5962 57.2993L50.5212 54.8169C49.742 53.0178 47.1778 53.0649 46.4602 54.8834L41.6162 67.1586C41.1709 68.2873 41.7248 69.5632 42.8539 70.0085L55.1048 74.8411C56.9259 75.5594 58.7014 73.7103 57.9281 71.9249L56.9123 69.5785C61.6198 66.7271 65.6838 62.829 68.7444 58.2109C83.8313 35.448 70.2516 4.25852 42.7619 0.371701Z" fill="#F2C94C"/>
<path d="M49.4808 41.0026C48.3901 37.419 47.5333 33.7684 46.6988 30.1166C46.448 29.0193 45.0631 28.6622 44.313 29.5016L42.1783 31.8903L38.8577 19.8856C38.5604 18.8105 37.0891 18.6793 36.606 19.6846L27.2196 39.2231C24.9493 43.867 25.9082 49.4429 29.5993 53.0617C34.2655 57.6361 41.734 57.6361 46.3999 53.0617C49.6298 49.8953 50.7677 45.2305 49.4808 41.0026Z" fill="#EB5757"/>
<path d="M42.6451 48.5584L38.7164 39.7431C38.44 39.1227 37.5595 39.1227 37.283 39.7431L33.3543 48.5582C31.3762 52.0756 33.9076 56.4923 37.9998 56.4923C42.0855 56.4924 44.6266 52.0818 42.6451 48.5584Z" fill="#F2C94C"/>
</g>
<defs>
<clipPath id="clip0">
<rect width="75" height="75" fill="white"/>
</clipPath>
</defs>
</svg>
