<svg width="125" height="124" viewBox="0 0 125 124" fill="none" xmlns="http://www.w3.org/2000/svg">
<g clip-path="url(#clip0)">
<path d="M87.5953 94.6953L80.3297 101.961V116.734L87.5953 124H124.166V94.6953H87.5953Z" fill="#219653"/>
<path d="M0.165588 87.4297V124H36.7359L44.0015 116.734V94.6953L36.7359 87.4297H0.165588Z" fill="#219653"/>
<path d="M36.7359 72.8984H87.5953V124H36.7359V72.8984Z" fill="#FDBF00"/>
<path d="M62.1656 72.8984H87.5953V124H62.1656V72.8984Z" fill="#FF9100"/>
<path d="M76.6968 36.5703H74.7953V29.3047H76.6968C82.7061 29.3047 87.5953 24.1733 87.5953 18.1641V14.5312H76.6968V7.26562H94.8609V18.1641C94.8609 28.1789 86.7117 36.5703 76.6968 36.5703Z" fill="#FF9100"/>
<path d="M49.5359 36.5703H47.6343C37.6195 36.5703 29.4703 28.1789 29.4703 18.1641V7.26562H47.6343V14.5312H36.7359V18.1641C36.7359 24.1733 41.6251 29.3047 47.6343 29.3047H49.5359V36.5703Z" fill="#FDBF00"/>
<path d="M44.1656 0V25.6719C44.1656 28.5053 44.8193 31.1939 46.0548 33.6641C47.508 36.6432 49.8333 39.4766 52.1578 42.1643C55.3545 46.0156 58.6968 49.9389 58.6968 53.2812V62H65.9625V53.2812C65.9625 49.9389 69.3048 46.0156 72.5015 42.1643C74.826 39.4766 77.1513 36.6432 78.6045 33.7369C79.84 31.1939 80.4937 28.5053 80.4937 25.6719V0H44.1656Z" fill="#FFDA2D"/>
<path d="M65.9625 62H62.3297V0H80.4937V25.6719C80.4937 28.5053 79.84 31.1939 78.6045 33.7369C77.1513 36.6432 74.826 39.4766 72.5015 42.1643C69.3048 46.0156 65.9625 49.9389 65.9625 53.2812V62Z" fill="#FDBF00"/>
<path d="M57.267 19.9163C57.267 22.3585 59.0967 24.372 61.4624 24.6591V25.6314C58.5646 25.3405 56.3023 22.8944 56.3023 19.9201C56.3023 16.9457 58.5646 14.4997 61.4624 14.2087V15.181C59.0967 15.4605 57.267 17.474 57.267 19.9163Z" fill="white"/>
<path d="M68.3298 24.6554C68.0657 25.0037 67.7748 25.3291 67.4609 25.6277H61.4624V24.6554H68.3298Z" fill="white"/>
<path d="M62.4501 17.0912C62.3161 17.0721 62.1821 17.0645 62.0443 17.0645C61.8491 17.0645 61.6577 17.0836 61.4701 17.1219C60.8155 17.2559 60.2413 17.6157 59.8317 18.1133L60.6088 18.7411C60.9495 18.3277 61.4624 18.0636 62.0405 18.0636C62.5994 18.0636 63.1046 18.3124 63.4415 18.7067L64.054 17.8951C63.6291 17.4702 63.074 17.1831 62.4501 17.0912ZM63.4606 21.1068C63.12 21.5126 62.6108 21.769 62.0405 21.769C61.4586 21.769 60.9418 21.5011 60.6011 21.0838L59.8738 21.7767C60.2758 22.2475 60.8347 22.5844 61.4663 22.7146C61.65 22.7528 61.8414 22.772 62.0405 22.772C62.1783 22.772 62.3123 22.7605 62.4462 22.7452C63.1391 22.6457 63.7477 22.3011 64.188 21.7997L63.4606 21.1068ZM60.1915 19.9163C60.1915 19.7747 60.2069 19.6369 60.2375 19.5067L59.3456 18.9938C59.246 19.2847 59.1924 19.5948 59.1924 19.9163C59.1924 20.2991 59.269 20.6628 59.403 20.9958L60.3102 20.5632C60.2337 20.3642 60.1915 20.146 60.1915 19.9163Z" fill="white"/>
<path d="M62.4501 16.092H61.4701V17.5161H62.4501V16.092Z" fill="white"/>
<path d="M62.4501 22.4313H61.4701V23.8553H62.4501V22.4313Z" fill="white"/>
<path d="M69.995 19.9163C69.995 21.1183 69.7271 22.259 69.2448 23.2811H67.9356C68.506 22.2896 68.8313 21.1412 68.8313 19.9163C68.8313 16.1878 65.8072 13.1637 62.0788 13.1637C58.3503 13.1637 55.3262 16.1878 55.3262 19.9163C55.3262 23.6447 58.3503 26.6688 62.0788 26.6688C62.3161 26.6688 62.5496 26.6574 62.7831 26.6306H66.2628C65.0493 27.3885 63.6138 27.8249 62.0788 27.8249C57.711 27.8249 54.1663 24.284 54.1663 19.9124C54.1663 15.5409 57.7072 12 62.0788 12C66.4542 12.0038 69.995 15.5485 69.995 19.9163Z" fill="white"/>
<path d="M115.036 73.9485L101.399 66.7822L87.7693 73.9485L90.3729 58.7683L79.3467 48.0183L94.5847 45.8046L101.399 31.9933L108.214 45.8046L123.701 48.0183L112.425 58.7683L115.036 73.9485Z" fill="#219653"/>
<path d="M36.5618 73.9485L22.9322 66.7822L9.29492 73.9485L11.906 58.7683L0.630096 48.0184L16.1169 45.8046L22.9322 31.9943L29.7475 45.8046L44.9845 48.0184L33.9583 58.7683L36.5618 73.9485Z" fill="#219653"/>
<path d="M73.064 101.961V109.227H51.2672V101.961H58.5328V94.6953H51.2672V87.4297H65.7984V101.961H73.064Z" fill="#F2F2F2"/>
<path d="M51.2672 58.3672H73.064V65.6328H51.2672V58.3672Z" fill="#FDBF00"/>
<path d="M62.1656 58.3672H73.064V65.6328H62.1656V58.3672Z" fill="#FF9100"/>
<path d="M65.7984 101.961H73.064V109.227H62.1656V87.4297H65.7984V101.961Z" fill="#E0E0E0"/>
</g>
<defs>
<clipPath id="clip0">
<rect width="124" height="124" fill="white" transform="translate(0.165588)"/>
</clipPath>
</defs>
</svg>
