<svg width="160" height="118" viewBox="0 0 160 118" fill="none" xmlns="http://www.w3.org/2000/svg">
<g clip-path="url(#clip0)">
<path d="M83.9279 7.73839H35.2322C33.9195 7.73839 32.8557 6.67456 32.8557 5.36187C32.8557 4.04918 33.9198 2.98535 35.2322 2.98535H83.9279C85.2406 2.98535 86.3047 4.04918 86.3047 5.36187C86.3047 6.67456 85.2409 7.73839 83.9279 7.73839Z" fill="#07A079"/>
<path d="M37.3833 25.159H12.3179C11.0052 25.159 9.94135 24.0952 9.94135 22.7825C9.94135 21.4698 11.0055 20.406 12.3179 20.406H37.3833C38.696 20.406 39.7598 21.4698 39.7598 22.7825C39.7598 24.0952 38.696 25.159 37.3833 25.159Z" fill="#07A079"/>
<path d="M36.524 41.3541H26.6226C25.3099 41.3541 24.2461 40.2903 24.2461 38.9776C24.2461 37.6649 25.3102 36.6011 26.6226 36.6011H36.5243C37.837 36.6011 38.9008 37.6649 38.9008 38.9776C38.9008 40.2903 37.8367 41.3541 36.524 41.3541Z" fill="#07A079"/>
<path d="M26.6226 53.0826H2.37653C1.06384 53.0826 7.62939e-06 52.0188 7.62939e-06 50.7061C7.62939e-06 49.3934 1.06415 48.3296 2.37653 48.3296H26.6223C27.935 48.3296 28.9988 49.3934 28.9988 50.7061C28.9988 52.0188 27.935 53.0826 26.6226 53.0826Z" fill="#07A079"/>
<path d="M87.0969 115.014H35.2322C33.9195 115.014 32.8557 113.951 32.8557 112.638C32.8557 111.325 33.9198 110.261 35.2322 110.261H87.0969C88.4096 110.261 89.4734 111.325 89.4734 112.638C89.4734 113.95 88.4096 115.014 87.0969 115.014Z" fill="#07A079"/>
<path d="M37.3833 97.5934H12.3179C11.0052 97.5934 9.94135 96.5296 9.94135 95.2169C9.94135 93.9042 11.0055 92.8401 12.3179 92.8401H37.3833C38.696 92.8401 39.7598 93.9039 39.7598 95.2169C39.7598 96.5299 38.696 97.5934 37.3833 97.5934Z" fill="#07A079"/>
<path d="M36.524 81.3984H26.6226C25.3099 81.3984 24.2461 80.3345 24.2461 79.0215C24.2461 77.7085 25.3102 76.645 26.6226 76.645H36.5243C37.837 76.645 38.9008 77.7089 38.9008 79.0215C38.9008 80.3342 37.8367 81.3984 36.524 81.3984Z" fill="#07A079"/>
<path d="M26.6226 69.6704H2.37653C1.06384 69.6704 7.62939e-06 68.6065 7.62939e-06 67.2938C7.62939e-06 65.9811 1.06415 64.917 2.37653 64.917H26.6223C27.935 64.917 28.9988 65.9808 28.9988 67.2938C28.9988 68.6068 27.935 69.6704 26.6226 69.6704Z" fill="#07A079"/>
<path d="M101.255 117.615C133.628 117.615 159.871 91.3722 159.871 58.9998C159.871 26.6273 133.628 0.384277 101.255 0.384277C68.8827 0.384277 42.6397 26.6273 42.6397 58.9998C42.6397 91.3722 68.8827 117.615 101.255 117.615Z" fill="#219653"/>
<path d="M101.255 0.384277C99.7714 0.384277 98.301 0.440482 96.845 0.548832C127.157 2.80389 151.05 28.111 151.05 58.9998C151.05 89.8886 127.157 115.196 96.845 117.451C98.301 117.559 99.7714 117.615 101.255 117.615C133.628 117.615 159.871 91.3724 159.871 58.9998C159.871 26.6272 133.628 0.384277 101.255 0.384277Z" fill="#117259"/>
<path d="M101.255 104.009C126.113 104.009 146.264 83.8575 146.264 58.9999C146.264 34.1423 126.113 13.9912 101.255 13.9912C76.3976 13.9912 56.2465 34.1423 56.2465 58.9999C56.2465 83.8575 76.3976 104.009 101.255 104.009Z" fill="#F4FBFF"/>
<path d="M101.255 13.9907C99.8856 13.9907 98.5317 14.0554 97.1934 14.1753C120.147 16.2289 138.14 35.5115 138.14 58.9997C138.14 82.4879 120.147 101.77 97.1934 103.824C98.5317 103.943 99.8856 104.008 101.255 104.008C126.113 104.008 146.264 83.8571 146.264 58.9994C146.264 34.1419 126.113 13.9907 101.255 13.9907Z" fill="#DAF1F4"/>
<path d="M101.255 30.4257C99.9428 30.4257 98.8786 29.3619 98.8786 28.0492V24.4212C98.8786 23.1085 99.9424 22.0447 101.255 22.0447C102.568 22.0447 103.632 23.1085 103.632 24.4212V28.0489C103.632 29.3616 102.568 30.4257 101.255 30.4257Z" fill="#31B482"/>
<path d="M123.141 39.4906C122.533 39.4906 121.924 39.2586 121.46 38.7946C120.532 37.8663 120.532 36.3616 121.46 35.4332L124.025 32.8681C124.953 31.9404 126.458 31.9404 127.386 32.8681C128.314 33.7964 128.314 35.3012 127.386 36.2295L124.821 38.7946C124.357 39.2586 123.749 39.4906 123.141 39.4906Z" fill="#31B482"/>
<path d="M135.833 61.3762H132.206C130.893 61.3762 129.829 60.3123 129.829 58.9993C129.829 57.6863 130.893 56.6228 132.206 56.6228H135.833C137.146 56.6228 138.21 57.6866 138.21 58.9993C138.21 60.312 137.146 61.3762 135.833 61.3762Z" fill="#31B482"/>
<path d="M125.706 85.8265C125.098 85.8265 124.489 85.5946 124.025 85.1306L121.46 82.5654C120.532 81.6371 120.532 80.1324 121.46 79.2041C122.388 78.2764 123.893 78.2764 124.821 79.2041L127.386 81.7692C128.314 82.6975 128.314 84.2022 127.386 85.1306C126.922 85.5946 126.314 85.8265 125.706 85.8265Z" fill="#31B482"/>
<path d="M101.255 95.9542C99.9428 95.9542 98.8786 94.8904 98.8786 93.5774V89.95C98.8786 88.6373 99.9424 87.5735 101.255 87.5735C102.568 87.5735 103.632 88.6373 103.632 89.95V93.5774C103.632 94.8904 102.568 95.9542 101.255 95.9542Z" fill="#31B482"/>
<path d="M76.8049 85.8265C76.1966 85.8265 75.5884 85.5946 75.1244 85.1306C74.1961 84.2022 74.1961 82.6975 75.1244 81.7692L77.6895 79.2041C78.6175 78.2764 80.1225 78.2764 81.0505 79.2041C81.9788 80.1324 81.9788 81.6371 81.0505 82.5654L78.4854 85.1306C78.0214 85.5946 77.4131 85.8265 76.8049 85.8265Z" fill="#31B482"/>
<path d="M70.3048 61.3762H66.6771C65.3644 61.3762 64.3006 60.3123 64.3006 58.9993C64.3006 57.6863 65.3647 56.6228 66.6771 56.6228H70.3048C71.6175 56.6228 72.6813 57.6866 72.6813 58.9993C72.6813 60.312 71.6172 61.3762 70.3048 61.3762Z" fill="#31B482"/>
<path d="M79.37 39.4906C78.7617 39.4906 78.1535 39.2586 77.6895 38.7946L75.1244 36.2295C74.1961 35.3012 74.1961 33.7964 75.1244 32.8681C76.0524 31.9404 77.5574 31.9404 78.4854 32.8681L81.0505 35.4332C81.9788 36.3616 81.9788 37.8663 81.0505 38.7946C80.5865 39.2586 79.9783 39.4906 79.37 39.4906Z" fill="#31B482"/>
<path d="M111.659 61.3762H101.255C99.9428 61.3762 98.8786 60.3124 98.8786 58.9994V38.9771C98.8786 37.6644 99.9425 36.6006 101.255 36.6006C102.568 36.6006 103.632 37.6644 103.632 38.9771V56.6225H111.659C112.972 56.6225 114.036 57.6864 114.036 58.9991C114.036 60.3117 112.972 61.3762 111.659 61.3762Z" fill="#2B4D66"/>
</g>
<defs>
<clipPath id="clip0">
<rect width="159.871" height="118" fill="white"/>
</clipPath>
</defs>
</svg>
