<svg width="75" height="76" viewBox="0 0 75 76" fill="none" xmlns="http://www.w3.org/2000/svg">
<g clip-path="url(#clip0)">
<path d="M36.6288 52.7351C36.2623 52.7351 35.9027 52.5574 35.6849 52.2292C34.9951 51.19 33.5098 50.7176 32.385 50.504C31.062 50.2529 29.9413 50.2966 29.9298 50.297C29.3048 50.3249 28.7776 49.8384 28.7515 49.2139C28.7253 48.5893 29.2101 48.0618 29.8346 48.0356C30.0647 48.0265 35.4845 47.8351 37.5706 50.9773C37.9163 51.4981 37.7744 52.2005 37.2537 52.5462C37.0613 52.674 36.8439 52.7351 36.6288 52.7351Z" fill="#219653"/>
<path d="M38.3711 52.7351C38.1561 52.7351 37.9387 52.6739 37.7462 52.5461C37.2254 52.2004 37.0835 51.4979 37.4291 50.9773C39.5151 47.8348 44.9358 48.0261 45.1652 48.0355C45.7898 48.0617 46.2745 48.5893 46.2483 49.2138C46.2221 49.8382 45.6934 50.3237 45.0706 50.2969C43.8562 50.2499 40.4597 50.5044 39.315 52.2289C39.0972 52.5574 38.7376 52.7351 38.3711 52.7351Z" fill="#219653"/>
<path d="M35.1187 32.28H39.8812V64.1878H35.1187V32.28Z" fill="#219653"/>
<path d="M35.1187 37.6162C35.8976 37.7213 36.6922 37.7769 37.5 37.7769C38.3077 37.7769 39.1024 37.7213 39.8812 37.6162V32.28H35.1187V37.6162Z" fill="#27AE60"/>
<path d="M39.8812 55.0206C39.1472 54.7177 38.3434 54.5491 37.5 54.5491C36.6564 54.5491 35.8527 54.7175 35.1187 55.0206V64.1877H39.8812V55.0206Z" fill="#27AE60"/>
<path d="M61.0923 75.1259C61.835 75.1259 62.4435 74.5183 62.4444 73.7756C62.4444 70.9501 60.1538 68.6595 57.3283 68.6595C57.2014 68.6595 57.0757 68.6647 56.9512 68.6742C56.7948 68.6862 56.6531 68.5836 56.6133 68.4317C56.1013 66.4791 54.3252 65.0384 52.2121 65.0384C51.3184 65.0384 50.4855 65.2968 49.7826 65.742C49.6046 65.8548 49.3668 65.7665 49.3015 65.5661C48.7075 63.7441 46.9958 62.4272 44.9755 62.4272C44.6475 62.4272 44.3279 62.4625 44.0197 62.5287C43.8406 62.5672 43.6646 62.4543 43.629 62.2746C43.0605 59.4082 40.5332 57.2471 37.5 57.2471C34.4667 57.2471 31.9393 59.4083 31.3709 62.2746C31.3353 62.4543 31.1594 62.5672 30.9803 62.5287C30.6721 62.4625 30.3524 62.4272 30.0245 62.4272C28.0043 62.4272 26.2925 63.7441 25.6985 65.5661C25.6331 65.7663 25.3954 65.8546 25.2174 65.742C24.5144 65.2967 23.6815 65.0383 22.7878 65.0383C20.6746 65.0383 18.8985 66.479 18.3867 68.4316C18.3469 68.5834 18.2052 68.6859 18.0488 68.674C17.9243 68.6645 17.7986 68.6594 17.6717 68.6594C14.8462 68.6594 12.5556 70.95 12.5556 73.7755V73.7896C12.5566 74.5246 13.1587 75.1259 13.8936 75.1259H61.0923Z" fill="#C17D4F"/>
<path d="M57.3283 68.6595C57.2014 68.6595 57.0757 68.6647 56.9512 68.6742C56.7948 68.6862 56.6531 68.5836 56.6133 68.4317C56.1013 66.4791 54.3252 65.0384 52.2122 65.0384C51.3185 65.0384 50.4855 65.2968 49.7826 65.742C49.6046 65.8548 49.3668 65.7665 49.3015 65.5661C48.7075 63.7441 46.9958 62.4272 44.9755 62.4272C44.6476 62.4272 44.3279 62.4625 44.0197 62.5287C43.8406 62.5672 43.6646 62.4543 43.6291 62.2746C43.0605 59.4082 40.5333 57.2471 37.5 57.2471C34.5763 57.2471 32.1239 59.2555 31.4414 61.9674C32.5731 60.8279 34.1401 60.1212 35.8733 60.1212C38.3874 60.1212 40.5539 61.606 41.5456 63.7463C41.9502 64.6196 42.7879 65.2328 43.7467 65.3172C45.0127 65.4287 46.1741 66.071 46.945 67.0627C47.5778 67.8766 48.6182 68.2309 49.6261 68.0141C49.9354 67.9476 50.2562 67.9126 50.5853 67.9126C52.3116 67.9126 53.8129 68.8741 54.5839 70.2906C54.9642 70.9895 55.6613 71.4729 56.4485 71.588C58.3859 71.871 60.0022 73.2502 60.5867 75.1259H61.1045C61.8431 75.1259 62.4423 74.5283 62.4442 73.7897V73.7756C62.4444 70.9501 60.1538 68.6595 57.3283 68.6595Z" fill="#985E33"/>
<path d="M29.8822 50.6755H27.7177C23.3655 50.6755 19.8375 47.1474 19.8375 42.7952V40.6308C19.8375 40.1015 20.2665 39.6726 20.7956 39.6726H22.9602C27.3124 39.6726 30.8405 43.2007 30.8405 47.5529V49.7173C30.8405 50.2464 30.4114 50.6755 29.8822 50.6755Z" fill="#27AE60"/>
<path d="M22.9601 39.6724H20.7955C20.2662 39.6724 19.8373 40.1014 19.8373 40.6305V41.7334H20.9492C25.3014 41.7334 28.8294 45.2615 28.8294 49.6137V50.6752H29.8821C30.4113 50.6752 30.8402 50.2462 30.8402 49.7171V47.5526C30.8405 43.2006 27.3123 39.6724 22.9601 39.6724Z" fill="#219653"/>
<path d="M45.1178 50.6755H47.2822C51.6344 50.6755 55.1625 47.1474 55.1625 42.7952V40.6308C55.1625 40.1015 54.7334 39.6726 54.2043 39.6726H52.0399C47.6877 39.6726 44.1596 43.2007 44.1596 47.5529V49.7173C44.1595 50.2464 44.5885 50.6755 45.1178 50.6755Z" fill="#27AE60"/>
<path d="M54.2043 39.6724H53.0324V41.02C53.0324 45.3722 49.5042 48.9003 45.152 48.9003H44.1593V49.7171C44.1593 50.2463 44.5884 50.6752 45.1175 50.6752H47.2821C51.6343 50.6752 55.1623 47.1472 55.1623 42.795V40.6305C55.1626 40.1014 54.7336 39.6724 54.2043 39.6724Z" fill="#219653"/>
<path d="M61.5939 33.8178H13.4061C11.2576 33.8178 9.51605 32.0761 9.51605 29.9278V4.01602C9.51591 1.86768 11.2576 0.125977 13.4061 0.125977H61.594C63.7425 0.125977 65.4841 1.86768 65.4841 4.01602V29.9278C65.4841 32.0763 63.7424 33.8178 61.5939 33.8178Z" fill="#219653"/>
<path d="M61.5939 0.125977H59.2126C61.3611 0.125977 63.1027 1.86768 63.1027 4.01602V29.9278C63.1027 32.0763 61.361 33.8178 59.2126 33.8178H61.5939C63.7424 33.8178 65.4839 32.0761 65.4839 29.9278V4.01602C65.4841 1.86768 63.7424 0.125977 61.5939 0.125977V0.125977Z" fill="#27AE60"/>
<path d="M56.0555 25.718H18.9445C18.1281 25.718 17.4662 25.0562 17.4662 24.2397V9.70391C17.4662 8.88755 18.128 8.22559 18.9445 8.22559H56.0556C56.872 8.22559 57.5339 8.8874 57.5339 9.70391V24.2398C57.5338 25.0562 56.872 25.718 56.0555 25.718Z" fill="#27AE60"/>
<path d="M56.0554 8.22559H53.2049C54.0212 8.22559 54.6832 8.8874 54.6832 9.70391V24.2398C54.6832 25.0562 54.0214 25.7182 53.2049 25.7182H56.0554C56.8718 25.7182 57.5338 25.0563 57.5338 24.2398V9.70391C57.5338 8.8874 56.872 8.22559 56.0554 8.22559Z" fill="#219653"/>
<path d="M37.5 29.133C44.2163 29.133 49.661 23.6884 49.661 16.972C49.661 10.2557 44.2163 4.81104 37.5 4.81104C30.7836 4.81104 25.339 10.2557 25.339 16.972C25.339 23.6884 30.7836 29.133 37.5 29.133Z" fill="#F2C94C"/>
<path d="M37.5 4.81079C37.0463 4.81079 36.5991 4.8376 36.1585 4.88608C42.2433 5.55405 46.978 10.7091 46.978 16.9719C46.978 23.2347 42.2433 28.3896 36.1585 29.0578C36.5992 29.1061 37.0465 29.1331 37.5 29.1331C44.2163 29.1331 49.6611 23.6884 49.6611 16.9721C49.6611 10.2555 44.2163 4.81079 37.5 4.81079Z" fill="#FFDC72"/>
<path d="M39.1157 15.8357C38.9313 15.7706 38.7438 15.7029 38.5559 15.6333V12.1146C39.0409 12.2415 39.342 12.4398 39.375 12.4624C39.8793 12.8224 40.5806 12.7102 40.9468 12.2083C41.3152 11.7034 41.2046 10.9955 40.6997 10.6269C40.6478 10.5891 39.8298 10.006 38.5559 9.80996V9.27676C38.5559 8.65171 38.0492 8.14502 37.4241 8.14502C36.7989 8.14502 36.2924 8.65171 36.2924 9.27676V9.93696C36.232 9.95308 36.1717 9.96919 36.1106 9.9875C34.7959 10.3836 33.8142 11.5055 33.5484 12.9156C33.3045 14.2105 33.7255 15.464 34.6474 16.1869C35.076 16.523 35.5975 16.8312 36.2924 17.151V21.7354C35.8185 21.6626 35.4533 21.4941 34.88 21.119C34.3572 20.7767 33.6557 20.9234 33.3133 21.4465C32.9711 21.9696 33.1178 22.6711 33.6409 23.0133C34.6449 23.6702 35.377 23.9249 36.2924 24.0112V24.6667C36.2924 25.2917 36.7991 25.7984 37.4241 25.7984C38.0493 25.7984 38.5559 25.2917 38.5559 24.6667V23.9041C40.3818 23.4296 41.5521 21.8656 41.8113 20.3229C42.1468 18.3276 41.0635 16.5244 39.1157 15.8357ZM36.0442 14.4059C35.7937 14.2095 35.6871 13.7891 35.7728 13.3348C35.8317 13.0216 35.9966 12.6627 36.2922 12.4117V14.5827C36.2042 14.5246 36.1206 14.4658 36.0442 14.4059ZM39.5792 19.9477C39.4831 20.519 39.1358 21.1186 38.5559 21.472V18.049C39.6768 18.5482 39.6489 19.5315 39.5792 19.9477Z" fill="#F2F2F2"/>
</g>
<defs>
<clipPath id="clip0">
<rect width="75" height="75" fill="white" transform="translate(0 0.125977)"/>
</clipPath>
</defs>
</svg>
