<svg width="79" height="61" viewBox="0 0 79 61" fill="none" xmlns="http://www.w3.org/2000/svg">
<path d="M16.4537 14.2408C16.6021 14.1535 16.7548 14.0705 16.9076 13.9905C17.0604 13.9105 17.2146 13.8349 17.3703 13.7636C17.5274 13.6937 17.6904 13.637 17.8519 13.5802C17.6991 13.6574 17.5463 13.7315 17.4008 13.8203C17.2568 13.9105 17.1142 14.0036 16.9731 14.1011C16.8334 14.1971 16.6966 14.2975 16.5613 14.3994C16.4319 14.5085 16.3053 14.622 16.1801 14.7369C16.7592 15.0584 17.5521 15.057 18.2461 14.6845C18.6259 14.4881 18.9183 14.1913 19.1307 13.8785C19.3388 13.5584 19.4508 13.1889 19.4377 12.828C19.1904 12.5734 18.8368 12.4163 18.4324 12.377C18.025 12.329 17.5812 12.4294 17.1579 12.6476C17.0589 12.7 16.9629 12.7553 16.8756 12.8193C16.7883 12.8848 16.7083 12.9546 16.6326 13.0274C16.4828 13.1729 16.3562 13.3314 16.2573 13.4973C16.2078 13.5802 16.1656 13.6632 16.1307 13.749C16.0972 13.8363 16.071 13.9251 16.0521 14.0138C16.0143 14.1899 16.0056 14.3659 16.0274 14.5347C16.1656 14.4314 16.3082 14.3339 16.4537 14.2408Z" fill="url(#paint0_linear)"/>
<path d="M18.6848 47.4766C18.2469 47.8359 17.8235 48.367 17.5049 49.0071C17.3448 49.3272 17.2125 49.675 17.1164 50.0416C17.0684 50.2249 17.0291 50.4141 17.0015 50.6061C16.9724 50.7982 16.9549 50.9946 16.9535 51.1866C16.9491 51.5431 16.9855 51.8821 17.0568 52.1949C17.0932 52.3506 17.1353 52.5019 17.1892 52.6401C17.2445 52.7769 17.307 52.9049 17.3769 53.0242C17.5151 53.2628 17.6795 53.4665 17.8599 53.6251C18.0447 53.7749 18.2484 53.8782 18.4579 53.9321C18.4506 53.3123 18.4346 52.7172 18.4375 52.1105C18.436 51.8151 18.4346 51.5198 18.4331 51.2245C18.4317 51.0804 18.4317 50.9364 18.4302 50.7938C18.4317 50.6483 18.4317 50.5043 18.4331 50.3602C18.4535 50.6396 18.4841 50.9102 18.5132 51.1895C18.5408 51.4732 18.5684 51.7584 18.5975 52.0465C18.6237 52.3418 18.6572 52.6284 18.6892 52.9238C18.7212 53.2221 18.7547 53.5232 18.7881 53.8244C19.1388 53.3937 19.3992 52.7943 19.5709 52.1294C19.6567 51.7962 19.7193 51.4471 19.76 51.095C19.8008 50.7429 19.8168 50.3908 19.8182 50.0299C19.8168 49.6517 19.7891 49.3127 19.7368 49.0173C19.7091 48.8718 19.68 48.7278 19.6451 48.5954C19.6102 48.463 19.5694 48.3422 19.5214 48.2346C19.325 47.8039 19.0617 47.5231 18.6848 47.4766Z" fill="url(#paint1_linear)"/>
<path d="M14.8001 49.2808C14.7652 49.563 14.7318 49.8482 14.6968 50.1333C14.6648 50.42 14.6343 50.708 14.6023 50.9976C15.0271 50.6687 15.3996 50.1624 15.7007 49.5761C15.8521 49.2822 15.9815 48.9708 16.095 48.6464C16.2114 48.319 16.3074 47.9815 16.3787 47.6469C16.4166 47.4694 16.4457 47.2991 16.466 47.1376C16.4864 46.9761 16.498 46.8234 16.5082 46.6721C16.5257 46.3724 16.5111 46.1075 16.4617 45.882C16.4093 45.6609 16.3424 45.4601 16.2347 45.3088C16.1285 45.156 15.9888 45.0455 15.8157 44.9814C15.5698 45.1051 15.3254 45.2666 15.0824 45.4688C14.8394 45.6711 14.6037 45.9097 14.3884 46.1774C13.9577 46.7143 13.6056 47.3777 13.4238 48.1183C13.3394 48.4602 13.3117 48.7803 13.3147 49.0902C13.3205 49.3957 13.3569 49.691 13.4383 49.9442C13.5213 50.1959 13.6347 50.4214 13.7744 50.6077C13.8443 50.7008 13.9199 50.7837 13.9999 50.8579C14.08 50.9306 14.1731 50.9859 14.2662 51.0325C14.2953 50.8884 14.3258 50.7444 14.3549 50.6004C14.3869 50.4549 14.4175 50.3108 14.4495 50.1653C14.5121 49.8787 14.5732 49.5936 14.6343 49.3099C14.6939 49.032 14.7521 48.7555 14.8103 48.4791C14.8729 48.2041 14.934 47.9291 14.9966 47.6556C14.9631 47.9233 14.9282 48.191 14.8947 48.4616C14.8627 48.7323 14.8321 49.0058 14.8001 49.2808Z" fill="url(#paint2_linear)"/>
<path d="M11.9291 45.7301C11.756 46.2393 11.561 46.7733 11.3879 47.3029C12.3249 46.8547 13.1978 45.7228 13.7463 44.5167C13.8176 44.3581 13.8787 44.2039 13.9296 44.0555C13.9558 43.9813 13.9777 43.9085 14.0009 43.8372C14.0242 43.7645 14.046 43.6932 14.065 43.6234C14.1406 43.344 14.1784 43.0908 14.1784 42.8668C14.1726 42.6456 14.1464 42.4434 14.0766 42.2761C14.0067 42.1088 13.8976 41.9749 13.7463 41.8789C12.7279 42.1437 11.5101 43.0356 10.8685 44.3595C10.7215 44.6636 10.6313 44.9604 10.5702 45.25C10.5135 45.5395 10.4917 45.8203 10.5106 46.0778C10.5659 46.5827 10.7535 47.0133 11.062 47.2665C11.2977 46.7485 11.5319 46.2349 11.7662 45.7228C11.8782 45.4726 11.9902 45.2252 12.1022 44.9764C12.2157 44.7291 12.3292 44.4832 12.4427 44.2388C12.3569 44.4832 12.2696 44.7306 12.1823 44.9779C12.0993 45.2281 12.0135 45.4784 11.9291 45.7301Z" fill="url(#paint3_linear)"/>
<path d="M10.2165 41.1622C10.0884 41.3819 9.95893 41.603 9.82799 41.8256C9.69268 42.0526 9.55592 42.2796 9.41916 42.5094C9.2853 42.7393 9.14999 42.9692 9.01468 43.202C9.49772 43.0856 10.004 42.8004 10.4798 42.4192C10.7169 42.2286 10.9468 42.0133 11.1607 41.782C11.3804 41.5477 11.5899 41.296 11.7747 41.0371C11.9711 40.7621 12.1268 40.4973 12.2417 40.2499C12.361 40.0011 12.4512 39.7625 12.492 39.5487C12.5676 39.1209 12.5167 38.7645 12.2664 38.5215C11.763 38.5506 11.1811 38.7179 10.618 39.0205C10.3372 39.1718 10.0608 39.3566 9.80035 39.5748C9.67086 39.684 9.54428 39.8018 9.42497 39.9269C9.30421 40.0521 9.18928 40.1859 9.08889 40.3241C8.89974 40.5817 8.74844 40.8465 8.63786 41.1098C8.58257 41.2407 8.53601 41.3717 8.49819 41.5012C8.46472 41.6292 8.44435 41.7543 8.4298 41.8766C8.40361 42.121 8.41525 42.3538 8.46036 42.5633C8.48363 42.668 8.51565 42.767 8.55493 42.8586C8.60003 42.9488 8.65386 43.0303 8.71497 43.106C9.02923 42.6666 9.36242 42.2214 9.67522 41.7893C9.82945 41.5754 9.98367 41.3615 10.1364 41.1476C10.2121 41.0429 10.2863 40.9367 10.3605 40.8319C10.4376 40.7272 10.5147 40.6224 10.5904 40.5162C10.5264 40.6239 10.4623 40.7315 10.3983 40.8392C10.3416 40.9454 10.279 41.0531 10.2165 41.1622Z" fill="url(#paint4_linear)"/>
<path d="M8.05962 38.2765C7.89084 38.4671 7.71916 38.6606 7.54893 38.8526C8.0247 38.8323 8.55429 38.6606 9.0737 38.3885C9.33268 38.2532 9.58874 38.0932 9.83463 37.9142C10.0863 37.7353 10.3278 37.5374 10.549 37.3264C10.7847 37.1038 10.9753 36.8841 11.1353 36.6702C11.2997 36.4564 11.422 36.2498 11.5005 36.0548C11.5398 35.9573 11.5674 35.8628 11.5864 35.7711C11.6082 35.6794 11.6198 35.5907 11.6198 35.5063C11.6198 35.3361 11.5718 35.1804 11.4772 35.0436C10.517 34.9098 9.16536 35.2517 8.15419 36.1567C7.92868 36.3647 7.73953 36.5859 7.58676 36.8114C7.51111 36.9249 7.44272 37.0398 7.38453 37.1533C7.32488 37.2682 7.27832 37.3817 7.24486 37.4952C7.17648 37.7207 7.14447 37.9404 7.14883 38.1455C7.15174 38.2488 7.16338 38.3463 7.18375 38.4409C7.20703 38.534 7.2434 38.6213 7.28705 38.7028C7.67115 38.3478 8.0538 37.9942 8.43499 37.6421C8.61976 37.469 8.80308 37.2959 8.9864 37.1242C9.16972 36.954 9.35305 36.7837 9.53637 36.6135C9.21774 36.9743 8.8962 37.3381 8.5703 37.7062C8.40152 37.8982 8.2313 38.0859 8.05962 38.2765Z" fill="url(#paint5_linear)"/>
<path d="M8.03955 33.5706C7.65254 33.8645 7.26262 34.1613 6.86833 34.4625C7.7733 34.5993 8.97507 34.2064 9.96878 33.5735C10.4809 33.236 10.8796 32.8825 11.0934 32.5406C11.1967 32.3689 11.2811 32.2016 11.3073 32.0401C11.3364 31.8771 11.3204 31.7214 11.2549 31.5716C10.8199 31.4217 10.2612 31.3664 9.68071 31.4334C9.09874 31.5003 8.48912 31.6909 7.93334 32.0255C7.67291 32.1797 7.46485 32.3558 7.27862 32.542C7.0953 32.7282 6.94399 32.9261 6.8305 33.1254C6.62245 33.5255 6.5497 33.9329 6.65009 34.2734C7.0793 34.0086 7.51287 33.7438 7.92461 33.4833C8.3349 33.2244 8.74228 32.9683 9.1482 32.7122C8.96488 32.8534 8.78156 32.9945 8.59679 33.1356C8.41201 33.2797 8.22578 33.4251 8.03955 33.5706Z" fill="url(#paint6_linear)"/>
<path d="M7.33687 28.9137C7.06334 29.2512 6.9353 29.6237 6.96004 29.9583C7.8781 29.6164 8.7365 29.2701 9.58618 28.9355C9.19335 29.1363 8.7947 29.34 8.39169 29.5451C8.18509 29.6484 7.97849 29.7532 7.76898 29.8565C7.55656 29.9612 7.34123 30.066 7.13172 30.1722C7.54346 30.3177 8.05124 30.3526 8.58228 30.2973C9.11479 30.242 9.68512 30.1024 10.2016 29.8899C10.3384 29.8332 10.4664 29.775 10.5857 29.7124C10.7065 29.6513 10.8229 29.5888 10.9276 29.5233C11.1386 29.3938 11.3103 29.2556 11.4427 29.1116C11.5067 29.0388 11.5663 28.9675 11.6173 28.8962C11.6667 28.8235 11.706 28.7507 11.7337 28.6751C11.7889 28.5267 11.802 28.3754 11.7671 28.2226C11.3859 28.0058 10.8709 27.856 10.3122 27.8181C9.75349 27.7803 9.14679 27.853 8.56773 28.0713C8.29566 28.1702 8.06724 28.2983 7.86064 28.4408C7.65404 28.5863 7.47945 28.7464 7.33687 28.9137Z" fill="url(#paint7_linear)"/>
<path d="M8.02344 25.9279C8.94295 25.7678 9.80863 25.5903 10.6627 25.423C10.2582 25.5437 9.84937 25.666 9.43617 25.7911C9.22521 25.8522 9.01279 25.9133 8.79892 25.9759C8.58213 26.037 8.36389 26.0995 8.14566 26.1606C8.50502 26.3687 8.97641 26.4909 9.48418 26.5316C9.99486 26.5738 10.5521 26.5404 11.0744 26.4298C11.62 26.3076 12.0812 26.1359 12.3751 25.9104C12.5206 25.7955 12.6457 25.6791 12.7228 25.5481C12.8014 25.4172 12.8392 25.2775 12.8334 25.1276C12.1831 24.585 11.0191 24.2285 9.85374 24.4395C9.32123 24.5384 8.8833 24.7508 8.55595 25.0156C8.24314 25.2819 8.0569 25.6078 8.02344 25.9279Z" fill="url(#paint8_linear)"/>
<path d="M10.3852 21.5359C10.0491 21.7367 9.81194 22.0044 9.73047 22.3012C10.1684 22.3012 10.6078 22.3027 11.0312 22.2968C11.4516 22.2896 11.8707 22.2823 12.2868 22.275C11.8881 22.3201 11.4851 22.3667 11.0777 22.4132C10.6587 22.4554 10.2353 22.4976 9.80613 22.5398C10.4114 23.0534 11.4749 23.3124 12.5007 23.2877C12.7727 23.2804 13.0113 23.2469 13.2339 23.2033C13.4565 23.1596 13.65 23.0971 13.8101 23.017C14.1244 22.8526 14.3353 22.6402 14.3746 22.3594C13.8596 21.744 12.8207 21.2115 11.6961 21.2158C11.1869 21.2231 10.7285 21.3395 10.3852 21.5359Z" fill="url(#paint9_linear)"/>
<path d="M12.9294 20.0702C13.3484 20.2666 13.8198 20.4005 14.3072 20.4761C14.5633 20.5139 14.799 20.527 15.0114 20.5183C15.1176 20.514 15.2151 20.5023 15.3126 20.4892C15.4086 20.4761 15.4988 20.4587 15.5817 20.4354C15.9149 20.3423 16.1288 20.1531 16.2248 19.9073C16.0357 19.5784 15.72 19.2467 15.3184 18.9732C15.1176 18.8364 14.8936 18.7142 14.6564 18.6153C14.4207 18.5193 14.1705 18.4465 13.9086 18.4043C13.6671 18.365 13.4343 18.3534 13.216 18.3665C12.9963 18.3781 12.8043 18.4276 12.6268 18.4902C12.2747 18.6196 12.0026 18.8277 11.8848 19.0983C12.2921 19.1681 12.6966 19.2365 13.0996 19.3064C13.5012 19.3733 13.8911 19.4315 14.2752 19.4868C13.5332 19.4591 12.7272 19.3922 11.9124 19.3325C12.151 19.6235 12.5118 19.8752 12.9294 20.0702Z" fill="url(#paint10_linear)"/>
<path d="M17.2111 18.3326C17.4133 18.3617 17.5967 18.3646 17.7567 18.3428C17.8382 18.3326 17.9109 18.3137 17.9822 18.2933C18.0535 18.2744 18.119 18.2482 18.1772 18.2162C18.295 18.1522 18.3852 18.0634 18.4478 17.9499C18.2005 17.272 17.4803 16.5169 16.5229 16.1764C16.0864 16.028 15.6703 15.996 15.3153 16.0527C15.1364 16.0789 14.9836 16.14 14.8498 16.2157C14.7174 16.2928 14.6068 16.3888 14.5268 16.4994C14.8978 16.6362 15.2644 16.7656 15.6238 16.8879C15.9831 17.0086 16.3469 17.1396 16.6961 17.253C16.5215 17.2138 16.3454 17.173 16.1665 17.1294C16.0763 17.1076 15.9861 17.0857 15.8959 17.0624C15.8071 17.0421 15.7169 17.0203 15.6267 16.9999C15.2659 16.9141 14.8934 16.8209 14.5137 16.7191C14.8599 17.3345 15.6907 17.8976 16.5593 18.1755C16.7877 18.2497 17.0103 18.3049 17.2111 18.3326Z" fill="url(#paint11_linear)"/>
<path d="M15.9626 56.3275C15.6571 56.4061 15.3458 56.4759 15.03 56.5356C14.7143 56.5952 14.3913 56.6476 14.0756 56.6752C14.2342 56.6418 14.3899 56.6112 14.547 56.5705C14.7056 56.5297 14.8627 56.4861 15.0169 56.441C15.3268 56.3493 15.6324 56.2489 15.9292 56.1398C16.5213 55.9274 17.1062 55.6495 17.6562 55.3513C17.4903 55.1912 17.2837 55.0661 17.0466 54.9701C16.8138 54.8653 16.5475 54.7955 16.2507 54.7562C16.1023 54.7373 15.9481 54.7271 15.7851 54.7242C15.6251 54.7198 15.4621 54.7184 15.2905 54.7271C14.9486 54.7445 14.5834 54.7969 14.2007 54.8828C13.9927 54.9322 13.7933 54.9817 13.5969 55.0399C13.4005 55.0981 13.2085 55.165 13.0222 55.2392C12.6498 55.3862 12.3006 55.5637 11.9907 55.763C11.368 56.1616 10.898 56.6563 10.6973 57.2034C11.0115 57.6951 11.5702 58.1098 12.2919 58.3091C12.4708 58.3615 12.657 58.4037 12.8491 58.4328C13.0411 58.4633 13.2376 58.4823 13.4456 58.4793C13.8559 58.4793 14.2807 58.4284 14.7041 58.3208C15.1013 58.2233 15.4782 58.0662 15.8157 57.8828C16.1532 57.6981 16.453 57.4842 16.7134 57.2499C17.2328 56.7814 17.5878 56.2359 17.7551 55.7019C17.467 55.8256 17.1731 55.9405 16.872 56.0467C16.5723 56.1529 16.2653 56.2518 15.9626 56.3275Z" fill="url(#paint12_linear)"/>
<path d="M12.0135 53.6602C12.6027 53.3285 13.0552 52.892 13.3273 52.4279C13.029 52.4847 12.7249 52.5341 12.4223 52.5705C12.1226 52.6025 11.82 52.6243 11.5159 52.636C11.2104 52.6476 10.9034 52.6505 10.592 52.6432C10.285 52.6316 9.98387 52.6054 9.67542 52.572C9.98678 52.5763 10.2952 52.569 10.6008 52.553C10.9121 52.5312 11.2206 52.4977 11.5246 52.4556C11.8287 52.4134 12.1284 52.3625 12.4252 52.3013C12.5736 52.2708 12.7191 52.2402 12.8675 52.2024C13.0159 52.1646 13.1643 52.1253 13.3098 52.0831C13.2487 51.9914 13.1731 51.9085 13.0945 51.8241C13.0159 51.7397 12.9257 51.6626 12.8268 51.5899C12.6289 51.4458 12.3918 51.3251 12.1197 51.2305C11.8505 51.133 11.5596 51.0486 11.2307 50.9992C10.9063 50.9453 10.544 50.925 10.1745 50.9221C9.37425 50.9162 8.58423 51.0486 7.91642 51.2974C7.58179 51.4226 7.27916 51.5753 7.02309 51.7572C6.76703 51.9376 6.5517 52.1515 6.40039 52.3857C6.49496 52.6476 6.655 52.8993 6.86596 53.1306C7.07838 53.362 7.33736 53.5758 7.65454 53.7403C7.96735 53.909 8.31943 54.0429 8.6948 54.1331C8.88103 54.1796 9.08036 54.2087 9.28405 54.2262C9.48774 54.2437 9.69579 54.2495 9.9053 54.2408C10.3025 54.2262 10.6808 54.1651 11.0329 54.0676C11.3879 53.9672 11.7196 53.8261 12.0135 53.6602Z" fill="url(#paint13_linear)"/>
<path d="M9.68566 48.5334C9.09059 48.5232 8.52172 48.4534 7.93975 48.353C7.65022 48.3021 7.35778 48.2424 7.06825 48.1726C6.78599 48.0984 6.50374 48.014 6.22294 47.9194C6.51538 47.9849 6.80636 48.0417 7.09735 48.0882C7.38979 48.1333 7.69095 48.1624 7.98485 48.1857C8.2802 48.2075 8.57409 48.2206 8.86508 48.225C9.15897 48.2279 9.44123 48.2264 9.73803 48.2046C9.69584 48.1071 9.65074 48.0082 9.59254 47.9136C9.53434 47.8191 9.46597 47.7274 9.3874 47.6386C9.22881 47.4626 9.02949 47.3011 8.79233 47.1556C8.56245 47.0057 8.30202 46.869 8.00376 46.7541C7.70841 46.6377 7.37378 46.5445 7.02315 46.4689C5.52312 46.1386 3.94307 46.3336 3.18359 47.0974C3.21997 47.3608 3.31745 47.6285 3.47022 47.8874C3.62153 48.1464 3.82377 48.3967 4.08856 48.6134C4.34899 48.8331 4.65162 49.0296 4.98625 49.1896C5.07064 49.2289 5.15502 49.2667 5.24377 49.3031C5.33252 49.338 5.42563 49.3685 5.51875 49.3962C5.70643 49.4529 5.90139 49.4995 6.10072 49.5344C7.6022 49.8079 8.99166 49.2885 9.68566 48.5334Z" fill="url(#paint14_linear)"/>
<path d="M4.56249 44.5696C4.90148 44.6147 5.23175 44.6205 5.5431 44.5914C6.16581 44.5332 6.71287 44.3382 7.11734 44.0502C6.84381 43.9847 6.57028 43.9105 6.29821 43.8276C6.03341 43.7417 5.77152 43.6471 5.50963 43.5424C5.24775 43.4391 4.98877 43.3256 4.73125 43.2049C4.60176 43.1437 4.47373 43.0812 4.34569 43.0172C4.22203 42.9502 4.09981 42.8818 3.97615 42.812C4.10709 42.8702 4.23658 42.927 4.36752 42.9808C4.49992 43.0346 4.63669 43.0841 4.772 43.1321C5.04261 43.2281 5.31322 43.3154 5.58529 43.394C6.13089 43.5497 6.66776 43.6733 7.23227 43.7505C7.21481 43.6501 7.18571 43.5497 7.14643 43.4507C7.11151 43.3503 7.06495 43.25 7.00966 43.151C6.89763 42.9532 6.74196 42.7625 6.54991 42.5792C6.45389 42.4876 6.34622 42.3988 6.23419 42.3115C6.12507 42.2228 6.00577 42.1369 5.87774 42.054C5.62312 41.8881 5.33359 41.7354 5.01205 41.6001C4.83746 41.5273 4.66578 41.4604 4.49556 41.4022C4.32387 41.344 4.15074 41.2931 3.9776 41.2509C3.63278 41.1665 3.28942 41.1156 2.96061 41.101C2.30444 41.0719 1.70792 41.1883 1.27726 41.4764C1.2438 41.9827 1.43002 42.556 1.8374 43.0608C2.03818 43.314 2.27679 43.5555 2.56632 43.7665C2.85876 43.9745 3.18903 44.1564 3.5484 44.2975C3.88885 44.4314 4.22785 44.5216 4.56249 44.5696Z" fill="url(#paint15_linear)"/>
<path d="M2.14214 38.8797C2.43749 39.0688 2.74157 39.2143 3.04565 39.3219C3.357 39.4282 3.66545 39.4936 3.96371 39.5242C4.55878 39.5853 5.11165 39.5038 5.54522 39.3089C5.30079 39.1968 5.05636 39.0761 4.8163 38.9466C4.58351 38.8171 4.35363 38.6789 4.12666 38.5319C3.8997 38.3864 3.67564 38.2322 3.45449 38.0707C3.23189 37.9092 3.02965 37.7375 2.82305 37.56C3.04856 37.7186 3.27262 37.8685 3.50832 38.0096C3.74547 38.1493 3.98554 38.2817 4.22705 38.4054C4.713 38.6527 5.19603 38.868 5.71107 39.047C5.71398 38.9495 5.7038 38.8491 5.68634 38.7487C5.67179 38.6469 5.64706 38.545 5.61214 38.4417C5.5423 38.2351 5.43173 38.0256 5.28332 37.819C5.20767 37.7157 5.12765 37.611 5.04181 37.5077C4.95451 37.4044 4.85704 37.3011 4.75228 37.2007C4.54132 36.9984 4.29543 36.8006 4.01899 36.6143C2.85796 35.8068 1.44377 35.4286 0.52717 35.8112C0.269648 36.7525 0.873448 38.0896 2.14214 38.8797Z" fill="url(#paint16_linear)"/>
<path d="M1.92517 33.4943C2.8927 34.4153 4.15994 34.7237 5.04308 34.5171C4.61533 34.216 4.23123 33.8872 3.85295 33.5322C3.66526 33.3547 3.48048 33.1699 3.30444 32.9793C3.13276 32.7887 2.9669 32.5908 2.8054 32.3871C2.98872 32.5763 3.1764 32.7567 3.367 32.9313C3.55759 33.1059 3.76565 33.2732 3.96934 33.4318C4.38254 33.7518 4.80011 34.0414 5.24531 34.3033C5.33115 33.9381 5.27586 33.5176 5.06781 33.0753C4.97469 32.8542 4.84666 32.6272 4.68371 32.3988C4.52366 32.1718 4.31852 31.9419 4.10319 31.7179C3.62743 31.2348 3.07456 30.8434 2.52314 30.5947C1.97173 30.3459 1.42904 30.2426 0.960554 30.34C0.860164 30.5481 0.804873 30.7882 0.793234 31.0471C0.783049 31.3061 0.806331 31.5825 0.896537 31.8648C1.06676 32.4308 1.39994 33.0084 1.92517 33.4943Z" fill="url(#paint17_linear)"/>
<path d="M2.13766 27.5263C2.1944 27.6703 2.25697 27.8129 2.33553 27.9555C2.41555 28.0981 2.50576 28.2378 2.60615 28.3745C2.98588 28.891 3.44564 29.2795 3.93158 29.5341C4.41898 29.7887 4.91511 29.908 5.35014 29.8906C5.17554 29.7116 5.01696 29.5283 4.86128 29.3391C4.70561 29.15 4.55574 28.955 4.41025 28.7543C4.11345 28.3527 3.86174 27.9337 3.62896 27.4958C4.17455 28.3294 4.85401 29.0787 5.5771 29.7262C5.73133 29.4003 5.74151 28.9929 5.63239 28.5418C5.58438 28.3178 5.50291 28.0821 5.38942 27.8391C5.27739 27.5961 5.12753 27.3459 4.96458 27.0971C4.6023 26.5602 4.14982 26.0961 3.67551 25.7673C3.20266 25.4385 2.70945 25.2464 2.25114 25.2552C2.12166 25.4327 2.02854 25.6465 1.9718 25.8866C1.94416 26.0059 1.92524 26.1325 1.91651 26.2634C1.90633 26.3944 1.90778 26.5297 1.92524 26.6694C1.9558 26.9487 2.02708 27.2382 2.13766 27.5263Z" fill="url(#paint18_linear)"/>
<path d="M5.19786 24.9795C5.6096 25.3025 6.0548 25.5004 6.46509 25.5615C6.33269 25.3622 6.2163 25.1643 6.10427 24.9592C5.99079 24.7555 5.88458 24.546 5.78273 24.3335C5.68234 24.1211 5.58196 23.9029 5.49903 23.6846C5.4161 23.4664 5.33753 23.2453 5.26624 23.0198C5.63433 23.8942 6.1421 24.7147 6.70662 25.4466C6.9074 25.1672 6.98887 24.7875 6.96413 24.3452C6.95249 23.9087 6.81864 23.4024 6.58585 22.8757C6.09118 21.7467 5.20949 20.8257 4.35691 20.6875C4.20559 20.8301 4.08047 21.0149 3.9859 21.2302C3.89424 21.4455 3.8244 21.687 3.80985 21.9547C3.77493 22.4872 3.86514 23.0823 4.15467 23.6657C4.42238 24.2142 4.78902 24.658 5.19786 24.9795Z" fill="url(#paint19_linear)"/>
<path d="M8.28057 21.6604C8.10161 21.2442 7.96775 20.8281 7.84991 20.3946C7.79171 20.1793 7.73933 19.961 7.69277 19.7399C7.64767 19.5187 7.61712 19.3019 7.58802 19.0793C7.63894 19.3005 7.69423 19.5173 7.7597 19.7326C7.82808 19.9494 7.90229 20.1647 7.98085 20.3742C8.14089 20.7961 8.31839 21.2006 8.52645 21.5949C8.75633 21.365 8.90619 21.0275 8.9542 20.607C9.00949 20.1923 8.98475 19.7035 8.84653 19.1666C8.57155 18.026 7.90665 17.0235 7.12827 16.7471C6.79654 16.9624 6.52592 17.3436 6.40662 17.8368C6.34406 18.0813 6.30914 18.3475 6.31059 18.6239C6.31205 18.9018 6.36152 19.1986 6.44154 19.4925C6.74271 20.6056 7.53419 21.4101 8.28057 21.6604Z" fill="url(#paint20_linear)"/>
<path d="M9.8555 17.4579C10.1014 17.8595 10.4142 18.1665 10.743 18.3484C10.551 17.5161 10.4884 16.681 10.5146 15.8241C10.5408 16.2547 10.5975 16.6825 10.6732 17.0986C10.711 17.3066 10.7561 17.5132 10.8056 17.7169C10.8594 17.9235 10.9191 18.1287 10.9845 18.3309C11.229 18.149 11.4283 17.8624 11.5461 17.4827C11.6072 17.295 11.6421 17.0768 11.6683 16.8527C11.6931 16.6272 11.6989 16.3828 11.68 16.1238C11.6611 15.8444 11.616 15.568 11.549 15.3076C11.485 15.0486 11.4021 14.8042 11.2973 14.5801C11.0893 14.1334 10.8041 13.7755 10.4637 13.582C9.7653 13.8614 9.2648 14.8696 9.37974 16.0205C9.42775 16.5573 9.61253 17.0578 9.8555 17.4579Z" fill="url(#paint21_linear)"/>
<path d="M13.5464 15.5647C13.5318 15.1689 13.5391 14.7688 13.5696 14.3673C13.5769 14.2669 13.5856 14.1665 13.5973 14.0661C13.6089 13.9672 13.6235 13.8697 13.6395 13.7722C13.67 13.5758 13.7064 13.3794 13.7486 13.1844C13.705 13.5903 13.6773 13.9846 13.686 14.3905C13.6948 14.7965 13.7253 15.1966 13.7762 15.5909C13.9086 15.5298 14.0309 15.4396 14.1414 15.3202C14.252 15.2024 14.3466 15.0511 14.4368 14.8896C14.6128 14.5622 14.7321 14.1345 14.7787 13.6427C14.8922 12.6024 14.623 11.552 14.0527 11.085C13.881 11.1242 13.7122 11.2057 13.5536 11.3221C13.4751 11.3803 13.398 11.4472 13.3252 11.5214C13.2525 11.5956 13.187 11.6844 13.1244 11.7775C12.9993 11.9637 12.8931 12.1776 12.8131 12.4119C12.7316 12.6461 12.6749 12.8993 12.6589 13.1757C12.5861 14.2116 12.9906 15.118 13.5464 15.5647Z" fill="url(#paint22_linear)"/>
<path d="M20.8411 55.5958L20.8425 55.5914L20.7203 55.5391C20.7 55.5303 20.6796 55.5201 20.6592 55.5099L20.6578 55.5114L20.1296 55.2859L19.7732 55.1331C19.6568 55.0778 19.5404 55.0196 19.424 54.9629L18.7271 54.621C18.4987 54.4988 18.2746 54.3708 18.0476 54.2456L17.7086 54.0565C17.5952 53.9939 17.4889 53.9212 17.3784 53.8528L16.7207 53.4396C16.5025 53.2999 16.2959 53.1442 16.082 52.9973C15.8711 52.8474 15.6543 52.7048 15.4535 52.5404L14.8424 52.0618C14.7915 52.021 14.7391 51.9832 14.6897 51.941L14.5427 51.813L14.2503 51.5584L13.9564 51.3038C13.8575 51.2194 13.76 51.1335 13.6698 51.0419L13.1111 50.5021C12.9205 50.326 12.7488 50.1325 12.5713 49.9434C12.3952 49.7528 12.2148 49.5666 12.0432 49.3716L11.5427 48.7751L11.2924 48.4768L11.0582 48.1655L10.5897 47.5428C10.4384 47.3318 10.2987 47.1136 10.1518 46.8997C9.85204 46.4749 9.59597 46.0238 9.32681 45.5786C9.18714 45.3589 9.07365 45.1247 8.95144 44.8963C8.83068 44.6664 8.70701 44.438 8.58916 44.2066L8.2618 43.4981L8.09885 43.1445C8.04211 43.0281 7.99992 42.9045 7.95045 42.7837C7.7584 42.3007 7.55617 41.8205 7.39903 41.3244L7.27246 40.9549L7.2099 40.7701L7.15461 40.5824L6.93782 39.8331C6.67593 38.8263 6.44605 37.8079 6.31947 36.7734L6.26419 36.3864L6.22636 35.9979C6.20308 35.739 6.17399 35.48 6.15507 35.2196C6.13179 34.6987 6.09396 34.1778 6.10415 33.657C6.09251 33.1346 6.12597 32.6138 6.14779 32.0929C6.1638 31.8325 6.1929 31.5735 6.21472 31.3131L6.25109 30.9232L6.30347 30.5347C6.43005 29.4988 6.64829 28.4745 6.916 27.4648C6.98729 27.2131 7.05421 26.9614 7.12987 26.7111L7.37575 25.9662C7.45286 25.716 7.55471 25.4759 7.64492 25.23C7.73803 24.9856 7.82678 24.7397 7.9359 24.5026C8.74921 22.5762 9.83021 20.7605 11.1426 19.1266L11.6431 18.5214C11.8162 18.3249 11.9951 18.1329 12.1712 17.9394C12.2599 17.8434 12.3458 17.743 12.4389 17.6513L12.7168 17.3734L12.9961 17.0955L13.1358 16.9573L13.2813 16.8249L13.8647 16.2982C14.0626 16.1265 14.2692 15.9651 14.4714 15.7963C14.5733 15.7134 14.6737 15.629 14.777 15.5475L15.0941 15.3132L15.4113 15.079C15.5175 15.0019 15.6208 14.9204 15.7314 14.8506C15.6194 14.919 15.5146 14.999 15.4069 15.0746L15.0869 15.3045L14.7668 15.5344C14.662 15.6144 14.5602 15.6974 14.4583 15.7788C14.2546 15.9432 14.0437 16.1018 13.8444 16.2721L13.2522 16.7915L13.1038 16.9209L12.9627 17.0577L12.679 17.3312L12.3952 17.6048C12.3007 17.695 12.2134 17.7954 12.1232 17.8899C11.9442 18.082 11.7624 18.2726 11.5849 18.4661L11.0727 19.067C9.73128 20.6877 8.61826 22.4991 7.77004 24.4284C7.65655 24.667 7.56343 24.9129 7.46595 25.1573C7.37138 25.4032 7.26372 25.6447 7.1837 25.8949L6.92473 26.6428C6.84616 26.8945 6.77341 27.1476 6.69776 27.4008C6.41259 28.4149 6.1769 29.4479 6.03431 30.494L5.97466 30.8853L5.93247 31.2796C5.90628 31.5429 5.87427 31.8048 5.8539 32.0682C5.8248 32.5949 5.78406 33.123 5.78843 33.6511C5.77097 34.1793 5.80153 34.7074 5.81753 35.2356C5.83353 35.4989 5.85827 35.7622 5.87863 36.0256L5.91064 36.4213L5.96157 36.8141C6.07651 37.8661 6.29475 38.9049 6.54645 39.9321L6.75595 40.6974L6.80833 40.8894L6.86944 41.0785L6.9931 41.4554C7.14587 41.9631 7.3452 42.4534 7.53288 42.9496C7.58235 43.0718 7.62309 43.1984 7.67983 43.3191L7.84133 43.6828L8.16433 44.4089C8.28218 44.646 8.40439 44.8817 8.52369 45.1174C8.6459 45.3531 8.75939 45.5932 8.89761 45.8187C9.16531 46.277 9.41992 46.7426 9.72109 47.1805C9.86804 47.4016 10.0077 47.6272 10.159 47.8454L10.629 48.4885L10.8647 48.81L11.1164 49.1185L11.6198 49.7368C11.7929 49.9376 11.9748 50.1311 12.1523 50.329C12.3312 50.5254 12.5058 50.7262 12.6979 50.9095L13.2638 51.4711C13.357 51.5671 13.4544 51.6558 13.5548 51.7431L13.8516 52.0094L14.1484 52.2757L14.2968 52.4081C14.3478 52.4517 14.4001 52.4924 14.4511 52.5346L15.0723 53.0351C15.276 53.2068 15.4957 53.3567 15.711 53.5138C15.9278 53.668 16.1388 53.831 16.3614 53.9779L17.0321 54.4115C17.1441 54.4828 17.2532 54.5599 17.3696 54.6254L17.7159 54.8247C17.9472 54.9571 18.1757 55.0924 18.4099 55.2219L19.1228 55.5842C19.2421 55.6438 19.36 55.7064 19.4793 55.7646L19.8445 55.9275L20.3726 56.1618V56.1632C22.1054 56.9241 23.5007 58.2874 24.3009 60.0028L24.4158 60.2487L25.0677 59.9446L24.9527 59.6987C24.1045 57.8917 22.6496 56.4411 20.8411 55.5958Z" fill="url(#paint23_linear)"/>
<path d="M61.1111 14.6827C61.8051 15.0566 62.598 15.0581 63.1771 14.7351C63.0534 14.6201 62.9268 14.5066 62.7959 14.3975C62.662 14.2957 62.5238 14.1953 62.3841 14.0993C62.2445 14.0032 62.1019 13.9087 61.9564 13.8185C61.8109 13.7297 61.6567 13.6555 61.5054 13.5784C61.6669 13.6351 61.8298 13.6919 61.9869 13.7617C62.1426 13.833 62.2968 13.9087 62.4496 13.9887C62.6024 14.0687 62.7537 14.1516 62.9036 14.2389C63.0476 14.3335 63.1916 14.431 63.3313 14.5314C63.3531 14.3626 63.3444 14.188 63.3066 14.0105C63.2877 13.9218 63.2615 13.8345 63.228 13.7457C63.1945 13.6584 63.1509 13.5769 63.1014 13.494C63.0025 13.3296 62.8774 13.171 62.7261 13.0241C62.6504 12.9513 62.5704 12.8815 62.4831 12.816C62.3958 12.7505 62.2998 12.6967 62.2008 12.6443C61.7774 12.4246 61.3337 12.3242 60.9263 12.3737C60.5218 12.4145 60.1683 12.5701 59.921 12.8247C59.9079 13.1856 60.0199 13.5551 60.2279 13.8752C60.4389 14.1895 60.7313 14.4863 61.1111 14.6827Z" fill="url(#paint24_linear)"/>
<path d="M59.7903 52.1245C59.962 52.7894 60.221 53.3903 60.5731 53.8195C60.6065 53.5184 60.6385 53.2172 60.672 52.9189C60.7055 52.625 60.7389 52.337 60.7637 52.0416C60.7913 51.755 60.8204 51.4684 60.848 51.1847C60.8771 50.9053 60.9062 50.6347 60.9281 50.3553C60.9295 50.4994 60.9295 50.6449 60.931 50.7889C60.9295 50.933 60.9295 51.0755 60.9281 51.2196C60.9266 51.5135 60.9251 51.8088 60.9237 52.1056C60.9266 52.7123 60.9106 53.3059 60.9033 53.9272C61.1114 53.8734 61.3151 53.7715 61.5013 53.6202C61.6817 53.4616 61.8461 53.2579 61.9843 53.0193C62.0542 52.9 62.1167 52.772 62.172 52.6352C62.2258 52.497 62.268 52.3457 62.3044 52.19C62.3757 51.8772 62.4121 51.5397 62.4077 51.1817C62.4063 50.9911 62.3888 50.7933 62.3597 50.6012C62.3321 50.4092 62.2928 50.2215 62.2448 50.0367C62.1487 49.6701 62.0149 49.3223 61.8563 49.0023C61.5377 48.3621 61.1143 47.831 60.6763 47.4717C60.301 47.5197 60.0362 47.8005 59.8398 48.2253C59.7917 48.3345 59.751 48.4552 59.7161 48.5862C59.6812 48.7186 59.6535 48.8626 59.6244 49.0081C59.5721 49.3034 59.5444 49.6439 59.543 50.0207C59.5444 50.3815 59.5604 50.7336 59.6012 51.0857C59.6405 51.4436 59.7045 51.7928 59.7903 52.1245Z" fill="url(#paint25_linear)"/>
<path d="M64.7246 49.3079C64.7857 49.5916 64.8482 49.8768 64.9093 50.1634C64.9413 50.3089 64.9719 50.4529 65.0039 50.5984C65.033 50.7425 65.0636 50.8865 65.0927 51.0305C65.1858 50.984 65.2789 50.9287 65.3589 50.8559C65.4389 50.7832 65.5146 50.6988 65.5844 50.6057C65.7226 50.4195 65.8376 50.1954 65.9205 49.9422C66.0005 49.6876 66.0383 49.3937 66.0442 49.0882C66.0471 48.7783 66.0194 48.4597 65.935 48.1163C65.7517 47.3758 65.4011 46.7123 64.9704 46.1754C64.7566 45.9077 64.5194 45.6691 64.2764 45.4669C64.0335 45.2647 63.7876 45.1032 63.5432 44.9795C63.3686 45.0435 63.2289 45.1541 63.1241 45.3069C63.0179 45.4596 62.951 45.659 62.8972 45.8801C62.8491 46.1056 62.8332 46.3704 62.8506 46.6701C62.8608 46.8214 62.8724 46.9742 62.8928 47.1357C62.9132 47.2972 62.9423 47.4674 62.9801 47.6449C63.0514 47.9796 63.1474 48.3171 63.2638 48.6445C63.3773 48.9689 63.5068 49.2802 63.6581 49.5741C63.9593 50.1605 64.3317 50.6668 64.7566 50.9956C64.7246 50.7061 64.694 50.418 64.662 50.1314C64.6271 49.8462 64.5922 49.5611 64.5587 49.2788C64.5267 49.0038 64.4961 48.7303 64.4641 48.4582C64.4292 48.1876 64.3957 47.9184 64.3623 47.6522C64.4234 47.9257 64.4859 48.2007 64.5485 48.4757C64.6067 48.7536 64.6649 49.03 64.7246 49.3079Z" fill="url(#paint26_linear)"/>
<path d="M67.592 45.7218C67.8248 46.234 68.0605 46.7476 68.2962 47.2655C68.6061 47.0124 68.7923 46.5817 68.8476 46.0768C68.8665 45.8193 68.8447 45.5371 68.7879 45.249C68.7283 44.958 68.6366 44.6626 68.4897 44.3586C67.8495 43.0346 66.6303 42.1427 65.6118 41.8779C65.4605 41.974 65.3499 42.1078 65.2816 42.2751C65.2117 42.4424 65.187 42.6447 65.1797 42.8658C65.1783 43.0899 65.2161 43.343 65.2932 43.6224C65.3121 43.6922 65.3339 43.7635 65.3572 43.8363C65.3805 43.909 65.4023 43.9803 65.4285 44.0545C65.4794 44.2029 65.542 44.3571 65.6118 44.5157C66.1603 45.7233 67.0347 46.8538 67.9703 47.3019C67.7971 46.7723 67.6022 46.2383 67.429 45.7291C67.3432 45.4774 67.2588 45.2272 67.1744 44.9769C67.0871 44.7296 66.9998 44.4822 66.914 44.2378C67.0275 44.4822 67.141 44.7281 67.2545 44.9755C67.3665 45.2228 67.4785 45.4716 67.592 45.7218Z" fill="url(#paint27_linear)"/>
<path d="M69.2195 41.1447C69.3723 41.3571 69.5265 41.571 69.6807 41.7863C69.9935 42.2184 70.3267 42.6622 70.641 43.103C70.7021 43.0288 70.7559 42.9459 70.801 42.8557C70.8418 42.764 70.8723 42.6651 70.8956 42.5603C70.9421 42.3508 70.9523 42.1195 70.9261 41.8736C70.913 41.7514 70.8927 41.6263 70.8578 41.4983C70.8214 41.3688 70.7748 41.2378 70.7181 41.1069C70.606 40.8435 70.4562 40.5787 70.2671 40.3212C70.1667 40.183 70.0517 40.0491 69.931 39.924C69.8102 39.7989 69.6851 39.681 69.5556 39.5719C69.2952 39.3537 69.0187 39.1689 68.7379 39.0176C68.1749 38.715 67.5944 38.5462 67.0895 38.5186C66.8407 38.7615 66.7883 39.118 66.864 39.5457C66.9047 39.7596 66.9964 39.9982 67.1142 40.247C67.2292 40.4943 67.3848 40.7591 67.5813 41.0341C67.766 41.2946 67.9755 41.5463 68.1952 41.779C68.4091 42.0104 68.639 42.2257 68.8761 42.4163C69.3519 42.799 69.8582 43.0827 70.3413 43.1991C70.2059 42.9677 70.0706 42.7364 69.9368 42.5065C69.8 42.2781 69.6633 42.0497 69.528 41.8227C69.3985 41.6001 69.269 41.3789 69.1395 41.1592C69.0769 41.0516 69.0158 40.9425 68.9532 40.8348C68.8892 40.7271 68.8252 40.6195 68.7612 40.5118C68.8383 40.6166 68.914 40.7213 68.9911 40.8275C69.0682 40.9337 69.1439 41.0399 69.2195 41.1447Z" fill="url(#paint28_linear)"/>
<path d="M70.9217 37.6441C71.3014 37.9962 71.684 38.3483 72.0696 38.7047C72.1132 38.6233 72.1496 38.536 72.1729 38.4429C72.1947 38.3497 72.2064 38.2508 72.2093 38.1475C72.2151 37.9424 72.1831 37.7227 72.1132 37.4971C72.0812 37.3851 72.0332 37.2702 71.9736 37.1552C71.9154 37.0403 71.8484 36.9268 71.7713 36.8133C71.6186 36.5864 71.4294 36.3652 71.2039 36.1586C70.1927 35.2536 68.8426 34.9117 67.8809 35.0456C67.7863 35.1838 67.7397 35.3395 67.7383 35.5083C67.7383 35.5926 67.7485 35.6814 67.7717 35.773C67.7907 35.8647 67.8183 35.9593 67.8576 36.0568C67.9361 36.2517 68.0584 36.4583 68.2228 36.6722C68.3828 36.8861 68.5734 37.1058 68.8091 37.3284C69.0303 37.5393 69.2718 37.7372 69.5235 37.9162C69.7679 38.0951 70.0254 38.2551 70.2844 38.3905C70.8024 38.6611 71.3334 38.8342 71.8092 38.8546C71.6375 38.6611 71.4673 38.469 71.2985 38.2784C71.1268 38.0878 70.9566 37.8987 70.7878 37.711C70.4619 37.3429 70.1404 36.9777 69.8217 36.6184C70.0036 36.7871 70.1869 36.9574 70.3717 37.129C70.5536 37.2978 70.7383 37.4709 70.9217 37.6441Z" fill="url(#paint29_linear)"/>
<path d="M72.7083 34.2724C72.8087 33.9319 72.7359 33.5246 72.5279 33.1245C72.4144 32.9251 72.263 32.7273 72.0797 32.541C71.8935 32.3548 71.6854 32.1788 71.425 32.0245C70.8707 31.6899 70.2596 31.4979 69.6776 31.4324C69.0971 31.3655 68.5384 31.4207 68.1034 31.5706C68.038 31.719 68.0219 31.8761 68.051 32.0391C68.0772 32.202 68.1616 32.3679 68.2649 32.5396C68.4802 32.8815 68.8789 33.235 69.3896 33.5726C70.3833 34.2055 71.5836 34.5983 72.49 34.4615C72.0957 34.1618 71.7044 33.8636 71.3188 33.5697C71.1326 33.4242 70.9464 33.2801 70.7616 33.1361C70.5768 32.9935 70.3935 32.8524 70.2102 32.7127C70.6161 32.9673 71.0235 33.2248 71.4337 33.4838C71.8455 33.7428 72.2791 34.0076 72.7083 34.2724Z" fill="url(#paint30_linear)"/>
<path d="M71.5004 28.4438C71.2938 28.3012 71.0654 28.1732 70.7933 28.0742C70.2143 27.856 69.6061 27.7832 69.0489 27.8211C68.4902 27.8589 67.9751 28.0087 67.5939 28.2255C67.559 28.3768 67.5707 28.5296 67.6274 28.678C67.655 28.7522 67.6943 28.8264 67.7438 28.8991C67.7947 28.9719 67.8544 29.0432 67.9184 29.1145C68.0493 29.2571 68.2225 29.3953 68.4334 29.5262C68.5382 29.5917 68.6546 29.6543 68.7753 29.7154C68.8946 29.7765 69.0227 29.8361 69.1594 29.8929C69.6759 30.1053 70.2463 30.245 70.7788 30.3002C71.3098 30.3555 71.819 30.3206 72.2293 30.1751C72.0198 30.0689 71.803 29.9627 71.5921 29.8594C71.384 29.7547 71.176 29.6514 70.9694 29.5481C70.5663 29.3429 70.1692 29.1392 69.7749 28.9384C70.6231 29.2731 71.483 29.6193 72.401 29.9613C72.4258 29.6252 72.2977 29.2527 72.0242 28.9166C71.8801 28.7464 71.7056 28.5863 71.5004 28.4438Z" fill="url(#paint31_linear)"/>
<path d="M70.8015 25.0117C70.4741 24.7484 70.0377 24.5345 69.5037 24.4356C68.3383 24.2246 67.1744 24.5811 66.524 25.1237C66.5182 25.2721 66.556 25.4133 66.6346 25.5442C66.7117 25.6752 66.8383 25.793 66.9823 25.9065C67.2762 26.132 67.7374 26.3051 68.283 26.4259C68.8053 26.5365 69.3626 26.5699 69.8733 26.5277C70.381 26.487 70.851 26.3648 71.2118 26.1567C70.9921 26.0942 70.7753 26.0331 70.5585 25.972C70.3447 25.9094 70.1322 25.8483 69.9213 25.7872C69.5081 25.6635 69.0992 25.5413 68.6948 25.4191C69.5503 25.5879 70.4145 25.7654 71.334 25.9239C71.302 25.6068 71.1158 25.2809 70.8015 25.0117Z" fill="url(#paint32_linear)"/>
<path d="M69.6285 22.3007C69.547 22.0054 69.3084 21.7377 68.9738 21.5354C68.6304 21.339 68.1721 21.2226 67.6629 21.2139C66.5382 21.2095 65.4994 21.742 64.9844 22.3575C65.0237 22.6383 65.2346 22.8507 65.5489 23.0151C65.7089 23.0951 65.9024 23.1577 66.125 23.2013C66.3462 23.245 66.5862 23.2784 66.8583 23.2857C67.884 23.3104 68.9491 23.0515 69.5528 22.5379C69.1251 22.4957 68.7017 22.452 68.2812 22.4113C67.8739 22.3647 67.4709 22.3182 67.0722 22.2731C67.4883 22.2804 67.9059 22.2876 68.3278 22.2949C68.7512 22.3022 69.1906 22.3007 69.6285 22.3007Z" fill="url(#paint33_linear)"/>
<path d="M67.4748 19.1003C67.357 18.8296 67.0849 18.6216 66.7328 18.4921C66.5553 18.4295 66.3633 18.3801 66.1436 18.3684C65.9253 18.3553 65.6925 18.367 65.451 18.4063C65.1906 18.4499 64.9389 18.5212 64.7032 18.6172C64.466 18.7147 64.242 18.8384 64.0412 18.9751C63.6396 19.2487 63.3239 19.5789 63.1348 19.9092C63.2308 20.1551 63.4432 20.3457 63.7778 20.4373C63.8608 20.4606 63.951 20.4795 64.047 20.4912C64.143 20.5043 64.2405 20.5159 64.3482 20.5203C64.5606 20.529 64.7963 20.5159 65.0524 20.4781C65.5398 20.4024 66.0097 20.2686 66.4302 20.0722C66.8492 19.8772 67.2086 19.6255 67.4457 19.336C66.631 19.3942 65.8249 19.4611 65.0829 19.4902C65.467 19.4349 65.8569 19.3767 66.2585 19.3098C66.6615 19.2385 67.0674 19.1686 67.4748 19.1003Z" fill="url(#paint34_linear)"/>
<path d="M64.8331 16.4994C64.7517 16.3874 64.6426 16.2913 64.5102 16.2157C64.3763 16.14 64.225 16.0789 64.0446 16.0527C63.691 15.996 63.2735 16.028 62.837 16.1764C61.8797 16.5169 61.1594 17.272 60.9121 17.9499C60.9732 18.0634 61.0649 18.1522 61.1827 18.2162C61.2409 18.2482 61.3064 18.2744 61.3777 18.2933C61.449 18.3137 61.5217 18.3326 61.6032 18.3428C61.7632 18.3646 61.9466 18.3602 62.1488 18.3326C62.351 18.3035 62.5737 18.2482 62.8006 18.1784C63.6692 17.9005 64.5 17.3374 64.8462 16.722C64.4665 16.8238 64.094 16.9184 63.7332 17.0028C63.643 17.0232 63.5543 17.045 63.4641 17.0654C63.3739 17.0872 63.2836 17.109 63.1934 17.1323C63.0145 17.1759 62.837 17.2167 62.6638 17.2559C63.013 17.1425 63.3782 17.013 63.7361 16.8908C64.0955 16.7671 64.4607 16.6376 64.8331 16.4994Z" fill="url(#paint35_linear)"/>
<path d="M67.366 55.7625C67.0546 55.5632 66.7054 55.3872 66.3344 55.2388C66.1482 55.1646 65.9562 55.0976 65.7597 55.0395C65.5633 54.9813 65.364 54.9318 65.1559 54.8823C64.7733 54.795 64.4081 54.7441 64.0662 54.7266C63.8945 54.7165 63.7316 54.7194 63.5715 54.7237C63.41 54.7266 63.2544 54.7368 63.106 54.7557C62.8106 54.7936 62.5429 54.8649 62.3101 54.9696C62.0715 55.0656 61.8663 55.1893 61.7005 55.3508C62.2519 55.6491 62.8368 55.9284 63.4289 56.1394C63.7272 56.2485 64.0313 56.3489 64.3412 56.4405C64.4969 56.4856 64.6525 56.5293 64.8111 56.57C64.9697 56.6108 65.1239 56.6428 65.2825 56.6748C64.9668 56.6471 64.6438 56.5948 64.3281 56.5351C64.0124 56.4755 63.701 56.4056 63.3955 56.3271C63.0914 56.2514 62.7844 56.1525 62.4847 56.0463C62.185 55.9401 61.8896 55.8251 61.6016 55.7015C61.7689 56.2354 62.1239 56.781 62.6433 57.2495C62.9023 57.4837 63.2034 57.6991 63.541 57.8824C63.8785 58.0657 64.2553 58.2228 64.6525 58.3203C65.0759 58.428 65.5008 58.4789 65.9111 58.4789C66.1177 58.4818 66.3155 58.4629 66.5076 58.4323C66.6996 58.4018 66.8858 58.361 67.0648 58.3087C67.7864 58.1093 68.3451 57.6947 68.6594 57.2029C68.4586 56.6559 67.9887 56.1627 67.366 55.7625Z" fill="url(#paint36_linear)"/>
<path d="M72.3354 51.7573C72.0794 51.5769 71.7767 51.4227 71.4421 51.2975C70.7743 51.0487 69.9828 50.9149 69.1841 50.9222C68.8145 50.9251 68.4523 50.9454 68.1278 50.9993C67.8004 51.0502 67.5095 51.1346 67.2388 51.2306C66.9668 51.3252 66.7296 51.4459 66.5317 51.59C66.4328 51.6627 66.3426 51.7398 66.264 51.8242C66.1855 51.9086 66.1098 51.9901 66.0487 52.0832C66.1957 52.1254 66.3426 52.1647 66.491 52.2025C66.6394 52.2389 66.7849 52.2709 66.9333 52.3014C67.2286 52.3625 67.5298 52.4135 67.8339 52.4557C68.138 52.4978 68.4464 52.5299 68.7578 52.5531C69.0633 52.5691 69.3718 52.5764 69.6831 52.5721C69.3761 52.6055 69.0735 52.6332 68.7665 52.6433C68.4566 52.6506 68.1482 52.6477 67.8426 52.6361C67.5371 52.6244 67.2345 52.6026 66.9362 52.5706C66.6336 52.5357 66.3281 52.4848 66.0312 52.428C66.3033 52.8921 66.7558 53.3286 67.3451 53.6603C67.6389 53.8262 67.9692 53.9673 68.3242 54.0692C68.6749 54.1666 69.0531 54.2278 69.4518 54.2423C69.6627 54.2496 69.8693 54.2452 70.073 54.2278C70.2767 54.2103 70.476 54.1812 70.6623 54.1346C71.0376 54.0444 71.3897 53.9091 71.7025 53.7418C72.0197 53.5774 72.2787 53.3635 72.4911 53.1322C72.7035 52.9009 72.8621 52.6492 72.9567 52.3873C72.8083 52.1501 72.593 51.9377 72.3354 51.7573Z" fill="url(#paint37_linear)"/>
<path d="M72.334 46.4682C71.9848 46.5438 71.6488 46.637 71.3534 46.7534C71.0566 46.8683 70.7947 47.0051 70.5648 47.1549C70.3277 47.3004 70.1284 47.4619 69.9698 47.638C69.8912 47.7267 69.8214 47.8184 69.7646 47.9129C69.7064 48.0075 69.6613 48.1064 69.6191 48.2039C69.9159 48.2257 70.1997 48.2258 70.4921 48.2243C70.7831 48.2199 71.077 48.2083 71.3723 48.185C71.6662 48.1617 71.9674 48.1326 72.2598 48.0875C72.5508 48.041 72.8418 47.9857 73.1342 47.9187C72.8534 48.0133 72.5712 48.0977 72.2889 48.1719C71.9994 48.2418 71.7084 48.3014 71.4174 48.3523C70.8355 48.4527 70.2651 48.5211 69.6715 48.5327C70.367 49.2893 71.755 49.8087 73.2579 49.5337C73.4572 49.4988 73.6522 49.4522 73.8399 49.3955C73.933 49.3664 74.0276 49.3358 74.1148 49.3024C74.2021 49.2675 74.288 49.2297 74.3724 49.1889C74.707 49.0289 75.0096 48.8324 75.2701 48.6128C75.5349 48.396 75.7371 48.1457 75.8884 47.8867C76.0397 47.6278 76.1387 47.3601 76.175 47.0967C75.4141 46.3314 73.834 46.1379 72.334 46.4682Z" fill="url(#paint38_linear)"/>
<path d="M76.3967 41.101C76.0693 41.1156 75.7259 41.1665 75.3797 41.2509C75.2065 41.2931 75.0334 41.344 74.8617 41.4022C74.69 41.4604 74.5198 41.5273 74.3452 41.6001C74.0251 41.7354 73.7356 41.8881 73.4795 42.054C73.3515 42.1369 73.2337 42.2228 73.1231 42.3115C73.011 42.3988 72.9034 42.4876 72.8074 42.5792C72.6153 42.7625 72.4596 42.9532 72.3476 43.151C72.2909 43.25 72.2458 43.3503 72.2108 43.4507C72.1716 43.5497 72.1425 43.6501 72.125 43.7504C72.6895 43.6733 73.2278 43.5497 73.772 43.394C74.044 43.3154 74.3147 43.2281 74.5853 43.1321C74.7206 43.0841 74.8573 43.0346 74.9897 42.9808C75.1207 42.927 75.2516 42.8702 75.3811 42.812C75.2589 42.8833 75.1352 42.9517 75.0116 43.0172C74.8835 43.0826 74.7555 43.1452 74.626 43.2049C74.3685 43.3256 74.1081 43.4376 73.8476 43.5424C73.5857 43.6457 73.3238 43.7417 73.0591 43.8275C72.787 43.9105 72.5135 43.9847 72.2399 44.0502C72.6444 44.3382 73.1915 44.5332 73.8142 44.5914C74.1255 44.6205 74.4558 44.6147 74.7948 44.5696C75.1294 44.5216 75.4684 44.4328 75.8074 44.299C76.1668 44.1578 76.497 43.976 76.7895 43.7679C77.079 43.5584 77.3176 43.3154 77.5184 43.0623C77.9258 42.5589 78.112 41.9856 78.0785 41.4779C77.6479 41.1883 77.0528 41.0719 76.3967 41.101Z" fill="url(#paint39_linear)"/>
<path d="M75.341 36.6141C75.0646 36.8003 74.8172 36.9982 74.6077 37.2004C74.503 37.3023 74.4055 37.4041 74.3182 37.5074C74.2324 37.6107 74.1523 37.7155 74.0767 37.8188C73.9283 38.0268 73.8177 38.2349 73.7479 38.4415C73.713 38.5448 73.6882 38.6466 73.6737 38.7485C73.6562 38.8489 73.646 38.9493 73.6489 39.0467C74.164 38.8678 74.6485 38.6525 75.1329 38.4051C75.3745 38.2815 75.6145 38.149 75.8517 38.0094C76.0874 37.8682 76.3114 37.7184 76.537 37.5598C76.3289 37.7373 76.1281 37.909 75.9055 38.0705C75.6844 38.232 75.4603 38.3862 75.2333 38.5317C75.0064 38.6772 74.7765 38.8154 74.5437 38.9464C74.3037 39.0744 74.0607 39.1951 73.8148 39.3086C74.2498 39.5036 74.8012 39.5851 75.3963 39.524C75.6946 39.4934 76.003 39.4265 76.3144 39.3217C76.6184 39.2141 76.9225 39.0686 77.2179 38.8794C78.4866 38.0894 79.0904 36.7523 78.8343 35.811C77.9177 35.4283 76.502 35.8081 75.341 36.6141Z" fill="url(#paint40_linear)"/>
<path d="M75.2571 31.7175C75.0404 31.9416 74.8352 32.1715 74.6766 32.3984C74.5137 32.6269 74.3856 32.8538 74.2925 33.075C74.0845 33.5173 74.0292 33.9377 74.115 34.3029C74.5588 34.041 74.9778 33.7501 75.391 33.4314C75.5947 33.2714 75.8027 33.1041 75.9933 32.9309C76.1854 32.7564 76.3716 32.5759 76.5549 32.3868C76.3934 32.5905 76.2261 32.7869 76.0559 32.979C75.8798 33.1696 75.6936 33.3543 75.5074 33.5318C75.1306 33.8868 74.745 34.2156 74.3172 34.5168C75.2004 34.7234 76.4676 34.4164 77.4352 33.494C77.9604 33.0081 78.2936 32.4304 78.4638 31.8659C78.554 31.5837 78.5773 31.3072 78.5671 31.0483C78.5555 30.7893 78.5002 30.5492 78.3998 30.3412C77.9313 30.2451 77.3871 30.3484 76.8372 30.5958C76.2858 30.8431 75.7314 31.2345 75.2571 31.7175Z" fill="url(#paint41_linear)"/>
<path d="M74.3928 27.096C74.2298 27.3434 74.08 27.5951 73.9679 27.8381C73.8545 28.081 73.7745 28.3167 73.725 28.5408C73.6159 28.9918 73.6261 29.3992 73.7803 29.7251C74.5034 29.0777 75.1828 28.3284 75.7284 27.4947C75.4956 27.9326 75.2439 28.3516 74.9471 28.7532C74.8016 28.954 74.6518 29.1489 74.4961 29.3381C74.3419 29.5272 74.1818 29.7105 74.0072 29.8895C74.4423 29.907 74.9384 29.7876 75.4258 29.533C75.9103 29.2799 76.3715 28.8914 76.7512 28.3735C76.8516 28.2367 76.9418 28.097 77.0219 27.9544C77.1004 27.8119 77.163 27.6693 77.2197 27.5252C77.3303 27.2372 77.4001 26.9476 77.4321 26.6683C77.4496 26.5286 77.4511 26.3933 77.4409 26.2624C77.4321 26.1314 77.4132 26.0048 77.3856 25.8855C77.3303 25.6455 77.2357 25.4302 77.1062 25.2541C76.6479 25.2468 76.1562 25.4374 75.6819 25.7662C75.2075 26.0951 74.7551 26.5592 74.3928 27.096Z" fill="url(#paint42_linear)"/>
<path d="M72.391 24.3457C72.3663 24.788 72.4478 25.1677 72.6485 25.447C73.2131 24.7138 73.7208 23.8932 74.0889 23.0202C74.0176 23.2457 73.9405 23.4669 73.8561 23.6851C73.7747 23.9019 73.6728 24.1216 73.5724 24.334C73.4706 24.5464 73.3629 24.756 73.2509 24.9596C73.1374 25.1648 73.0225 25.3627 72.8901 25.562C73.3004 25.5023 73.7456 25.303 74.1573 24.98C74.5661 24.6585 74.9328 24.2147 75.199 23.6648C75.4886 23.0813 75.5788 22.4863 75.5438 21.9538C75.5293 21.6861 75.4609 21.4445 75.3678 21.2292C75.2747 21.0153 75.1496 20.8306 74.9968 20.6865C74.1442 20.8247 73.2625 21.7457 72.7678 22.8747C72.5365 23.4029 72.4027 23.9092 72.391 24.3457Z" fill="url(#paint43_linear)"/>
<path d="M70.8318 21.5944C71.0399 21.2001 71.2174 20.7957 71.3774 20.3737C71.4574 20.1628 71.5302 19.9489 71.5985 19.7321C71.664 19.5168 71.7193 19.3 71.7702 19.0788C71.7411 19.3014 71.7106 19.5197 71.6655 19.7394C71.6189 19.9605 71.5665 20.1788 71.5083 20.3941C71.3905 20.8262 71.2566 21.2423 71.0777 21.6599C71.8241 21.4096 72.6155 20.6051 72.9167 19.4935C72.9967 19.1996 73.0447 18.9028 73.0476 18.6249C73.0491 18.347 73.0156 18.0808 72.9516 17.8378C72.8323 17.346 72.5617 16.9634 72.23 16.748C71.4516 17.023 70.7867 18.0269 70.5117 19.1676C70.375 19.7045 70.3488 20.1919 70.404 20.608C70.4521 21.027 70.6019 21.3645 70.8318 21.5944Z" fill="url(#paint44_linear)"/>
<path d="M67.8119 17.4807C67.9297 17.8605 68.1291 18.1456 68.3735 18.329C68.439 18.1267 68.4986 17.9216 68.5525 17.715C68.6019 17.5113 68.647 17.3061 68.6849 17.0966C68.762 16.6805 68.8172 16.2528 68.8434 15.8221C68.8696 16.6791 68.8071 17.5142 68.615 18.3464C68.9438 18.166 69.2566 17.8576 69.5025 17.456C69.7469 17.0559 69.9317 16.5554 69.9768 16.0185C70.0932 14.8677 69.5927 13.8594 68.8929 13.5801C68.551 13.7736 68.2658 14.1315 68.0592 14.5782C67.9545 14.8022 67.8715 15.0452 67.8075 15.3056C67.7421 15.5675 67.697 15.8425 67.6766 16.1218C67.6591 16.3808 67.6635 16.6252 67.6882 16.8507C67.7159 17.0748 67.7508 17.293 67.8119 17.4807Z" fill="url(#paint45_linear)"/>
<path d="M64.9241 14.8876C65.0143 15.0491 65.1088 15.2004 65.2194 15.3183C65.33 15.4376 65.4522 15.5293 65.5846 15.5889C65.637 15.1946 65.6675 14.7945 65.6748 14.3886C65.6835 13.9827 65.6559 13.5884 65.6122 13.1825C65.6544 13.3789 65.6908 13.5753 65.7214 13.7703C65.7359 13.8677 65.7505 13.9667 65.7636 14.0642C65.7737 14.1645 65.7825 14.2649 65.7912 14.3653C65.8217 14.7669 65.829 15.167 65.8145 15.5627C66.3703 15.1161 66.7747 14.2096 66.702 13.1737C66.686 12.8973 66.6278 12.6441 66.5478 12.4099C66.4663 12.1757 66.3601 11.9618 66.2364 11.7756C66.1738 11.6824 66.1084 11.5951 66.0356 11.5195C65.9629 11.4453 65.8858 11.3784 65.8072 11.3202C65.6486 11.2038 65.4798 11.1223 65.3082 11.083C64.7378 11.55 64.4687 12.6005 64.5822 13.6408C64.6287 14.1325 64.7466 14.5603 64.9241 14.8876Z" fill="url(#paint46_linear)"/>
<path d="M61.9905 54.6332C62.1069 54.5677 62.2146 54.4906 62.328 54.4193L62.9988 53.9857C63.2199 53.8388 63.4323 53.6758 63.6491 53.5216C63.863 53.3645 64.0841 53.2146 64.2878 53.0429L64.9091 52.5424C64.96 52.5003 65.0138 52.4595 65.0633 52.4159L65.2117 52.2835L65.5085 52.0172L65.8053 51.751C65.9057 51.6637 66.0032 51.5735 66.0963 51.4789L66.6623 50.9173C66.8543 50.734 67.0289 50.5332 67.2079 50.3368C67.3854 50.1389 67.5672 49.9454 67.7404 49.7446L68.2438 49.1263L68.4955 48.8178L68.7312 48.4963L69.2011 47.8532C69.3524 47.635 69.4936 47.4095 69.639 47.1883C69.9388 46.7504 70.1948 46.2848 70.4625 45.8265C70.6007 45.5996 70.7142 45.3595 70.8364 45.1252C70.9558 44.8881 71.0794 44.6538 71.1958 44.4167L71.5188 43.6907L71.6803 43.3269C71.7356 43.2062 71.7778 43.0811 71.8272 42.9574C72.0149 42.4627 72.2143 41.9709 72.367 41.4632L72.4907 41.0864L72.5518 40.8972L72.6042 40.7052L72.8137 39.9399C73.0654 38.9127 73.2836 37.8739 73.3986 36.822L73.4495 36.4291L73.4815 36.0334C73.5019 35.7701 73.5266 35.5067 73.5426 35.2434C73.5586 34.7152 73.5892 34.1871 73.5717 33.659C73.5761 33.1308 73.5353 32.6027 73.5062 32.076C73.4859 31.8127 73.4539 31.5508 73.4277 31.2874L73.3855 30.8932L73.3258 30.5018C73.1832 29.4557 72.9475 28.4241 72.6624 27.4086C72.5867 27.1554 72.5154 26.9023 72.4354 26.6506L72.1764 25.9027C72.095 25.651 71.9888 25.4095 71.8942 25.1651C71.7967 24.9207 71.7036 24.6733 71.5901 24.4362C70.7433 22.5055 69.6289 20.6956 68.2874 19.0748L67.7753 18.4739C67.5992 18.2789 67.4159 18.0898 67.237 17.8977C67.1453 17.8032 67.0595 17.7042 66.9649 17.6126L66.6812 17.3391L66.3975 17.0655L66.2563 16.9288L66.1079 16.7993L65.5158 16.2799C65.315 16.1096 65.1055 15.951 64.9018 15.7866C64.7985 15.7052 64.6967 15.6222 64.5919 15.5422L64.2718 15.3123L63.9517 15.0825C63.8441 15.0068 63.7393 14.9268 63.6273 14.8584C63.7379 14.9282 63.8412 15.0097 63.9474 15.0868L64.2645 15.3211L64.5817 15.5553C64.685 15.6368 64.7854 15.7212 64.8873 15.8041C65.0895 15.9714 65.2961 16.1329 65.4939 16.3061L66.0774 16.8327L66.2229 16.9651L66.3626 17.1034L66.6419 17.3813L66.9198 17.6591C67.0129 17.7508 67.0973 17.8512 67.1875 17.9472C67.3635 18.1422 67.5425 18.3328 67.7156 18.5292L68.2161 19.1344C69.5285 20.7683 70.6095 22.5841 71.4228 24.5104C71.5319 24.7475 71.6206 24.9949 71.7138 25.2379C71.804 25.4823 71.9073 25.7238 71.9829 25.974L72.2288 26.719C72.303 26.9692 72.3714 27.2224 72.4427 27.4726C72.7118 28.4823 72.9301 29.5051 73.0552 30.5425L73.1076 30.931L73.144 31.3209C73.1658 31.5813 73.1949 31.8403 73.2109 32.1007C73.2327 32.6216 73.2647 33.1425 73.2545 33.6648C73.2647 34.1871 73.2254 34.7065 73.2036 35.2274C73.1847 35.4878 73.1556 35.7468 73.1323 36.0058L73.0945 36.3942L73.0392 36.7812C72.9112 37.8157 72.6813 38.8341 72.4209 39.841L72.2041 40.5902L72.1488 40.7779L72.0862 40.9627L71.9596 41.3322C71.8025 41.8284 71.5988 42.3085 71.4082 42.7915C71.3588 42.9108 71.3166 43.0345 71.2598 43.1524L71.0954 43.5059L70.7681 44.2144C70.6502 44.4458 70.5265 44.6742 70.4058 44.9041C70.2821 45.1325 70.1686 45.3668 70.0304 45.5865C69.7627 46.0317 69.5052 46.4841 69.2055 46.9075C69.0585 47.1214 68.9188 47.3411 68.7675 47.5506L68.299 48.1733L68.0648 48.4847L67.8146 48.7829L67.3141 49.3794C67.1424 49.5729 66.962 49.7606 66.7859 49.9512C66.6084 50.1404 66.4367 50.3339 66.2462 50.5099L65.6875 51.0497C65.5958 51.1413 65.4983 51.2272 65.4008 51.3116L65.1069 51.5662L64.8145 51.8208L64.6676 51.9488C64.6181 51.9896 64.5657 52.0289 64.5148 52.0696L63.9037 52.5483C63.7029 52.7127 63.4861 52.8553 63.2752 53.0051C63.0613 53.1521 62.8547 53.3077 62.6365 53.4474L61.9789 53.8606C61.8683 53.9275 61.7621 54.0017 61.6486 54.0643L61.3096 54.2534C61.0826 54.3786 60.8586 54.5081 60.6301 54.6288L59.9332 54.9707C59.8168 55.0275 59.7019 55.0857 59.584 55.1409L59.2276 55.2937L58.6994 55.5192L58.698 55.5178C58.6776 55.5265 58.6573 55.5367 58.6369 55.5469L58.5147 55.5992L58.5161 55.6036C56.7091 56.4489 55.2527 57.8995 54.406 59.7123L54.291 59.9582L54.9428 60.2623L55.0578 60.0164C55.8594 58.3025 57.2547 56.9378 58.9861 56.1768V56.1754L59.5142 55.9412L59.8794 55.7782C59.9987 55.72 60.1166 55.6574 60.2359 55.5978L60.9488 55.2355C61.1815 55.1075 61.4114 54.9707 61.6428 54.8383L61.9905 54.6332Z" fill="url(#paint47_linear)"/>
<path d="M35.7429 0.262695L36.5766 2.91939L39.3613 2.89176L37.0916 4.50527L37.9791 7.14596L35.7429 5.48588L33.5052 7.14596L34.3927 4.50527L32.123 2.89176L34.9092 2.91939L35.7429 0.262695Z" fill="url(#paint48_linear)"/>
<path d="M35.7438 4.0717V0.262695L34.9102 2.91939L35.7438 4.0717Z" fill="url(#paint49_linear)"/>
<path d="M35.7441 4.0717L36.5778 2.91939L35.7441 0.262695V4.0717Z" fill="url(#paint50_linear)"/>
<g style="mix-blend-mode:overlay" opacity="0.5">
<path d="M35.7441 4.0717L36.5778 2.91939L35.7441 0.262695V4.0717Z" fill="black"/>
</g>
<path d="M37.0929 4.50609L39.3625 2.89258L35.7441 4.07252L37.0929 4.50609Z" fill="url(#paint51_linear)"/>
<g style="mix-blend-mode:overlay" opacity="0.5">
<path d="M37.0929 4.50609L39.3625 2.89258L35.7441 4.07252L37.0929 4.50609Z" fill="black"/>
</g>
<path d="M39.3625 2.89258L35.7441 4.07252L36.5778 2.92021L39.3625 2.89258Z" fill="url(#paint52_linear)"/>
<path d="M35.7441 4.07227L37.0929 4.50583L37.9804 7.14653L35.7441 4.07227Z" fill="url(#paint53_linear)"/>
<path d="M35.7441 4.07227V5.48645L37.9804 7.14653L35.7441 4.07227Z" fill="url(#paint54_linear)"/>
<g style="mix-blend-mode:overlay" opacity="0.5">
<path d="M35.7441 4.07227V5.48645L37.9804 7.14653L35.7441 4.07227Z" fill="black"/>
</g>
<path d="M34.3927 4.50609L32.123 2.89258L35.7429 4.07252L34.3927 4.50609Z" fill="url(#paint55_linear)"/>
<g style="mix-blend-mode:overlay" opacity="0.5">
<path d="M34.3927 4.50609L32.123 2.89258L35.7429 4.07252L34.3927 4.50609Z" fill="black"/>
</g>
<path d="M32.123 2.89258L35.7429 4.07252L34.9092 2.92021L32.123 2.89258Z" fill="url(#paint56_linear)"/>
<path d="M35.7435 4.07227L34.3934 4.50583L33.5059 7.14653L35.7435 4.07227Z" fill="url(#paint57_linear)"/>
<path d="M35.7435 4.07227V5.48645L33.5059 7.14653L35.7435 4.07227Z" fill="url(#paint58_linear)"/>
<g style="mix-blend-mode:overlay" opacity="0.5">
<path d="M35.7435 4.07227V5.48645L33.5059 7.14653L35.7435 4.07227Z" fill="black"/>
</g>
<g opacity="0.3">
<g style="mix-blend-mode:overlay" opacity="0.3">
<path d="M32.127 2.89258L32.2404 2.92749L32.3539 2.96241L32.5809 3.03225C32.7322 3.0788 32.8835 3.12681 33.0348 3.17483C33.1861 3.22284 33.336 3.27085 33.4873 3.31886L33.9398 3.46581L34.3908 3.61422C34.5407 3.66368 34.692 3.71316 34.8418 3.76408C34.9917 3.81354 35.1416 3.86446 35.2929 3.91538L35.5169 3.99249L35.629 4.03178L35.741 4.07106L35.6275 4.03615L35.514 4.00123L35.287 3.9314C35.1357 3.88484 34.9844 3.83681 34.8331 3.7888C34.6818 3.74079 34.5319 3.69278 34.3806 3.64476L33.9281 3.49781L33.4771 3.34943C33.3273 3.29996 33.176 3.25049 33.0261 3.19957C32.8762 3.1501 32.7264 3.09917 32.5751 3.04825L32.351 2.97113L32.239 2.93186L32.127 2.89258Z" fill="white"/>
</g>
</g>
<g opacity="0.3">
<path opacity="0.3" d="M35.7421 0.262695L35.745 0.382009L35.7464 0.501305L35.7508 0.738459C35.7523 0.897046 35.7552 1.05564 35.7552 1.21422C35.7566 1.37281 35.7566 1.5314 35.7581 1.68999L35.7595 2.16575L35.7581 2.6415C35.7566 2.80008 35.7566 2.95867 35.7552 3.11726C35.7537 3.27585 35.7523 3.43444 35.7508 3.59302L35.7464 3.83018L35.745 3.94949L35.7421 4.06879L35.7392 3.94949L35.7377 3.83018L35.7333 3.59302C35.7319 3.43444 35.729 3.27585 35.729 3.11726C35.7275 2.95867 35.7275 2.80008 35.7261 2.6415L35.7246 2.16575L35.7261 1.68999C35.7275 1.5314 35.7275 1.37281 35.729 1.21422C35.7304 1.05564 35.7319 0.897046 35.7333 0.738459L35.7377 0.501305L35.7392 0.382009L35.7421 0.262695Z" fill="white"/>
</g>
<g opacity="0.3">
<path opacity="0.3" d="M39.3625 2.89258L39.2505 2.93186L39.1385 2.97113L38.913 3.04825C38.7631 3.09917 38.6118 3.1501 38.4619 3.19957C38.3121 3.25049 38.1608 3.29996 38.0109 3.34943L37.5584 3.49781L37.1059 3.64476C36.9546 3.69278 36.8033 3.74224 36.652 3.7888C36.5007 3.83681 36.3494 3.88484 36.1981 3.9314L35.9711 4.00123L35.8576 4.03615L35.7441 4.07106L35.8562 4.03178L35.9682 3.99249L36.1937 3.91538C36.3436 3.86446 36.4949 3.81354 36.6447 3.76408C36.7946 3.71316 36.9459 3.66368 37.0958 3.61422L37.5482 3.46581L38.0007 3.31886C38.152 3.27085 38.3033 3.22138 38.4547 3.17483C38.606 3.12681 38.7573 3.0788 38.9086 3.03225L39.1356 2.96241L39.2491 2.92749L39.3625 2.89258Z" fill="white"/>
</g>
<g opacity="0.3">
<path opacity="0.3" d="M37.9779 7.14603L37.9066 7.05145L37.8353 6.95688L37.6927 6.76629C37.5982 6.63972 37.5036 6.51168 37.409 6.3851C37.3145 6.25853 37.2214 6.13049 37.1268 6.00246L36.846 5.61836L36.5666 5.2328C36.4735 5.10331 36.3819 4.97527 36.2887 4.84724C36.1971 4.71775 36.1054 4.58971 36.0138 4.46022L35.877 4.26527L35.8086 4.1678L35.7402 4.07031L35.8115 4.16489L35.8828 4.25944L36.0254 4.45005C36.12 4.57662 36.2145 4.70466 36.3091 4.83124C36.4037 4.95781 36.4968 5.08585 36.5914 5.21388L36.8722 5.59798L37.1515 5.98354C37.2446 6.11158 37.3363 6.24105 37.4294 6.37054C37.5211 6.50003 37.6127 6.62807 37.7044 6.75756L37.8411 6.95251L37.9095 7.05L37.9779 7.14603Z" fill="white"/>
</g>
<g opacity="0.3">
<path opacity="0.3" d="M33.5039 7.14553L33.5723 7.04805L33.6407 6.95056L33.7774 6.7556C33.8691 6.62612 33.9608 6.49662 34.0524 6.36859C34.1441 6.2391 34.2372 6.11108 34.3303 5.98159L34.6096 5.59603L34.8905 5.21193C34.985 5.0839 35.0781 4.95586 35.1727 4.82928C35.2673 4.70125 35.3618 4.57467 35.4564 4.44809L35.599 4.25751L35.6703 4.16293L35.7416 4.06836L35.6732 4.16585L35.6048 4.26331L35.4681 4.45829C35.3764 4.58778 35.2847 4.71725 35.1931 4.84529C35.1014 4.97477 35.0083 5.10281 34.9152 5.23084L34.6358 5.6164L34.355 6.00051C34.2605 6.12854 34.1673 6.25657 34.0728 6.38315C33.9782 6.51119 33.8836 6.63776 33.7891 6.76434L33.6465 6.95493L33.5752 7.0495L33.5039 7.14553Z" fill="white"/>
</g>
<path d="M43.6164 0.263672L44.4501 2.92037L47.2363 2.89273L44.9666 4.50624L45.8541 7.14694L43.6164 5.48686L41.3802 7.14694L42.2677 4.50624L39.998 2.89273L42.7828 2.92037L43.6164 0.263672Z" fill="url(#paint59_linear)"/>
<path d="M43.6169 4.0717V0.262695L42.7832 2.91939L43.6169 4.0717Z" fill="url(#paint60_linear)"/>
<path d="M43.6172 4.0717L44.4509 2.91939L43.6172 0.262695V4.0717Z" fill="url(#paint61_linear)"/>
<g style="mix-blend-mode:overlay" opacity="0.5">
<path d="M43.6172 4.0717L44.4509 2.91939L43.6172 0.262695V4.0717Z" fill="black"/>
</g>
<path d="M44.9674 4.50609L47.237 2.89258L43.6172 4.07252L44.9674 4.50609Z" fill="url(#paint62_linear)"/>
<g style="mix-blend-mode:overlay" opacity="0.5">
<path d="M44.9674 4.50609L47.237 2.89258L43.6172 4.07252L44.9674 4.50609Z" fill="black"/>
</g>
<path d="M47.237 2.89258L43.6172 4.07252L44.4509 2.92021L47.237 2.89258Z" fill="url(#paint63_linear)"/>
<path d="M43.6172 4.07227L44.9674 4.50583L45.8549 7.14653L43.6172 4.07227Z" fill="url(#paint64_linear)"/>
<path d="M43.6172 4.07227V5.48645L45.8549 7.14653L43.6172 4.07227Z" fill="url(#paint65_linear)"/>
<g style="mix-blend-mode:overlay" opacity="0.5">
<path d="M43.6172 4.07227V5.48645L45.8549 7.14653L43.6172 4.07227Z" fill="black"/>
</g>
<path d="M42.2677 4.50609L39.998 2.89258L43.6164 4.07252L42.2677 4.50609Z" fill="url(#paint66_linear)"/>
<g style="mix-blend-mode:overlay" opacity="0.5">
<path d="M42.2677 4.50609L39.998 2.89258L43.6164 4.07252L42.2677 4.50609Z" fill="black"/>
</g>
<path d="M39.998 2.89258L43.6164 4.07252L42.7828 2.92021L39.998 2.89258Z" fill="url(#paint67_linear)"/>
<path d="M43.6171 4.07227L42.2684 4.50583L41.3809 7.14653L43.6171 4.07227Z" fill="url(#paint68_linear)"/>
<path d="M43.6171 4.07227V5.48645L41.3809 7.14653L43.6171 4.07227Z" fill="url(#paint69_linear)"/>
<g style="mix-blend-mode:overlay" opacity="0.5">
<path d="M43.6171 4.07227V5.48645L41.3809 7.14653L43.6171 4.07227Z" fill="black"/>
</g>
<g opacity="0.3">
<path opacity="0.3" d="M40 2.89258L40.1135 2.92749L40.227 2.96241L40.4539 3.03225C40.6052 3.0788 40.7566 3.12681 40.9079 3.17483C41.0592 3.22284 41.2091 3.27085 41.3604 3.31886L41.8128 3.46581L42.2639 3.61422C42.4137 3.66368 42.565 3.71316 42.7149 3.76408C42.8648 3.81354 43.0146 3.86446 43.1659 3.91538L43.39 3.99249L43.502 4.03178L43.614 4.07106L43.5006 4.03615L43.3871 4.00123L43.1601 3.9314C43.0088 3.88484 42.8575 3.83681 42.7062 3.7888C42.5549 3.74079 42.405 3.69278 42.2537 3.64476L41.8012 3.49781L41.3502 3.34943C41.2003 3.29996 41.049 3.25049 40.8992 3.19957C40.7493 3.1501 40.5994 3.09917 40.4481 3.04825L40.2226 2.97113L40.1106 2.93186L40 2.89258Z" fill="white"/>
</g>
<g opacity="0.3">
<path opacity="0.3" d="M43.6151 0.262695L43.618 0.382009L43.6195 0.501305L43.6239 0.738459C43.6253 0.897046 43.6282 1.05564 43.6282 1.21422C43.6297 1.37281 43.6297 1.5314 43.6311 1.68999L43.6326 2.16575L43.6311 2.6415C43.6297 2.80008 43.6297 2.95867 43.6282 3.11726C43.6268 3.27585 43.6253 3.43444 43.6239 3.59302L43.6195 3.83018L43.618 3.94949L43.6151 4.06879L43.6122 3.94949L43.6108 3.83018L43.6064 3.59302C43.6049 3.43444 43.602 3.27585 43.602 3.11726C43.6006 2.95867 43.6006 2.80008 43.5991 2.6415L43.5977 2.16575L43.5991 1.68999C43.6006 1.5314 43.6006 1.37281 43.602 1.21422C43.6035 1.05564 43.6049 0.897046 43.6064 0.738459L43.6108 0.501305L43.6122 0.382009L43.6151 0.262695Z" fill="white"/>
</g>
<g opacity="0.3">
<path opacity="0.3" d="M47.2375 2.8916L47.1255 2.93089L47.0135 2.97016L46.788 3.04727C46.6381 3.09819 46.4868 3.14912 46.337 3.19859C46.1871 3.24951 46.0358 3.29898 45.8859 3.34845L45.4334 3.49684L44.9809 3.64379C44.8296 3.6918 44.6783 3.74127 44.527 3.78782C44.3757 3.83584 44.2244 3.88386 44.0731 3.93042L43.8461 4.00025L43.7326 4.03517L43.6191 4.07009L43.7312 4.0308L43.8432 3.99152L44.0687 3.9144C44.2186 3.86348 44.3699 3.81257 44.5197 3.7631C44.6696 3.71218 44.8209 3.66271 44.9708 3.61324L45.4233 3.46483L45.8757 3.31788C46.027 3.26987 46.1784 3.22041 46.3297 3.17385C46.481 3.12584 46.6323 3.07783 46.7836 3.03127L47.0106 2.96144L47.1241 2.92652L47.2375 2.8916Z" fill="white"/>
</g>
<g opacity="0.3">
<g style="mix-blend-mode:overlay" opacity="0.3">
<path d="M45.851 7.14603L45.7797 7.05145L45.7084 6.95688L45.5658 6.76629C45.4712 6.63972 45.3766 6.51168 45.2821 6.3851C45.1875 6.25853 45.0944 6.13049 44.9998 6.00246L44.719 5.61836L44.4397 5.2328C44.3466 5.10331 44.2549 4.97527 44.1618 4.84724C44.0701 4.71775 43.9785 4.58971 43.8868 4.46022L43.75 4.26527L43.6817 4.1678L43.6133 4.07031L43.6846 4.16489L43.7559 4.25944L43.8984 4.45005C43.993 4.57662 44.0876 4.70466 44.1821 4.83124C44.2767 4.95781 44.3698 5.08585 44.4644 5.21388L44.7452 5.59798L45.0246 5.98354C45.1177 6.11158 45.2093 6.24105 45.3024 6.37054C45.3941 6.50003 45.4858 6.62807 45.5774 6.75756L45.7142 6.95251L45.7826 7.05L45.851 7.14603Z" fill="white"/>
</g>
</g>
<g opacity="0.3">
<path opacity="0.3" d="M41.3789 7.14553L41.4473 7.04805L41.5157 6.95056L41.6524 6.7556C41.7441 6.62612 41.8358 6.49662 41.9274 6.36859C42.0191 6.2391 42.1122 6.11108 42.2053 5.98159L42.4847 5.59603L42.7655 5.21193C42.86 5.0839 42.9531 4.95586 43.0477 4.82928C43.1423 4.70125 43.2369 4.57467 43.3314 4.44809L43.474 4.25751L43.5453 4.16293L43.6166 4.06836L43.5482 4.16585L43.4798 4.26331L43.3431 4.45829C43.2514 4.58778 43.1598 4.71725 43.0681 4.84529C42.9764 4.97477 42.8833 5.10281 42.7902 5.23084L42.5108 5.6164L42.2301 6.00051C42.1355 6.12854 42.0424 6.25657 41.9478 6.38315C41.8532 6.51119 41.7587 6.63776 41.6641 6.76434L41.5215 6.95493L41.4502 7.0495L41.3789 7.14553Z" fill="white"/>
</g>
<path d="M28.7852 49.5622V49.1824C28.8346 42.7837 31.5568 38.2923 37.2514 31.8819C41.5871 26.9454 42.6026 25.5603 42.6026 21.7818C42.6026 18.968 42.0061 16.9951 39.2272 16.9951C36.329 16.9951 35.5797 19.3681 35.4516 23.1305H28.8739C28.9306 17.2235 31.4579 11.5508 39.4279 11.5508C46.6851 11.5508 49.5891 15.7875 49.5891 22.0204C49.5891 26.4681 48.4747 28.9008 43.6429 34.0178C40.1481 37.754 37.4827 41.0814 36.6607 43.7163H50.5741L49.6721 49.5636H28.7852V49.5622Z" fill="url(#paint70_linear)"/>
<path d="M29.1702 55.0642H31.2029C31.32 54.4629 31.7404 54.133 32.3097 54.133C32.7833 54.133 33.1239 54.4097 33.1239 54.8194C33.1239 55.3037 32.8099 55.6229 31.2561 56.7617L28.6062 58.6986L28.2656 60.2471H34.2626L34.6245 58.5443H31.6127L31.618 58.5017L32.778 57.6663C34.8533 56.171 35.3215 55.607 35.3215 54.6279C35.3215 53.3508 34.1296 52.4355 32.4694 52.4355C30.6602 52.4355 29.266 53.5477 29.1702 55.0642Z" fill="url(#paint71_linear)"/>
<path d="M37.4181 60.2471L38.3067 56.0327H38.3493L40.4405 60.2471H42.1433L43.7769 52.5686H41.6218L40.7332 56.783H40.6906L38.5994 52.5686H36.8966L35.263 60.2471H37.4181Z" fill="url(#paint72_linear)"/>
<path d="M44.9316 52.5686L43.298 60.2471H47.124C49.5558 60.2471 51.1734 58.2623 51.1734 55.5006C51.1734 53.6488 49.9016 52.5686 48.1243 52.5686H44.9316ZM46.826 54.3512H47.5869C48.3851 54.3512 48.8534 54.9312 48.8534 55.7879C48.8534 57.4588 48.002 58.4591 46.7994 58.4591H45.9586L46.826 54.3512Z" fill="url(#paint73_linear)"/>
<defs>
<linearGradient id="paint0_linear" x1="17.4301" y1="12.2666" x2="17.99" y2="14.8958" gradientUnits="userSpaceOnUse">
<stop stop-color="#0BCBAF"/>
<stop offset="0.1968" stop-color="#0BCBAF"/>
<stop offset="0.4642" stop-color="#0BCBAF"/>
<stop offset="0.7709" stop-color="#0BCBAF"/>
<stop offset="0.8989" stop-color="#0BCBAF"/>
<stop offset="1" stop-color="#31B482"/>
</linearGradient>
<linearGradient id="paint1_linear" x1="17.6562" y1="47.1173" x2="19.1093" y2="53.9404" gradientUnits="userSpaceOnUse">
<stop stop-color="#0BCBAF"/>
<stop offset="0.1968" stop-color="#0BCBAF"/>
<stop offset="0.4642" stop-color="#0BCBAF"/>
<stop offset="0.7709" stop-color="#0BCBAF"/>
<stop offset="0.8989" stop-color="#0BCBAF"/>
<stop offset="1" stop-color="#31B482"/>
</linearGradient>
<linearGradient id="paint2_linear" x1="14.2793" y1="44.7888" x2="15.5857" y2="50.9232" gradientUnits="userSpaceOnUse">
<stop stop-color="#0BCBAF"/>
<stop offset="0.1968" stop-color="#0BCBAF"/>
<stop offset="0.4642" stop-color="#0BCBAF"/>
<stop offset="0.7709" stop-color="#0BCBAF"/>
<stop offset="0.8989" stop-color="#0BCBAF"/>
<stop offset="1" stop-color="#31B482"/>
</linearGradient>
<linearGradient id="paint3_linear" x1="11.8001" y1="41.847" x2="12.9171" y2="47.092" gradientUnits="userSpaceOnUse">
<stop stop-color="#0BCBAF"/>
<stop offset="0.1968" stop-color="#0BCBAF"/>
<stop offset="0.4642" stop-color="#0BCBAF"/>
<stop offset="0.7709" stop-color="#0BCBAF"/>
<stop offset="0.8989" stop-color="#0BCBAF"/>
<stop offset="1" stop-color="#31B482"/>
</linearGradient>
<linearGradient id="paint4_linear" x1="10.0215" y1="38.5963" x2="10.9352" y2="42.8865" gradientUnits="userSpaceOnUse">
<stop stop-color="#0BCBAF"/>
<stop offset="0.1968" stop-color="#0BCBAF"/>
<stop offset="0.4642" stop-color="#0BCBAF"/>
<stop offset="0.7709" stop-color="#0BCBAF"/>
<stop offset="0.8989" stop-color="#0BCBAF"/>
<stop offset="1" stop-color="#31B482"/>
</linearGradient>
<linearGradient id="paint5_linear" x1="9.00736" y1="35.0781" x2="9.73585" y2="38.4989" gradientUnits="userSpaceOnUse">
<stop stop-color="#0BCBAF"/>
<stop offset="0.1968" stop-color="#0BCBAF"/>
<stop offset="0.4642" stop-color="#0BCBAF"/>
<stop offset="0.7709" stop-color="#0BCBAF"/>
<stop offset="0.8989" stop-color="#0BCBAF"/>
<stop offset="1" stop-color="#31B482"/>
</linearGradient>
<linearGradient id="paint6_linear" x1="8.6344" y1="31.3979" x2="9.23195" y2="34.2038" gradientUnits="userSpaceOnUse">
<stop stop-color="#0BCBAF"/>
<stop offset="0.1968" stop-color="#0BCBAF"/>
<stop offset="0.4642" stop-color="#0BCBAF"/>
<stop offset="0.7709" stop-color="#0BCBAF"/>
<stop offset="0.8989" stop-color="#0BCBAF"/>
<stop offset="1" stop-color="#31B482"/>
</linearGradient>
<linearGradient id="paint7_linear" x1="9.06913" y1="27.7132" x2="9.59268" y2="30.1717" gradientUnits="userSpaceOnUse">
<stop stop-color="#0BCBAF"/>
<stop offset="0.1968" stop-color="#0BCBAF"/>
<stop offset="0.4642" stop-color="#0BCBAF"/>
<stop offset="0.7709" stop-color="#0BCBAF"/>
<stop offset="0.8989" stop-color="#0BCBAF"/>
<stop offset="1" stop-color="#31B482"/>
</linearGradient>
<linearGradient id="paint8_linear" x1="10.1399" y1="24.1726" x2="10.6506" y2="26.5709" gradientUnits="userSpaceOnUse">
<stop stop-color="#0BCBAF"/>
<stop offset="0.1968" stop-color="#0BCBAF"/>
<stop offset="0.4642" stop-color="#0BCBAF"/>
<stop offset="0.7709" stop-color="#0BCBAF"/>
<stop offset="0.8989" stop-color="#0BCBAF"/>
<stop offset="1" stop-color="#31B482"/>
</linearGradient>
<linearGradient id="paint9_linear" x1="11.7529" y1="20.9241" x2="12.2929" y2="23.4598" gradientUnits="userSpaceOnUse">
<stop stop-color="#0BCBAF"/>
<stop offset="0.1968" stop-color="#0BCBAF"/>
<stop offset="0.4642" stop-color="#0BCBAF"/>
<stop offset="0.7709" stop-color="#0BCBAF"/>
<stop offset="0.8989" stop-color="#0BCBAF"/>
<stop offset="1" stop-color="#31B482"/>
</linearGradient>
<linearGradient id="paint10_linear" x1="13.7239" y1="18.0015" x2="14.3137" y2="20.7706" gradientUnits="userSpaceOnUse">
<stop stop-color="#0BCBAF"/>
<stop offset="0.1968" stop-color="#0BCBAF"/>
<stop offset="0.4642" stop-color="#0BCBAF"/>
<stop offset="0.7709" stop-color="#0BCBAF"/>
<stop offset="0.8989" stop-color="#0BCBAF"/>
<stop offset="1" stop-color="#31B482"/>
</linearGradient>
<linearGradient id="paint11_linear" x1="16.1164" y1="15.6266" x2="16.7555" y2="18.6273" gradientUnits="userSpaceOnUse">
<stop stop-color="#0BCBAF"/>
<stop offset="0.1968" stop-color="#0BCBAF"/>
<stop offset="0.4642" stop-color="#0BCBAF"/>
<stop offset="0.7709" stop-color="#0BCBAF"/>
<stop offset="0.8989" stop-color="#0BCBAF"/>
<stop offset="1" stop-color="#31B482"/>
</linearGradient>
<linearGradient id="paint12_linear" x1="13.8418" y1="54.6402" x2="14.6469" y2="58.4207" gradientUnits="userSpaceOnUse">
<stop stop-color="#0BCBAF"/>
<stop offset="0.1968" stop-color="#0BCBAF"/>
<stop offset="0.4642" stop-color="#0BCBAF"/>
<stop offset="0.7709" stop-color="#0BCBAF"/>
<stop offset="0.8989" stop-color="#0BCBAF"/>
<stop offset="1" stop-color="#31B482"/>
</linearGradient>
<linearGradient id="paint13_linear" x1="9.50273" y1="50.5828" x2="10.2979" y2="54.3166" gradientUnits="userSpaceOnUse">
<stop stop-color="#0BCBAF"/>
<stop offset="0.1968" stop-color="#0BCBAF"/>
<stop offset="0.4642" stop-color="#0BCBAF"/>
<stop offset="0.7709" stop-color="#0BCBAF"/>
<stop offset="0.8989" stop-color="#0BCBAF"/>
<stop offset="1" stop-color="#31B482"/>
</linearGradient>
<linearGradient id="paint14_linear" x1="6.05697" y1="45.7602" x2="6.91675" y2="49.7974" gradientUnits="userSpaceOnUse">
<stop stop-color="#0BCBAF"/>
<stop offset="0.1968" stop-color="#0BCBAF"/>
<stop offset="0.4642" stop-color="#0BCBAF"/>
<stop offset="0.7709" stop-color="#0BCBAF"/>
<stop offset="0.8989" stop-color="#0BCBAF"/>
<stop offset="1" stop-color="#31B482"/>
</linearGradient>
<linearGradient id="paint15_linear" x1="3.75436" y1="40.4263" x2="4.70608" y2="44.8952" gradientUnits="userSpaceOnUse">
<stop stop-color="#0BCBAF"/>
<stop offset="0.1968" stop-color="#0BCBAF"/>
<stop offset="0.4642" stop-color="#0BCBAF"/>
<stop offset="0.7709" stop-color="#0BCBAF"/>
<stop offset="0.8989" stop-color="#0BCBAF"/>
<stop offset="1" stop-color="#31B482"/>
</linearGradient>
<linearGradient id="paint16_linear" x1="2.50799" y1="34.9385" x2="3.56386" y2="39.8965" gradientUnits="userSpaceOnUse">
<stop stop-color="#0BCBAF"/>
<stop offset="0.1968" stop-color="#0BCBAF"/>
<stop offset="0.4642" stop-color="#0BCBAF"/>
<stop offset="0.7709" stop-color="#0BCBAF"/>
<stop offset="0.8989" stop-color="#0BCBAF"/>
<stop offset="1" stop-color="#31B482"/>
</linearGradient>
<linearGradient id="paint17_linear" x1="2.39371" y1="29.5793" x2="3.53869" y2="34.9558" gradientUnits="userSpaceOnUse">
<stop stop-color="#0BCBAF"/>
<stop offset="0.1968" stop-color="#0BCBAF"/>
<stop offset="0.4642" stop-color="#0BCBAF"/>
<stop offset="0.7709" stop-color="#0BCBAF"/>
<stop offset="0.8989" stop-color="#0BCBAF"/>
<stop offset="1" stop-color="#31B482"/>
</linearGradient>
<linearGradient id="paint18_linear" x1="3.1289" y1="24.5903" x2="4.33007" y2="30.2306" gradientUnits="userSpaceOnUse">
<stop stop-color="#0BCBAF"/>
<stop offset="0.1968" stop-color="#0BCBAF"/>
<stop offset="0.4642" stop-color="#0BCBAF"/>
<stop offset="0.7709" stop-color="#0BCBAF"/>
<stop offset="0.8989" stop-color="#0BCBAF"/>
<stop offset="1" stop-color="#31B482"/>
</linearGradient>
<linearGradient id="paint19_linear" x1="4.70597" y1="20.1345" x2="5.9132" y2="25.8032" gradientUnits="userSpaceOnUse">
<stop stop-color="#0BCBAF"/>
<stop offset="0.1968" stop-color="#0BCBAF"/>
<stop offset="0.4642" stop-color="#0BCBAF"/>
<stop offset="0.7709" stop-color="#0BCBAF"/>
<stop offset="0.8989" stop-color="#0BCBAF"/>
<stop offset="1" stop-color="#31B482"/>
</linearGradient>
<linearGradient id="paint20_linear" x1="6.99975" y1="16.3106" x2="8.16967" y2="21.8041" gradientUnits="userSpaceOnUse">
<stop stop-color="#0BCBAF"/>
<stop offset="0.1968" stop-color="#0BCBAF"/>
<stop offset="0.4642" stop-color="#0BCBAF"/>
<stop offset="0.7709" stop-color="#0BCBAF"/>
<stop offset="0.8989" stop-color="#0BCBAF"/>
<stop offset="1" stop-color="#31B482"/>
</linearGradient>
<linearGradient id="paint21_linear" x1="9.94214" y1="13.2539" x2="11.0445" y2="18.4303" gradientUnits="userSpaceOnUse">
<stop stop-color="#0BCBAF"/>
<stop offset="0.1968" stop-color="#0BCBAF"/>
<stop offset="0.4642" stop-color="#0BCBAF"/>
<stop offset="0.7709" stop-color="#0BCBAF"/>
<stop offset="0.8989" stop-color="#0BCBAF"/>
<stop offset="1" stop-color="#31B482"/>
</linearGradient>
<linearGradient id="paint22_linear" x1="13.2171" y1="10.8604" x2="14.2258" y2="15.597" gradientUnits="userSpaceOnUse">
<stop stop-color="#0BCBAF"/>
<stop offset="0.1968" stop-color="#0BCBAF"/>
<stop offset="0.4642" stop-color="#0BCBAF"/>
<stop offset="0.7709" stop-color="#0BCBAF"/>
<stop offset="0.8989" stop-color="#0BCBAF"/>
<stop offset="1" stop-color="#31B482"/>
</linearGradient>
<linearGradient id="paint23_linear" x1="7.90604" y1="12.2619" x2="18.6248" y2="62.5934" gradientUnits="userSpaceOnUse">
<stop stop-color="#0BCBAF"/>
<stop offset="0.1968" stop-color="#0BCBAF"/>
<stop offset="0.4642" stop-color="#0BCBAF"/>
<stop offset="0.7709" stop-color="#0BCBAF"/>
<stop offset="0.8989" stop-color="#0BCBAF"/>
<stop offset="1" stop-color="#31B482"/>
</linearGradient>
<linearGradient id="paint24_linear" x1="61.2904" y1="12.0208" x2="61.9558" y2="15.1452" gradientUnits="userSpaceOnUse">
<stop stop-color="#0BCBAF"/>
<stop offset="0.1968" stop-color="#0BCBAF"/>
<stop offset="0.4642" stop-color="#0BCBAF"/>
<stop offset="0.7709" stop-color="#0BCBAF"/>
<stop offset="0.8989" stop-color="#0BCBAF"/>
<stop offset="1" stop-color="#31B482"/>
</linearGradient>
<linearGradient id="paint25_linear" x1="60.1463" y1="46.9979" x2="61.6221" y2="53.9276" gradientUnits="userSpaceOnUse">
<stop stop-color="#0BCBAF"/>
<stop offset="0.1968" stop-color="#0BCBAF"/>
<stop offset="0.4642" stop-color="#0BCBAF"/>
<stop offset="0.7709" stop-color="#0BCBAF"/>
<stop offset="0.8989" stop-color="#0BCBAF"/>
<stop offset="1" stop-color="#31B482"/>
</linearGradient>
<linearGradient id="paint26_linear" x1="63.711" y1="44.3693" x2="65.1584" y2="51.1659" gradientUnits="userSpaceOnUse">
<stop stop-color="#0BCBAF"/>
<stop offset="0.1968" stop-color="#0BCBAF"/>
<stop offset="0.4642" stop-color="#0BCBAF"/>
<stop offset="0.7709" stop-color="#0BCBAF"/>
<stop offset="0.8989" stop-color="#0BCBAF"/>
<stop offset="1" stop-color="#31B482"/>
</linearGradient>
<linearGradient id="paint27_linear" x1="66.3445" y1="41.1821" x2="67.6967" y2="47.5317" gradientUnits="userSpaceOnUse">
<stop stop-color="#0BCBAF"/>
<stop offset="0.1968" stop-color="#0BCBAF"/>
<stop offset="0.4642" stop-color="#0BCBAF"/>
<stop offset="0.7709" stop-color="#0BCBAF"/>
<stop offset="0.8989" stop-color="#0BCBAF"/>
<stop offset="1" stop-color="#31B482"/>
</linearGradient>
<linearGradient id="paint28_linear" x1="68.2799" y1="37.7803" x2="69.4994" y2="43.5067" gradientUnits="userSpaceOnUse">
<stop stop-color="#0BCBAF"/>
<stop offset="0.1968" stop-color="#0BCBAF"/>
<stop offset="0.4642" stop-color="#0BCBAF"/>
<stop offset="0.7709" stop-color="#0BCBAF"/>
<stop offset="0.8989" stop-color="#0BCBAF"/>
<stop offset="1" stop-color="#31B482"/>
</linearGradient>
<linearGradient id="paint29_linear" x1="69.4482" y1="34.2905" x2="70.5022" y2="39.2394" gradientUnits="userSpaceOnUse">
<stop stop-color="#0BCBAF"/>
<stop offset="0.1968" stop-color="#0BCBAF"/>
<stop offset="0.4642" stop-color="#0BCBAF"/>
<stop offset="0.7709" stop-color="#0BCBAF"/>
<stop offset="0.8989" stop-color="#0BCBAF"/>
<stop offset="1" stop-color="#31B482"/>
</linearGradient>
<linearGradient id="paint30_linear" x1="69.9524" y1="30.8093" x2="70.8247" y2="34.9054" gradientUnits="userSpaceOnUse">
<stop stop-color="#0BCBAF"/>
<stop offset="0.1968" stop-color="#0BCBAF"/>
<stop offset="0.4642" stop-color="#0BCBAF"/>
<stop offset="0.7709" stop-color="#0BCBAF"/>
<stop offset="0.8989" stop-color="#0BCBAF"/>
<stop offset="1" stop-color="#31B482"/>
</linearGradient>
<linearGradient id="paint31_linear" x1="69.6194" y1="27.3799" x2="70.3207" y2="30.6726" gradientUnits="userSpaceOnUse">
<stop stop-color="#0BCBAF"/>
<stop offset="0.1968" stop-color="#0BCBAF"/>
<stop offset="0.4642" stop-color="#0BCBAF"/>
<stop offset="0.7709" stop-color="#0BCBAF"/>
<stop offset="0.8989" stop-color="#0BCBAF"/>
<stop offset="1" stop-color="#31B482"/>
</linearGradient>
<linearGradient id="paint32_linear" x1="68.6179" y1="24.099" x2="69.1872" y2="26.7721" gradientUnits="userSpaceOnUse">
<stop stop-color="#0BCBAF"/>
<stop offset="0.1968" stop-color="#0BCBAF"/>
<stop offset="0.4642" stop-color="#0BCBAF"/>
<stop offset="0.7709" stop-color="#0BCBAF"/>
<stop offset="0.8989" stop-color="#0BCBAF"/>
<stop offset="1" stop-color="#31B482"/>
</linearGradient>
<linearGradient id="paint33_linear" x1="67.0377" y1="21.0705" x2="67.5231" y2="23.3497" gradientUnits="userSpaceOnUse">
<stop stop-color="#0BCBAF"/>
<stop offset="0.1968" stop-color="#0BCBAF"/>
<stop offset="0.4642" stop-color="#0BCBAF"/>
<stop offset="0.7709" stop-color="#0BCBAF"/>
<stop offset="0.8989" stop-color="#0BCBAF"/>
<stop offset="1" stop-color="#31B482"/>
</linearGradient>
<linearGradient id="paint34_linear" x1="65.0504" y1="18.3072" x2="65.5041" y2="20.4375" gradientUnits="userSpaceOnUse">
<stop stop-color="#0BCBAF"/>
<stop offset="0.1968" stop-color="#0BCBAF"/>
<stop offset="0.4642" stop-color="#0BCBAF"/>
<stop offset="0.7709" stop-color="#0BCBAF"/>
<stop offset="0.8989" stop-color="#0BCBAF"/>
<stop offset="1" stop-color="#31B482"/>
</linearGradient>
<linearGradient id="paint35_linear" x1="62.6156" y1="16.0185" x2="63.0777" y2="18.1888" gradientUnits="userSpaceOnUse">
<stop stop-color="#0BCBAF"/>
<stop offset="0.1968" stop-color="#0BCBAF"/>
<stop offset="0.4642" stop-color="#0BCBAF"/>
<stop offset="0.7709" stop-color="#0BCBAF"/>
<stop offset="0.8989" stop-color="#0BCBAF"/>
<stop offset="1" stop-color="#31B482"/>
</linearGradient>
<linearGradient id="paint36_linear" x1="64.6148" y1="54.0245" x2="65.6176" y2="58.7333" gradientUnits="userSpaceOnUse">
<stop stop-color="#0BCBAF"/>
<stop offset="0.1968" stop-color="#0BCBAF"/>
<stop offset="0.4642" stop-color="#0BCBAF"/>
<stop offset="0.7709" stop-color="#0BCBAF"/>
<stop offset="0.8989" stop-color="#0BCBAF"/>
<stop offset="1" stop-color="#31B482"/>
</linearGradient>
<linearGradient id="paint37_linear" x1="69.08" y1="50.4565" x2="69.9156" y2="54.3806" gradientUnits="userSpaceOnUse">
<stop stop-color="#0BCBAF"/>
<stop offset="0.1968" stop-color="#0BCBAF"/>
<stop offset="0.4642" stop-color="#0BCBAF"/>
<stop offset="0.7709" stop-color="#0BCBAF"/>
<stop offset="0.8989" stop-color="#0BCBAF"/>
<stop offset="1" stop-color="#31B482"/>
</linearGradient>
<linearGradient id="paint38_linear" x1="72.5632" y1="46.1242" x2="73.3042" y2="49.6036" gradientUnits="userSpaceOnUse">
<stop stop-color="#0BCBAF"/>
<stop offset="0.1968" stop-color="#0BCBAF"/>
<stop offset="0.4642" stop-color="#0BCBAF"/>
<stop offset="0.7709" stop-color="#0BCBAF"/>
<stop offset="0.8989" stop-color="#0BCBAF"/>
<stop offset="1" stop-color="#31B482"/>
</linearGradient>
<linearGradient id="paint39_linear" x1="74.7768" y1="41.0874" x2="75.5039" y2="44.5016" gradientUnits="userSpaceOnUse">
<stop stop-color="#0BCBAF"/>
<stop offset="0.1968" stop-color="#0BCBAF"/>
<stop offset="0.4642" stop-color="#0BCBAF"/>
<stop offset="0.7709" stop-color="#0BCBAF"/>
<stop offset="0.8989" stop-color="#0BCBAF"/>
<stop offset="1" stop-color="#31B482"/>
</linearGradient>
<linearGradient id="paint40_linear" x1="75.8806" y1="35.7348" x2="76.6527" y2="39.3603" gradientUnits="userSpaceOnUse">
<stop stop-color="#0BCBAF"/>
<stop offset="0.1968" stop-color="#0BCBAF"/>
<stop offset="0.4642" stop-color="#0BCBAF"/>
<stop offset="0.7709" stop-color="#0BCBAF"/>
<stop offset="0.8989" stop-color="#0BCBAF"/>
<stop offset="1" stop-color="#31B482"/>
</linearGradient>
<linearGradient id="paint41_linear" x1="75.866" y1="30.3797" x2="76.7104" y2="34.3445" gradientUnits="userSpaceOnUse">
<stop stop-color="#0BCBAF"/>
<stop offset="0.1968" stop-color="#0BCBAF"/>
<stop offset="0.4642" stop-color="#0BCBAF"/>
<stop offset="0.7709" stop-color="#0BCBAF"/>
<stop offset="0.8989" stop-color="#0BCBAF"/>
<stop offset="1" stop-color="#31B482"/>
</linearGradient>
<linearGradient id="paint42_linear" x1="75.0292" y1="25.2824" x2="75.9575" y2="29.6417" gradientUnits="userSpaceOnUse">
<stop stop-color="#0BCBAF"/>
<stop offset="0.1968" stop-color="#0BCBAF"/>
<stop offset="0.4642" stop-color="#0BCBAF"/>
<stop offset="0.7709" stop-color="#0BCBAF"/>
<stop offset="0.8989" stop-color="#0BCBAF"/>
<stop offset="1" stop-color="#31B482"/>
</linearGradient>
<linearGradient id="paint43_linear" x1="73.3992" y1="20.6266" x2="74.4042" y2="25.346" gradientUnits="userSpaceOnUse">
<stop stop-color="#0BCBAF"/>
<stop offset="0.1968" stop-color="#0BCBAF"/>
<stop offset="0.4642" stop-color="#0BCBAF"/>
<stop offset="0.7709" stop-color="#0BCBAF"/>
<stop offset="0.8989" stop-color="#0BCBAF"/>
<stop offset="1" stop-color="#31B482"/>
</linearGradient>
<linearGradient id="paint44_linear" x1="71.1078" y1="16.5657" x2="72.1664" y2="21.5366" gradientUnits="userSpaceOnUse">
<stop stop-color="#0BCBAF"/>
<stop offset="0.1968" stop-color="#0BCBAF"/>
<stop offset="0.4642" stop-color="#0BCBAF"/>
<stop offset="0.7709" stop-color="#0BCBAF"/>
<stop offset="0.8989" stop-color="#0BCBAF"/>
<stop offset="1" stop-color="#31B482"/>
</linearGradient>
<linearGradient id="paint45_linear" x1="68.232" y1="13.2964" x2="69.3001" y2="18.3115" gradientUnits="userSpaceOnUse">
<stop stop-color="#0BCBAF"/>
<stop offset="0.1968" stop-color="#0BCBAF"/>
<stop offset="0.4642" stop-color="#0BCBAF"/>
<stop offset="0.7709" stop-color="#0BCBAF"/>
<stop offset="0.8989" stop-color="#0BCBAF"/>
<stop offset="1" stop-color="#31B482"/>
</linearGradient>
<linearGradient id="paint46_linear" x1="65.0699" y1="10.7197" x2="66.1109" y2="15.6076" gradientUnits="userSpaceOnUse">
<stop stop-color="#0BCBAF"/>
<stop offset="0.1968" stop-color="#0BCBAF"/>
<stop offset="0.4642" stop-color="#0BCBAF"/>
<stop offset="0.7709" stop-color="#0BCBAF"/>
<stop offset="0.8989" stop-color="#0BCBAF"/>
<stop offset="1" stop-color="#31B482"/>
</linearGradient>
<linearGradient id="paint47_linear" x1="56.8387" y1="12.374" x2="66.7184" y2="58.7654" gradientUnits="userSpaceOnUse">
<stop stop-color="#0BCBAF"/>
<stop offset="0.1968" stop-color="#0BCBAF"/>
<stop offset="0.4642" stop-color="#0BCBAF"/>
<stop offset="0.7709" stop-color="#0BCBAF"/>
<stop offset="0.8989" stop-color="#0BCBAF"/>
<stop offset="1" stop-color="#31B482"/>
</linearGradient>
<linearGradient id="paint48_linear" x1="35.7425" y1="0.116955" x2="35.7425" y2="7.46744" gradientUnits="userSpaceOnUse">
<stop stop-color="#0BCBAF"/>
<stop offset="0.1968" stop-color="#0BCBAF"/>
<stop offset="0.4642" stop-color="#0BCBAF"/>
<stop offset="0.7709" stop-color="#0BCBAF"/>
<stop offset="0.8989" stop-color="#0BCBAF"/>
<stop offset="1" stop-color="#31B482"/>
</linearGradient>
<linearGradient id="paint49_linear" x1="35.3265" y1="0.181816" x2="35.3265" y2="4.24891" gradientUnits="userSpaceOnUse">
<stop stop-color="#0BCBAF"/>
<stop offset="0.1968" stop-color="#0BCBAF"/>
<stop offset="0.4642" stop-color="#0BCBAF"/>
<stop offset="0.7709" stop-color="#0BCBAF"/>
<stop offset="0.8989" stop-color="#0BCBAF"/>
<stop offset="1" stop-color="#31B482"/>
</linearGradient>
<linearGradient id="paint50_linear" x1="36.1606" y1="0.181816" x2="36.1606" y2="4.24891" gradientUnits="userSpaceOnUse">
<stop stop-color="#0BCBAF"/>
<stop offset="0.1968" stop-color="#0BCBAF"/>
<stop offset="0.4642" stop-color="#0BCBAF"/>
<stop offset="0.7709" stop-color="#0BCBAF"/>
<stop offset="0.8989" stop-color="#0BCBAF"/>
<stop offset="1" stop-color="#31B482"/>
</linearGradient>
<linearGradient id="paint51_linear" x1="39.5417" y1="3.19634" x2="35.8839" y2="4.47616" gradientUnits="userSpaceOnUse">
<stop stop-color="#0BCBAF"/>
<stop offset="0.1968" stop-color="#0BCBAF"/>
<stop offset="0.4642" stop-color="#0BCBAF"/>
<stop offset="0.7709" stop-color="#0BCBAF"/>
<stop offset="0.8989" stop-color="#0BCBAF"/>
<stop offset="1" stop-color="#31B482"/>
</linearGradient>
<linearGradient id="paint52_linear" x1="39.2572" y1="2.47846" x2="35.6454" y2="3.67953" gradientUnits="userSpaceOnUse">
<stop stop-color="#0BCBAF"/>
<stop offset="0.1968" stop-color="#0BCBAF"/>
<stop offset="0.4642" stop-color="#0BCBAF"/>
<stop offset="0.7709" stop-color="#0BCBAF"/>
<stop offset="0.8989" stop-color="#0BCBAF"/>
<stop offset="1" stop-color="#31B482"/>
</linearGradient>
<linearGradient id="paint53_linear" x1="36.0629" y1="3.7981" x2="38.3382" y2="6.94057" gradientUnits="userSpaceOnUse">
<stop stop-color="#0BCBAF"/>
<stop offset="0.1968" stop-color="#0BCBAF"/>
<stop offset="0.4642" stop-color="#0BCBAF"/>
<stop offset="0.7709" stop-color="#0BCBAF"/>
<stop offset="0.8989" stop-color="#0BCBAF"/>
<stop offset="1" stop-color="#31B482"/>
</linearGradient>
<linearGradient id="paint54_linear" x1="36.9301" y1="5.57903" x2="35.879" y2="6.04155" gradientUnits="userSpaceOnUse">
<stop stop-color="#0BCBAF"/>
<stop offset="0.1968" stop-color="#0BCBAF"/>
<stop offset="0.4642" stop-color="#0BCBAF"/>
<stop offset="0.7709" stop-color="#0BCBAF"/>
<stop offset="0.8989" stop-color="#0BCBAF"/>
<stop offset="1" stop-color="#31B482"/>
</linearGradient>
<linearGradient id="paint55_linear" x1="31.9445" y1="3.19634" x2="35.6023" y2="4.47617" gradientUnits="userSpaceOnUse">
<stop stop-color="#0BCBAF"/>
<stop offset="0.1968" stop-color="#0BCBAF"/>
<stop offset="0.4642" stop-color="#0BCBAF"/>
<stop offset="0.7709" stop-color="#0BCBAF"/>
<stop offset="0.8989" stop-color="#0BCBAF"/>
<stop offset="1" stop-color="#31B482"/>
</linearGradient>
<linearGradient id="paint56_linear" x1="32.2291" y1="2.47846" x2="35.8409" y2="3.67954" gradientUnits="userSpaceOnUse">
<stop stop-color="#0BCBAF"/>
<stop offset="0.1968" stop-color="#0BCBAF"/>
<stop offset="0.4642" stop-color="#0BCBAF"/>
<stop offset="0.7709" stop-color="#0BCBAF"/>
<stop offset="0.8989" stop-color="#0BCBAF"/>
<stop offset="1" stop-color="#31B482"/>
</linearGradient>
<linearGradient id="paint57_linear" x1="35.424" y1="3.7981" x2="33.1487" y2="6.94058" gradientUnits="userSpaceOnUse">
<stop stop-color="#0BCBAF"/>
<stop offset="0.1968" stop-color="#0BCBAF"/>
<stop offset="0.4642" stop-color="#0BCBAF"/>
<stop offset="0.7709" stop-color="#0BCBAF"/>
<stop offset="0.8989" stop-color="#0BCBAF"/>
<stop offset="1" stop-color="#31B482"/>
</linearGradient>
<linearGradient id="paint58_linear" x1="34.5875" y1="5.58257" x2="35.3303" y2="6.10816" gradientUnits="userSpaceOnUse">
<stop stop-color="#0BCBAF"/>
<stop offset="0.1968" stop-color="#0BCBAF"/>
<stop offset="0.4642" stop-color="#0BCBAF"/>
<stop offset="0.7709" stop-color="#0BCBAF"/>
<stop offset="0.8989" stop-color="#0BCBAF"/>
<stop offset="1" stop-color="#31B482"/>
</linearGradient>
<linearGradient id="paint59_linear" x1="43.6168" y1="0.117932" x2="43.6168" y2="7.46842" gradientUnits="userSpaceOnUse">
<stop stop-color="#0BCBAF"/>
<stop offset="0.1968" stop-color="#0BCBAF"/>
<stop offset="0.4642" stop-color="#0BCBAF"/>
<stop offset="0.7709" stop-color="#0BCBAF"/>
<stop offset="0.8989" stop-color="#0BCBAF"/>
<stop offset="1" stop-color="#31B482"/>
</linearGradient>
<linearGradient id="paint60_linear" x1="43.2003" y1="0.181816" x2="43.2003" y2="4.24891" gradientUnits="userSpaceOnUse">
<stop stop-color="#0BCBAF"/>
<stop offset="0.1968" stop-color="#0BCBAF"/>
<stop offset="0.4642" stop-color="#0BCBAF"/>
<stop offset="0.7709" stop-color="#0BCBAF"/>
<stop offset="0.8989" stop-color="#0BCBAF"/>
<stop offset="1" stop-color="#31B482"/>
</linearGradient>
<linearGradient id="paint61_linear" x1="44.0345" y1="0.181816" x2="44.0345" y2="4.24891" gradientUnits="userSpaceOnUse">
<stop stop-color="#0BCBAF"/>
<stop offset="0.1968" stop-color="#0BCBAF"/>
<stop offset="0.4642" stop-color="#0BCBAF"/>
<stop offset="0.7709" stop-color="#0BCBAF"/>
<stop offset="0.8989" stop-color="#0BCBAF"/>
<stop offset="1" stop-color="#31B482"/>
</linearGradient>
<linearGradient id="paint62_linear" x1="47.4156" y1="3.19634" x2="43.7577" y2="4.47617" gradientUnits="userSpaceOnUse">
<stop stop-color="#0BCBAF"/>
<stop offset="0.1968" stop-color="#0BCBAF"/>
<stop offset="0.4642" stop-color="#0BCBAF"/>
<stop offset="0.7709" stop-color="#0BCBAF"/>
<stop offset="0.8989" stop-color="#0BCBAF"/>
<stop offset="1" stop-color="#31B482"/>
</linearGradient>
<linearGradient id="paint63_linear" x1="47.131" y1="2.47846" x2="43.5192" y2="3.67954" gradientUnits="userSpaceOnUse">
<stop stop-color="#0BCBAF"/>
<stop offset="0.1968" stop-color="#0BCBAF"/>
<stop offset="0.4642" stop-color="#0BCBAF"/>
<stop offset="0.7709" stop-color="#0BCBAF"/>
<stop offset="0.8989" stop-color="#0BCBAF"/>
<stop offset="1" stop-color="#31B482"/>
</linearGradient>
<linearGradient id="paint64_linear" x1="43.9367" y1="3.7981" x2="46.212" y2="6.94058" gradientUnits="userSpaceOnUse">
<stop stop-color="#0BCBAF"/>
<stop offset="0.1968" stop-color="#0BCBAF"/>
<stop offset="0.4642" stop-color="#0BCBAF"/>
<stop offset="0.7709" stop-color="#0BCBAF"/>
<stop offset="0.8989" stop-color="#0BCBAF"/>
<stop offset="1" stop-color="#31B482"/>
</linearGradient>
<linearGradient id="paint65_linear" x1="44.8039" y1="5.57903" x2="43.7528" y2="6.04155" gradientUnits="userSpaceOnUse">
<stop stop-color="#0BCBAF"/>
<stop offset="0.1968" stop-color="#0BCBAF"/>
<stop offset="0.4642" stop-color="#0BCBAF"/>
<stop offset="0.7709" stop-color="#0BCBAF"/>
<stop offset="0.8989" stop-color="#0BCBAF"/>
<stop offset="1" stop-color="#31B482"/>
</linearGradient>
<linearGradient id="paint66_linear" x1="39.8188" y1="3.19634" x2="43.4766" y2="4.47616" gradientUnits="userSpaceOnUse">
<stop stop-color="#0BCBAF"/>
<stop offset="0.1968" stop-color="#0BCBAF"/>
<stop offset="0.4642" stop-color="#0BCBAF"/>
<stop offset="0.7709" stop-color="#0BCBAF"/>
<stop offset="0.8989" stop-color="#0BCBAF"/>
<stop offset="1" stop-color="#31B482"/>
</linearGradient>
<linearGradient id="paint67_linear" x1="40.1034" y1="2.47846" x2="43.7152" y2="3.67953" gradientUnits="userSpaceOnUse">
<stop stop-color="#0BCBAF"/>
<stop offset="0.1968" stop-color="#0BCBAF"/>
<stop offset="0.4642" stop-color="#0BCBAF"/>
<stop offset="0.7709" stop-color="#0BCBAF"/>
<stop offset="0.8989" stop-color="#0BCBAF"/>
<stop offset="1" stop-color="#31B482"/>
</linearGradient>
<linearGradient id="paint68_linear" x1="43.2983" y1="3.7981" x2="41.023" y2="6.94058" gradientUnits="userSpaceOnUse">
<stop stop-color="#0BCBAF"/>
<stop offset="0.1968" stop-color="#0BCBAF"/>
<stop offset="0.4642" stop-color="#0BCBAF"/>
<stop offset="0.7709" stop-color="#0BCBAF"/>
<stop offset="0.8989" stop-color="#0BCBAF"/>
<stop offset="1" stop-color="#31B482"/>
</linearGradient>
<linearGradient id="paint69_linear" x1="42.4618" y1="5.58257" x2="43.2046" y2="6.10816" gradientUnits="userSpaceOnUse">
<stop stop-color="#0BCBAF"/>
<stop offset="0.1968" stop-color="#0BCBAF"/>
<stop offset="0.4642" stop-color="#0BCBAF"/>
<stop offset="0.7709" stop-color="#0BCBAF"/>
<stop offset="0.8989" stop-color="#0BCBAF"/>
<stop offset="1" stop-color="#31B482"/>
</linearGradient>
<linearGradient id="paint70_linear" x1="39.6779" y1="10.4638" x2="39.6779" y2="50.467" gradientUnits="userSpaceOnUse">
<stop stop-color="#0BCBAF"/>
<stop offset="1" stop-color="#0BCBAF"/>
</linearGradient>
<linearGradient id="paint71_linear" x1="38.0042" y1="45.1308" x2="43.6941" y2="65.0299" gradientUnits="userSpaceOnUse">
<stop stop-color="#0BCBAF"/>
<stop offset="0.1968" stop-color="#0BCBAF"/>
<stop offset="0.4642" stop-color="#0BCBAF"/>
<stop offset="0.7709" stop-color="#0BCBAF"/>
<stop offset="0.8989" stop-color="#0BCBAF"/>
<stop offset="1" stop-color="#31B482"/>
</linearGradient>
<linearGradient id="paint72_linear" x1="38.0042" y1="45.1308" x2="43.6941" y2="65.0299" gradientUnits="userSpaceOnUse">
<stop stop-color="#0BCBAF"/>
<stop offset="0.1968" stop-color="#0BCBAF"/>
<stop offset="0.4642" stop-color="#0BCBAF"/>
<stop offset="0.7709" stop-color="#0BCBAF"/>
<stop offset="0.8989" stop-color="#0BCBAF"/>
<stop offset="1" stop-color="#31B482"/>
</linearGradient>
<linearGradient id="paint73_linear" x1="38.0042" y1="45.1308" x2="43.6941" y2="65.0299" gradientUnits="userSpaceOnUse">
<stop stop-color="#0BCBAF"/>
<stop offset="0.1968" stop-color="#0BCBAF"/>
<stop offset="0.4642" stop-color="#0BCBAF"/>
<stop offset="0.7709" stop-color="#0BCBAF"/>
<stop offset="0.8989" stop-color="#0BCBAF"/>
<stop offset="1" stop-color="#31B482"/>
</linearGradient>
</defs>
</svg>
