<svg width="79" height="61" viewBox="0 0 79 61" fill="none" xmlns="http://www.w3.org/2000/svg">
<path d="M16.1509 14.4849C16.2994 14.3976 16.4521 14.3147 16.6049 14.2347C16.7577 14.1547 16.9119 14.079 17.0676 14.0077C17.2247 13.9379 17.3876 13.8811 17.5491 13.8244C17.3964 13.9015 17.2436 13.9757 17.0981 14.0644C16.9541 14.1547 16.8115 14.2478 16.6704 14.3453C16.5307 14.4413 16.3939 14.5417 16.2586 14.6435C16.1291 14.7526 16.0025 14.8661 15.8774 14.9811C16.4565 15.3026 17.2494 15.3012 17.9434 14.9287C18.3232 14.7323 18.6156 14.4355 18.828 14.1226C19.0361 13.8026 19.1481 13.433 19.135 13.0722C18.8877 12.8176 18.5341 12.6604 18.1297 12.6212C17.7223 12.5731 17.2785 12.6735 16.8551 12.8918C16.7562 12.9442 16.6602 12.9994 16.5729 13.0634C16.4856 13.1289 16.4056 13.1988 16.3299 13.2715C16.18 13.417 16.0535 13.5756 15.9545 13.7415C15.9051 13.8244 15.8629 13.9073 15.828 13.9932C15.7945 14.0805 15.7683 14.1692 15.7494 14.258C15.7116 14.434 15.7028 14.6101 15.7246 14.7788C15.8629 14.6755 16.0055 14.578 16.1509 14.4849Z" fill="url(#paint0_linear)"/>
<path d="M18.3821 47.7217C17.9442 48.081 17.5208 48.6121 17.2022 49.2523C17.0421 49.5724 16.9097 49.9201 16.8137 50.2867C16.7657 50.4701 16.7264 50.6592 16.6988 50.8513C16.6711 51.0433 16.6522 51.2397 16.6507 51.4318C16.6464 51.7882 16.6828 52.1272 16.754 52.44C16.7904 52.5957 16.8326 52.747 16.8864 52.8853C16.9417 53.022 17.0043 53.1501 17.0741 53.2694C17.2123 53.508 17.3768 53.7117 17.5572 53.8703C17.7419 54.0201 17.9456 54.1234 18.1552 54.1772C18.1479 53.5574 18.1319 52.9624 18.1348 52.3557C18.1333 52.0603 18.1319 51.765 18.1304 51.4696C18.129 51.3256 18.129 51.1815 18.1275 51.0389C18.129 50.8934 18.129 50.7494 18.1304 50.6054C18.1508 50.8847 18.1813 51.1553 18.2104 51.4347C18.2381 51.7184 18.2657 52.0036 18.2948 52.2916C18.321 52.587 18.3545 52.8736 18.3865 53.169C18.4185 53.4672 18.452 53.7684 18.4854 54.0696C18.8361 53.6389 19.0965 53.0395 19.2682 52.3746C19.354 52.0414 19.4166 51.6922 19.4573 51.3401C19.4981 50.988 19.5141 50.6359 19.5155 50.2751C19.5141 49.8968 19.4864 49.5578 19.434 49.2625C19.4064 49.117 19.3773 48.9729 19.3424 48.8405C19.3075 48.7081 19.2667 48.5874 19.2187 48.4797C19.0223 48.049 18.7575 47.7682 18.3821 47.7217Z" fill="url(#paint1_linear)"/>
<path d="M14.4955 49.5249C14.4605 49.8072 14.4271 50.0924 14.3922 50.3775C14.3602 50.6642 14.3296 50.9522 14.2976 51.2418C14.7224 50.9129 15.0949 50.4066 15.3961 49.8203C15.5474 49.5264 15.6769 49.215 15.7904 48.8906C15.9068 48.5632 16.0028 48.2257 16.0741 47.891C16.1119 47.7135 16.141 47.5433 16.1614 47.3818C16.1817 47.2203 16.1934 47.0675 16.2036 46.9162C16.221 46.6165 16.2065 46.3517 16.157 46.1262C16.1046 45.905 16.0377 45.7043 15.93 45.5529C15.8238 45.4002 15.6841 45.2896 15.511 45.2256C15.2651 45.3493 15.0207 45.5108 14.7777 45.713C14.5347 45.9152 14.299 46.1538 14.0837 46.4215C13.6531 46.9584 13.301 47.6219 13.1191 48.3624C13.0347 48.7044 13.0071 49.0244 13.01 49.3343C13.0158 49.6399 13.0522 49.9352 13.1336 50.1884C13.2166 50.4401 13.3301 50.6656 13.4697 50.8518C13.5396 50.945 13.6152 51.0279 13.6952 51.1021C13.7753 51.1748 13.8684 51.2301 13.9615 51.2767C13.9906 51.1326 14.0212 50.9886 14.0503 50.8446C14.0823 50.6991 14.1128 50.555 14.1448 50.4095C14.2074 50.1229 14.2685 49.8377 14.3296 49.554C14.3893 49.2761 14.4475 48.9997 14.5056 48.7233C14.5682 48.4483 14.6293 48.1733 14.6919 47.8998C14.6584 48.1675 14.6235 48.4352 14.59 48.7058C14.558 48.9764 14.5275 49.25 14.4955 49.5249Z" fill="url(#paint2_linear)"/>
<path d="M11.6244 45.9743C11.4513 46.4835 11.2563 47.0174 11.0832 47.547C12.0202 47.0989 12.8932 45.967 13.4417 44.7609C13.513 44.6023 13.5741 44.448 13.625 44.2996C13.6512 44.2254 13.673 44.1527 13.6963 44.0814C13.7196 44.0086 13.7414 43.9374 13.7603 43.8675C13.836 43.5882 13.8738 43.335 13.8738 43.1109C13.868 42.8898 13.8418 42.6876 13.7719 42.5202C13.7021 42.3529 13.593 42.2191 13.4417 42.123C12.4232 42.3878 11.204 43.2797 10.5638 44.6037C10.4168 44.9078 10.3266 45.2046 10.2655 45.4941C10.2088 45.7837 10.187 46.0645 10.2059 46.322C10.2612 46.8269 10.4489 47.2575 10.7573 47.5107C10.993 46.9927 11.2272 46.4791 11.4615 45.967C11.5735 45.7167 11.6856 45.4694 11.7976 45.2206C11.9111 44.9733 12.0246 44.7274 12.138 44.483C12.0522 44.7274 11.9649 44.9747 11.8776 45.2221C11.7932 45.4723 11.7088 45.7226 11.6244 45.9743Z" fill="url(#paint3_linear)"/>
<path d="M9.91178 41.4063C9.78374 41.626 9.65425 41.8472 9.52331 42.0698C9.388 42.2968 9.25124 42.5237 9.11447 42.7536C8.98062 42.9835 8.84531 43.2134 8.71 43.4462C9.19304 43.3298 9.69936 43.0446 10.1751 42.6634C10.4123 42.4728 10.6422 42.2575 10.856 42.0262C11.0757 41.7919 11.2852 41.5402 11.47 41.2812C11.6664 41.0062 11.8221 40.7414 11.9371 40.4941C12.0564 40.2453 12.1466 40.0067 12.1873 39.7928C12.263 39.3651 12.212 39.0086 11.9618 38.7656C11.4584 38.7947 10.8764 38.962 10.3133 39.2647C10.0325 39.416 9.7561 39.6008 9.49567 39.819C9.36618 39.9281 9.2396 40.046 9.12029 40.1711C8.99953 40.2962 8.88459 40.4301 8.7842 40.5683C8.59506 40.8258 8.44374 41.0906 8.33317 41.354C8.27788 41.4849 8.23132 41.6158 8.19349 41.7453C8.15858 41.8734 8.13966 41.9985 8.12511 42.1207C8.09892 42.3652 8.11056 42.5979 8.15567 42.8075C8.17895 42.9122 8.21095 43.0111 8.25024 43.1028C8.29534 43.193 8.34917 43.2745 8.41028 43.3501C8.72455 42.9107 9.05773 42.4655 9.37054 42.0334C9.52476 41.8196 9.67899 41.6057 9.83176 41.3918C9.90741 41.287 9.98162 41.1808 10.0558 41.0761C10.1329 40.9713 10.21 40.8666 10.2857 40.7604C10.2217 40.868 10.1577 40.9757 10.0936 41.0834C10.0354 41.1896 9.97434 41.2972 9.91178 41.4063Z" fill="url(#paint4_linear)"/>
<path d="M7.75494 38.5216C7.58616 38.7122 7.41448 38.9057 7.24425 39.0978C7.72002 39.0774 8.24962 38.9057 8.76903 38.6337C9.02801 38.4984 9.28408 38.3383 9.52996 38.1594C9.78167 37.9804 10.0232 37.7825 10.2443 37.5716C10.48 37.349 10.6706 37.1293 10.8307 36.9154C10.9951 36.7015 11.1173 36.4949 11.1959 36.2999C11.2352 36.2025 11.2628 36.1079 11.2817 36.0162C11.3035 35.9246 11.3152 35.8358 11.3152 35.7514C11.3152 35.5812 11.2672 35.4255 11.1726 35.2887C10.2123 35.1549 8.86069 35.4968 7.84951 36.4018C7.62399 36.6098 7.43485 36.831 7.28208 37.0565C7.20642 37.17 7.13804 37.2849 7.07984 37.3984C7.02019 37.5134 6.97363 37.6269 6.94017 37.7403C6.87179 37.9659 6.83978 38.1855 6.84414 38.3907C6.84705 38.494 6.85869 38.5915 6.88052 38.686C6.9038 38.7792 6.94017 38.8664 6.98382 38.9479C7.36792 38.5929 7.75057 38.2394 8.13176 37.8873C8.31654 37.7141 8.49986 37.541 8.68319 37.3693C8.86651 37.1991 9.04983 37.0289 9.23315 36.8586C8.91452 37.2195 8.59298 37.5832 8.26707 37.9513C8.09685 38.1433 7.92662 38.331 7.75494 38.5216Z" fill="url(#paint5_linear)"/>
<path d="M7.73683 33.8158C7.34981 34.1097 6.95989 34.4065 6.5656 34.7077C7.47057 34.8444 8.67235 34.4516 9.66608 33.8187C10.1782 33.4811 10.5769 33.1276 10.7907 32.7857C10.894 32.614 10.9784 32.4467 11.0046 32.2852C11.0337 32.1222 11.0177 31.9665 10.9522 31.8167C10.5172 31.6668 9.95852 31.6115 9.378 31.6785C8.79602 31.7454 8.1864 31.936 7.63062 32.2706C7.37018 32.4249 7.16213 32.6009 6.97589 32.7871C6.79257 32.9734 6.64126 33.1712 6.52777 33.3706C6.31972 33.7707 6.24697 34.1781 6.34736 34.5185C6.77657 34.2537 7.21014 33.9889 7.62189 33.7285C8.03218 33.4695 8.44102 33.2134 8.84549 32.9574C8.66217 33.0985 8.47885 33.2396 8.29407 33.3807C8.10929 33.5248 7.92306 33.6703 7.73683 33.8158Z" fill="url(#paint6_linear)"/>
<path d="M7.03218 29.1588C6.75865 29.4964 6.63062 29.8688 6.65535 30.2035C7.57342 29.8615 8.43183 29.5153 9.28152 29.1806C8.88868 29.3814 8.49003 29.5851 8.08701 29.7903C7.88041 29.8936 7.67381 29.9983 7.4643 30.1016C7.25188 30.2064 7.03655 30.3111 6.82703 30.4173C7.23878 30.5628 7.74656 30.5977 8.27761 30.5425C8.81012 30.4872 9.38045 30.3475 9.89696 30.1351C10.0337 30.0783 10.1618 30.0201 10.2811 29.9576C10.4018 29.8965 10.5182 29.8339 10.623 29.7684C10.8339 29.6389 11.0056 29.5007 11.138 29.3567C11.202 29.2839 11.2617 29.2126 11.3126 29.1413C11.3621 29.0686 11.4014 28.9959 11.429 28.9202C11.4843 28.7718 11.4974 28.6205 11.4625 28.4677C11.0813 28.2509 10.5662 28.1011 10.0075 28.0632C9.44884 28.0254 8.84212 28.0982 8.26306 28.3164C7.99099 28.4153 7.76256 28.5434 7.55596 28.686C7.34936 28.8315 7.17331 28.9915 7.03218 29.1588Z" fill="url(#paint7_linear)"/>
<path d="M7.7168 26.172C8.63632 26.012 9.50201 25.8345 10.3561 25.6671C9.95158 25.7879 9.54275 25.9101 9.12954 26.0352C8.91858 26.0963 8.70616 26.1575 8.49228 26.22C8.27549 26.2811 8.05725 26.3437 7.83901 26.4048C8.19838 26.6129 8.66978 26.7351 9.17756 26.7758C9.68824 26.818 10.2455 26.7845 10.7678 26.674C11.3134 26.5517 11.7746 26.3801 12.0685 26.1546C12.214 26.0396 12.3391 25.9232 12.4163 25.7923C12.4948 25.6613 12.5326 25.5217 12.5268 25.3718C11.8765 24.8291 10.7125 24.4726 9.54711 24.6836C9.0146 24.7825 8.57667 24.995 8.24931 25.2598C7.93795 25.526 7.75172 25.8519 7.7168 26.172Z" fill="url(#paint8_linear)"/>
<path d="M10.0805 21.7801C9.74441 21.9808 9.50726 22.2486 9.42578 22.5454C9.86372 22.5454 10.3031 22.5468 10.7265 22.541C11.147 22.5337 11.566 22.5265 11.9821 22.5192C11.5835 22.5643 11.1804 22.6108 10.7731 22.6574C10.354 22.6996 9.93065 22.7418 9.50144 22.784C10.1067 23.2976 11.1703 23.5566 12.196 23.5318C12.4681 23.5245 12.7067 23.4911 12.9293 23.4474C13.1519 23.4038 13.3454 23.3412 13.5054 23.2612C13.8197 23.0968 14.0307 22.8844 14.0699 22.6036C13.5549 21.9881 12.5161 21.4556 11.3914 21.46C10.8822 21.4673 10.4239 21.5837 10.0805 21.7801Z" fill="url(#paint9_linear)"/>
<path d="M12.6247 20.3144C13.0437 20.5108 13.5151 20.6446 14.0026 20.7203C14.2586 20.7581 14.4943 20.7712 14.7067 20.7625C14.813 20.7581 14.9104 20.7465 15.0079 20.7334C15.1039 20.7203 15.1941 20.7028 15.2771 20.6796C15.6103 20.5864 15.8241 20.3973 15.9202 20.1514C15.731 19.8226 15.4153 19.4909 15.0137 19.2173C14.813 19.0806 14.5889 18.9584 14.3517 18.8594C14.116 18.7634 13.8658 18.6906 13.6039 18.6484C13.3624 18.6092 13.1296 18.5975 12.9113 18.6106C12.6917 18.6223 12.4996 18.6717 12.3221 18.7343C11.97 18.8638 11.6979 19.0718 11.5801 19.3425C11.9875 19.4123 12.3919 19.4807 12.795 19.5505C13.1965 19.6174 13.5864 19.6756 13.9705 19.7309C13.2285 19.7033 12.4225 19.6363 11.6077 19.5767C11.8463 19.8677 12.2072 20.1194 12.6247 20.3144Z" fill="url(#paint10_linear)"/>
<path d="M16.9064 18.5768C17.1087 18.6059 17.292 18.6088 17.452 18.5869C17.5335 18.5768 17.6063 18.5579 17.6776 18.5375C17.7489 18.5186 17.8143 18.4924 17.8725 18.4604C17.9904 18.3964 18.0806 18.3076 18.1431 18.1941C17.8958 17.5161 17.1756 16.761 16.2183 16.4205C15.7818 16.2721 15.3657 16.2401 15.0107 16.2969C14.8317 16.3231 14.6789 16.3842 14.5451 16.4598C14.4127 16.5369 14.3021 16.633 14.2221 16.7435C14.5931 16.8803 14.9597 17.0098 15.3191 17.132C15.6785 17.2528 16.0422 17.3837 16.3914 17.4972C16.2168 17.4579 16.0408 17.4172 15.8618 17.3735C15.7716 17.3517 15.6814 17.3299 15.5912 17.3066C15.5024 17.2862 15.4122 17.2644 15.322 17.244C14.9612 17.1582 14.5887 17.0651 14.209 16.9632C14.5553 17.5787 15.386 18.1417 16.2546 18.4196C16.4831 18.4938 16.7042 18.5491 16.9064 18.5768Z" fill="url(#paint11_linear)"/>
<path d="M15.658 56.5726C15.3525 56.6512 15.0411 56.721 14.7254 56.7807C14.4097 56.8404 14.0867 56.8927 13.7709 56.9204C13.9295 56.8869 14.0852 56.8564 14.2423 56.8156C14.4009 56.7749 14.5581 56.7312 14.7123 56.6861C15.0222 56.5945 15.3277 56.4941 15.6245 56.3849C16.2167 56.1725 16.8016 55.8946 17.3516 55.5964C17.1857 55.4363 16.9791 55.3112 16.7419 55.2152C16.5091 55.1104 16.2429 55.0406 15.9461 55.0013C15.7977 54.9824 15.6435 54.9722 15.4805 54.9693C15.3205 54.9649 15.1575 54.9635 14.9858 54.9722C14.6439 54.9897 14.2787 55.042 13.8961 55.1279C13.688 55.1774 13.4887 55.2268 13.2923 55.285C13.0959 55.3432 12.9038 55.4101 12.7176 55.4843C12.3451 55.6313 11.9959 55.8088 11.686 56.0081C11.0633 56.4068 10.5934 56.9015 10.3926 57.4485C10.7068 57.9403 11.2655 58.3549 11.9872 58.5543C12.1661 58.6066 12.3524 58.6488 12.5444 58.6779C12.7365 58.7085 12.9329 58.7274 13.141 58.7245C13.5513 58.7245 13.9761 58.6736 14.3995 58.5659C14.7967 58.4684 15.1735 58.3113 15.5111 58.128C15.8486 57.9432 16.1483 57.7293 16.4088 57.4951C16.9282 57.0266 17.2832 56.481 17.4505 55.947C17.1624 56.0707 16.8685 56.1856 16.5673 56.2918C16.2676 56.3981 15.9606 56.497 15.658 56.5726Z" fill="url(#paint12_linear)"/>
<path d="M11.7108 53.9044C12.3001 53.5727 12.7525 53.1362 13.0246 52.6721C12.7264 52.7288 12.4223 52.7783 12.1197 52.8147C11.8199 52.8467 11.5173 52.8685 11.2132 52.8801C10.9077 52.8918 10.6007 52.8947 10.2893 52.8874C9.98234 52.8758 9.68117 52.8496 9.37273 52.8161C9.68408 52.8205 9.99253 52.8132 10.2981 52.7972C10.6094 52.7754 10.9179 52.7419 11.222 52.6997C11.526 52.6575 11.8258 52.6066 12.1226 52.5455C12.271 52.5149 12.4165 52.4844 12.5649 52.4466C12.7133 52.4087 12.8617 52.3694 13.0072 52.3273C12.9461 52.2356 12.8704 52.1527 12.7918 52.0683C12.7133 51.9839 12.6231 51.9068 12.5241 51.834C12.3263 51.69 12.0891 51.5692 11.817 51.4746C11.5479 51.3772 11.2569 51.2928 10.9281 51.2433C10.6036 51.1895 10.2413 51.1691 9.87177 51.1662C9.07155 51.1604 8.28152 51.2928 7.6137 51.5416C7.27907 51.6667 6.97644 51.8195 6.72037 52.0013C6.4643 52.1817 6.24897 52.3956 6.09766 52.6299C6.19223 52.8918 6.35227 53.1435 6.56324 53.3748C6.77566 53.6061 7.03464 53.82 7.35181 53.9844C7.66463 54.1532 8.01672 54.2871 8.3921 54.3773C8.57833 54.4238 8.77765 54.4529 8.98135 54.4704C9.18504 54.4878 9.39309 54.4937 9.60261 54.4849C9.9998 54.4704 10.3781 54.4093 10.7302 54.3118C11.0852 54.2114 11.4169 54.0703 11.7108 53.9044Z" fill="url(#paint13_linear)"/>
<path d="M9.38103 48.7766C8.78596 48.7664 8.21708 48.6966 7.6351 48.5962C7.34557 48.5453 7.05313 48.4856 6.7636 48.4158C6.48134 48.3416 6.19908 48.2572 5.91828 48.1626C6.21072 48.2281 6.50171 48.2848 6.79269 48.3314C7.08514 48.3765 7.38631 48.4056 7.68021 48.4289C7.97556 48.4507 8.26946 48.4638 8.56045 48.4682C8.85434 48.4711 9.1366 48.4696 9.43341 48.4478C9.39122 48.3503 9.34611 48.2514 9.28792 48.1568C9.22972 48.0622 9.16134 47.9706 9.08277 47.8818C8.92418 47.7058 8.72485 47.5443 8.4877 47.3988C8.25782 47.2489 7.99738 47.1122 7.69912 46.9972C7.40377 46.8808 7.06913 46.7877 6.71849 46.712C5.21845 46.3818 3.63838 46.5767 2.87891 47.3406C2.91528 47.6039 3.01276 47.8716 3.16553 48.1306C3.31684 48.3896 3.51908 48.6398 3.78388 48.8566C4.04431 49.0763 4.34694 49.2727 4.68158 49.4328C4.76596 49.4721 4.85035 49.5099 4.9391 49.5463C5.02785 49.5812 5.12097 49.6117 5.21408 49.6394C5.40177 49.6961 5.59673 49.7427 5.79606 49.7776C7.29756 50.0511 8.68703 49.5317 9.38103 48.7766Z" fill="url(#paint14_linear)"/>
<path d="M4.25783 44.8137C4.59683 44.8589 4.9271 44.8647 5.23846 44.8356C5.86117 44.7774 6.40823 44.5824 6.8127 44.2943C6.53917 44.2289 6.26564 44.1547 5.99357 44.0717C5.72877 43.9859 5.46688 43.8913 5.20499 43.7866C4.9431 43.6833 4.68412 43.5698 4.4266 43.449C4.29711 43.3879 4.16908 43.3253 4.04104 43.2613C3.91737 43.1944 3.79516 43.126 3.67149 43.0562C3.80243 43.1144 3.93192 43.1711 4.06286 43.2249C4.19526 43.2788 4.33203 43.3283 4.46734 43.3763C4.73796 43.4723 5.00857 43.5596 5.28065 43.6381C5.82625 43.7938 6.36312 43.9175 6.92764 43.9946C6.91018 43.8942 6.88108 43.7938 6.8418 43.6949C6.80688 43.5945 6.76032 43.4941 6.70504 43.3952C6.593 43.1973 6.43733 43.0067 6.24527 42.8234C6.14925 42.7317 6.04158 42.643 5.92955 42.5557C5.82043 42.4669 5.70113 42.3811 5.57309 42.2982C5.31848 42.1323 5.02894 41.9795 4.7074 41.8442C4.53281 41.7715 4.36113 41.7045 4.1909 41.6463C4.01922 41.5881 3.84608 41.5372 3.67294 41.495C3.32812 41.4106 2.98475 41.3597 2.65594 41.3452C1.99976 41.3161 1.40323 41.4325 0.972572 41.7205C0.939109 42.2269 1.12534 42.8001 1.53272 43.305C1.73351 43.5581 1.97212 43.7997 2.26165 44.0106C2.55409 44.2187 2.88436 44.4005 3.24373 44.5417C3.58564 44.6755 3.92464 44.7657 4.25783 44.8137Z" fill="url(#paint15_linear)"/>
<path d="M1.83794 39.1238C2.1333 39.313 2.43738 39.4585 2.74146 39.5661C3.05282 39.6723 3.36127 39.7378 3.65953 39.7684C4.25605 39.8295 4.80748 39.748 5.24105 39.553C4.99662 39.441 4.75219 39.3202 4.51212 39.1908C4.27933 39.0613 4.04945 38.923 3.82248 38.7761C3.59551 38.6306 3.37145 38.4764 3.1503 38.3149C2.92769 38.1534 2.72546 37.9817 2.51886 37.8042C2.74437 37.9628 2.96843 38.1126 3.20413 38.2538C3.44129 38.3934 3.68135 38.5258 3.92287 38.6495C4.40882 38.8969 4.89186 39.1122 5.40691 39.2911C5.40982 39.1937 5.39964 39.0933 5.38218 38.9929C5.36763 38.891 5.34289 38.7892 5.30798 38.6859C5.23814 38.4793 5.12756 38.2698 4.97916 38.0632C4.9035 37.9599 4.82348 37.8551 4.73764 37.7518C4.65034 37.6485 4.55286 37.5452 4.44811 37.4448C4.23714 37.2426 3.99125 37.0447 3.71482 36.8585C2.55377 36.051 1.13957 35.6727 0.222961 36.0554C-0.0360182 36.9967 0.569237 38.3338 1.83794 39.1238Z" fill="url(#paint16_linear)"/>
<path d="M1.62244 33.7395C2.58998 34.6605 3.85723 34.9689 4.74038 34.7623C4.31263 34.4611 3.92852 34.1323 3.55024 33.7773C3.36255 33.5998 3.17777 33.415 3.00173 33.2244C2.83004 33.0338 2.66418 32.8359 2.50268 32.6322C2.686 32.8214 2.87369 33.0018 3.06429 33.1764C3.25489 33.351 3.46294 33.5183 3.66663 33.6769C4.07984 33.997 4.4974 34.2865 4.94262 34.5484C5.02846 34.1832 4.97317 33.7628 4.76511 33.3205C4.672 33.0993 4.54396 32.8723 4.38101 32.6439C4.22096 32.4169 4.01582 32.187 3.80049 31.963C3.32472 31.4799 2.77185 31.0886 2.22042 30.8398C1.669 30.591 1.12631 30.4877 0.657818 30.5852C0.557427 30.7932 0.502139 31.0333 0.4905 31.2923C0.480315 31.5512 0.503594 31.8277 0.593801 32.1099C0.764028 32.6759 1.09575 33.2535 1.62244 33.7395Z" fill="url(#paint17_linear)"/>
<path d="M1.83298 27.7705C1.88972 27.9145 1.95228 28.0571 2.03085 28.1997C2.11087 28.3423 2.20108 28.4819 2.30147 28.6187C2.68121 29.1352 3.14097 29.5237 3.62692 29.7783C4.11432 30.0329 4.61046 30.1522 5.04548 30.1347C4.87089 29.9558 4.7123 29.7725 4.55662 29.5833C4.40094 29.3942 4.25109 29.1992 4.10559 28.9984C3.80878 28.5969 3.55708 28.1779 3.32429 27.7399C3.86989 28.5736 4.54935 29.3229 5.27245 29.9703C5.42668 29.6444 5.43686 29.237 5.32774 28.786C5.27973 28.562 5.19825 28.3263 5.08477 28.0833C4.97274 27.8403 4.82288 27.59 4.65992 27.3412C4.29764 26.8044 3.84516 26.3403 3.37085 26.0115C2.89799 25.6826 2.40477 25.4906 1.94646 25.4993C1.81697 25.6768 1.72386 25.8907 1.66711 26.1307C1.63947 26.2501 1.62056 26.3766 1.61183 26.5076C1.60164 26.6385 1.6031 26.7738 1.62056 26.9135C1.65111 27.1929 1.7224 27.4824 1.83298 27.7705Z" fill="url(#paint18_linear)"/>
<path d="M4.89513 25.2237C5.30688 25.5467 5.75209 25.7446 6.16238 25.8057C6.02998 25.6064 5.91359 25.4085 5.80156 25.2033C5.68807 24.9997 5.58186 24.7901 5.48002 24.5777C5.37963 24.3653 5.27923 24.1471 5.1963 23.9288C5.11337 23.7106 5.03481 23.4894 4.96351 23.2639C5.33161 24.1383 5.83939 24.9589 6.4039 25.6907C6.60468 25.4114 6.68616 25.0317 6.66143 24.5894C6.64979 24.1529 6.51593 23.6466 6.28314 23.1199C5.78846 21.9908 4.90677 21.0699 4.05418 20.9316C3.90286 21.0742 3.77774 21.259 3.68317 21.4743C3.59151 21.6897 3.52167 21.9312 3.50712 22.1989C3.4722 22.7314 3.56241 23.3265 3.85194 23.9099C4.11965 24.4584 4.48629 24.9022 4.89513 25.2237Z" fill="url(#paint19_linear)"/>
<path d="M7.97589 21.9045C7.79694 21.4884 7.66308 21.0723 7.54523 20.6388C7.48703 20.4234 7.43466 20.2052 7.3881 19.984C7.34299 19.7629 7.31244 19.5461 7.28334 19.3235C7.33426 19.5446 7.38955 19.7614 7.45502 19.9767C7.52341 20.1935 7.59761 20.4089 7.67618 20.6184C7.83622 21.0403 8.01372 21.4448 8.22178 21.8391C8.45166 21.6092 8.60152 21.2716 8.64953 20.8512C8.70482 20.4365 8.68008 19.9476 8.54186 19.4108C8.26688 18.2701 7.60197 17.2676 6.82358 16.9912C6.49185 17.2065 6.22124 17.5878 6.10193 18.081C6.03791 18.3254 6.00445 18.5916 6.0059 18.8681C6.00736 19.146 6.05683 19.4428 6.13685 19.7367C6.43802 20.8497 7.22951 21.6543 7.97589 21.9045Z" fill="url(#paint20_linear)"/>
<path d="M9.55082 17.7031C9.7967 18.1047 10.1095 18.4116 10.4383 18.5935C10.2463 17.7613 10.1837 16.9262 10.2099 16.0692C10.2361 16.4999 10.2928 16.9276 10.3685 17.3437C10.4063 17.5518 10.4514 17.7584 10.5009 17.9621C10.5547 18.1687 10.6144 18.3738 10.6798 18.5761C10.9243 18.3942 11.1236 18.1076 11.2415 17.7278C11.3026 17.5401 11.3375 17.3219 11.3637 17.0979C11.3884 16.8723 11.3942 16.6279 11.3753 16.3689C11.3564 16.0896 11.3113 15.8131 11.2444 15.5527C11.1803 15.2937 11.0974 15.0493 10.9927 14.8252C10.7846 14.3786 10.4994 14.0207 10.159 13.8271C9.46061 14.1065 8.96011 15.1148 9.07505 16.2656C9.12306 16.8025 9.30639 17.303 9.55082 17.7031Z" fill="url(#paint21_linear)"/>
<path d="M13.2394 15.8089C13.2249 15.4131 13.2321 15.013 13.2627 14.6114C13.27 14.511 13.2787 14.4107 13.2903 14.3103C13.302 14.2113 13.3165 14.1139 13.3325 14.0164C13.3631 13.82 13.3995 13.6235 13.4417 13.4286C13.398 13.8345 13.3704 14.2288 13.3791 14.6347C13.3878 15.0406 13.4184 15.4408 13.4693 15.835C13.6017 15.7739 13.7239 15.6837 13.8345 15.5644C13.9451 15.4466 14.0396 15.2953 14.1298 15.1338C14.3059 14.8064 14.4252 14.3786 14.4718 13.8869C14.5852 12.8466 14.3161 11.7961 13.7457 11.3291C13.5741 11.3684 13.4053 11.4499 13.2467 11.5663C13.1681 11.6245 13.091 11.6914 13.0183 11.7656C12.9455 11.8398 12.88 11.9285 12.8175 12.0217C12.6924 12.2079 12.5861 12.4218 12.5061 12.656C12.4247 12.8903 12.3679 13.1434 12.3519 13.4198C12.2806 14.4558 12.6851 15.3622 13.2394 15.8089Z" fill="url(#paint22_linear)"/>
<path d="M20.5365 55.8413L20.538 55.8369L20.4158 55.7845C20.3954 55.7758 20.3751 55.7656 20.3547 55.7554L20.3532 55.7569L19.8251 55.5314L19.4686 55.3786C19.3522 55.3233 19.2358 55.2651 19.1194 55.2084L18.4225 54.8665C18.1941 54.7443 17.97 54.6162 17.7431 54.4911L17.4041 54.302C17.2906 54.2394 17.1844 54.1666 17.0738 54.0983L16.4162 53.6851C16.1979 53.5454 15.9913 53.3897 15.7774 53.2428C15.5665 53.0929 15.3497 52.9503 15.1489 52.7859L14.5378 52.3072C14.4869 52.2665 14.4345 52.2287 14.3851 52.1865L14.2381 52.0584L13.9457 51.8038L13.6518 51.5492C13.5528 51.4648 13.4554 51.379 13.3652 51.2873L12.8065 50.7475C12.6159 50.5715 12.4442 50.378 12.2667 50.1888C12.0906 49.9982 11.9102 49.812 11.7385 49.6171L11.238 49.0205L10.9878 48.7223L10.7535 48.4109L10.285 47.7882C10.1337 47.5772 9.99405 47.359 9.84711 47.1451C9.54739 46.7203 9.29132 46.2692 9.02216 45.824C8.88248 45.6043 8.769 45.3701 8.64678 45.1417C8.52602 44.9118 8.40235 44.6834 8.2845 44.452L7.95714 43.7435L7.79419 43.3899C7.73744 43.2735 7.69525 43.1498 7.64578 43.0291C7.45373 42.546 7.25149 42.0659 7.09436 41.5698L6.96778 41.2002L6.90522 41.0155L6.84993 40.8278L6.63314 40.0785C6.37126 39.0716 6.14138 38.0532 6.0148 37.0187L5.95951 36.6317L5.92168 36.2432C5.8984 35.9843 5.8693 35.7253 5.85039 35.4649C5.82711 34.944 5.78928 34.4231 5.79946 33.9023C5.78782 33.3799 5.82129 32.8591 5.84311 32.3382C5.85912 32.0778 5.88822 31.8188 5.91004 31.5583L5.94641 31.1684L5.99879 30.7799C6.12537 29.744 6.34361 28.7197 6.61132 27.71C6.68261 27.4583 6.74954 27.2066 6.8252 26.9564L7.07108 26.2114C7.14819 25.9612 7.25004 25.7211 7.34025 25.4752C7.43482 25.2308 7.52211 24.9849 7.63123 24.7478C8.44455 22.8214 9.52557 21.0057 10.8379 19.3718L11.3384 18.7665C11.5116 18.5701 11.6905 18.378 11.8666 18.1845C11.9553 18.0885 12.0412 17.9881 12.1343 17.8965L12.4122 17.6186L12.6915 17.3407L12.8312 17.2025L12.9767 17.07L13.5601 16.5434C13.758 16.3717 13.9646 16.2102 14.1668 16.0414C14.2687 15.9585 14.3691 15.8741 14.4724 15.7926L14.7895 15.5584L15.1067 15.3241C15.2129 15.247 15.3162 15.1655 15.4268 15.0957C15.3148 15.1641 15.21 15.2441 15.1023 15.3198L14.7823 15.5496L14.4622 15.7795C14.3574 15.8595 14.2556 15.9425 14.1537 16.024C13.95 16.1884 13.7391 16.347 13.5397 16.5172L12.9476 17.0366L12.7992 17.1661L12.658 17.3028L12.3743 17.5764L12.0906 17.8499C11.9961 17.9401 11.9088 18.0405 11.8185 18.1351C11.6396 18.3271 11.4577 18.5177 11.2802 18.7112L10.7681 19.3121C9.42663 20.9329 8.3136 22.7443 7.46537 24.6736C7.35188 24.9122 7.25877 25.1581 7.16129 25.4025C7.06672 25.6484 6.95905 25.8899 6.87903 26.1402L6.62005 26.888C6.54148 27.1397 6.46874 27.3929 6.39308 27.646C6.10791 28.6601 5.87221 29.6931 5.72963 30.7392L5.66997 31.1306L5.62778 31.5249C5.60159 31.7882 5.56958 32.0501 5.54921 32.3135C5.52012 32.8401 5.47938 33.3683 5.48374 33.8964C5.46628 34.4246 5.49684 34.9527 5.51284 35.4809C5.52885 35.7442 5.55358 36.0075 5.57395 36.2709L5.60596 36.6666L5.65688 37.0595C5.77182 38.1114 5.99006 39.1502 6.24177 40.1774L6.45128 40.9427L6.50366 41.1348L6.56476 41.3239L6.68843 41.7007C6.8412 42.2085 7.04053 42.6988 7.22822 43.195C7.27768 43.3172 7.31842 43.4437 7.37516 43.5645L7.53666 43.9282L7.85966 44.6543C7.97751 44.8914 8.09972 45.1271 8.21903 45.3628C8.34124 45.5985 8.45473 45.8386 8.59295 46.0641C8.86066 46.5224 9.11527 46.988 9.41644 47.4259C9.56339 47.6471 9.70307 47.8726 9.85438 48.0908L10.3243 48.7339L10.56 49.0555L10.8117 49.3639L11.3151 49.9822C11.4883 50.183 11.6701 50.3765 11.8476 50.5744C12.0266 50.7708 12.2012 50.9716 12.3933 51.1549L12.9592 51.7165C13.0523 51.8125 13.1498 51.9013 13.2502 51.9886L13.547 52.2549L13.8438 52.5211L13.9922 52.6535C14.0432 52.6972 14.0955 52.7379 14.1465 52.7801L14.7677 53.2806C14.9714 53.4523 15.1911 53.6021 15.4064 53.7593C15.6232 53.9135 15.8342 54.0764 16.0568 54.2234L16.7275 54.657C16.8395 54.7283 16.9487 54.8054 17.0651 54.8708L17.4113 55.0702C17.6427 55.2026 17.8711 55.3379 18.1053 55.4674L18.8183 55.8296C18.9376 55.8893 19.0554 55.9519 19.1747 56.0101L19.5399 56.173L20.0681 56.4072V56.4087C21.8009 57.1696 23.1962 58.5329 23.9964 60.2483L24.1113 60.4942L24.7631 60.1901L24.6482 59.9442C23.8 58.1372 22.345 56.6866 20.5365 55.8413Z" fill="url(#paint23_linear)"/>
<path d="M60.8084 14.9268C61.5024 15.3008 62.2953 15.3022 62.8744 14.9792C62.7507 14.8643 62.6241 14.7508 62.4932 14.6417C62.3593 14.5398 62.2211 14.4394 62.0814 14.3434C61.9418 14.2474 61.7992 14.1528 61.6537 14.0626C61.5082 13.9739 61.354 13.8997 61.2026 13.8226C61.3641 13.8793 61.5271 13.936 61.6842 14.0059C61.8399 14.0772 61.9941 14.1528 62.1469 14.2328C62.2997 14.3129 62.451 14.3958 62.6008 14.4831C62.7449 14.5777 62.8889 14.6751 63.0286 14.7755C63.0504 14.6068 63.0417 14.4322 63.0039 14.2547C62.9849 14.1659 62.9588 14.0786 62.9253 13.9899C62.8918 13.9026 62.8482 13.8211 62.7987 13.7382C62.6998 13.5737 62.5747 13.4152 62.4233 13.2682C62.3477 13.1955 62.2677 13.1256 62.1804 13.0602C62.0931 12.9947 61.997 12.9409 61.8981 12.8885C61.4747 12.6688 61.031 12.5684 60.6236 12.6179C60.2191 12.6586 59.8656 12.8143 59.6182 13.0689C59.6051 13.4297 59.7172 13.7993 59.9252 14.1193C60.1362 14.4336 60.4272 14.7304 60.8084 14.9268Z" fill="url(#paint24_linear)"/>
<path d="M59.4856 52.3697C59.6573 53.0346 59.9163 53.6355 60.2684 54.0647C60.3018 53.7635 60.3339 53.4624 60.3673 53.1641C60.4008 52.8702 60.4342 52.5821 60.459 52.2868C60.4866 52.0001 60.5157 51.7135 60.5434 51.4298C60.5725 51.1505 60.6016 50.8798 60.6234 50.6005C60.6248 50.7445 60.6263 50.89 60.6263 51.0341C60.6248 51.1781 60.6248 51.3207 60.6234 51.4647C60.6219 51.7586 60.6205 52.054 60.619 52.3508C60.6219 52.9575 60.6059 53.5511 60.5987 54.1724C60.8067 54.1185 61.0104 54.0167 61.1966 53.8654C61.377 53.7068 61.5415 53.5031 61.6797 53.2645C61.7495 53.1452 61.8121 53.0171 61.8674 52.8804C61.9212 52.7422 61.9634 52.5909 61.9998 52.4352C62.0711 52.1224 62.1074 51.7848 62.1031 51.4269C62.1016 51.2363 62.0841 51.0384 62.055 50.8464C62.0274 50.6543 61.9881 50.4666 61.9401 50.2819C61.8441 49.9152 61.7102 49.5675 61.5516 49.2474C61.233 48.6072 60.8096 48.0762 60.3717 47.7168C59.9963 47.7648 59.7315 48.0456 59.5351 48.4705C59.4871 48.5796 59.4463 48.7003 59.4114 48.8313C59.3765 48.9637 59.3489 49.1077 59.3198 49.2532C59.2674 49.5486 59.2397 49.889 59.2383 50.2659C59.2397 50.6267 59.2557 50.9788 59.2965 51.3309C59.3358 51.6888 59.3998 52.038 59.4856 52.3697Z" fill="url(#paint25_linear)"/>
<path d="M64.4218 49.5521C64.4829 49.8358 64.5455 50.121 64.6066 50.4076C64.6386 50.5531 64.6692 50.6971 64.7012 50.8426C64.7303 50.9866 64.7608 51.1307 64.7899 51.2747C64.8831 51.2282 64.9762 51.1729 65.0562 51.1001C65.1362 51.0274 65.2119 50.943 65.2817 50.8499C65.4199 50.6637 65.5349 50.4396 65.6178 50.1864C65.6978 49.9318 65.7356 49.6379 65.7415 49.3324C65.7444 49.0225 65.7167 48.7039 65.6323 48.3605C65.449 47.6199 65.0984 46.9565 64.6677 46.4196C64.4524 46.1519 64.2167 45.9133 63.9737 45.711C63.7307 45.5088 63.4849 45.3473 63.2404 45.2236C63.0658 45.2877 62.9262 45.3982 62.8214 45.551C62.7152 45.7038 62.6483 45.9031 62.5944 46.1242C62.5464 46.3498 62.5304 46.6146 62.5479 46.9143C62.5581 47.0656 62.5697 47.2184 62.5901 47.3799C62.6104 47.5414 62.6395 47.7116 62.6774 47.8891C62.7487 48.2237 62.8447 48.5613 62.9611 48.8886C63.0746 49.2131 63.2041 49.5244 63.3554 49.8183C63.6565 50.4047 64.029 50.911 64.4538 51.2398C64.4218 50.9503 64.3913 50.6622 64.3593 50.3756C64.3244 50.0904 64.2894 49.8052 64.256 49.523C64.224 49.248 64.1934 48.9745 64.1629 48.7024C64.1279 48.4318 64.0945 48.1626 64.061 47.8964C64.1221 48.1699 64.1847 48.4449 64.2472 48.7199C64.304 48.9978 64.3622 49.2742 64.4218 49.5521Z" fill="url(#paint26_linear)"/>
<path d="M67.2873 45.966C67.5201 46.4781 67.7544 46.9917 67.9915 47.5097C68.3014 47.2565 68.4877 46.8259 68.5429 46.321C68.5619 46.0635 68.54 45.7812 68.4833 45.4932C68.4236 45.2022 68.332 44.9068 68.185 44.6027C67.5449 43.2787 66.3256 42.3869 65.3072 42.1221C65.1558 42.2181 65.0453 42.3519 64.9769 42.5193C64.9071 42.6866 64.8823 42.8888 64.875 43.11C64.8736 43.334 64.9114 43.5872 64.9885 43.8665C65.0074 43.9364 65.0293 44.0077 65.0525 44.0804C65.0758 44.1532 65.0976 44.2245 65.1238 44.2987C65.1748 44.4471 65.2373 44.6013 65.3072 44.7599C65.8557 45.9675 66.7301 47.0979 67.6656 47.5461C67.4925 47.0165 67.2975 46.4825 67.1244 45.9733C67.0385 45.7216 66.9541 45.4713 66.8698 45.2211C66.7825 44.9737 66.6952 44.7264 66.6093 44.482C66.7228 44.7264 66.8363 44.9723 66.9498 45.2196C67.0618 45.467 67.1738 45.7158 67.2873 45.966Z" fill="url(#paint27_linear)"/>
<path d="M68.9148 41.3889C69.0676 41.6013 69.2218 41.8152 69.3761 42.0305C69.6889 42.4626 70.022 42.9064 70.3363 43.3472C70.3974 43.273 70.4513 43.1901 70.4964 43.0999C70.5371 43.0082 70.5676 42.9093 70.5909 42.8045C70.6375 42.595 70.6477 42.3637 70.6215 42.1178C70.6084 41.9956 70.588 41.8705 70.5531 41.7424C70.5167 41.6129 70.4702 41.482 70.4134 41.351C70.3014 41.0877 70.1515 40.8229 69.9624 40.5654C69.862 40.4271 69.7471 40.2933 69.6263 40.1682C69.5055 40.043 69.3804 39.9252 69.2509 39.8161C68.9905 39.5978 68.7141 39.4131 68.4333 39.2617C67.8702 38.9591 67.2897 38.7903 66.7848 38.7627C66.536 39.0057 66.4836 39.3621 66.5593 39.7899C66.6 40.0038 66.6917 40.2424 66.8095 40.4912C66.9245 40.7385 67.0802 41.0033 67.2766 41.2783C67.4614 41.5387 67.6709 41.7904 67.8906 42.0232C68.1044 42.2546 68.3343 42.4699 68.5715 42.6605C69.0472 43.0431 69.5536 43.3268 70.0366 43.4432C69.9013 43.2119 69.766 42.9806 69.6321 42.7507C69.4954 42.5223 69.3586 42.2938 69.2233 42.0669C69.0938 41.8443 68.9643 41.6231 68.8348 41.4034C68.7723 41.2957 68.7111 41.1866 68.6486 41.079C68.5846 40.9713 68.5206 40.8636 68.4565 40.756C68.5336 40.8607 68.6093 40.9655 68.6864 41.0717C68.765 41.1779 68.8406 41.2841 68.9148 41.3889Z" fill="url(#paint28_linear)"/>
<path d="M70.619 37.8892C70.9987 38.2413 71.3813 38.5934 71.7669 38.9499C71.8106 38.8684 71.8469 38.7811 71.8702 38.688C71.892 38.5949 71.9037 38.4959 71.9066 38.3926C71.9124 38.1875 71.8804 37.9678 71.8106 37.7423C71.7785 37.6303 71.7305 37.5153 71.6709 37.4004C71.6127 37.2854 71.5458 37.1719 71.4686 37.0585C71.3159 36.8315 71.1267 36.6103 70.9012 36.4037C69.89 35.4988 68.5398 35.1568 67.5781 35.2907C67.4836 35.4289 67.437 35.5846 67.4355 35.7534C67.4355 35.8378 67.4457 35.9265 67.469 36.0182C67.4879 36.1098 67.5156 36.2044 67.5549 36.3019C67.6334 36.4969 67.7556 36.7035 67.92 36.9173C68.0801 37.1312 68.2707 37.3509 68.5064 37.5735C68.7275 37.7845 68.9691 37.9823 69.2208 38.1613C69.4652 38.3403 69.7213 38.5003 69.9817 38.6356C70.4996 38.9062 71.0307 39.0794 71.5065 39.0997C71.3348 38.9062 71.1646 38.7142 70.9958 38.5236C70.8241 38.333 70.6539 38.1438 70.4851 37.9562C70.1592 37.5881 69.8377 37.2229 69.519 36.8635C69.7009 37.0323 69.8842 37.2025 70.069 37.3742C70.2509 37.543 70.4342 37.7161 70.619 37.8892Z" fill="url(#paint29_linear)"/>
<path d="M72.4036 34.5175C72.504 34.1771 72.4313 33.7697 72.2232 33.3696C72.1097 33.1703 71.9584 32.9724 71.7751 32.7862C71.5889 32.5999 71.3808 32.4239 71.1204 32.2697C70.566 31.935 69.955 31.743 69.373 31.6775C68.7925 31.6106 68.2338 31.6659 67.7987 31.8157C67.7333 31.9641 67.7173 32.1213 67.7464 32.2842C67.774 32.4472 67.8569 32.613 67.9602 32.7847C68.1756 33.1266 68.5742 33.4802 69.0849 33.8177C70.0786 34.4506 71.2789 34.8434 72.1854 34.7067C71.7911 34.407 71.3997 34.1087 71.0142 33.8148C70.8279 33.6693 70.6417 33.5253 70.4569 33.3812C70.2721 33.2386 70.0888 33.0975 69.9055 32.9579C70.3114 33.2125 70.7188 33.47 71.1291 33.729C71.5408 33.9879 71.9744 34.2527 72.4036 34.5175Z" fill="url(#paint30_linear)"/>
<path d="M71.1977 28.6879C70.9911 28.5453 70.7627 28.4173 70.4906 28.3184C69.9115 28.1001 69.3034 28.0274 68.7461 28.0652C68.1874 28.103 67.6724 28.2529 67.2912 28.4697C67.2563 28.621 67.2679 28.7737 67.3247 28.9221C67.3523 28.9963 67.3916 29.0706 67.4411 29.1433C67.492 29.216 67.5516 29.2873 67.6157 29.3586C67.7466 29.5012 67.9197 29.6394 68.1307 29.7704C68.2355 29.8359 68.3519 29.8984 68.4726 29.9595C68.5919 30.0206 68.72 30.0803 68.8567 30.137C69.3732 30.3495 69.9436 30.4891 70.4761 30.5444C71.0071 30.5997 71.5163 30.5648 71.9266 30.4193C71.7171 30.3131 71.5003 30.2069 71.2894 30.1036C71.0813 29.9988 70.8733 29.8955 70.6667 29.7922C70.2636 29.5871 69.8664 29.3834 69.4722 29.1826C70.3204 29.5172 71.1803 29.8635 72.0983 30.2054C72.1231 29.8693 71.995 29.4968 71.7215 29.1608C71.5775 28.9905 71.4029 28.8305 71.1977 28.6879Z" fill="url(#paint31_linear)"/>
<path d="M70.4969 25.2568C70.1695 24.9935 69.733 24.7796 69.1991 24.6807C68.0336 24.4697 66.8697 24.8262 66.2193 25.3689C66.2135 25.5173 66.2513 25.6584 66.3299 25.7893C66.407 25.9203 66.5336 26.0381 66.6776 26.1516C66.9715 26.3771 67.4328 26.5503 67.9784 26.671C68.5007 26.7816 69.0579 26.8151 69.5686 26.7729C70.0764 26.7321 70.5463 26.6099 70.9071 26.4019C70.6875 26.3393 70.4707 26.2782 70.2539 26.2171C70.04 26.1545 69.8276 26.0934 69.6166 26.0323C69.2034 25.9086 68.7946 25.7864 68.3901 25.6642C69.2456 25.833 70.1098 26.0105 71.0294 26.1691C70.9974 25.8519 70.8097 25.526 70.4969 25.2568Z" fill="url(#paint32_linear)"/>
<path d="M69.3258 22.5449C69.2443 22.2495 69.0057 21.9818 68.6711 21.7796C68.3277 21.5832 67.8694 21.4668 67.3602 21.458C66.2355 21.4537 65.1967 21.9862 64.6816 22.6016C64.7209 22.8824 64.9319 23.0948 65.2462 23.2593C65.4062 23.3393 65.5997 23.4018 65.8223 23.4455C66.0435 23.4891 66.2835 23.5226 66.5556 23.5299C67.5813 23.5546 68.6463 23.2956 69.2501 22.782C68.8224 22.7398 68.3976 22.6962 67.9785 22.6554C67.5712 22.6089 67.1681 22.5623 66.7695 22.5172C67.1856 22.5245 67.6032 22.5318 68.0251 22.539C68.4485 22.5463 68.8879 22.5449 69.3258 22.5449Z" fill="url(#paint33_linear)"/>
<path d="M67.1702 19.3444C67.0523 19.0738 66.7802 18.8657 66.4281 18.7363C66.2506 18.6737 66.0586 18.6242 65.8389 18.6126C65.6207 18.5995 65.3879 18.6111 65.1463 18.6504C64.8859 18.694 64.6342 18.7653 64.3985 18.8614C64.1613 18.9589 63.9373 19.0825 63.7365 19.2193C63.3349 19.4928 63.0192 19.8231 62.8301 20.1534C62.9261 20.3992 63.1385 20.5898 63.4732 20.6815C63.5561 20.7048 63.6463 20.7237 63.7423 20.7353C63.8383 20.7484 63.9358 20.7601 64.0435 20.7644C64.2559 20.7732 64.4916 20.7601 64.7477 20.7222C65.2351 20.6466 65.705 20.5127 66.1255 20.3163C66.5445 20.1214 66.9039 19.8696 67.1411 19.5801C66.3263 19.6383 65.5203 19.7052 64.7782 19.7343C65.1623 19.6791 65.5523 19.6209 65.9538 19.5539C66.3569 19.4826 66.7628 19.4128 67.1702 19.3444Z" fill="url(#paint34_linear)"/>
<path d="M64.5285 16.7435C64.447 16.6315 64.3379 16.5355 64.2055 16.4598C64.0716 16.3842 63.9203 16.3231 63.7399 16.2969C63.3864 16.2401 62.9688 16.2721 62.5323 16.4205C61.575 16.761 60.8548 17.5161 60.6074 18.1941C60.6685 18.3076 60.7602 18.3964 60.878 18.4604C60.9362 18.4924 61.0017 18.5186 61.073 18.5375C61.1443 18.5578 61.217 18.5768 61.2985 18.5869C61.4586 18.6088 61.6419 18.6044 61.8441 18.5768C62.0464 18.5477 62.269 18.4924 62.4959 18.4225C63.3645 18.1446 64.1953 17.5816 64.5416 16.9661C64.1618 17.068 63.7894 17.1626 63.4285 17.2469C63.3383 17.2673 63.2496 17.2891 63.1594 17.3095C63.0692 17.3313 62.979 17.3532 62.8888 17.3764C62.7098 17.4201 62.5323 17.4608 62.3592 17.5001C62.7084 17.3866 63.0735 17.2571 63.4315 17.1349C63.7908 17.0113 64.156 16.8818 64.5285 16.7435Z" fill="url(#paint35_linear)"/>
<path d="M67.0608 56.0077C66.7495 55.8083 66.4003 55.6323 66.0293 55.4839C65.8431 55.4097 65.651 55.3428 65.4546 55.2846C65.2582 55.2264 65.0588 55.1769 64.8508 55.1274C64.4681 55.0401 64.103 54.9892 63.761 54.9718C63.5894 54.9616 63.4264 54.9645 63.2664 54.9688C63.1049 54.9718 62.9492 54.982 62.8008 55.0009C62.5054 55.0387 62.2377 55.11 62.0049 55.2147C61.7663 55.3108 61.5612 55.4344 61.3953 55.5959C61.9467 55.8942 62.5316 56.1735 63.1223 56.3845C63.4206 56.4936 63.7247 56.594 64.0346 56.6857C64.1902 56.7308 64.3459 56.7744 64.5045 56.8152C64.6631 56.8559 64.8173 56.8879 64.9759 56.9199C64.6602 56.8923 64.3372 56.8399 64.0215 56.7803C63.7058 56.7206 63.3944 56.6508 63.0889 56.5722C62.7848 56.4965 62.4778 56.3976 62.1781 56.2914C61.8783 56.1852 61.583 56.0702 61.2949 55.9466C61.4622 56.4805 61.8172 57.0261 62.3367 57.4946C62.5956 57.7289 62.8968 57.9442 63.2344 58.1275C63.5719 58.3109 63.9487 58.468 64.3459 58.5655C64.7693 58.6731 65.1942 58.7241 65.6045 58.7241C65.8111 58.727 66.0089 58.708 66.201 58.6775C66.393 58.6469 66.5793 58.6062 66.7582 58.5538C67.4799 58.3545 68.0386 57.9398 68.3528 57.4481C68.1535 56.901 67.6836 56.4078 67.0608 56.0077Z" fill="url(#paint36_linear)"/>
<path d="M72.0308 52.0014C71.7747 51.821 71.4721 51.6668 71.1375 51.5417C70.4697 51.2929 69.6782 51.159 68.8794 51.1663C68.5099 51.1692 68.1476 51.1896 67.8231 51.2434C67.4958 51.2943 67.2048 51.3787 66.9342 51.4747C66.6621 51.5693 66.4249 51.6901 66.2271 51.8341C66.1281 51.9069 66.0379 51.984 65.9594 52.0684C65.8808 52.1528 65.8051 52.2342 65.744 52.3274C65.891 52.3695 66.0379 52.4088 66.1863 52.4467C66.3347 52.483 66.4802 52.515 66.6286 52.5456C66.924 52.6067 67.2251 52.6576 67.5292 52.6998C67.8333 52.742 68.1418 52.774 68.4531 52.7973C68.7587 52.8133 69.0671 52.8206 69.3785 52.8162C69.0715 52.8497 68.7688 52.8773 68.4618 52.8875C68.1519 52.8948 67.8435 52.8919 67.538 52.8802C67.2324 52.8686 66.9298 52.8468 66.6315 52.8148C66.3289 52.7798 66.0234 52.7289 65.7266 52.6722C65.9986 53.1363 66.4511 53.5728 67.0404 53.9045C67.3343 54.0704 67.6645 54.2115 68.0195 54.3133C68.3702 54.4108 68.7485 54.4719 69.1471 54.4865C69.3581 54.4938 69.5647 54.4894 69.7684 54.4719C69.9721 54.4545 70.1714 54.4254 70.3576 54.3788C70.733 54.2886 71.0851 54.1533 71.3979 53.986C71.7151 53.8216 71.9741 53.6077 72.1865 53.3764C72.3989 53.145 72.5575 52.8933 72.6521 52.6314C72.5037 52.3943 72.2869 52.1818 72.0308 52.0014Z" fill="url(#paint37_linear)"/>
<path d="M72.0294 46.7123C71.6802 46.788 71.3441 46.8811 71.0487 46.9975C70.7519 47.1125 70.49 47.2492 70.2602 47.3991C70.023 47.5446 69.8237 47.7061 69.6651 47.8821C69.5865 47.9709 69.5167 48.0625 69.4599 48.1571C69.4017 48.2517 69.3566 48.3506 69.3145 48.4481C69.6113 48.4699 69.895 48.4699 70.1874 48.4685C70.4784 48.4641 70.7723 48.4524 71.0677 48.4292C71.3616 48.4059 71.6627 48.3768 71.9552 48.3317C72.2462 48.2851 72.5371 48.2298 72.8296 48.1629C72.5488 48.2575 72.2665 48.3419 71.9843 48.4161C71.6947 48.4859 71.4037 48.5456 71.1128 48.5965C70.5308 48.6969 69.9604 48.7653 69.3668 48.7769C70.0623 49.5335 71.4503 50.0529 72.9533 49.7779C73.1526 49.743 73.3475 49.6964 73.5352 49.6397C73.6283 49.6106 73.7229 49.58 73.8102 49.5466C73.8975 49.5116 73.9834 49.4738 74.0677 49.4331C74.4024 49.273 74.705 49.0766 74.9654 48.8569C75.2302 48.6401 75.4325 48.3899 75.5838 48.1309C75.7351 47.8719 75.834 47.6042 75.8704 47.3409C75.1095 46.5756 73.5294 46.3821 72.0294 46.7123Z" fill="url(#paint38_linear)"/>
<path d="M76.094 41.3461C75.7666 41.3607 75.4232 41.4116 75.077 41.496C74.9038 41.5382 74.7307 41.5891 74.559 41.6473C74.3873 41.7055 74.2171 41.7724 74.0425 41.8452C73.7224 41.9805 73.4329 42.1333 73.1768 42.2991C73.0488 42.3821 72.9309 42.4679 72.8204 42.5567C72.7083 42.644 72.6007 42.7327 72.5046 42.8244C72.3126 43.0077 72.1569 43.1983 72.0449 43.3962C71.9881 43.4951 71.943 43.5955 71.9081 43.6959C71.8688 43.7948 71.8397 43.8952 71.8223 43.9956C72.3868 43.9185 72.9251 43.7948 73.4693 43.6391C73.7413 43.5606 74.012 43.4733 74.2826 43.3772C74.4179 43.3292 74.5546 43.2798 74.687 43.2259C74.818 43.1721 74.9489 43.1153 75.0784 43.0571C74.9562 43.1284 74.8325 43.1968 74.7089 43.2623C74.5808 43.3278 74.4528 43.3903 74.3233 43.45C74.0658 43.5707 73.8053 43.6828 73.5449 43.7875C73.283 43.8908 73.0211 43.9868 72.7563 44.0727C72.4843 44.1556 72.2107 44.2298 71.9372 44.2953C72.3417 44.5834 72.8887 44.7783 73.5115 44.8365C73.8228 44.8656 74.1531 44.8598 74.4921 44.8147C74.8267 44.7667 75.1657 44.678 75.5047 44.5441C75.8641 44.403 76.1944 44.2211 76.4868 44.013C76.7763 43.8035 77.015 43.5606 77.2157 43.3074C77.6231 42.804 77.8093 42.2308 77.7759 41.723C77.3452 41.4334 76.7487 41.317 76.094 41.3461Z" fill="url(#paint39_linear)"/>
<path d="M75.0383 36.8592C74.7619 37.0455 74.5145 37.2433 74.305 37.4456C74.2002 37.5474 74.1028 37.6493 74.0155 37.7526C73.9296 37.8559 73.8496 37.9606 73.7739 38.0639C73.6255 38.272 73.515 38.48 73.4451 38.6866C73.4102 38.7899 73.3855 38.8918 73.3709 38.9936C73.3535 39.094 73.3433 39.1944 73.3462 39.2919C73.8612 39.1129 74.3457 38.8976 74.8302 38.6503C75.0718 38.5266 75.3118 38.3942 75.549 38.2545C75.7847 38.1134 76.0087 37.9635 76.2343 37.8049C76.0262 37.9824 75.8254 38.1541 75.6028 38.3156C75.3817 38.4771 75.1576 38.6314 74.9306 38.7768C74.7037 38.9223 74.4738 39.0606 74.241 39.1915C74.0009 39.3195 73.7579 39.4403 73.5121 39.5538C73.9471 39.7487 74.4985 39.8302 75.0936 39.7691C75.3918 39.7386 75.7003 39.6716 76.0116 39.5669C76.3157 39.4592 76.6198 39.3137 76.9152 39.1246C78.1839 38.3345 78.7877 36.9974 78.5316 36.0561C77.6135 35.6735 76.1993 36.0532 75.0383 36.8592Z" fill="url(#paint40_linear)"/>
<path d="M74.9524 31.9617C74.7357 32.1857 74.5305 32.4156 74.3719 32.6426C74.209 32.871 74.0809 33.098 73.9878 33.3192C73.7798 33.7615 73.7245 34.1819 73.8103 34.5471C74.2541 34.2852 74.6731 33.9942 75.0863 33.6756C75.29 33.5156 75.498 33.3483 75.6886 33.1751C75.8807 33.0005 76.0669 32.8201 76.2503 32.631C76.0888 32.8346 75.9214 33.0311 75.7512 33.2231C75.5752 33.4137 75.3889 33.5985 75.2027 33.776C74.8259 34.131 74.4403 34.4598 74.0126 34.761C74.8957 34.9676 76.163 34.6606 77.1305 33.7382C77.6557 33.2522 77.9889 32.6746 78.1591 32.1101C78.2493 31.8278 78.2726 31.5514 78.2624 31.2924C78.2508 31.0334 78.1955 30.7934 78.0951 30.5853C77.6266 30.4893 77.0825 30.5926 76.5325 30.8399C75.9811 31.0873 75.4268 31.4786 74.9524 31.9617Z" fill="url(#paint41_linear)"/>
<path d="M74.0901 27.3402C73.9271 27.5875 73.7773 27.8392 73.6652 28.0822C73.5532 28.3252 73.4717 28.5609 73.4223 28.785C73.3131 29.236 73.3233 29.6434 73.4775 29.9693C74.2006 29.3218 74.8801 28.5725 75.4257 27.7389C75.1929 28.1768 74.9412 28.5958 74.6444 28.9974C74.4989 29.1981 74.3491 29.3931 74.1934 29.5823C74.0391 29.7714 73.8791 29.9547 73.7045 30.1337C74.1395 30.1511 74.6357 30.0318 75.1231 29.7772C75.6076 29.5241 76.0688 29.1356 76.4485 28.6176C76.5489 28.4809 76.6391 28.3412 76.7191 28.1986C76.7977 28.056 76.8603 27.9134 76.917 27.7694C77.0276 27.4813 77.0974 27.1918 77.1294 26.9124C77.1469 26.7728 77.1484 26.6375 77.1382 26.5065C77.1294 26.3756 77.1105 26.249 77.0829 26.1297C77.0276 25.8896 76.933 25.6743 76.8035 25.4982C76.3452 25.491 75.8535 25.6816 75.3791 26.0104C74.9048 26.3392 74.4523 26.8033 74.0901 27.3402Z" fill="url(#paint42_linear)"/>
<path d="M72.0902 24.5898C72.0655 25.0321 72.147 25.4119 72.3478 25.6912C72.9123 24.9579 73.42 24.1374 73.7881 23.2644C73.7169 23.4899 73.6397 23.7111 73.5554 23.9293C73.4739 24.1461 73.372 24.3658 73.2716 24.5782C73.1698 24.7906 73.0621 25.0001 72.9501 25.2038C72.8366 25.409 72.7217 25.6068 72.5893 25.8062C72.9996 25.7465 73.4448 25.5472 73.8565 25.2242C74.2654 24.9027 74.632 24.4589 74.8983 23.9089C75.1878 23.3255 75.278 22.7304 75.2431 22.1979C75.2285 21.9302 75.1602 21.6887 75.067 21.4734C74.9739 21.2595 74.8488 21.0747 74.696 20.9307C73.8434 21.0689 72.9617 21.9899 72.4671 23.1189C72.2357 23.647 72.1019 24.1534 72.0902 24.5898Z" fill="url(#paint43_linear)"/>
<path d="M70.5291 21.8386C70.7371 21.4443 70.9146 21.0398 71.0747 20.6179C71.1547 20.4069 71.2274 20.1931 71.2958 19.9763C71.3613 19.7609 71.4166 19.5442 71.4675 19.323C71.4384 19.5456 71.4078 19.7639 71.3627 19.9836C71.3162 20.2047 71.2638 20.4229 71.2056 20.6383C71.0878 21.0704 70.9539 21.4865 70.775 21.9041C71.5213 21.6538 72.3128 20.8492 72.614 19.7377C72.694 19.4438 72.742 19.147 72.7449 18.8691C72.7464 18.5912 72.7129 18.3249 72.6489 18.0819C72.5296 17.5902 72.259 17.2075 71.9273 16.9922C71.1489 17.2672 70.484 18.2711 70.209 19.4118C70.0722 19.9486 70.046 20.436 70.1013 20.8521C70.1493 21.2712 70.2977 21.6087 70.5291 21.8386Z" fill="url(#paint44_linear)"/>
<path d="M67.5092 17.7249C67.627 18.1046 67.8263 18.3898 68.0708 18.5731C68.1348 18.3709 68.1959 18.1657 68.2497 17.9591C68.2992 17.7555 68.3443 17.5503 68.3821 17.3408C68.4592 16.9247 68.5145 16.4969 68.5407 16.0663C68.5669 16.9232 68.5043 17.7584 68.3123 18.5906C68.6411 18.4102 68.9539 18.1017 69.1998 17.7002C69.4442 17.3001 69.629 16.7996 69.6741 16.2627C69.7905 15.1118 69.29 14.1036 68.5902 13.8242C68.2483 14.0177 67.9631 14.3756 67.7565 14.8223C67.6517 15.0464 67.5688 15.2893 67.5048 15.5498C67.4393 15.8117 67.3942 16.0866 67.3739 16.366C67.3564 16.625 67.3608 16.8694 67.3855 17.0949C67.4131 17.319 67.4481 17.5372 67.5092 17.7249Z" fill="url(#paint45_linear)"/>
<path d="M64.6194 15.1318C64.7096 15.2933 64.8042 15.4446 64.9147 15.5625C65.0253 15.6818 65.1475 15.7734 65.2799 15.8331C65.3323 15.4388 65.3629 15.0387 65.3701 14.6328C65.3789 14.2268 65.3512 13.8325 65.3076 13.4266C65.3498 13.623 65.3861 13.8195 65.4167 14.0144C65.4312 14.1119 65.4458 14.2108 65.4589 14.3083C65.4691 14.4087 65.4778 14.5091 65.4865 14.6095C65.5171 15.011 65.5244 15.4112 65.5098 15.8069C66.0656 15.3602 66.4701 14.4538 66.3973 13.4179C66.3813 13.1415 66.3231 12.8883 66.2431 12.6541C66.1616 12.4198 66.0554 12.2059 65.9317 12.0197C65.8692 11.9266 65.8037 11.8393 65.731 11.7636C65.6582 11.6894 65.5811 11.6225 65.5025 11.5643C65.3439 11.4479 65.1752 11.3664 65.0035 11.3271C64.4331 11.7942 64.164 12.8446 64.2775 13.8849C64.324 14.3767 64.4433 14.8045 64.6194 15.1318Z" fill="url(#paint46_linear)"/>
<path d="M61.6869 54.8777C61.8033 54.8122 61.9109 54.7351 62.0244 54.6638L62.6951 54.2302C62.9163 54.0833 63.1287 53.9203 63.3455 53.7661C63.5594 53.609 63.7805 53.4591 63.9842 53.2874L64.6055 52.7869C64.6564 52.7447 64.7102 52.704 64.7597 52.6604L64.9081 52.5279L65.2049 52.2617L65.5017 51.9955C65.6007 51.9082 65.6996 51.8179 65.7927 51.7234L66.3587 51.1618C66.5507 50.9785 66.7253 50.7777 66.9043 50.5813C67.0818 50.3834 67.2637 50.1899 67.4368 49.9891L67.9402 49.3707L68.1919 49.0623L68.4276 48.7408L68.8975 48.0977C69.0489 47.8794 69.19 47.6539 69.3355 47.4328C69.6352 46.9948 69.8913 46.5292 70.159 46.0709C70.2972 45.844 70.4107 45.6039 70.5329 45.3696C70.6522 45.1325 70.7759 44.8983 70.8923 44.6611L71.2153 43.9351L71.3768 43.5713C71.4321 43.4506 71.4742 43.3255 71.5237 43.2018C71.7114 42.7071 71.9107 42.2153 72.0635 41.7076L72.1872 41.3307L72.2483 41.1416L72.3007 40.9495L72.5102 40.1842C72.7619 39.1571 72.9801 38.1182 73.095 37.0663L73.146 36.6735L73.178 36.2777C73.1983 36.0144 73.2231 35.751 73.2391 35.4877C73.2551 34.9596 73.2856 34.4314 73.2682 33.9033C73.2726 33.3751 73.2318 32.847 73.2027 32.3203C73.1823 32.057 73.1503 31.7951 73.1241 31.5317L73.082 31.1374L73.0223 30.7461C72.8797 29.7 72.644 28.6684 72.3588 27.6528C72.2832 27.3997 72.2119 27.1465 72.1319 26.8948L71.8729 26.147C71.7914 25.8953 71.6852 25.6538 71.5906 25.4093C71.4932 25.1649 71.4 24.9176 71.2866 24.6804C70.4398 22.7497 69.3253 20.9398 67.9838 19.319L67.4717 18.7181C67.2957 18.5231 67.1123 18.334 66.9334 18.1419C66.8417 18.0473 66.7559 17.9484 66.6613 17.8567L66.3776 17.5832L66.0939 17.3097L65.9527 17.1729L65.8043 17.0434L65.2122 16.524C65.0114 16.3538 64.8019 16.1952 64.5982 16.0308C64.4949 15.9493 64.3931 15.8664 64.2898 15.7864L63.9697 15.5565L63.6496 15.3266C63.5419 15.2509 63.4372 15.1709 63.3251 15.1025C63.4357 15.1724 63.539 15.2539 63.6452 15.331L63.9624 15.5652L64.2796 15.7995C64.3829 15.8809 64.4833 15.9653 64.5851 16.0482C64.7873 16.2156 64.9939 16.3771 65.1918 16.5502L65.7752 17.0769L65.9207 17.2093L66.0604 17.3475L66.3398 17.6254L66.6177 17.9033C66.7108 17.995 66.7952 18.0953 66.8854 18.1914C67.0614 18.3863 67.2404 18.5769 67.4135 18.7733L67.914 19.3786C69.2264 21.0125 70.3074 22.8283 71.1207 24.7546C71.2298 24.9918 71.3186 25.2391 71.4117 25.4821C71.5019 25.7265 71.6052 25.968 71.6808 26.2183L71.9267 26.9632C72.0009 27.2135 72.0693 27.4666 72.1406 27.7169C72.4098 28.7266 72.628 29.7494 72.7531 30.7868L72.8055 31.1753L72.8419 31.5652C72.8637 31.8256 72.8928 32.0846 72.9088 32.345C72.9306 32.8659 72.9627 33.3868 72.9525 33.9091C72.9627 34.4314 72.9234 34.9508 72.9015 35.4717C72.8826 35.7321 72.8535 35.9911 72.8303 36.2501L72.7924 36.6386L72.7371 37.0256C72.6091 38.06 72.3792 39.0785 72.1188 40.0853L71.902 40.8346L71.8467 41.0223L71.7841 41.2071L71.6576 41.5766C71.5004 42.0728 71.2967 42.5529 71.1061 43.0359C71.0567 43.1552 71.0145 43.2789 70.9577 43.3968L70.7948 43.7503L70.4674 44.4589C70.3496 44.6902 70.2259 44.9186 70.1051 45.1485C69.9815 45.3769 69.868 45.6112 69.7298 45.8309C69.4621 46.2761 69.2045 46.7286 68.9048 47.152C68.7579 47.3658 68.6182 47.5855 68.4669 47.795L67.9984 48.4177L67.7642 48.7291L67.5139 49.0274L67.0134 49.6239C66.8417 49.8174 66.6613 50.0051 66.4853 50.1957C66.3078 50.3848 66.1361 50.5783 65.9455 50.7544L65.3868 51.2942C65.2951 51.3858 65.1976 51.4717 65.1002 51.5561L64.8063 51.8107L64.5138 52.0653L64.3669 52.1933C64.3174 52.2341 64.265 52.2733 64.2141 52.3141L63.603 52.7928C63.4022 52.9572 63.1855 53.0998 62.9745 53.2496C62.7606 53.3966 62.554 53.5522 62.3358 53.6919L61.6781 54.1051C61.5676 54.172 61.4614 54.2462 61.3479 54.3088L61.0089 54.4979C60.7819 54.6231 60.5578 54.7526 60.3294 54.8733L59.6325 55.2152C59.5161 55.272 59.4012 55.3302 59.2833 55.3854L58.9268 55.5382L58.3987 55.7637L58.3972 55.7623C58.3769 55.771 58.3565 55.7812 58.3361 55.7914L58.2139 55.8438L58.2154 55.8481C56.4083 56.6934 54.952 58.144 54.1052 59.9569L53.9902 60.2028L54.642 60.5068L54.757 60.261C55.5587 58.547 56.9539 57.1823 58.6853 56.4214V56.4199L59.2135 56.1857L59.5787 56.0227C59.698 55.9645 59.8158 55.902 59.9351 55.8423L60.648 55.48C60.8808 55.352 61.1107 55.2152 61.342 55.0828L61.6869 54.8777Z" fill="url(#paint47_linear)"/>
<path d="M39.3777 0.833984L40.2114 3.49071L42.9961 3.46307L40.7264 5.07659L41.6139 7.71731L39.3777 6.05722L37.1415 7.71731L38.029 5.07659L35.7578 3.46307L38.544 3.49071L39.3777 0.833984Z" fill="url(#paint48_linear)"/>
<path d="M39.3786 4.64205V0.833008L38.5449 3.48973L39.3786 4.64205Z" fill="url(#paint49_linear)"/>
<path d="M39.377 4.64205L40.2106 3.48973L39.377 0.833008V4.64205Z" fill="url(#paint50_linear)"/>
<g style="mix-blend-mode:overlay" opacity="0.5">
<path d="M39.377 4.64205L40.2106 3.48973L39.377 0.833008V4.64205Z" fill="black"/>
</g>
<path d="M40.7257 5.07641L42.9954 3.46289L39.377 4.64284L40.7257 5.07641Z" fill="url(#paint51_linear)"/>
<g style="mix-blend-mode:overlay" opacity="0.5">
<path d="M40.7257 5.07641L42.9954 3.46289L39.377 4.64284L40.7257 5.07641Z" fill="black"/>
</g>
<path d="M42.9954 3.46289L39.377 4.64284L40.2106 3.49053L42.9954 3.46289Z" fill="url(#paint52_linear)"/>
<path d="M39.377 4.64258L40.7257 5.07615L41.6132 7.71687L39.377 4.64258Z" fill="url(#paint53_linear)"/>
<path d="M39.377 4.64258V6.05677L41.6132 7.71687L39.377 4.64258Z" fill="url(#paint54_linear)"/>
<g style="mix-blend-mode:overlay" opacity="0.5">
<path d="M39.377 4.64258V6.05677L41.6132 7.71687L39.377 4.64258Z" fill="black"/>
</g>
<path d="M38.029 5.07641L35.7578 3.46289L39.3777 4.64284L38.029 5.07641Z" fill="url(#paint55_linear)"/>
<g style="mix-blend-mode:overlay" opacity="0.5">
<path d="M38.029 5.07641L35.7578 3.46289L39.3777 4.64284L38.029 5.07641Z" fill="black"/>
</g>
<path d="M35.7578 3.46289L39.3777 4.64284L38.544 3.49053L35.7578 3.46289Z" fill="url(#paint56_linear)"/>
<path d="M39.3788 4.64258L38.0301 5.07615L37.1426 7.71687L39.3788 4.64258Z" fill="url(#paint57_linear)"/>
<path d="M39.3788 4.64258V6.05677L37.1426 7.71687L39.3788 4.64258Z" fill="url(#paint58_linear)"/>
<g style="mix-blend-mode:overlay" opacity="0.5">
<path d="M39.3788 4.64258V6.05677L37.1426 7.71687L39.3788 4.64258Z" fill="black"/>
</g>
<g opacity="0.3">
<path opacity="0.3" d="M35.7598 3.46289L35.8733 3.49781L35.9867 3.53272L36.2137 3.60256C36.365 3.64912 36.5163 3.69713 36.6676 3.74514C36.819 3.79315 36.9688 3.84116 37.1201 3.88918L37.5726 4.03613L38.0237 4.18453C38.1735 4.234 38.3248 4.28348 38.4747 4.3344C38.6245 4.38387 38.7744 4.43478 38.9257 4.4857L39.1498 4.56282L39.2618 4.6021L39.3738 4.64139L39.2603 4.60647L39.1469 4.57155L38.9199 4.50172C38.7686 4.45516 38.6173 4.40713 38.466 4.35912C38.3146 4.31111 38.1648 4.2631 38.0135 4.21508L37.561 4.06813L37.1099 3.91974C36.9601 3.87028 36.8088 3.8208 36.6589 3.76988C36.5091 3.72041 36.3592 3.66948 36.2079 3.61856L35.9838 3.54145L35.8718 3.50218L35.7598 3.46289Z" fill="white"/>
</g>
<g opacity="0.3">
<path opacity="0.3" d="M39.3768 0.833008L39.3797 0.952323L39.3812 1.07162L39.3856 1.30878C39.387 1.46736 39.3899 1.62596 39.3899 1.78454C39.3914 1.94313 39.3914 2.10172 39.3928 2.26031L39.3943 2.73608L39.3928 3.21183C39.3914 3.37042 39.3914 3.52901 39.3899 3.6876C39.3885 3.84619 39.387 4.00478 39.3856 4.16337L39.3812 4.40052L39.3797 4.51984L39.3768 4.63914L39.3739 4.51984L39.3725 4.40052L39.3681 4.16337C39.3666 4.00478 39.3637 3.84619 39.3637 3.6876C39.3623 3.52901 39.3623 3.37042 39.3608 3.21183L39.3594 2.73608L39.3608 2.26031C39.3623 2.10172 39.3623 1.94313 39.3637 1.78454C39.3652 1.62596 39.3666 1.46736 39.3681 1.30878L39.3725 1.07162L39.3739 0.952323L39.3768 0.833008Z" fill="white"/>
</g>
<g opacity="0.3">
<path opacity="0.3" d="M42.9954 3.46289L42.8834 3.50218L42.7713 3.54145L42.5458 3.61856C42.396 3.66948 42.2446 3.72041 42.0948 3.76988C41.9449 3.8208 41.7936 3.87028 41.6437 3.91974L41.1913 4.06813L40.7388 4.21508C40.5875 4.2631 40.4361 4.31256 40.2848 4.35912C40.1335 4.40713 39.9822 4.45516 39.8309 4.50172L39.6039 4.57155L39.4904 4.60647L39.377 4.64139L39.489 4.6021L39.601 4.56282L39.8265 4.4857C39.9764 4.43478 40.1277 4.38387 40.2776 4.3344C40.4274 4.28348 40.5787 4.234 40.7286 4.18453L41.1811 4.03613L41.6336 3.88918C41.7849 3.84116 41.9362 3.7917 42.0875 3.74514C42.2388 3.69713 42.3901 3.64912 42.5414 3.60256L42.7684 3.53272L42.8819 3.49781L42.9954 3.46289Z" fill="white"/>
</g>
<g opacity="0.3">
<path opacity="0.3" d="M41.6127 7.71637L41.5414 7.62179L41.4701 7.52722L41.3275 7.33663C41.233 7.21005 41.1384 7.08202 41.0438 6.95544C40.9492 6.82886 40.8561 6.70082 40.7616 6.57279L40.4808 6.18868L40.2014 5.80312C40.1083 5.67363 40.0166 5.54559 39.9235 5.41756C39.8319 5.28807 39.7402 5.16003 39.6485 5.03054L39.5118 4.83558L39.4434 4.73811L39.375 4.64062L39.4463 4.7352L39.5176 4.82976L39.6602 5.02036C39.7547 5.14694 39.8493 5.27498 39.9439 5.40156C40.0385 5.52814 40.1316 5.65617 40.2261 5.78421L40.5069 6.16831L40.7863 6.55387C40.8794 6.68191 40.9711 6.81139 41.0642 6.94088C41.1558 7.07036 41.2475 7.1984 41.3392 7.32789L41.4759 7.52285L41.5443 7.62034L41.6127 7.71637Z" fill="white"/>
</g>
<g opacity="0.3">
<path opacity="0.3" d="M37.1406 7.71685L37.209 7.61936L37.2774 7.52187L37.4142 7.32692C37.5058 7.19743 37.5975 7.06793 37.6891 6.9399C37.7808 6.81041 37.8739 6.68239 37.967 6.5529L38.2464 6.16734L38.5272 5.78323C38.6218 5.65519 38.7149 5.52716 38.8094 5.40058C38.904 5.27254 38.9986 5.14597 39.0932 5.01939L39.2357 4.8288L39.307 4.73422L39.3783 4.63965L39.3099 4.73714L39.2416 4.83461L39.1048 5.02958C39.0131 5.15907 38.9215 5.28855 38.8298 5.41658C38.7381 5.54607 38.645 5.67411 38.5519 5.80214L38.2726 6.18771L37.9918 6.57181C37.8972 6.69985 37.8041 6.82788 37.7095 6.95446C37.6149 7.0825 37.5204 7.20908 37.4258 7.33566L37.2832 7.52624L37.2119 7.62082L37.1406 7.71685Z" fill="white"/>
</g>
<path d="M38.0224 49.5991V19.9547C37.1145 20.0842 35.0151 20.09 33.9297 20.0172V14.8551C36.598 14.5088 39.1136 13.2532 40.3096 12.0078H44.8228V49.5991H38.0224Z" fill="url(#paint59_linear)"/>
<path d="M31.3365 60.7003H33.5927L35.2264 53.0217H32.9702L30.7672 54.3094L30.3574 56.2517L32.5072 55.0012H32.5498L31.3365 60.7003Z" fill="url(#paint60_linear)"/>
<path d="M35.4126 58.4387C35.4179 59.9553 36.6365 60.8333 38.7065 60.8333C40.7339 60.8333 42.1174 59.8276 42.1174 58.2099C42.1174 57.1031 41.5214 56.5284 40.1432 56.1293L39.3024 55.8845C38.6852 55.7036 38.4723 55.4908 38.4723 55.1821C38.4723 54.8203 38.8555 54.5542 39.4461 54.5542C40.0847 54.5542 40.5157 54.8575 40.5316 55.3152H42.591C42.5803 53.7933 41.3724 52.8887 39.3929 52.8887C37.5305 52.8887 36.1789 53.9104 36.1789 55.4748C36.1789 56.5231 36.86 57.2148 38.1424 57.6033L38.9459 57.8481C39.6696 58.0716 39.8133 58.2365 39.8133 58.5186C39.8133 58.9017 39.4035 59.1624 38.749 59.1624C38.1158 59.1624 37.6103 58.8591 37.5464 58.4387H35.4126Z" fill="url(#paint61_linear)"/>
<path d="M46.4648 60.7003L47.7153 54.8096H49.8492L50.2323 53.0217H43.7084L43.3253 54.8096H45.4591L44.2086 60.7003H46.4648Z" fill="url(#paint62_linear)"/>
<defs>
<linearGradient id="paint0_linear" x1="17.1271" y1="12.5107" x2="17.6871" y2="15.14" gradientUnits="userSpaceOnUse">
<stop stop-color="#0BCBAF"/>
<stop offset="0.1968" stop-color="#0BCBAF"/>
<stop offset="0.4642" stop-color="#0BCBAF"/>
<stop offset="0.7709" stop-color="#0BCBAF"/>
<stop offset="0.8989" stop-color="#0BCBAF"/>
<stop offset="1" stop-color="#31B482"/>
</linearGradient>
<linearGradient id="paint1_linear" x1="17.3533" y1="47.3624" x2="18.8064" y2="54.1856" gradientUnits="userSpaceOnUse">
<stop stop-color="#0BCBAF"/>
<stop offset="0.1968" stop-color="#0BCBAF"/>
<stop offset="0.4642" stop-color="#0BCBAF"/>
<stop offset="0.7709" stop-color="#0BCBAF"/>
<stop offset="0.8989" stop-color="#0BCBAF"/>
<stop offset="1" stop-color="#31B482"/>
</linearGradient>
<linearGradient id="paint2_linear" x1="13.9744" y1="45.033" x2="15.2808" y2="51.1674" gradientUnits="userSpaceOnUse">
<stop stop-color="#0BCBAF"/>
<stop offset="0.1968" stop-color="#0BCBAF"/>
<stop offset="0.4642" stop-color="#0BCBAF"/>
<stop offset="0.7709" stop-color="#0BCBAF"/>
<stop offset="0.8989" stop-color="#0BCBAF"/>
<stop offset="1" stop-color="#31B482"/>
</linearGradient>
<linearGradient id="paint3_linear" x1="11.4952" y1="42.0912" x2="12.6122" y2="47.3362" gradientUnits="userSpaceOnUse">
<stop stop-color="#0BCBAF"/>
<stop offset="0.1968" stop-color="#0BCBAF"/>
<stop offset="0.4642" stop-color="#0BCBAF"/>
<stop offset="0.7709" stop-color="#0BCBAF"/>
<stop offset="0.8989" stop-color="#0BCBAF"/>
<stop offset="1" stop-color="#31B482"/>
</linearGradient>
<linearGradient id="paint4_linear" x1="9.71663" y1="38.8404" x2="10.6303" y2="43.1306" gradientUnits="userSpaceOnUse">
<stop stop-color="#0BCBAF"/>
<stop offset="0.1968" stop-color="#0BCBAF"/>
<stop offset="0.4642" stop-color="#0BCBAF"/>
<stop offset="0.7709" stop-color="#0BCBAF"/>
<stop offset="0.8989" stop-color="#0BCBAF"/>
<stop offset="1" stop-color="#31B482"/>
</linearGradient>
<linearGradient id="paint5_linear" x1="8.70246" y1="35.3232" x2="9.43097" y2="38.744" gradientUnits="userSpaceOnUse">
<stop stop-color="#0BCBAF"/>
<stop offset="0.1968" stop-color="#0BCBAF"/>
<stop offset="0.4642" stop-color="#0BCBAF"/>
<stop offset="0.7709" stop-color="#0BCBAF"/>
<stop offset="0.8989" stop-color="#0BCBAF"/>
<stop offset="1" stop-color="#31B482"/>
</linearGradient>
<linearGradient id="paint6_linear" x1="8.33146" y1="31.643" x2="8.92902" y2="34.4489" gradientUnits="userSpaceOnUse">
<stop stop-color="#0BCBAF"/>
<stop offset="0.1968" stop-color="#0BCBAF"/>
<stop offset="0.4642" stop-color="#0BCBAF"/>
<stop offset="0.7709" stop-color="#0BCBAF"/>
<stop offset="0.8989" stop-color="#0BCBAF"/>
<stop offset="1" stop-color="#31B482"/>
</linearGradient>
<linearGradient id="paint7_linear" x1="8.76424" y1="27.9584" x2="9.2878" y2="30.4168" gradientUnits="userSpaceOnUse">
<stop stop-color="#0BCBAF"/>
<stop offset="0.1968" stop-color="#0BCBAF"/>
<stop offset="0.4642" stop-color="#0BCBAF"/>
<stop offset="0.7709" stop-color="#0BCBAF"/>
<stop offset="0.8989" stop-color="#0BCBAF"/>
<stop offset="1" stop-color="#31B482"/>
</linearGradient>
<linearGradient id="paint8_linear" x1="9.83452" y1="24.4167" x2="10.3453" y2="26.8151" gradientUnits="userSpaceOnUse">
<stop stop-color="#0BCBAF"/>
<stop offset="0.1968" stop-color="#0BCBAF"/>
<stop offset="0.4642" stop-color="#0BCBAF"/>
<stop offset="0.7709" stop-color="#0BCBAF"/>
<stop offset="0.8989" stop-color="#0BCBAF"/>
<stop offset="1" stop-color="#31B482"/>
</linearGradient>
<linearGradient id="paint9_linear" x1="11.448" y1="21.1683" x2="11.988" y2="23.7039" gradientUnits="userSpaceOnUse">
<stop stop-color="#0BCBAF"/>
<stop offset="0.1968" stop-color="#0BCBAF"/>
<stop offset="0.4642" stop-color="#0BCBAF"/>
<stop offset="0.7709" stop-color="#0BCBAF"/>
<stop offset="0.8989" stop-color="#0BCBAF"/>
<stop offset="1" stop-color="#31B482"/>
</linearGradient>
<linearGradient id="paint10_linear" x1="13.419" y1="18.2456" x2="14.0088" y2="21.0148" gradientUnits="userSpaceOnUse">
<stop stop-color="#0BCBAF"/>
<stop offset="0.1968" stop-color="#0BCBAF"/>
<stop offset="0.4642" stop-color="#0BCBAF"/>
<stop offset="0.7709" stop-color="#0BCBAF"/>
<stop offset="0.8989" stop-color="#0BCBAF"/>
<stop offset="1" stop-color="#31B482"/>
</linearGradient>
<linearGradient id="paint11_linear" x1="15.8115" y1="15.8707" x2="16.4506" y2="18.8715" gradientUnits="userSpaceOnUse">
<stop stop-color="#0BCBAF"/>
<stop offset="0.1968" stop-color="#0BCBAF"/>
<stop offset="0.4642" stop-color="#0BCBAF"/>
<stop offset="0.7709" stop-color="#0BCBAF"/>
<stop offset="0.8989" stop-color="#0BCBAF"/>
<stop offset="1" stop-color="#31B482"/>
</linearGradient>
<linearGradient id="paint12_linear" x1="13.5369" y1="54.8853" x2="14.342" y2="58.6659" gradientUnits="userSpaceOnUse">
<stop stop-color="#0BCBAF"/>
<stop offset="0.1968" stop-color="#0BCBAF"/>
<stop offset="0.4642" stop-color="#0BCBAF"/>
<stop offset="0.7709" stop-color="#0BCBAF"/>
<stop offset="0.8989" stop-color="#0BCBAF"/>
<stop offset="1" stop-color="#31B482"/>
</linearGradient>
<linearGradient id="paint13_linear" x1="9.19981" y1="50.8269" x2="9.99498" y2="54.5607" gradientUnits="userSpaceOnUse">
<stop stop-color="#0BCBAF"/>
<stop offset="0.1968" stop-color="#0BCBAF"/>
<stop offset="0.4642" stop-color="#0BCBAF"/>
<stop offset="0.7709" stop-color="#0BCBAF"/>
<stop offset="0.8989" stop-color="#0BCBAF"/>
<stop offset="1" stop-color="#31B482"/>
</linearGradient>
<linearGradient id="paint14_linear" x1="5.75209" y1="46.0034" x2="6.61188" y2="50.0406" gradientUnits="userSpaceOnUse">
<stop stop-color="#0BCBAF"/>
<stop offset="0.1968" stop-color="#0BCBAF"/>
<stop offset="0.4642" stop-color="#0BCBAF"/>
<stop offset="0.7709" stop-color="#0BCBAF"/>
<stop offset="0.8989" stop-color="#0BCBAF"/>
<stop offset="1" stop-color="#31B482"/>
</linearGradient>
<linearGradient id="paint15_linear" x1="3.45093" y1="40.6704" x2="4.40266" y2="45.1394" gradientUnits="userSpaceOnUse">
<stop stop-color="#0BCBAF"/>
<stop offset="0.1968" stop-color="#0BCBAF"/>
<stop offset="0.4642" stop-color="#0BCBAF"/>
<stop offset="0.7709" stop-color="#0BCBAF"/>
<stop offset="0.8989" stop-color="#0BCBAF"/>
<stop offset="1" stop-color="#31B482"/>
</linearGradient>
<linearGradient id="paint16_linear" x1="2.20358" y1="35.1826" x2="3.25946" y2="40.1407" gradientUnits="userSpaceOnUse">
<stop stop-color="#0BCBAF"/>
<stop offset="0.1968" stop-color="#0BCBAF"/>
<stop offset="0.4642" stop-color="#0BCBAF"/>
<stop offset="0.7709" stop-color="#0BCBAF"/>
<stop offset="0.8989" stop-color="#0BCBAF"/>
<stop offset="1" stop-color="#31B482"/>
</linearGradient>
<linearGradient id="paint17_linear" x1="2.09077" y1="29.8244" x2="3.23577" y2="35.2009" gradientUnits="userSpaceOnUse">
<stop stop-color="#0BCBAF"/>
<stop offset="0.1968" stop-color="#0BCBAF"/>
<stop offset="0.4642" stop-color="#0BCBAF"/>
<stop offset="0.7709" stop-color="#0BCBAF"/>
<stop offset="0.8989" stop-color="#0BCBAF"/>
<stop offset="1" stop-color="#31B482"/>
</linearGradient>
<linearGradient id="paint18_linear" x1="2.82401" y1="24.8344" x2="4.02519" y2="30.4748" gradientUnits="userSpaceOnUse">
<stop stop-color="#0BCBAF"/>
<stop offset="0.1968" stop-color="#0BCBAF"/>
<stop offset="0.4642" stop-color="#0BCBAF"/>
<stop offset="0.7709" stop-color="#0BCBAF"/>
<stop offset="0.8989" stop-color="#0BCBAF"/>
<stop offset="1" stop-color="#31B482"/>
</linearGradient>
<linearGradient id="paint19_linear" x1="4.40303" y1="20.3787" x2="5.61026" y2="26.0474" gradientUnits="userSpaceOnUse">
<stop stop-color="#0BCBAF"/>
<stop offset="0.1968" stop-color="#0BCBAF"/>
<stop offset="0.4642" stop-color="#0BCBAF"/>
<stop offset="0.7709" stop-color="#0BCBAF"/>
<stop offset="0.8989" stop-color="#0BCBAF"/>
<stop offset="1" stop-color="#31B482"/>
</linearGradient>
<linearGradient id="paint20_linear" x1="6.69485" y1="16.5547" x2="7.86478" y2="22.0483" gradientUnits="userSpaceOnUse">
<stop stop-color="#0BCBAF"/>
<stop offset="0.1968" stop-color="#0BCBAF"/>
<stop offset="0.4642" stop-color="#0BCBAF"/>
<stop offset="0.7709" stop-color="#0BCBAF"/>
<stop offset="0.8989" stop-color="#0BCBAF"/>
<stop offset="1" stop-color="#31B482"/>
</linearGradient>
<linearGradient id="paint21_linear" x1="9.63725" y1="13.499" x2="10.7396" y2="18.6754" gradientUnits="userSpaceOnUse">
<stop stop-color="#0BCBAF"/>
<stop offset="0.1968" stop-color="#0BCBAF"/>
<stop offset="0.4642" stop-color="#0BCBAF"/>
<stop offset="0.7709" stop-color="#0BCBAF"/>
<stop offset="0.8989" stop-color="#0BCBAF"/>
<stop offset="1" stop-color="#31B482"/>
</linearGradient>
<linearGradient id="paint22_linear" x1="12.9114" y1="11.1045" x2="13.9201" y2="15.8411" gradientUnits="userSpaceOnUse">
<stop stop-color="#0BCBAF"/>
<stop offset="0.1968" stop-color="#0BCBAF"/>
<stop offset="0.4642" stop-color="#0BCBAF"/>
<stop offset="0.7709" stop-color="#0BCBAF"/>
<stop offset="0.8989" stop-color="#0BCBAF"/>
<stop offset="1" stop-color="#31B482"/>
</linearGradient>
<linearGradient id="paint23_linear" x1="7.60116" y1="12.507" x2="18.32" y2="62.8389" gradientUnits="userSpaceOnUse">
<stop stop-color="#0BCBAF"/>
<stop offset="0.1968" stop-color="#0BCBAF"/>
<stop offset="0.4642" stop-color="#0BCBAF"/>
<stop offset="0.7709" stop-color="#0BCBAF"/>
<stop offset="0.8989" stop-color="#0BCBAF"/>
<stop offset="1" stop-color="#31B482"/>
</linearGradient>
<linearGradient id="paint24_linear" x1="60.9874" y1="12.2649" x2="61.6528" y2="15.3893" gradientUnits="userSpaceOnUse">
<stop stop-color="#0BCBAF"/>
<stop offset="0.1968" stop-color="#0BCBAF"/>
<stop offset="0.4642" stop-color="#0BCBAF"/>
<stop offset="0.7709" stop-color="#0BCBAF"/>
<stop offset="0.8989" stop-color="#0BCBAF"/>
<stop offset="1" stop-color="#31B482"/>
</linearGradient>
<linearGradient id="paint25_linear" x1="59.8414" y1="47.2431" x2="61.3172" y2="54.1728" gradientUnits="userSpaceOnUse">
<stop stop-color="#0BCBAF"/>
<stop offset="0.1968" stop-color="#0BCBAF"/>
<stop offset="0.4642" stop-color="#0BCBAF"/>
<stop offset="0.7709" stop-color="#0BCBAF"/>
<stop offset="0.8989" stop-color="#0BCBAF"/>
<stop offset="1" stop-color="#31B482"/>
</linearGradient>
<linearGradient id="paint26_linear" x1="63.408" y1="44.6134" x2="64.8555" y2="51.4101" gradientUnits="userSpaceOnUse">
<stop stop-color="#0BCBAF"/>
<stop offset="0.1968" stop-color="#0BCBAF"/>
<stop offset="0.4642" stop-color="#0BCBAF"/>
<stop offset="0.7709" stop-color="#0BCBAF"/>
<stop offset="0.8989" stop-color="#0BCBAF"/>
<stop offset="1" stop-color="#31B482"/>
</linearGradient>
<linearGradient id="paint27_linear" x1="66.0396" y1="41.4263" x2="67.3918" y2="47.7759" gradientUnits="userSpaceOnUse">
<stop stop-color="#0BCBAF"/>
<stop offset="0.1968" stop-color="#0BCBAF"/>
<stop offset="0.4642" stop-color="#0BCBAF"/>
<stop offset="0.7709" stop-color="#0BCBAF"/>
<stop offset="0.8989" stop-color="#0BCBAF"/>
<stop offset="1" stop-color="#31B482"/>
</linearGradient>
<linearGradient id="paint28_linear" x1="67.9765" y1="38.0245" x2="69.196" y2="43.7509" gradientUnits="userSpaceOnUse">
<stop stop-color="#0BCBAF"/>
<stop offset="0.1968" stop-color="#0BCBAF"/>
<stop offset="0.4642" stop-color="#0BCBAF"/>
<stop offset="0.7709" stop-color="#0BCBAF"/>
<stop offset="0.8989" stop-color="#0BCBAF"/>
<stop offset="1" stop-color="#31B482"/>
</linearGradient>
<linearGradient id="paint29_linear" x1="69.1453" y1="34.5356" x2="70.1992" y2="39.4846" gradientUnits="userSpaceOnUse">
<stop stop-color="#0BCBAF"/>
<stop offset="0.1968" stop-color="#0BCBAF"/>
<stop offset="0.4642" stop-color="#0BCBAF"/>
<stop offset="0.7709" stop-color="#0BCBAF"/>
<stop offset="0.8989" stop-color="#0BCBAF"/>
<stop offset="1" stop-color="#31B482"/>
</linearGradient>
<linearGradient id="paint30_linear" x1="69.6475" y1="31.0544" x2="70.5198" y2="35.1506" gradientUnits="userSpaceOnUse">
<stop stop-color="#0BCBAF"/>
<stop offset="0.1968" stop-color="#0BCBAF"/>
<stop offset="0.4642" stop-color="#0BCBAF"/>
<stop offset="0.7709" stop-color="#0BCBAF"/>
<stop offset="0.8989" stop-color="#0BCBAF"/>
<stop offset="1" stop-color="#31B482"/>
</linearGradient>
<linearGradient id="paint31_linear" x1="69.3165" y1="27.624" x2="70.0177" y2="30.9168" gradientUnits="userSpaceOnUse">
<stop stop-color="#0BCBAF"/>
<stop offset="0.1968" stop-color="#0BCBAF"/>
<stop offset="0.4642" stop-color="#0BCBAF"/>
<stop offset="0.7709" stop-color="#0BCBAF"/>
<stop offset="0.8989" stop-color="#0BCBAF"/>
<stop offset="1" stop-color="#31B482"/>
</linearGradient>
<linearGradient id="paint32_linear" x1="68.313" y1="24.3441" x2="68.8823" y2="27.0172" gradientUnits="userSpaceOnUse">
<stop stop-color="#0BCBAF"/>
<stop offset="0.1968" stop-color="#0BCBAF"/>
<stop offset="0.4642" stop-color="#0BCBAF"/>
<stop offset="0.7709" stop-color="#0BCBAF"/>
<stop offset="0.8989" stop-color="#0BCBAF"/>
<stop offset="1" stop-color="#31B482"/>
</linearGradient>
<linearGradient id="paint33_linear" x1="66.7347" y1="21.3147" x2="67.2201" y2="23.5938" gradientUnits="userSpaceOnUse">
<stop stop-color="#0BCBAF"/>
<stop offset="0.1968" stop-color="#0BCBAF"/>
<stop offset="0.4642" stop-color="#0BCBAF"/>
<stop offset="0.7709" stop-color="#0BCBAF"/>
<stop offset="0.8989" stop-color="#0BCBAF"/>
<stop offset="1" stop-color="#31B482"/>
</linearGradient>
<linearGradient id="paint34_linear" x1="64.7455" y1="18.5513" x2="65.1992" y2="20.6816" gradientUnits="userSpaceOnUse">
<stop stop-color="#0BCBAF"/>
<stop offset="0.1968" stop-color="#0BCBAF"/>
<stop offset="0.4642" stop-color="#0BCBAF"/>
<stop offset="0.7709" stop-color="#0BCBAF"/>
<stop offset="0.8989" stop-color="#0BCBAF"/>
<stop offset="1" stop-color="#31B482"/>
</linearGradient>
<linearGradient id="paint35_linear" x1="62.3107" y1="16.2626" x2="62.7729" y2="18.433" gradientUnits="userSpaceOnUse">
<stop stop-color="#0BCBAF"/>
<stop offset="0.1968" stop-color="#0BCBAF"/>
<stop offset="0.4642" stop-color="#0BCBAF"/>
<stop offset="0.7709" stop-color="#0BCBAF"/>
<stop offset="0.8989" stop-color="#0BCBAF"/>
<stop offset="1" stop-color="#31B482"/>
</linearGradient>
<linearGradient id="paint36_linear" x1="64.3094" y1="54.2696" x2="65.3122" y2="58.9784" gradientUnits="userSpaceOnUse">
<stop stop-color="#0BCBAF"/>
<stop offset="0.1968" stop-color="#0BCBAF"/>
<stop offset="0.4642" stop-color="#0BCBAF"/>
<stop offset="0.7709" stop-color="#0BCBAF"/>
<stop offset="0.8989" stop-color="#0BCBAF"/>
<stop offset="1" stop-color="#31B482"/>
</linearGradient>
<linearGradient id="paint37_linear" x1="68.7751" y1="50.7006" x2="69.6108" y2="54.6248" gradientUnits="userSpaceOnUse">
<stop stop-color="#0BCBAF"/>
<stop offset="0.1968" stop-color="#0BCBAF"/>
<stop offset="0.4642" stop-color="#0BCBAF"/>
<stop offset="0.7709" stop-color="#0BCBAF"/>
<stop offset="0.8989" stop-color="#0BCBAF"/>
<stop offset="1" stop-color="#31B482"/>
</linearGradient>
<linearGradient id="paint38_linear" x1="72.2583" y1="46.3683" x2="72.9993" y2="49.8478" gradientUnits="userSpaceOnUse">
<stop stop-color="#0BCBAF"/>
<stop offset="0.1968" stop-color="#0BCBAF"/>
<stop offset="0.4642" stop-color="#0BCBAF"/>
<stop offset="0.7709" stop-color="#0BCBAF"/>
<stop offset="0.8989" stop-color="#0BCBAF"/>
<stop offset="1" stop-color="#31B482"/>
</linearGradient>
<linearGradient id="paint39_linear" x1="74.4739" y1="41.3325" x2="75.201" y2="44.7468" gradientUnits="userSpaceOnUse">
<stop stop-color="#0BCBAF"/>
<stop offset="0.1968" stop-color="#0BCBAF"/>
<stop offset="0.4642" stop-color="#0BCBAF"/>
<stop offset="0.7709" stop-color="#0BCBAF"/>
<stop offset="0.8989" stop-color="#0BCBAF"/>
<stop offset="1" stop-color="#31B482"/>
</linearGradient>
<linearGradient id="paint40_linear" x1="75.5777" y1="35.9799" x2="76.3498" y2="39.6055" gradientUnits="userSpaceOnUse">
<stop stop-color="#0BCBAF"/>
<stop offset="0.1968" stop-color="#0BCBAF"/>
<stop offset="0.4642" stop-color="#0BCBAF"/>
<stop offset="0.7709" stop-color="#0BCBAF"/>
<stop offset="0.8989" stop-color="#0BCBAF"/>
<stop offset="1" stop-color="#31B482"/>
</linearGradient>
<linearGradient id="paint41_linear" x1="75.5611" y1="30.6238" x2="76.4055" y2="34.5887" gradientUnits="userSpaceOnUse">
<stop stop-color="#0BCBAF"/>
<stop offset="0.1968" stop-color="#0BCBAF"/>
<stop offset="0.4642" stop-color="#0BCBAF"/>
<stop offset="0.7709" stop-color="#0BCBAF"/>
<stop offset="0.8989" stop-color="#0BCBAF"/>
<stop offset="1" stop-color="#31B482"/>
</linearGradient>
<linearGradient id="paint42_linear" x1="74.7262" y1="25.5266" x2="75.6546" y2="29.8859" gradientUnits="userSpaceOnUse">
<stop stop-color="#0BCBAF"/>
<stop offset="0.1968" stop-color="#0BCBAF"/>
<stop offset="0.4642" stop-color="#0BCBAF"/>
<stop offset="0.7709" stop-color="#0BCBAF"/>
<stop offset="0.8989" stop-color="#0BCBAF"/>
<stop offset="1" stop-color="#31B482"/>
</linearGradient>
<linearGradient id="paint43_linear" x1="73.0982" y1="20.8708" x2="74.1032" y2="25.5902" gradientUnits="userSpaceOnUse">
<stop stop-color="#0BCBAF"/>
<stop offset="0.1968" stop-color="#0BCBAF"/>
<stop offset="0.4642" stop-color="#0BCBAF"/>
<stop offset="0.7709" stop-color="#0BCBAF"/>
<stop offset="0.8989" stop-color="#0BCBAF"/>
<stop offset="1" stop-color="#31B482"/>
</linearGradient>
<linearGradient id="paint44_linear" x1="70.8048" y1="16.8099" x2="71.8635" y2="21.7808" gradientUnits="userSpaceOnUse">
<stop stop-color="#0BCBAF"/>
<stop offset="0.1968" stop-color="#0BCBAF"/>
<stop offset="0.4642" stop-color="#0BCBAF"/>
<stop offset="0.7709" stop-color="#0BCBAF"/>
<stop offset="0.8989" stop-color="#0BCBAF"/>
<stop offset="1" stop-color="#31B482"/>
</linearGradient>
<linearGradient id="paint45_linear" x1="67.9291" y1="13.5405" x2="68.9972" y2="18.5557" gradientUnits="userSpaceOnUse">
<stop stop-color="#0BCBAF"/>
<stop offset="0.1968" stop-color="#0BCBAF"/>
<stop offset="0.4642" stop-color="#0BCBAF"/>
<stop offset="0.7709" stop-color="#0BCBAF"/>
<stop offset="0.8989" stop-color="#0BCBAF"/>
<stop offset="1" stop-color="#31B482"/>
</linearGradient>
<linearGradient id="paint46_linear" x1="64.7665" y1="10.9638" x2="65.8075" y2="15.8518" gradientUnits="userSpaceOnUse">
<stop stop-color="#0BCBAF"/>
<stop offset="0.1968" stop-color="#0BCBAF"/>
<stop offset="0.4642" stop-color="#0BCBAF"/>
<stop offset="0.7709" stop-color="#0BCBAF"/>
<stop offset="0.8989" stop-color="#0BCBAF"/>
<stop offset="1" stop-color="#31B482"/>
</linearGradient>
<linearGradient id="paint47_linear" x1="56.5349" y1="12.6181" x2="66.4146" y2="59.01" gradientUnits="userSpaceOnUse">
<stop stop-color="#0BCBAF"/>
<stop offset="0.1968" stop-color="#0BCBAF"/>
<stop offset="0.4642" stop-color="#0BCBAF"/>
<stop offset="0.7709" stop-color="#0BCBAF"/>
<stop offset="0.8989" stop-color="#0BCBAF"/>
<stop offset="1" stop-color="#31B482"/>
</linearGradient>
<linearGradient id="paint48_linear" x1="39.3775" y1="0.688243" x2="39.3775" y2="8.0388" gradientUnits="userSpaceOnUse">
<stop stop-color="#0BCBAF"/>
<stop offset="0.1968" stop-color="#0BCBAF"/>
<stop offset="0.4642" stop-color="#0BCBAF"/>
<stop offset="0.7709" stop-color="#0BCBAF"/>
<stop offset="0.8989" stop-color="#0BCBAF"/>
<stop offset="1" stop-color="#31B482"/>
</linearGradient>
<linearGradient id="paint49_linear" x1="38.9615" y1="0.752128" x2="38.9615" y2="4.81926" gradientUnits="userSpaceOnUse">
<stop stop-color="#0BCBAF"/>
<stop offset="0.1968" stop-color="#0BCBAF"/>
<stop offset="0.4642" stop-color="#0BCBAF"/>
<stop offset="0.7709" stop-color="#0BCBAF"/>
<stop offset="0.8989" stop-color="#0BCBAF"/>
<stop offset="1" stop-color="#31B482"/>
</linearGradient>
<linearGradient id="paint50_linear" x1="39.7936" y1="0.752128" x2="39.7936" y2="4.81926" gradientUnits="userSpaceOnUse">
<stop stop-color="#0BCBAF"/>
<stop offset="0.1968" stop-color="#0BCBAF"/>
<stop offset="0.4642" stop-color="#0BCBAF"/>
<stop offset="0.7709" stop-color="#0BCBAF"/>
<stop offset="0.8989" stop-color="#0BCBAF"/>
<stop offset="1" stop-color="#31B482"/>
</linearGradient>
<linearGradient id="paint51_linear" x1="43.1748" y1="3.76665" x2="39.5169" y2="5.04649" gradientUnits="userSpaceOnUse">
<stop stop-color="#0BCBAF"/>
<stop offset="0.1968" stop-color="#0BCBAF"/>
<stop offset="0.4642" stop-color="#0BCBAF"/>
<stop offset="0.7709" stop-color="#0BCBAF"/>
<stop offset="0.8989" stop-color="#0BCBAF"/>
<stop offset="1" stop-color="#31B482"/>
</linearGradient>
<linearGradient id="paint52_linear" x1="42.8902" y1="3.04877" x2="39.2784" y2="4.24985" gradientUnits="userSpaceOnUse">
<stop stop-color="#0BCBAF"/>
<stop offset="0.1968" stop-color="#0BCBAF"/>
<stop offset="0.4642" stop-color="#0BCBAF"/>
<stop offset="0.7709" stop-color="#0BCBAF"/>
<stop offset="0.8989" stop-color="#0BCBAF"/>
<stop offset="1" stop-color="#31B482"/>
</linearGradient>
<linearGradient id="paint53_linear" x1="39.6959" y1="4.36841" x2="41.9712" y2="7.51092" gradientUnits="userSpaceOnUse">
<stop stop-color="#0BCBAF"/>
<stop offset="0.1968" stop-color="#0BCBAF"/>
<stop offset="0.4642" stop-color="#0BCBAF"/>
<stop offset="0.7709" stop-color="#0BCBAF"/>
<stop offset="0.8989" stop-color="#0BCBAF"/>
<stop offset="1" stop-color="#31B482"/>
</linearGradient>
<linearGradient id="paint54_linear" x1="40.5631" y1="6.14936" x2="39.512" y2="6.61188" gradientUnits="userSpaceOnUse">
<stop stop-color="#0BCBAF"/>
<stop offset="0.1968" stop-color="#0BCBAF"/>
<stop offset="0.4642" stop-color="#0BCBAF"/>
<stop offset="0.7709" stop-color="#0BCBAF"/>
<stop offset="0.8989" stop-color="#0BCBAF"/>
<stop offset="1" stop-color="#31B482"/>
</linearGradient>
<linearGradient id="paint55_linear" x1="35.5794" y1="3.76665" x2="39.2373" y2="5.04649" gradientUnits="userSpaceOnUse">
<stop stop-color="#0BCBAF"/>
<stop offset="0.1968" stop-color="#0BCBAF"/>
<stop offset="0.4642" stop-color="#0BCBAF"/>
<stop offset="0.7709" stop-color="#0BCBAF"/>
<stop offset="0.8989" stop-color="#0BCBAF"/>
<stop offset="1" stop-color="#31B482"/>
</linearGradient>
<linearGradient id="paint56_linear" x1="35.864" y1="3.04877" x2="39.4758" y2="4.24986" gradientUnits="userSpaceOnUse">
<stop stop-color="#0BCBAF"/>
<stop offset="0.1968" stop-color="#0BCBAF"/>
<stop offset="0.4642" stop-color="#0BCBAF"/>
<stop offset="0.7709" stop-color="#0BCBAF"/>
<stop offset="0.8989" stop-color="#0BCBAF"/>
<stop offset="1" stop-color="#31B482"/>
</linearGradient>
<linearGradient id="paint57_linear" x1="39.0594" y1="4.36841" x2="36.7842" y2="7.51092" gradientUnits="userSpaceOnUse">
<stop stop-color="#0BCBAF"/>
<stop offset="0.1968" stop-color="#0BCBAF"/>
<stop offset="0.4642" stop-color="#0BCBAF"/>
<stop offset="0.7709" stop-color="#0BCBAF"/>
<stop offset="0.8989" stop-color="#0BCBAF"/>
<stop offset="1" stop-color="#31B482"/>
</linearGradient>
<linearGradient id="paint58_linear" x1="38.2229" y1="6.15289" x2="38.9657" y2="6.67849" gradientUnits="userSpaceOnUse">
<stop stop-color="#0BCBAF"/>
<stop offset="0.1968" stop-color="#0BCBAF"/>
<stop offset="0.4642" stop-color="#0BCBAF"/>
<stop offset="0.7709" stop-color="#0BCBAF"/>
<stop offset="0.8989" stop-color="#0BCBAF"/>
<stop offset="1" stop-color="#31B482"/>
</linearGradient>
<linearGradient id="paint59_linear" x1="39.3754" y1="10.9329" x2="39.3754" y2="50.4925" gradientUnits="userSpaceOnUse">
<stop stop-color="#0BCBAF"/>
<stop offset="1" stop-color="#0BCBAF"/>
</linearGradient>
<linearGradient id="paint60_linear" x1="37.9238" y1="45.5838" x2="44.3262" y2="64.9988" gradientUnits="userSpaceOnUse">
<stop stop-color="#0BCBAF"/>
<stop offset="0.1968" stop-color="#0BCBAF"/>
<stop offset="0.4642" stop-color="#0BCBAF"/>
<stop offset="0.7709" stop-color="#0BCBAF"/>
<stop offset="0.8989" stop-color="#0BCBAF"/>
<stop offset="1" stop-color="#31B482"/>
</linearGradient>
<linearGradient id="paint61_linear" x1="37.9238" y1="45.5838" x2="44.3262" y2="64.9988" gradientUnits="userSpaceOnUse">
<stop stop-color="#0BCBAF"/>
<stop offset="0.1968" stop-color="#0BCBAF"/>
<stop offset="0.4642" stop-color="#0BCBAF"/>
<stop offset="0.7709" stop-color="#0BCBAF"/>
<stop offset="0.8989" stop-color="#0BCBAF"/>
<stop offset="1" stop-color="#31B482"/>
</linearGradient>
<linearGradient id="paint62_linear" x1="37.9238" y1="45.5838" x2="44.3262" y2="64.9988" gradientUnits="userSpaceOnUse">
<stop stop-color="#0BCBAF"/>
<stop offset="0.1968" stop-color="#0BCBAF"/>
<stop offset="0.4642" stop-color="#0BCBAF"/>
<stop offset="0.7709" stop-color="#0BCBAF"/>
<stop offset="0.8989" stop-color="#0BCBAF"/>
<stop offset="1" stop-color="#31B482"/>
</linearGradient>
</defs>
</svg>
