<svg width="61" height="61" viewBox="0 0 61 61" fill="none" xmlns="http://www.w3.org/2000/svg">
<g clip-path="url(#clip0)">
<path d="M60.5811 30.0087C60.5811 13.4401 47.1496 0.00866699 30.5811 0.00866699C14.0125 0.00866699 0.581055 13.4401 0.581055 30.0087C0.581055 46.5772 14.0125 60.0087 30.5811 60.0087C47.1496 60.0087 60.5811 46.5772 60.5811 30.0087Z" fill="#5A1C92"/>
<mask id="mask0" mask-type="alpha" maskUnits="userSpaceOnUse" x="15" y="13" width="30" height="34">
<path d="M15.5811 13.5087H44.0811V46.5087H15.5811V13.5087Z" fill="white"/>
</mask>
<g mask="url(#mask0)">
<path d="M42.4354 39.0287C41.6449 39.0287 40.9853 39.5911 40.8266 40.3406L34.6125 40.038C34.6307 39.9206 34.643 39.8009 34.643 39.6782C34.643 39.4564 34.6101 39.2426 34.5524 39.0396L36.8086 37.729C37.1104 38.1001 37.5684 38.3371 38.0814 38.3371C38.9903 38.3371 39.727 37.5938 39.727 36.6771C39.727 35.7603 38.9903 35.0171 38.0814 35.0171C37.1725 35.0171 36.4357 35.7603 36.4357 36.6771C36.4357 36.9468 36.5008 37.2006 36.6141 37.4257L34.4241 38.6977C34.0582 37.9132 33.2699 37.3689 32.3534 37.3689C31.0889 37.3689 30.0638 38.4028 30.0638 39.6782C30.0638 39.951 30.113 40.2115 30.1991 40.4544L26.1425 41.4553C26.112 40.876 25.872 40.3532 25.4948 39.9644L26.2264 38.9414C26.3912 38.9972 26.567 39.0287 26.7505 39.0287C27.6594 39.0287 28.3961 38.2855 28.3961 37.3689C28.3961 36.4521 27.6594 35.7089 26.7505 35.7089C25.8416 35.7089 25.1048 36.4521 25.1048 37.3689C25.1048 37.9698 25.4224 38.4944 25.8966 38.7858L25.2233 39.7273C24.842 39.4409 24.371 39.2695 23.8591 39.2695C23.7573 39.2695 23.6579 39.2785 23.5597 39.2915L22.8588 35.2639C23.8832 35.0341 24.6497 34.1135 24.6497 33.011C24.6497 31.7355 23.6246 30.7015 22.3601 30.7015C21.9776 30.7015 21.6178 30.7974 21.3009 30.9646L19.536 27.4963C19.9127 27.3042 20.2287 27.0107 20.4502 26.6507L21.9124 27.0405C21.9013 27.1188 21.8935 27.1981 21.8935 27.2795C21.8935 28.1961 22.6303 28.9395 23.5392 28.9395C24.4481 28.9395 25.1849 28.1961 25.1849 27.2795C25.1849 26.3627 24.4481 25.6195 23.5392 25.6195C22.836 25.6195 22.2375 26.0651 22.0019 26.6911L20.6197 26.3227C20.7324 26.0496 20.7952 25.7502 20.7952 25.4359C20.7952 25.2466 20.7701 25.0636 20.7275 24.8874L24.7934 23.0017C25.2133 23.5233 25.8534 23.8575 26.5715 23.8575C27.8361 23.8575 28.8612 22.8235 28.8612 21.548C28.8612 21.0975 28.7313 20.6785 28.5101 20.3231L31.1161 17.7595C31.4259 17.9607 31.7864 18.0882 32.1745 18.1186V19.2486C31.3498 19.3386 30.7077 20.0427 30.7077 20.8984C30.7077 21.8151 31.4445 22.5583 32.3534 22.5583C33.2623 22.5583 33.999 21.8151 33.999 20.8984C33.999 20.0427 33.357 19.3386 32.5322 19.2486V18.1186C32.8669 18.0924 33.1815 17.9951 33.4604 17.8393L36.3132 21.1255C36.021 21.5134 35.8455 21.9955 35.8455 22.5201C35.8455 23.7956 36.8706 24.8296 38.1353 24.8296C39.3998 24.8296 40.4248 23.7956 40.4248 22.5201C40.4248 22.2458 40.375 21.9838 40.2879 21.7398L41.1763 21.2352C41.4782 21.5969 41.9299 21.8272 42.4354 21.8272C43.3442 21.8272 44.0811 21.0841 44.0811 20.1673C44.0811 19.2506 43.3442 18.5073 42.4354 18.5073C41.5265 18.5073 40.7896 19.2506 40.7896 20.1673C40.7896 20.4443 40.8578 20.7049 40.9767 20.9344L40.1419 21.4084C39.7525 20.6947 39 20.2107 38.1353 20.2107C37.5207 20.2107 36.9639 20.4562 36.5527 20.8537L33.7607 17.6374C34.0365 17.42 34.2607 17.1404 34.4144 16.8192L36.8595 17.2297C37.024 17.9716 37.6794 18.5263 38.4644 18.5263C39.3733 18.5263 40.1101 17.7831 40.1101 16.8663C40.1101 15.9497 39.3733 15.2065 38.4644 15.2065C37.5586 15.2065 36.8241 15.9448 36.8192 16.8573L34.5475 16.4758C34.6088 16.2672 34.643 16.0469 34.643 15.8183C34.643 14.5428 33.6179 13.5087 32.3534 13.5087C31.0889 13.5087 30.0638 14.5428 30.0638 15.8183C30.0638 16.5024 30.3604 17.115 30.829 17.5379L28.295 20.0308C27.9121 19.5886 27.366 19.2957 26.7505 19.2476V17.5096C27.5751 17.4198 28.2172 16.7157 28.2172 15.8599C28.2172 14.9432 27.4804 14.2001 26.5715 14.2001C25.6626 14.2001 24.9259 14.9432 24.9259 15.8599C24.9259 16.7157 25.5681 17.4198 26.3926 17.5096V19.2476C25.212 19.34 24.2819 20.3334 24.2819 21.548C24.2819 21.9677 24.3947 22.3602 24.5888 22.6993L20.617 24.5416C20.4725 24.1949 20.2467 23.8914 19.9635 23.6551L21.5187 20.8425C21.6522 20.8777 21.7916 20.8984 21.936 20.8984C22.8448 20.8984 23.5817 20.1553 23.5817 19.2384C23.5817 18.3217 22.8448 17.5785 21.936 17.5785C21.0271 17.5785 20.2902 18.3217 20.2902 19.2384C20.2902 19.8805 20.6523 20.4363 21.1809 20.7124L19.668 23.4486C19.3269 23.2452 18.9305 23.1264 18.5056 23.1264C17.2411 23.1264 16.216 24.1604 16.216 25.4359C16.216 26.7114 17.2411 27.7454 18.5056 27.7454C18.7494 27.7454 18.984 27.7061 19.2044 27.6348L20.9974 31.1582C20.5534 31.491 20.2315 31.98 20.1169 32.5464L18.8205 32.1599C18.8532 32.0294 18.8725 31.8935 18.8725 31.7528C18.8725 30.836 18.1357 30.0928 17.2268 30.0928C16.318 30.0928 15.5811 30.836 15.5811 31.7528C15.5811 32.6696 16.318 33.4127 17.2268 33.4127C17.8693 33.4127 18.4244 33.0403 18.6954 32.4988L20.0756 32.9103C20.0741 32.9439 20.0705 32.977 20.0705 33.011C20.0705 33.8256 20.4897 34.5401 21.1211 34.9512L20.2351 36.1236C19.9453 35.8662 19.566 35.7089 19.1495 35.7089C18.2406 35.7089 17.5039 36.4521 17.5039 37.3689C17.5039 38.2855 18.2406 39.0287 19.1495 39.0287C20.0584 39.0287 20.7952 38.2855 20.7952 37.3689C20.7952 37.0044 20.6774 36.6685 20.48 36.3947L21.4399 35.1248C21.7216 35.2499 22.0325 35.3205 22.3601 35.3205C22.4087 35.3205 22.4563 35.316 22.5042 35.3132L23.2093 39.3652C22.2615 39.6479 21.5696 40.5313 21.5696 41.5789C21.5696 42.8544 22.5945 43.8883 23.8591 43.8883C24.5986 43.8883 25.2542 43.5332 25.6728 42.9846L28.9876 44.4733C28.9599 44.5942 28.9438 44.7194 28.9438 44.8488C28.9438 45.7656 29.6805 46.5087 30.5894 46.5087C31.4982 46.5087 32.2351 45.7656 32.2351 44.8488C32.2351 43.932 31.4982 43.1888 30.5894 43.1888C29.9354 43.1888 29.3723 43.5745 29.1068 44.1319L25.8726 42.6792C26.0114 42.4215 26.1023 42.1338 26.1348 41.8287L30.3464 40.7896C30.7359 41.5035 31.4884 41.9878 32.3534 41.9878C32.8888 41.9878 33.3801 41.801 33.7699 41.4905L35.3462 42.8623C35.2518 43.0716 35.1978 43.3034 35.1978 43.5484C35.1978 44.4651 35.9347 45.2084 36.8435 45.2084C37.7524 45.2084 38.4891 44.4651 38.4891 43.5484C38.4891 42.6316 37.7524 41.8884 36.8435 41.8884C36.3077 41.8884 35.833 42.1479 35.5325 42.5479L34.0336 41.2434C34.2545 41.0023 34.4258 40.7146 34.5291 40.3953L40.7902 40.7001C40.7964 41.6116 41.5304 42.3487 42.4354 42.3487C43.3442 42.3487 44.0811 41.6055 44.0811 40.6887C44.0811 39.7719 43.3442 39.0287 42.4354 39.0287Z" fill="white"/>
</g>
</g>
<defs>
<clipPath id="clip0">
<rect width="60" height="60" fill="white" transform="translate(0.581055 0.00866699)"/>
</clipPath>
</defs>
</svg>
