<svg width="41" height="31" viewBox="0 0 41 31" fill="none" xmlns="http://www.w3.org/2000/svg">
<path d="M10.236 30.992C3.468 30.992 0.0840001 27.116 0.0840001 19.364C0.0840001 16.148 0.72 12.896 1.992 9.608C3.264 6.296 4.956 3.368 7.068 0.823998H15.708C14.556 3.128 13.608 5.276 12.864 7.268C12.12 9.236 11.64 11.204 11.424 13.172C13.824 13.484 15.732 14.42 17.148 15.98C18.588 17.54 19.308 19.556 19.308 22.028C19.308 24.86 18.468 27.068 16.788 28.652C15.132 30.212 12.948 30.992 10.236 30.992ZM31.116 30.992C24.348 30.992 20.964 27.116 20.964 19.364C20.964 16.148 21.6 12.896 22.872 9.608C24.144 6.296 25.836 3.368 27.948 0.823998H36.588C35.436 3.128 34.488 5.276 33.744 7.268C33 9.236 32.52 11.204 32.304 13.172C34.704 13.484 36.612 14.42 38.028 15.98C39.468 17.54 40.188 19.556 40.188 22.028C40.188 24.86 39.348 27.068 37.668 28.652C36.012 30.212 33.828 30.992 31.116 30.992Z" fill="#828282"/>
</svg>
