<svg width="133" height="53" viewBox="0 0 133 53" fill="none" xmlns="http://www.w3.org/2000/svg">
<path d="M10.7361 26.4759C10.7361 34.5427 16.7799 41.1934 24.5938 42.1417V45.3533C15.0224 44.3923 7.5498 36.3129 7.5498 26.4885C7.5498 16.6642 15.0224 8.58472 24.5938 7.62378V10.8353C16.7799 11.7583 10.7361 18.4091 10.7361 26.4759Z" fill="url(#paint0_linear)"/>
<path d="M47.277 42.1289C46.4045 43.2795 45.4436 44.3542 44.4068 45.3405H24.5938V42.1289H47.277Z" fill="url(#paint1_linear)"/>
<path d="M27.8557 17.1444C27.4132 17.0812 26.9706 17.0559 26.5154 17.0559C25.8706 17.0559 25.2384 17.1191 24.6188 17.2456C22.4567 17.6881 20.5601 18.8766 19.2072 20.5203L21.774 22.5939C22.8993 21.2284 24.5936 20.356 26.5028 20.356C28.3488 20.356 30.0178 21.1778 31.1305 22.4802L33.1535 19.7996C31.75 18.3962 29.9167 17.4479 27.8557 17.1444ZM31.1937 30.4079C30.0684 31.7482 28.3867 32.5953 26.5028 32.5953C24.5809 32.5953 22.874 31.7102 21.7487 30.332L19.3463 32.6206C20.6739 34.1758 22.52 35.2885 24.6062 35.7183C25.2131 35.8448 25.8453 35.908 26.5028 35.908C26.958 35.908 27.4005 35.8701 27.843 35.8195C30.1316 35.4908 32.142 34.3528 33.596 32.6965L31.1937 30.4079ZM20.3958 26.4756C20.3958 26.0078 20.4463 25.5526 20.5475 25.1227L17.6015 23.4284C17.2727 24.3894 17.0957 25.4135 17.0957 26.4756C17.0957 27.74 17.3486 28.9412 17.7911 30.0412L20.7877 28.6125C20.5349 27.955 20.3958 27.2343 20.3958 26.4756Z" fill="url(#paint2_linear)"/>
<path d="M27.856 13.8445H24.6191V18.548H27.856V13.8445Z" fill="url(#paint3_linear)"/>
<path d="M27.856 34.7827H24.6191V39.4863H27.856V34.7827Z" fill="url(#paint4_linear)"/>
<path d="M52.7768 26.4758C52.7768 30.446 51.8917 34.2139 50.2986 37.5898H45.9744C47.8583 34.315 48.933 30.5218 48.933 26.4758C48.933 14.1606 38.9443 4.17188 26.6291 4.17188C14.314 4.17188 4.32525 14.1606 4.32525 26.4758C4.32525 38.791 14.314 48.7797 26.6291 48.7797C27.4131 48.7797 28.1843 48.7417 28.9556 48.6532H40.449C36.4408 51.1567 31.6994 52.5981 26.6291 52.5981C12.2024 52.5981 0.494141 40.9025 0.494141 26.4631C0.494141 12.0238 12.1898 0.328125 26.6291 0.328125C41.0812 0.340769 52.7768 12.049 52.7768 26.4758Z" fill="url(#paint5_linear)"/>
<path d="M66.4511 31.2171H63.2396C62.7085 31.2171 62.2407 31.1033 61.8361 30.863C61.4315 30.6228 61.1027 30.3067 60.8625 29.9021C60.6223 29.4975 60.4453 29.0676 60.3441 28.6251C60.243 28.1825 60.1924 27.5882 60.1924 26.8675V26.2859C60.1924 25.5146 60.243 24.9204 60.3441 24.5031C60.4453 24.0859 60.6223 23.6686 60.8878 23.2514C61.1533 22.8341 61.4821 22.5054 61.8867 22.2399C62.2913 21.9743 62.7465 21.8479 63.2649 21.8479H66.4764V24.2376H63.9729C63.8085 24.2376 63.7074 24.2629 63.6442 24.3008C63.581 24.3388 63.5177 24.4273 63.4292 24.5537C63.3407 24.6801 63.2775 24.8951 63.2396 25.1859C63.2016 25.4767 63.1764 25.7802 63.1764 26.0836V26.7664C63.1764 27.0572 63.189 27.3354 63.2269 27.6262C63.2649 27.917 63.3281 28.1193 63.4166 28.2584C63.5051 28.3975 63.581 28.486 63.6442 28.5239C63.7074 28.5618 63.8085 28.5871 63.9729 28.5871H66.4764V31.2171H66.4511Z" fill="url(#paint6_linear)"/>
<path d="M74.7835 26.6905C74.7835 27.9928 74.4674 29.1055 73.8478 30.0032C73.2283 30.9136 72.2168 31.3688 70.8386 31.3688C69.4224 31.3688 68.4109 30.9262 67.8167 30.0285C67.2224 29.1308 66.9189 28.0181 66.9189 26.6905V26.4376C66.9189 25.11 67.2224 23.9973 67.8167 23.087C68.4109 22.1766 69.4224 21.7214 70.8386 21.7214C72.242 21.7214 73.2536 22.1766 73.8605 23.087C74.4674 23.9973 74.7835 25.11 74.7835 26.4376V26.6905ZM71.8627 26.8675V26.0962C71.8627 25.8307 71.8374 25.5778 71.7995 25.3123C71.7489 25.0594 71.6857 24.8445 71.5972 24.6928C71.5087 24.541 71.4202 24.4272 71.3317 24.364C71.2432 24.3008 71.0788 24.2629 70.8386 24.2629C70.611 24.2629 70.4466 24.3008 70.3707 24.364C70.2822 24.4272 70.1937 24.541 70.1052 24.6928C70.0167 24.8445 69.9408 25.0468 69.9029 25.287C69.8523 25.5273 69.8397 25.7928 69.8397 26.0836V26.8549C69.8397 27.1204 69.865 27.3733 69.9029 27.6388C69.9535 27.8917 70.0167 28.1066 70.1305 28.2836C70.2317 28.4607 70.3328 28.5618 70.4213 28.6124C70.5098 28.663 70.6615 28.6882 70.8512 28.6882C71.0914 28.6882 71.2558 28.663 71.3317 28.5997C71.4075 28.5365 71.496 28.4227 71.5972 28.271C71.6984 28.1066 71.7616 27.9043 71.8121 27.6641C71.8374 27.4238 71.8627 27.1583 71.8627 26.8675Z" fill="url(#paint7_linear)"/>
<path d="M78.3874 21.0007H75.4414V18.2949H78.3874V21.0007ZM78.3874 31.217H75.4414V21.8732H78.3874V31.217Z" fill="url(#paint8_linear)"/>
<path d="M87.0609 31.2171H84.1148V25.3503C84.1148 24.9583 84.039 24.6801 83.8872 24.5031C83.7355 24.3261 83.5079 24.2376 83.2298 24.2376H82.3953V31.2171H79.4492V21.8479H83.9378C84.6079 21.8479 85.1643 21.9743 85.5815 22.2146C85.9988 22.4548 86.3275 22.7709 86.5551 23.1376C86.7827 23.5043 86.9344 23.833 87.0229 24.1238C87.1114 24.4146 87.1494 24.7307 87.1494 25.0721C87.1494 25.2618 87.1494 25.4514 87.1494 25.6411C87.1114 25.8307 87.0862 25.9825 87.0862 26.071V31.2171H87.0609Z" fill="url(#paint9_linear)"/>
<path d="M95.7221 26.6526C95.7221 28.094 95.5577 29.0929 95.2163 29.6366C94.875 30.1803 94.4956 30.5849 94.0784 30.8378C93.6611 31.0907 93.1933 31.2171 92.6623 31.2171H90.8415V34.631H87.8955V21.8606H92.4979C93.0922 21.8606 93.5853 21.987 93.9772 22.2273C94.3692 22.4675 94.6853 22.7836 94.9508 23.1882C95.2037 23.5928 95.406 24.0354 95.5324 24.5411C95.6589 25.0342 95.7347 25.6158 95.7347 26.286V26.6526H95.7221ZM92.7381 26.8297V25.9446C92.7381 25.6158 92.7255 25.3377 92.7002 25.1101C92.6749 24.8825 92.6117 24.7055 92.5358 24.579C92.46 24.4526 92.3588 24.3641 92.2577 24.3262C92.1439 24.2756 91.9921 24.2629 91.7645 24.2629H90.8542V28.5998H91.8151C92.0048 28.5998 92.1565 28.5619 92.245 28.4987C92.3335 28.4354 92.422 28.3469 92.5105 28.2584C92.599 28.1699 92.6623 27.9676 92.6876 27.6642C92.7128 27.3607 92.7381 27.0825 92.7381 26.8297Z" fill="url(#paint10_linear)"/>
<path d="M104.004 31.2171H99.3C98.3138 31.2171 97.5172 30.9895 96.9103 30.5216C96.3034 30.0538 95.9873 29.3331 95.9873 28.3595C95.9873 27.5503 96.2275 26.8928 96.6954 26.4124C97.1632 25.9319 97.9977 25.5526 99.1989 25.2997L100.754 24.971C100.994 24.9077 101.108 24.7687 101.108 24.5411C101.108 24.3388 100.982 24.2376 100.729 24.2376H96.7586V21.8479H101.31C102.107 21.8479 102.764 22.0628 103.258 22.4801C103.751 22.8973 104.004 23.479 104.004 24.2123V31.2171ZM101.032 28.5998V27.2848L99.3379 27.8285C99.0218 27.9296 98.8575 28.0561 98.8575 28.2078C98.8575 28.4733 98.9839 28.5998 99.2494 28.5998H101.032Z" fill="url(#paint11_linear)"/>
<path d="M112.513 31.217H107.696C107.19 31.217 106.735 31.1032 106.33 30.8503C105.925 30.6101 105.597 30.294 105.344 29.8894C105.091 29.4848 104.914 29.0802 104.8 28.6629C104.686 28.2457 104.636 27.6767 104.636 26.956V26.4503C104.636 25.7801 104.699 25.2238 104.813 24.756C104.927 24.2881 105.091 23.8077 105.306 23.2893C105.597 22.8594 105.925 22.5053 106.317 22.2525C106.709 21.9996 107.19 21.8605 107.771 21.8605H109.542V18.2949H112.513V31.217ZM109.542 28.5997V24.2376H108.492C108.328 24.2376 108.176 24.2755 108.024 24.3387C107.873 24.4019 107.809 24.4652 107.847 24.5284C107.797 24.6042 107.759 24.8065 107.708 25.11C107.658 25.4135 107.645 25.6916 107.645 25.9445V26.8169C107.645 27.1583 107.658 27.4618 107.683 27.702C107.708 27.9549 107.771 28.1319 107.873 28.233C107.974 28.3468 108.062 28.4227 108.151 28.4859C108.239 28.5491 108.378 28.5744 108.543 28.5744H109.542V28.5997Z" fill="url(#paint12_linear)"/>
<path d="M116.698 31.2171H113.386V28.4102H116.698V31.2171Z" fill="url(#paint13_linear)"/>
<path d="M123.69 31.2171H120.479C119.948 31.2171 119.48 31.1033 119.075 30.863C118.671 30.6228 118.342 30.3067 118.102 29.9021C117.862 29.4975 117.685 29.0676 117.583 28.6251C117.482 28.1825 117.432 27.5882 117.432 26.8675V26.2859C117.432 25.5146 117.482 24.9204 117.583 24.5031C117.685 24.0859 117.862 23.6686 118.127 23.2514C118.393 22.8341 118.721 22.5054 119.126 22.2399C119.531 21.9743 119.986 21.8479 120.504 21.8479H123.69V24.2376H121.187C121.023 24.2376 120.921 24.2629 120.858 24.3008C120.795 24.3388 120.732 24.4273 120.643 24.5537C120.555 24.6801 120.491 24.8951 120.454 25.1859C120.416 25.4767 120.39 25.7802 120.39 26.0836V26.7664C120.39 27.0572 120.403 27.3354 120.441 27.6262C120.479 27.917 120.542 28.1193 120.631 28.2584C120.719 28.3975 120.795 28.486 120.858 28.5239C120.921 28.5618 121.023 28.5871 121.187 28.5871H123.69V31.2171Z" fill="url(#paint14_linear)"/>
<path d="M132.023 26.6905C132.023 27.9928 131.707 29.1055 131.087 30.0032C130.468 30.9136 129.456 31.3688 128.078 31.3688C126.662 31.3688 125.65 30.9262 125.056 30.0285C124.462 29.1308 124.158 28.0181 124.158 26.6905V26.4376C124.158 25.11 124.462 23.9973 125.056 23.087C125.65 22.1766 126.662 21.7214 128.078 21.7214C129.481 21.7214 130.493 22.1766 131.1 23.087C131.707 23.9973 132.023 25.11 132.023 26.4376V26.6905ZM129.115 26.8675V26.0962C129.115 25.8307 129.089 25.5778 129.051 25.3123C129.001 25.0594 128.938 24.8445 128.849 24.6928C128.761 24.541 128.672 24.4272 128.584 24.364C128.495 24.3008 128.331 24.2629 128.09 24.2629C127.863 24.2629 127.698 24.3008 127.623 24.364C127.534 24.4272 127.446 24.541 127.357 24.6928C127.269 24.8445 127.193 25.0468 127.155 25.287C127.104 25.5273 127.092 25.7928 127.092 26.0836V26.8549C127.092 27.1204 127.117 27.3733 127.155 27.6388C127.205 27.8917 127.269 28.1066 127.382 28.2836C127.484 28.4607 127.585 28.5618 127.673 28.6124C127.762 28.663 127.913 28.6882 128.103 28.6882C128.343 28.6882 128.508 28.663 128.584 28.5997C128.659 28.5365 128.748 28.4227 128.849 28.271C128.95 28.1066 129.013 27.9043 129.064 27.6641C129.089 27.4238 129.115 27.1583 129.115 26.8675Z" fill="url(#paint15_linear)"/>
<defs>
<linearGradient id="paint0_linear" x1="1.58967" y1="26.4758" x2="51.6938" y2="26.4758" gradientUnits="userSpaceOnUse">
<stop stop-color="#3157EF"/>
<stop offset="1" stop-color="#07A079"/>
</linearGradient>
<linearGradient id="paint1_linear" x1="1.5896" y1="43.739" x2="51.6937" y2="43.739" gradientUnits="userSpaceOnUse">
<stop stop-color="#3157EF"/>
<stop offset="1" stop-color="#07A079"/>
</linearGradient>
<linearGradient id="paint2_linear" x1="1.5894" y1="26.4756" x2="51.6935" y2="26.4756" gradientUnits="userSpaceOnUse">
<stop stop-color="#3157EF"/>
<stop offset="1" stop-color="#07A079"/>
</linearGradient>
<linearGradient id="paint3_linear" x1="1.58967" y1="16.2018" x2="51.6938" y2="16.2018" gradientUnits="userSpaceOnUse">
<stop stop-color="#3157EF"/>
<stop offset="1" stop-color="#07A079"/>
</linearGradient>
<linearGradient id="paint4_linear" x1="1.58967" y1="37.1394" x2="51.6938" y2="37.1394" gradientUnits="userSpaceOnUse">
<stop stop-color="#3157EF"/>
<stop offset="1" stop-color="#07A079"/>
</linearGradient>
<linearGradient id="paint5_linear" x1="0.513372" y1="26.4758" x2="52.7773" y2="26.4758" gradientUnits="userSpaceOnUse">
<stop stop-color="#3157EF"/>
<stop offset="1" stop-color="#07A079"/>
</linearGradient>
<linearGradient id="paint6_linear" x1="131.884" y1="26.541" x2="59.307" y2="26.541" gradientUnits="userSpaceOnUse">
<stop stop-color="#3157EF"/>
<stop offset="1" stop-color="#07A079"/>
</linearGradient>
<linearGradient id="paint7_linear" x1="131.884" y1="26.5496" x2="59.307" y2="26.5496" gradientUnits="userSpaceOnUse">
<stop stop-color="#3157EF"/>
<stop offset="1" stop-color="#07A079"/>
</linearGradient>
<linearGradient id="paint8_linear" x1="131.885" y1="24.7575" x2="59.3074" y2="24.7575" gradientUnits="userSpaceOnUse">
<stop stop-color="#3157EF"/>
<stop offset="1" stop-color="#07A079"/>
</linearGradient>
<linearGradient id="paint9_linear" x1="131.884" y1="26.541" x2="59.3071" y2="26.541" gradientUnits="userSpaceOnUse">
<stop stop-color="#3157EF"/>
<stop offset="1" stop-color="#07A079"/>
</linearGradient>
<linearGradient id="paint10_linear" x1="131.884" y1="28.2475" x2="59.3073" y2="28.2475" gradientUnits="userSpaceOnUse">
<stop stop-color="#3157EF"/>
<stop offset="1" stop-color="#07A079"/>
</linearGradient>
<linearGradient id="paint11_linear" x1="131.884" y1="26.541" x2="59.307" y2="26.541" gradientUnits="userSpaceOnUse">
<stop stop-color="#3157EF"/>
<stop offset="1" stop-color="#07A079"/>
</linearGradient>
<linearGradient id="paint12_linear" x1="131.884" y1="24.7575" x2="59.307" y2="24.7575" gradientUnits="userSpaceOnUse">
<stop stop-color="#3157EF"/>
<stop offset="1" stop-color="#07A079"/>
</linearGradient>
<linearGradient id="paint13_linear" x1="131.885" y1="29.8167" x2="59.3073" y2="29.8167" gradientUnits="userSpaceOnUse">
<stop stop-color="#3157EF"/>
<stop offset="1" stop-color="#07A079"/>
</linearGradient>
<linearGradient id="paint14_linear" x1="131.884" y1="26.541" x2="59.3072" y2="26.541" gradientUnits="userSpaceOnUse">
<stop stop-color="#3157EF"/>
<stop offset="1" stop-color="#07A079"/>
</linearGradient>
<linearGradient id="paint15_linear" x1="131.884" y1="26.5496" x2="59.3072" y2="26.5496" gradientUnits="userSpaceOnUse">
<stop stop-color="#3157EF"/>
<stop offset="1" stop-color="#07A079"/>
</linearGradient>
</defs>
</svg>
