<svg width="15" height="19" viewBox="0 0 15 19" fill="none" xmlns="http://www.w3.org/2000/svg">
<path d="M9.66028 3.69059H1.52246C0.758867 3.69059 0.138672 4.31078 0.138672 5.07437V16.7505C0.138672 17.5141 0.758867 18.1343 1.52246 18.1343H9.66028C10.4239 18.1343 11.0441 17.5141 11.0441 16.7505V5.07437C11.0405 4.31078 10.4203 3.69059 9.66028 3.69059ZM10.0725 16.747C10.0725 16.9764 9.88613 17.1628 9.6567 17.1628H1.51888C1.28944 17.1628 1.10302 16.9764 1.10302 16.747V5.07437C1.10302 4.84494 1.28944 4.65852 1.51888 4.65852H9.6567C9.88613 4.65852 10.0725 4.84494 10.0725 5.07437V16.747Z" fill="#828282"/>
<path d="M12.7721 0.628906H4.63429C3.87069 0.628906 3.2505 1.2491 3.2505 2.01269C3.2505 2.28156 3.4656 2.49666 3.73447 2.49666C4.00334 2.49666 4.21843 2.28156 4.21843 2.01269C4.21843 1.78326 4.40485 1.59684 4.63429 1.59684H12.7721C13.0015 1.59684 13.188 1.78326 13.188 2.01269V13.6889C13.188 13.9183 13.0015 14.1047 12.7721 14.1047C12.5032 14.1047 12.2881 14.3198 12.2881 14.5887C12.2881 14.8575 12.5032 15.0726 12.7721 15.0726C13.5357 15.0726 14.1559 14.4524 14.1559 13.6889V2.01269C14.1559 1.2491 13.5357 0.628906 12.7721 0.628906Z" fill="#828282"/>
</svg>
