<svg width="30" height="30" viewBox="0 0 30 30" fill="none" xmlns="http://www.w3.org/2000/svg">
<rect x="1.38965" y="1.11719" width="28.05" height="28.0522" rx="4.5" stroke="#828282"/>
<path d="M17.9279 9.45231H9.79004C9.02645 9.45231 8.40625 10.0725 8.40625 10.8361V22.5123C8.40625 23.2758 9.02645 23.896 9.79004 23.896H17.9279C18.6915 23.896 19.3116 23.2758 19.3116 22.5123V10.8361C19.3081 10.0725 18.6879 9.45231 17.9279 9.45231ZM18.3401 22.5087C18.3401 22.7381 18.1537 22.9245 17.9243 22.9245H9.78645C9.55702 22.9245 9.3706 22.7381 9.3706 22.5087V10.8361C9.3706 10.6067 9.55702 10.4202 9.78645 10.4202H17.9243C18.1537 10.4202 18.3401 10.6067 18.3401 10.8361V22.5087Z" fill="#828282"/>
<path d="M21.0397 6.39062H12.9019C12.1383 6.39062 11.5181 7.01082 11.5181 7.77441C11.5181 8.04328 11.7332 8.25838 12.002 8.25838C12.2709 8.25838 12.486 8.04328 12.486 7.77441C12.486 7.54498 12.6724 7.35856 12.9019 7.35856H21.0397C21.2691 7.35856 21.4555 7.54498 21.4555 7.77441V19.4506C21.4555 19.68 21.2691 19.8664 21.0397 19.8664C20.7708 19.8664 20.5557 20.0815 20.5557 20.3504C20.5557 20.6193 20.7708 20.8344 21.0397 20.8344C21.8033 20.8344 22.4235 20.2142 22.4235 19.4506V7.77441C22.4235 7.01082 21.8033 6.39062 21.0397 6.39062Z" fill="#828282"/>
</svg>
