<svg width="21" height="19" viewBox="0 0 21 19" fill="none" xmlns="http://www.w3.org/2000/svg">
<path d="M7.82909 15.3913H2.91481C1.78616 15.3913 0.867188 14.4723 0.867188 13.3437V2.69606C0.867188 1.56741 1.78616 0.648438 2.91481 0.648438H18.4767C19.6054 0.648438 20.5243 1.56741 20.5243 2.69606V6.79129C20.5243 7.01735 20.3409 7.20082 20.1148 7.20082C19.8888 7.20082 19.7053 7.01735 19.7053 6.79129V2.69606C19.7053 2.0187 19.1541 1.46749 18.4767 1.46749H2.91481C2.23745 1.46749 1.68624 2.0187 1.68624 2.69606V13.3437C1.68624 14.021 2.23745 14.5722 2.91481 14.5722H7.82909C8.05515 14.5722 8.23862 14.7557 8.23862 14.9818C8.23862 15.2078 8.05515 15.3913 7.82909 15.3913Z" fill="url(#paint0_linear)"/>
<path d="M7.01004 11.2961H1.27671C1.05065 11.2961 0.867188 11.1126 0.867188 10.8865V5.1532C0.867188 4.92714 1.05065 4.74368 1.27671 4.74368H7.01004C8.13869 4.74368 9.05766 5.66265 9.05766 6.79129V7.34006C9.05766 7.56611 8.8742 7.74958 8.64814 7.74958C8.42208 7.74958 8.23862 7.56611 8.23862 7.34006V6.79129C8.23862 6.11394 7.6874 5.56272 7.01004 5.56272H1.68624V10.477H7.01004C7.23283 10.423 7.45233 10.5606 7.50557 10.7801C7.55881 10.9996 7.4253 11.2232 7.2058 11.2764C7.12471 11.2961 7.05591 11.2961 7.01004 11.2961Z" fill="url(#paint1_linear)"/>
<path d="M4.96243 9.65796C4.05902 9.65796 3.32433 8.92328 3.32433 8.01987C3.32433 7.11646 4.05902 6.38177 4.96243 6.38177C5.86584 6.38177 6.60052 7.11646 6.60052 8.01987C6.60052 8.92328 5.86584 9.65796 4.96243 9.65796ZM4.96243 7.20082C4.51113 7.20082 4.14338 7.56857 4.14338 8.01987C4.14338 8.47116 4.51113 8.83891 4.96243 8.83891C5.41372 8.83891 5.78147 8.47116 5.78147 8.01987C5.78147 7.56857 5.41372 7.20082 4.96243 7.20082Z" fill="url(#paint2_linear)"/>
<path d="M15.2005 15.8008C14.9745 15.8008 14.791 15.6174 14.791 15.3913V14.777C14.791 14.551 14.9745 14.3675 15.2005 14.3675C15.4266 14.3675 15.61 14.551 15.61 14.777V15.3913C15.61 15.6174 15.4266 15.8008 15.2005 15.8008Z" fill="url(#paint3_linear)"/>
<path d="M15.4053 14.9818H13.9719C13.7459 14.9818 13.5624 14.7983 13.5624 14.5722C13.5624 14.3462 13.7459 14.1627 13.9719 14.1627H15.4053C15.7444 14.1627 16.0196 13.8875 16.0196 13.5484C16.0196 13.2094 15.7444 12.9342 15.4053 12.9342H14.9958C14.2054 12.9342 13.5624 12.2912 13.5624 11.5008C13.5624 10.7104 14.2054 10.0675 14.9958 10.0675H16.4291C16.6551 10.0675 16.8386 10.251 16.8386 10.477C16.8386 10.7031 16.6551 10.8865 16.4291 10.8865H14.9958C14.6567 10.8865 14.3815 11.1617 14.3815 11.5008C14.3815 11.8399 14.6567 12.1151 14.9958 12.1151H15.4053C16.1957 12.1151 16.8386 12.7581 16.8386 13.5484C16.8386 14.3388 16.1957 14.9818 15.4053 14.9818Z" fill="url(#paint4_linear)"/>
<path d="M15.2005 10.6818C14.9745 10.6818 14.791 10.4983 14.791 10.2722V9.65796C14.791 9.4319 14.9745 9.24844 15.2005 9.24844C15.4266 9.24844 15.61 9.4319 15.61 9.65796V10.2722C15.61 10.4983 15.4266 10.6818 15.2005 10.6818Z" fill="url(#paint5_linear)"/>
<path d="M15.2005 17.8484C12.2651 17.8484 9.87671 15.4601 9.87671 12.5246C9.87671 9.58916 12.2651 7.20082 15.2005 7.20082C18.136 7.20082 20.5243 9.58916 20.5243 12.5246C20.5243 15.4601 18.136 17.8484 15.2005 17.8484ZM15.2005 8.01987C12.7163 8.01987 10.6958 10.0405 10.6958 12.5246C10.6958 15.0088 12.7163 17.0294 15.2005 17.0294C17.6847 17.0294 19.7053 15.0088 19.7053 12.5246C19.7053 10.0405 17.6847 8.01987 15.2005 8.01987Z" fill="url(#paint6_linear)"/>
<path d="M7.82909 15.3913H2.91481C1.78616 15.3913 0.867188 14.4723 0.867188 13.3437V2.69606C0.867188 1.56741 1.78616 0.648438 2.91481 0.648438H18.4767C19.6054 0.648438 20.5243 1.56741 20.5243 2.69606V6.79129C20.5243 7.01735 20.3409 7.20082 20.1148 7.20082C19.8888 7.20082 19.7053 7.01735 19.7053 6.79129V2.69606C19.7053 2.0187 19.1541 1.46749 18.4767 1.46749H2.91481C2.23745 1.46749 1.68624 2.0187 1.68624 2.69606V13.3437C1.68624 14.021 2.23745 14.5722 2.91481 14.5722H7.82909C8.05515 14.5722 8.23862 14.7557 8.23862 14.9818C8.23862 15.2078 8.05515 15.3913 7.82909 15.3913Z" stroke="url(#paint7_linear)" stroke-width="0.7"/>
<path d="M7.01004 11.2961H1.27671C1.05065 11.2961 0.867188 11.1126 0.867188 10.8865V5.1532C0.867188 4.92714 1.05065 4.74368 1.27671 4.74368H7.01004C8.13869 4.74368 9.05766 5.66265 9.05766 6.79129V7.34006C9.05766 7.56611 8.8742 7.74958 8.64814 7.74958C8.42208 7.74958 8.23862 7.56611 8.23862 7.34006V6.79129C8.23862 6.11394 7.6874 5.56272 7.01004 5.56272H1.68624V10.477H7.01004C7.23283 10.423 7.45233 10.5606 7.50557 10.7801C7.55881 10.9996 7.4253 11.2232 7.2058 11.2764C7.12471 11.2961 7.05591 11.2961 7.01004 11.2961Z" stroke="url(#paint8_linear)" stroke-width="0.7"/>
<path d="M4.96243 9.65796C4.05902 9.65796 3.32433 8.92328 3.32433 8.01987C3.32433 7.11646 4.05902 6.38177 4.96243 6.38177C5.86584 6.38177 6.60052 7.11646 6.60052 8.01987C6.60052 8.92328 5.86584 9.65796 4.96243 9.65796ZM4.96243 7.20082C4.51113 7.20082 4.14338 7.56857 4.14338 8.01987C4.14338 8.47116 4.51113 8.83891 4.96243 8.83891C5.41372 8.83891 5.78147 8.47116 5.78147 8.01987C5.78147 7.56857 5.41372 7.20082 4.96243 7.20082Z" stroke="url(#paint9_linear)" stroke-width="0.7"/>
<path d="M15.2005 15.8008C14.9745 15.8008 14.791 15.6174 14.791 15.3913V14.777C14.791 14.551 14.9745 14.3675 15.2005 14.3675C15.4266 14.3675 15.61 14.551 15.61 14.777V15.3913C15.61 15.6174 15.4266 15.8008 15.2005 15.8008Z" stroke="url(#paint10_linear)" stroke-width="0.7"/>
<path d="M15.4053 14.9818H13.9719C13.7459 14.9818 13.5624 14.7983 13.5624 14.5722C13.5624 14.3462 13.7459 14.1627 13.9719 14.1627H15.4053C15.7444 14.1627 16.0196 13.8875 16.0196 13.5484C16.0196 13.2094 15.7444 12.9342 15.4053 12.9342H14.9958C14.2054 12.9342 13.5624 12.2912 13.5624 11.5008C13.5624 10.7104 14.2054 10.0675 14.9958 10.0675H16.4291C16.6551 10.0675 16.8386 10.251 16.8386 10.477C16.8386 10.7031 16.6551 10.8865 16.4291 10.8865H14.9958C14.6567 10.8865 14.3815 11.1617 14.3815 11.5008C14.3815 11.8399 14.6567 12.1151 14.9958 12.1151H15.4053C16.1957 12.1151 16.8386 12.7581 16.8386 13.5484C16.8386 14.3388 16.1957 14.9818 15.4053 14.9818Z" stroke="url(#paint11_linear)" stroke-width="0.7"/>
<path d="M15.2005 10.6818C14.9745 10.6818 14.791 10.4983 14.791 10.2722V9.65796C14.791 9.4319 14.9745 9.24844 15.2005 9.24844C15.4266 9.24844 15.61 9.4319 15.61 9.65796V10.2722C15.61 10.4983 15.4266 10.6818 15.2005 10.6818Z" stroke="url(#paint12_linear)" stroke-width="0.7"/>
<path d="M15.2005 17.8484C12.2651 17.8484 9.87671 15.4601 9.87671 12.5246C9.87671 9.58916 12.2651 7.20082 15.2005 7.20082C18.136 7.20082 20.5243 9.58916 20.5243 12.5246C20.5243 15.4601 18.136 17.8484 15.2005 17.8484ZM15.2005 8.01987C12.7163 8.01987 10.6958 10.0405 10.6958 12.5246C10.6958 15.0088 12.7163 17.0294 15.2005 17.0294C17.6847 17.0294 19.7053 15.0088 19.7053 12.5246C19.7053 10.0405 17.6847 8.01987 15.2005 8.01987Z" stroke="url(#paint13_linear)" stroke-width="0.7"/>
<defs>
<linearGradient id="paint0_linear" x1="-11.6152" y1="-6.95816" x2="20.8254" y2="-6.55794" gradientUnits="userSpaceOnUse">
<stop stop-color="#0B9985"/>
<stop offset="1" stop-color="#0B9985"/>
</linearGradient>
<linearGradient id="paint1_linear" x1="-11.6152" y1="-6.95816" x2="20.8254" y2="-6.55794" gradientUnits="userSpaceOnUse">
<stop stop-color="#0B9985"/>
<stop offset="1" stop-color="#0B9985"/>
</linearGradient>
<linearGradient id="paint2_linear" x1="-11.6152" y1="-6.95816" x2="20.8254" y2="-6.55794" gradientUnits="userSpaceOnUse">
<stop stop-color="#0B9985"/>
<stop offset="1" stop-color="#0B9985"/>
</linearGradient>
<linearGradient id="paint3_linear" x1="-11.6152" y1="-6.95816" x2="20.8254" y2="-6.55794" gradientUnits="userSpaceOnUse">
<stop stop-color="#0B9985"/>
<stop offset="1" stop-color="#0B9985"/>
</linearGradient>
<linearGradient id="paint4_linear" x1="-11.6152" y1="-6.95816" x2="20.8254" y2="-6.55794" gradientUnits="userSpaceOnUse">
<stop stop-color="#0B9985"/>
<stop offset="1" stop-color="#0B9985"/>
</linearGradient>
<linearGradient id="paint5_linear" x1="-11.6152" y1="-6.95816" x2="20.8254" y2="-6.55794" gradientUnits="userSpaceOnUse">
<stop stop-color="#0B9985"/>
<stop offset="1" stop-color="#0B9985"/>
</linearGradient>
<linearGradient id="paint6_linear" x1="-11.6152" y1="-6.95816" x2="20.8254" y2="-6.55794" gradientUnits="userSpaceOnUse">
<stop stop-color="#0B9985"/>
<stop offset="1" stop-color="#0B9985"/>
</linearGradient>
<linearGradient id="paint7_linear" x1="-11.6152" y1="-6.95816" x2="20.8254" y2="-6.55794" gradientUnits="userSpaceOnUse">
<stop stop-color="#0B9985"/>
<stop offset="1" stop-color="#0B9985"/>
</linearGradient>
<linearGradient id="paint8_linear" x1="-11.6152" y1="-6.95816" x2="20.8254" y2="-6.55794" gradientUnits="userSpaceOnUse">
<stop stop-color="#0B9985"/>
<stop offset="1" stop-color="#0B9985"/>
</linearGradient>
<linearGradient id="paint9_linear" x1="-11.6152" y1="-6.95816" x2="20.8254" y2="-6.55794" gradientUnits="userSpaceOnUse">
<stop stop-color="#0B9985"/>
<stop offset="1" stop-color="#0B9985"/>
</linearGradient>
<linearGradient id="paint10_linear" x1="-11.6152" y1="-6.95816" x2="20.8254" y2="-6.55794" gradientUnits="userSpaceOnUse">
<stop stop-color="#0B9985"/>
<stop offset="1" stop-color="#0B9985"/>
</linearGradient>
<linearGradient id="paint11_linear" x1="-11.6152" y1="-6.95816" x2="20.8254" y2="-6.55794" gradientUnits="userSpaceOnUse">
<stop stop-color="#0B9985"/>
<stop offset="1" stop-color="#0B9985"/>
</linearGradient>
<linearGradient id="paint12_linear" x1="-11.6152" y1="-6.95816" x2="20.8254" y2="-6.55794" gradientUnits="userSpaceOnUse">
<stop stop-color="#0B9985"/>
<stop offset="1" stop-color="#0B9985"/>
</linearGradient>
<linearGradient id="paint13_linear" x1="-11.6152" y1="-6.95816" x2="20.8254" y2="-6.55794" gradientUnits="userSpaceOnUse">
<stop stop-color="#0B9985"/>
<stop offset="1" stop-color="#0B9985"/>
</linearGradient>
</defs>
</svg>
