<svg width="18" height="18" viewBox="0 0 18 18" fill="none" xmlns="http://www.w3.org/2000/svg">
<path d="M8.64277 12.877C9.01388 12.877 9.31465 13.1777 9.31465 13.5488C9.31465 13.9199 9.01388 14.2207 8.64277 14.2207H7.70215C7.33104 14.2207 7.03027 13.9199 7.03027 13.5488C7.03027 13.1777 7.33104 12.877 7.70215 12.877H8.64277ZM14.1521 9.28242C14.1521 8.91132 13.8514 8.61055 13.4803 8.61055H7.70215C7.33104 8.61055 7.03027 8.91132 7.03027 9.28242C7.03027 9.65353 7.33104 9.9543 7.70215 9.9543H13.4803C13.8514 9.9543 14.1521 9.65353 14.1521 9.28242ZM7.70215 5.92305H13.4803C13.8514 5.92305 14.1521 5.62228 14.1521 5.25117C14.1521 4.88007 13.8514 4.5793 13.4803 4.5793H7.70215C7.33104 4.5793 7.03027 4.88007 7.03027 5.25117C7.03027 5.62228 7.33104 5.92305 7.70215 5.92305ZM5.01465 12.877H4.34277C3.97167 12.877 3.6709 13.1777 3.6709 13.5488C3.6709 13.9199 3.97167 14.2207 4.34277 14.2207H5.01465C5.38575 14.2207 5.68652 13.9199 5.68652 13.5488C5.68652 13.1777 5.38575 12.877 5.01465 12.877ZM5.01465 8.61055H4.34277C3.97167 8.61055 3.6709 8.91132 3.6709 9.28242C3.6709 9.65353 3.97167 9.9543 4.34277 9.9543H5.01465C5.38575 9.9543 5.68652 9.65353 5.68652 9.28242C5.68652 8.91132 5.38575 8.61055 5.01465 8.61055ZM5.01465 4.5793H4.34277C3.97167 4.5793 3.6709 4.88007 3.6709 5.25117C3.6709 5.62228 3.97167 5.92305 4.34277 5.92305H5.01465C5.38575 5.92305 5.68652 5.62228 5.68652 5.25117C5.68652 4.88007 5.38575 4.5793 5.01465 4.5793ZM17.3148 16.8362C17.5771 17.0986 17.5771 17.524 17.3148 17.7864C17.1836 17.9176 17.0116 17.9832 16.8396 17.9832C16.6677 17.9832 16.4957 17.9176 16.3645 17.7865L15.2279 16.65C14.7753 16.9204 14.2465 17.0762 13.6818 17.0762C12.0147 17.0762 10.6584 15.7198 10.6584 14.0527C10.6584 12.3856 12.0147 11.0293 13.6818 11.0293C15.3489 11.0293 16.7053 12.3856 16.7053 14.0527C16.7053 14.6696 16.5195 15.2437 16.201 15.7226L17.3148 16.8362ZM13.6818 15.7324C14.608 15.7324 15.3615 14.9789 15.3615 14.0527C15.3615 13.1265 14.608 12.373 13.6818 12.373C12.7556 12.373 12.0021 13.1265 12.0021 14.0527C12.0021 14.9789 12.7556 15.7324 13.6818 15.7324ZM14.824 0.783203H2.99902C1.51709 0.783203 0.311523 1.98877 0.311523 3.4707V15.2957C0.311523 16.7776 1.51709 17.9832 2.99902 17.9832H9.91934C10.2904 17.9832 10.5912 17.6824 10.5912 17.3113C10.5912 16.9402 10.2904 16.6395 9.91934 16.6395H2.99902C2.25812 16.6395 1.65527 16.0366 1.65527 15.2957V3.4707C1.65527 2.7298 2.25812 2.12695 2.99902 2.12695H14.824C15.5649 2.12695 16.1678 2.7298 16.1678 3.4707V10.1223C16.1678 10.4934 16.4685 10.7941 16.8396 10.7941C17.2108 10.7941 17.5115 10.4934 17.5115 10.1223V3.4707C17.5115 1.98877 16.306 0.783203 14.824 0.783203Z" fill="url(#paint0_linear)"/>
<defs>
<linearGradient id="paint0_linear" x1="-10.6106" y1="-6.82339" x2="17.776" y2="-6.51696" gradientUnits="userSpaceOnUse">
<stop stop-color="#0B9985"/>
<stop offset="1" stop-color="#0B9985"/>
</linearGradient>
</defs>
</svg>
