<svg width="54" height="54" viewBox="0 0 54 54" fill="none" xmlns="http://www.w3.org/2000/svg">
<circle cx="26.9111" cy="27.4004" r="26.5" fill="#2F75EC"/>
<path fill-rule="evenodd" clip-rule="evenodd" d="M19.4628 19.9341H34.3351C35.176 19.9118 35.9984 20.1951 36.6633 20.7359L35.8158 21.3129L26.871 27.3559L24.5428 25.7669C24.4949 25.719 24.4377 25.6823 24.3752 25.6594L17.9774 21.308L17.1346 20.7359C17.7896 20.1757 18.619 19.8901 19.4628 19.9341ZM16.547 21.4901L17.3339 22.0279L23.485 26.2277L17.3898 32.877L16.7286 33.5957C16.2692 32.9221 16.0277 32.1116 16.0395 31.2831L16.0441 23.5142C16.0376 22.8045 16.2111 22.1059 16.547 21.4901ZM35.7609 33.536L29.5447 26.7694L27.1699 28.3828L27.0908 28.4219H27.0535C27.0149 28.4271 26.9758 28.4271 26.9371 28.4219C26.8985 28.4271 26.8593 28.4271 26.8207 28.4219H26.7834L26.6717 28.3828L24.3156 26.7792L18.0668 33.5556L17.3963 34.2841C18.0113 34.6994 18.733 34.9059 19.4637 34.8757H34.364C35.0918 34.8806 35.8052 34.6631 36.4174 34.2499L35.7609 33.536ZM37.777 23.5288V31.2831C37.8082 32.1098 37.5718 32.9231 37.1064 33.5907L36.4406 32.8623L30.3501 26.2081L36.4965 22.0278L37.288 21.4949C37.6284 22.1117 37.7977 22.8162 37.777 23.5288Z" fill="white"/>
</svg>
