<svg width="12" height="17" viewBox="0 0 12 17" fill="none" xmlns="http://www.w3.org/2000/svg">
<path d="M11.1502 3.20567L8.48353 0.538955C8.4834 0.53883 8.48328 0.538768 8.48319 0.538643C8.46775 0.523236 8.45156 0.508643 8.43469 0.494799C8.42697 0.488455 8.41884 0.482955 8.4109 0.477017C8.40143 0.469923 8.39215 0.46258 8.38228 0.455986C8.37278 0.449642 8.36293 0.444142 8.35318 0.438329C8.34425 0.432985 8.33553 0.427392 8.32634 0.422454C8.3164 0.417141 8.30621 0.412641 8.29606 0.40786C8.28646 0.403329 8.27703 0.398548 8.26721 0.394454C8.25737 0.390391 8.24731 0.387079 8.23731 0.383516C8.22678 0.379735 8.2164 0.375704 8.20565 0.372453C8.19565 0.369422 8.18546 0.367203 8.17537 0.364672C8.1644 0.361891 8.15356 0.358828 8.1424 0.35661C8.13068 0.354297 8.11887 0.352891 8.10709 0.351203C8.09737 0.349828 8.08781 0.347953 8.07793 0.346984C8.03418 0.342672 7.99009 0.342672 7.94634 0.346984C7.93649 0.347953 7.92693 0.349797 7.91718 0.351203C7.9054 0.352891 7.89355 0.354266 7.88187 0.35661C7.87068 0.358828 7.85987 0.361891 7.8489 0.364672C7.83877 0.367203 7.82862 0.369422 7.81862 0.372453C7.80787 0.375704 7.79746 0.379735 7.78696 0.383516C7.77696 0.38711 7.7669 0.390391 7.75705 0.394454C7.74721 0.398516 7.7378 0.403329 7.72821 0.40786C7.71808 0.412641 7.70786 0.417141 7.69793 0.422454C7.68874 0.427392 7.68002 0.432985 7.67108 0.438329C7.66133 0.444142 7.65149 0.449642 7.64199 0.455986C7.63211 0.46258 7.62286 0.469923 7.61336 0.477017C7.60543 0.482955 7.5973 0.488455 7.58958 0.494799C7.57271 0.508643 7.55649 0.523236 7.54108 0.538643C7.54096 0.538768 7.54083 0.53883 7.54074 0.538955L4.87405 3.20564C4.6137 3.46599 4.6137 3.88812 4.87405 4.14847C5.1344 4.40881 5.55653 4.40881 5.81687 4.14847L7.34548 2.61985V10.3438C7.34548 10.712 7.64396 11.0105 8.01215 11.0105C8.38034 11.0105 8.67881 10.712 8.67881 10.3438V2.61989L10.2074 4.1485C10.4678 4.40884 10.8899 4.40884 11.1502 4.1485C11.4106 3.88812 11.4106 3.46602 11.1502 3.20567Z" fill="#4F4F4F"/>
<path d="M6.20735 12.5391L4.67873 14.0677V6.34377C4.67873 5.97558 4.38026 5.67711 4.01207 5.67711C3.64388 5.67711 3.34541 5.97558 3.34541 6.34377V14.0677L1.81679 12.5391C1.55645 12.2787 1.13432 12.2787 0.873971 12.5391C0.613624 12.7994 0.613624 13.2216 0.873971 13.4819L3.54066 16.1486C3.54078 16.1487 3.54091 16.1488 3.54103 16.149C3.55644 16.1643 3.57266 16.1789 3.5895 16.1928C3.59722 16.1991 3.60538 16.2046 3.61332 16.2106C3.62278 16.2177 3.63207 16.225 3.64191 16.2316C3.65141 16.238 3.66125 16.2435 3.671 16.2493C3.67994 16.2546 3.68866 16.2602 3.69785 16.2651C3.70779 16.2704 3.718 16.2749 3.72816 16.2797C3.73772 16.2842 3.74716 16.289 3.75697 16.2931C3.76682 16.2971 3.77688 16.3005 3.78688 16.304C3.79741 16.3078 3.80779 16.3118 3.81854 16.3151C3.82854 16.3181 3.83869 16.3203 3.84882 16.3229C3.85979 16.3256 3.87063 16.3287 3.88182 16.3309C3.89354 16.3332 3.90535 16.3346 3.91713 16.3363C3.92685 16.3377 3.93644 16.3395 3.94629 16.3405C3.99004 16.3448 4.03413 16.3448 4.07788 16.3405C4.08773 16.3395 4.09729 16.3377 4.10704 16.3363C4.11882 16.3346 4.13067 16.3332 4.14235 16.3309C4.15354 16.3287 4.16435 16.3256 4.17532 16.3228C4.18545 16.3203 4.1956 16.3181 4.2056 16.315C4.21635 16.3118 4.22676 16.3078 4.23726 16.304C4.24726 16.3004 4.25732 16.2971 4.26717 16.293C4.27698 16.289 4.28639 16.2842 4.29595 16.2797C4.3061 16.2749 4.31635 16.2704 4.32629 16.265C4.33545 16.2601 4.34417 16.2545 4.35307 16.2492C4.36282 16.2434 4.3727 16.2379 4.3822 16.2315C4.39204 16.225 4.40129 16.2176 4.41073 16.2106C4.4187 16.2046 4.42686 16.1991 4.43461 16.1927C4.45133 16.179 4.46742 16.1645 4.48273 16.1492C4.48298 16.149 4.48323 16.1488 4.48345 16.1486L7.15014 13.4819C7.41048 13.2215 7.41048 12.7994 7.15014 12.5391C6.88979 12.2787 6.46772 12.2787 6.20735 12.5391Z" fill="#4F4F4F"/>
</svg>
