<svg width="61" height="61" viewBox="0 0 61 61" fill="none" xmlns="http://www.w3.org/2000/svg">
<path d="M30.458 60.2584C47.0266 60.2584 60.458 46.827 60.458 30.2584C60.458 13.6899 47.0266 0.258423 30.458 0.258423C13.8895 0.258423 0.458008 13.6899 0.458008 30.2584C0.458008 46.827 13.8895 60.2584 30.458 60.2584Z" fill="#00EF8B"/>
<path d="M43.6224 25.5664H35.1504V34.0384H43.6224V25.5664Z" fill="white"/>
<path d="M26.6844 37.2124C26.6844 38.9687 25.2607 40.3924 23.5044 40.3924C21.7481 40.3924 20.3244 38.9687 20.3244 37.2124C20.3244 35.4561 21.7481 34.0324 23.5044 34.0324H26.6844V25.5664H23.5044C17.0725 25.5664 11.8584 30.7805 11.8584 37.2124C11.8584 43.6443 17.0725 48.8584 23.5044 48.8584C29.9363 48.8584 35.1504 43.6443 35.1504 37.2124V34.0324H26.6844V37.2124Z" fill="white"/>
<path d="M38.3306 21.3304H47.8586V12.8584H38.3306C31.9014 12.865 26.6912 18.0752 26.6846 24.5044V25.5664H35.1506V24.5044C35.1539 22.7505 36.5766 21.3304 38.3306 21.3304Z" fill="white"/>
<path d="M26.6846 34.0324H35.1506V25.5664H26.6846V34.0324Z" fill="#16FF99"/>
</svg>
