<svg width="31" height="31" viewBox="0 0 31 31" fill="none" xmlns="http://www.w3.org/2000/svg">
<circle cx="15.4902" cy="15.1699" r="15" fill="url(#paint0_linear)"/>
<path d="M15.4375 3.67443C21.7841 3.64662 26.9529 8.76663 26.9853 15.1132C27.0081 19.763 24.2276 23.9687 19.9403 25.7689C15.6531 27.569 10.7035 26.6091 7.40005 23.3368C4.09656 20.0645 3.08976 15.1243 4.84919 10.8202C6.59103 6.55908 10.7044 3.75228 15.2982 3.67591L15.4375 3.67443ZM15.5331 9.38271C14.5708 9.15624 13.6203 9.07596 12.7078 9.29821C8.75036 10.3876 8.08151 12.3087 7.9176 14.6246C7.91335 14.6055 7.90917 14.5863 7.90508 14.5671C7.68661 17.1621 7.57484 19.0724 6.59343 21.2626C7.94934 23.4252 10.6121 25.2435 13.5272 25.8004C13.5326 25.8014 13.5381 25.8025 13.5436 25.8035C13.566 25.8077 13.5885 25.8119 13.6108 25.8162C13.9264 25.8744 14.2508 25.9181 14.5836 25.9446L14.5927 25.9456C14.6268 25.9484 14.6609 25.9509 14.6954 25.953L14.7495 25.9568C14.7758 25.9585 14.8021 25.9601 14.8285 25.9614C14.8654 25.9635 14.9024 25.9653 14.9392 25.9669C14.9565 25.9677 14.9739 25.9684 14.9913 25.9691C15.0345 25.9707 15.0777 25.9721 15.1208 25.9731C15.1369 25.9735 15.153 25.9738 15.1692 25.9742C15.2031 25.9748 15.237 25.9753 15.2707 25.9755C15.2917 25.9757 15.3127 25.9758 15.3339 25.9759C15.3645 25.9759 15.3951 25.9758 15.4255 25.9756C15.4447 25.9755 15.4639 25.9753 15.4831 25.9749C15.4884 25.9748 15.4938 25.9747 15.4992 25.9748C16.112 25.9654 16.7493 25.8971 17.4088 25.7567C17.4088 25.7567 17.4054 25.7486 17.3992 25.7327C16.9503 22.5825 19.7183 19.4974 21.2713 17.9212C21.6301 17.5592 22.1843 17.0589 22.6972 16.5286C24.6994 14.6429 25.0857 12.3998 20.9672 11.2789C20.2553 11.0731 19.5197 10.789 18.7743 10.4952L18.5617 10.4114L18.5401 10.3535C18.355 9.8851 18.0123 9.58269 17.5927 9.41252C17.5162 9.38038 17.4354 9.35335 17.351 9.33117C16.9189 9.21275 16.4286 9.21285 15.9535 9.30077C15.8115 9.32251 15.6706 9.35019 15.5331 9.38271ZM23.579 15.484L23.4895 15.5466C21.8183 16.7029 19.9134 17.572 17.2314 17.572C16.4251 17.572 16.0242 17.0354 15.6261 16.8043L15.6446 16.783L15.726 16.8338C16.2993 17.1787 16.9519 17.3027 17.6015 17.3212C18.2913 17.3424 18.9812 17.2857 19.6582 17.1523C20.3421 17.0092 21.0111 16.8027 21.6566 16.5355C22.3024 16.2693 22.9414 15.9609 23.4916 15.5215L23.5044 15.5361L23.579 15.484ZM21.4356 14.089C21.6884 14.0881 21.8943 14.2913 21.8962 14.5436C21.8976 14.7961 21.6937 15.002 21.4408 15.0034C21.1878 15.0048 20.9817 14.8013 20.9802 14.5488C20.9788 14.2963 21.1827 14.0904 21.4356 14.089ZM13.9416 10.3858C15.0961 10.3858 16.0322 11.3195 16.034 12.4728L16.0331 12.5333C16.0015 13.6584 15.0782 14.561 13.9433 14.5614C12.7882 14.5619 11.8515 13.6275 11.851 12.4745C11.8505 11.3416 12.754 10.4191 13.881 10.3867L13.9416 10.3858Z" fill="white"/>
<defs>
<linearGradient id="paint0_linear" x1="-18.56" y1="-13.0974" x2="30.9515" y2="-12.5629" gradientUnits="userSpaceOnUse">
<stop stop-color="#0B9985"/>
<stop offset="1" stop-color="#0B9985"/>
</linearGradient>
</defs>
</svg>
