<svg width="19" height="18" viewBox="0 0 19 18" fill="none" xmlns="http://www.w3.org/2000/svg">
<path d="M15.3098 4.94454C14.1224 4.94454 13.1564 5.91054 13.1564 7.09796C13.1564 8.28538 14.1224 9.25138 15.3098 9.25138C16.4972 9.25138 17.4633 8.28534 17.4633 7.09796C17.4633 5.91058 16.4972 4.94454 15.3098 4.94454ZM15.3098 8.17469C14.7161 8.17469 14.2331 7.69167 14.2331 7.09796C14.2331 6.50425 14.7161 6.02123 15.3098 6.02123C15.9035 6.02123 16.3866 6.50425 16.3866 7.09796C16.3866 7.69167 15.9035 8.17469 15.3098 8.17469Z" fill="#333333"/>
<path d="M12.0797 0.637695C10.8923 0.637695 9.92626 1.60374 9.92626 2.79112C9.92626 3.97853 10.8923 4.94454 12.0797 4.94454C13.2671 4.94454 14.2331 3.9785 14.2331 2.79112C14.2331 1.6037 13.2671 0.637695 12.0797 0.637695ZM12.0797 3.86781C11.486 3.86781 11.003 3.38479 11.003 2.79108C11.003 2.19737 11.486 1.71435 12.0797 1.71435C12.6734 1.71435 13.1564 2.19737 13.1564 2.79108C13.1564 3.38483 12.6734 3.86781 12.0797 3.86781Z" fill="#333333"/>
<path d="M8.84957 4.94454C7.66215 4.94454 6.69614 5.91058 6.69614 7.09796C6.69614 8.28538 7.66219 9.25138 8.84957 9.25138C10.0369 9.25138 11.003 8.28534 11.003 7.09796C11.003 5.91058 10.0369 4.94454 8.84957 4.94454ZM8.84957 8.17469C8.25586 8.17469 7.77284 7.69167 7.77284 7.09796C7.77284 6.50425 8.25586 6.02123 8.84957 6.02123C9.44327 6.02123 9.9263 6.50425 9.9263 7.09796C9.92626 7.69167 9.44324 8.17469 8.84957 8.17469Z" fill="#333333"/>
<path d="M17.9818 10.7228C17.3155 10.145 16.3264 10.2161 15.743 10.8425L14.1607 12.5411C13.9562 11.8836 13.342 11.4048 12.6181 11.4048H10.8709C10.623 11.4048 10.5135 11.269 10.2624 11.048C8.85653 9.81081 6.74331 9.79994 5.32407 11.0138C5.03138 10.5994 4.54911 10.328 4.00439 10.328H0.702427C0.405106 10.328 0.164062 10.5691 0.164062 10.8664V17.3267C0.164062 17.624 0.405106 17.8651 0.702427 17.8651H4.00436C4.45935 17.8651 4.8707 17.6757 5.16453 17.3719C5.90827 17.6952 6.71635 17.8651 7.52838 17.8651H12.6181C13.798 17.8651 14.9249 17.3015 15.6329 16.3577L18.2175 12.9115C18.2175 12.9115 18.2175 12.9115 18.2175 12.9115C18.7255 12.2342 18.624 11.2798 17.9818 10.7228ZM4.54269 16.25C4.54269 16.5469 4.30118 16.7884 4.00432 16.7884H1.24079V11.4048H4.00436C4.30121 11.4048 4.54272 11.6463 4.54272 11.9432L4.54269 16.25ZM17.3561 12.2656L17.356 12.2656L14.7715 15.7117C14.2658 16.3859 13.4608 16.7884 12.618 16.7884H7.52835C6.87065 16.7884 6.21607 16.6523 5.6127 16.393C5.61687 16.3458 5.61938 16.2982 5.61938 16.25V12.1865L5.99455 11.8564C7.00836 10.9642 8.53731 10.9643 9.55109 11.8564C9.82124 12.0942 10.1837 12.4816 10.8709 12.4816H12.6181C12.9149 12.4816 13.1564 12.7231 13.1564 13.0199C13.1564 13.3168 12.9149 13.5583 12.6181 13.5583H9.86862C9.25291 13.5583 8.69936 13.9004 8.42404 14.4511C8.29107 14.717 8.39888 15.0404 8.6648 15.1734C8.74211 15.212 8.82423 15.2303 8.90513 15.2303C9.1026 15.2303 9.29275 15.1213 9.38707 14.9326C9.47884 14.7491 9.66336 14.635 9.86862 14.635H12.9789C13.4255 14.635 13.8562 14.4476 14.1607 14.1208L16.5307 11.5765C16.5308 11.5765 16.5308 11.5765 16.5308 11.5764C16.7365 11.3556 17.0758 11.3494 17.2906 11.5484C17.4938 11.7368 17.5204 12.0465 17.3561 12.2656Z" fill="#333333"/>
<path d="M2.89174 13.5581C3.18907 13.5581 3.4301 13.3171 3.4301 13.0198C3.4301 12.7224 3.18907 12.4814 2.89174 12.4814C2.59441 12.4814 2.35337 12.7224 2.35337 13.0198C2.35337 13.3171 2.59441 13.5581 2.89174 13.5581Z" fill="#333333"/>
</svg>
