<svg width="19" height="18" viewBox="0 0 19 18" fill="none" xmlns="http://www.w3.org/2000/svg">
<path d="M15.3098 4.79219C14.1224 4.79219 13.1564 5.7582 13.1564 6.94562C13.1564 8.13303 14.1224 9.09904 15.3098 9.09904C16.4972 9.09904 17.4633 8.133 17.4633 6.94562C17.4633 5.75824 16.4972 4.79219 15.3098 4.79219ZM15.3098 8.02235C14.7161 8.02235 14.2331 7.53933 14.2331 6.94562C14.2331 6.35191 14.7161 5.86889 15.3098 5.86889C15.9035 5.86889 16.3866 6.35191 16.3866 6.94562C16.3866 7.53933 15.9035 8.02235 15.3098 8.02235Z" fill="url(#paint0_linear)"/>
<path d="M12.0797 0.485352C10.8923 0.485352 9.92626 1.45139 9.92626 2.63877C9.92626 3.82619 10.8923 4.79219 12.0797 4.79219C13.2671 4.79219 14.2331 3.82615 14.2331 2.63877C14.2331 1.45136 13.2671 0.485352 12.0797 0.485352ZM12.0797 3.71547C11.486 3.71547 11.003 3.23245 11.003 2.63874C11.003 2.04503 11.486 1.56201 12.0797 1.56201C12.6734 1.56201 13.1564 2.04503 13.1564 2.63874C13.1564 3.23248 12.6734 3.71547 12.0797 3.71547Z" fill="url(#paint1_linear)"/>
<path d="M8.84957 4.79219C7.66215 4.79219 6.69614 5.75824 6.69614 6.94562C6.69614 8.13303 7.66219 9.09904 8.84957 9.09904C10.0369 9.09904 11.003 8.133 11.003 6.94562C11.003 5.75824 10.0369 4.79219 8.84957 4.79219ZM8.84957 8.02235C8.25586 8.02235 7.77284 7.53933 7.77284 6.94562C7.77284 6.35191 8.25586 5.86889 8.84957 5.86889C9.44327 5.86889 9.9263 6.35191 9.9263 6.94562C9.92626 7.53933 9.44324 8.02235 8.84957 8.02235Z" fill="url(#paint2_linear)"/>
<path d="M17.9818 10.5705C17.3155 9.99269 16.3264 10.0638 15.743 10.6902L14.1607 12.3887C13.9562 11.7312 13.342 11.2524 12.6181 11.2524H10.8709C10.623 11.2524 10.5135 11.1166 10.2624 10.8957C8.85653 9.65847 6.74331 9.6476 5.32407 10.8615C5.03138 10.4471 4.54911 10.1757 4.00439 10.1757H0.702427C0.405106 10.1757 0.164062 10.4167 0.164062 10.7141V17.1744C0.164062 17.4717 0.405106 17.7127 0.702427 17.7127H4.00436C4.45935 17.7127 4.8707 17.5233 5.16453 17.2195C5.90827 17.5428 6.71635 17.7127 7.52838 17.7127H12.6181C13.798 17.7127 14.9249 17.1492 15.6329 16.2053L18.2175 12.7592C18.2175 12.7592 18.2175 12.7592 18.2175 12.7591C18.7255 12.0818 18.624 11.1275 17.9818 10.5705ZM4.54269 16.0977C4.54269 16.3946 4.30118 16.6361 4.00432 16.6361H1.24079V11.2525H4.00436C4.30121 11.2525 4.54272 11.494 4.54272 11.7909L4.54269 16.0977ZM17.3561 12.1132L17.356 12.1133L14.7715 15.5593C14.2658 16.2336 13.4608 16.6361 12.618 16.6361H7.52835C6.87065 16.6361 6.21607 16.5 5.6127 16.2407C5.61687 16.1935 5.61938 16.1459 5.61938 16.0977V12.0342L5.99455 11.7041C7.00836 10.8119 8.53731 10.812 9.55109 11.7041C9.82124 11.9418 10.1837 12.3292 10.8709 12.3292H12.6181C12.9149 12.3292 13.1564 12.5707 13.1564 12.8676C13.1564 13.1644 12.9149 13.406 12.6181 13.406H9.86862C9.25291 13.406 8.69936 13.7481 8.42404 14.2987C8.29107 14.5647 8.39888 14.8881 8.6648 15.021C8.74211 15.0597 8.82423 15.078 8.90513 15.078C9.1026 15.078 9.29275 14.9689 9.38707 14.7803C9.47884 14.5967 9.66336 14.4827 9.86862 14.4827H12.9789C13.4255 14.4827 13.8562 14.2953 14.1607 13.9685L16.5307 11.4242C16.5308 11.4242 16.5308 11.4241 16.5308 11.4241C16.7365 11.2033 17.0758 11.197 17.2906 11.3961C17.4938 11.5845 17.5204 11.8942 17.3561 12.1132Z" fill="url(#paint3_linear)"/>
<path d="M2.89174 13.4058C3.18907 13.4058 3.4301 13.1647 3.4301 12.8674C3.4301 12.5701 3.18907 12.329 2.89174 12.329C2.59441 12.329 2.35337 12.5701 2.35337 12.8674C2.35337 13.1647 2.59441 13.4058 2.89174 13.4058Z" fill="url(#paint4_linear)"/>
<defs>
<linearGradient id="paint0_linear" x1="-11.5049" y1="-7.13335" x2="18.8223" y2="-6.78414" gradientUnits="userSpaceOnUse">
<stop stop-color="#0B9985"/>
<stop offset="1" stop-color="#0B9985"/>
</linearGradient>
<linearGradient id="paint1_linear" x1="-11.5049" y1="-7.13335" x2="18.8223" y2="-6.78414" gradientUnits="userSpaceOnUse">
<stop stop-color="#0B9985"/>
<stop offset="1" stop-color="#0B9985"/>
</linearGradient>
<linearGradient id="paint2_linear" x1="-11.5049" y1="-7.13335" x2="18.8223" y2="-6.78414" gradientUnits="userSpaceOnUse">
<stop stop-color="#0B9985"/>
<stop offset="1" stop-color="#0B9985"/>
</linearGradient>
<linearGradient id="paint3_linear" x1="-11.5049" y1="-7.13335" x2="18.8223" y2="-6.78414" gradientUnits="userSpaceOnUse">
<stop stop-color="#0B9985"/>
<stop offset="1" stop-color="#0B9985"/>
</linearGradient>
<linearGradient id="paint4_linear" x1="-11.5049" y1="-7.13335" x2="18.8223" y2="-6.78414" gradientUnits="userSpaceOnUse">
<stop stop-color="#0B9985"/>
<stop offset="1" stop-color="#0B9985"/>
</linearGradient>
</defs>
</svg>
