<svg width="19" height="19" viewBox="0 0 19 19" fill="none" xmlns="http://www.w3.org/2000/svg">
<path d="M15.3098 5.09688C14.1224 5.09688 13.1564 6.06289 13.1564 7.2503C13.1564 8.43772 14.1224 9.40373 15.3098 9.40373C16.4972 9.40373 17.4633 8.43769 17.4633 7.2503C17.4633 6.06292 16.4972 5.09688 15.3098 5.09688ZM15.3098 8.32703C14.7161 8.32703 14.2331 7.84401 14.2331 7.2503C14.2331 6.6566 14.7161 6.17358 15.3098 6.17358C15.9035 6.17358 16.3866 6.6566 16.3866 7.2503C16.3866 7.84401 15.9035 8.32703 15.3098 8.32703Z" fill="#828282"/>
<path d="M12.0797 0.790039C10.8923 0.790039 9.92626 1.75608 9.92626 2.94346C9.92626 4.13088 10.8923 5.09688 12.0797 5.09688C13.2671 5.09688 14.2331 4.13084 14.2331 2.94346C14.2331 1.75604 13.2671 0.790039 12.0797 0.790039ZM12.0797 4.02015C11.486 4.02015 11.003 3.53713 11.003 2.94342C11.003 2.34972 11.486 1.8667 12.0797 1.8667C12.6734 1.8667 13.1564 2.34972 13.1564 2.94342C13.1564 3.53717 12.6734 4.02015 12.0797 4.02015Z" fill="#828282"/>
<path d="M8.84957 5.09688C7.66215 5.09688 6.69614 6.06292 6.69614 7.2503C6.69614 8.43772 7.66219 9.40373 8.84957 9.40373C10.0369 9.40373 11.003 8.43769 11.003 7.2503C11.003 6.06292 10.0369 5.09688 8.84957 5.09688ZM8.84957 8.32703C8.25586 8.32703 7.77284 7.84401 7.77284 7.2503C7.77284 6.6566 8.25586 6.17358 8.84957 6.17358C9.44327 6.17358 9.9263 6.6566 9.9263 7.2503C9.92626 7.84401 9.44324 8.32703 8.84957 8.32703Z" fill="#828282"/>
<path d="M17.9818 10.8752C17.3155 10.2974 16.3264 10.3685 15.743 10.9948L14.1607 12.6934C13.9562 12.0359 13.342 11.5571 12.6181 11.5571H10.8709C10.623 11.5571 10.5135 11.4213 10.2624 11.2004C8.85653 9.96316 6.74331 9.95228 5.32407 11.1662C5.03138 10.7518 4.54911 10.4804 4.00439 10.4804H0.702427C0.405106 10.4804 0.164062 10.7214 0.164062 11.0187V17.479C0.164062 17.7764 0.405106 18.0174 0.702427 18.0174H4.00436C4.45935 18.0174 4.8707 17.828 5.16453 17.5242C5.90827 17.8475 6.71635 18.0174 7.52838 18.0174H12.6181C13.798 18.0174 14.9249 17.4539 15.6329 16.51L18.2175 13.0639C18.2175 13.0639 18.2175 13.0638 18.2175 13.0638C18.7255 12.3865 18.624 11.4322 17.9818 10.8752ZM4.54269 16.4024C4.54269 16.6992 4.30118 16.9408 4.00432 16.9408H1.24079V11.5572H4.00436C4.30121 11.5572 4.54272 11.7987 4.54272 12.0955L4.54269 16.4024ZM17.3561 12.4179L17.356 12.418L14.7715 15.864C14.2658 16.5382 13.4608 16.9408 12.618 16.9408H7.52835C6.87065 16.9408 6.21607 16.8047 5.6127 16.5453C5.61687 16.4982 5.61938 16.4506 5.61938 16.4024V12.3389L5.99455 12.0088C7.00836 11.1166 8.53731 11.1167 9.55109 12.0088C9.82124 12.2465 10.1837 12.6339 10.8709 12.6339H12.6181C12.9149 12.6339 13.1564 12.8754 13.1564 13.1723C13.1564 13.4691 12.9149 13.7106 12.6181 13.7106H9.86862C9.25291 13.7106 8.69936 14.0528 8.42404 14.6034C8.29107 14.8694 8.39888 15.1928 8.6648 15.3257C8.74211 15.3644 8.82423 15.3827 8.90513 15.3827C9.1026 15.3827 9.29275 15.2736 9.38707 15.085C9.47884 14.9014 9.66336 14.7874 9.86862 14.7874H12.9789C13.4255 14.7874 13.8562 14.5999 14.1607 14.2732L16.5307 11.7289C16.5308 11.7288 16.5308 11.7288 16.5308 11.7288C16.7365 11.5079 17.0758 11.5017 17.2906 11.7008C17.4938 11.8892 17.5204 12.1988 17.3561 12.4179Z" fill="#828282"/>
<path d="M2.89174 13.7105C3.18907 13.7105 3.4301 13.4694 3.4301 13.1721C3.4301 12.8748 3.18907 12.6337 2.89174 12.6337C2.59441 12.6337 2.35337 12.8748 2.35337 13.1721C2.35337 13.4694 2.59441 13.7105 2.89174 13.7105Z" fill="#828282"/>
</svg>
