<svg width="181" height="53" viewBox="0 0 181 53" fill="none" xmlns="http://www.w3.org/2000/svg">
<path d="M173.867 52.6699H7.42899C3.76903 52.6699 0.771484 49.7433 0.771484 46.1699V7.16993C0.771484 3.59655 3.76903 0.669925 7.42899 0.669925H173.867C177.527 0.669925 180.524 3.59655 180.524 7.16993V46.1699C180.524 49.7433 177.527 52.6699 173.867 52.6699Z" fill="black"/>
<path d="M173.867 1.71155C176.949 1.71155 179.457 4.16042 179.457 7.16993V46.1699C179.457 49.1794 176.949 51.6283 173.867 51.6283H7.42899C4.34656 51.6283 1.83835 49.1794 1.83835 46.1699V7.16993C1.83835 4.16042 4.34656 1.71155 7.42899 1.71155H173.867ZM173.867 0.669925H7.42899C3.76903 0.669925 0.771484 3.59655 0.771484 7.16993V46.1699C0.771484 49.7433 3.76903 52.6699 7.42899 52.6699H173.867C177.527 52.6699 180.524 49.7433 180.524 46.1699V7.16993C180.524 3.59655 177.527 0.669925 173.867 0.669925Z" fill="#A6A6A6"/>
<path d="M63.9076 13.9869C63.9076 15.0724 63.5747 15.9417 62.9189 16.5901C62.165 17.3587 61.183 17.7455 59.9797 17.7455C58.8296 17.7455 57.8476 17.3522 57.042 16.5771C56.2348 15.7906 55.832 14.8254 55.832 13.67C55.832 12.5146 56.2348 11.5494 57.042 10.7694C57.8476 9.98773 58.8296 9.59448 59.9797 9.59448C60.5522 9.59448 61.0981 9.70986 61.6191 9.92436C62.1383 10.1405 62.5611 10.433 62.8673 10.7937L62.1716 11.4795C61.6374 10.8636 60.91 10.5597 59.9797 10.5597C59.1408 10.5597 58.4135 10.8457 57.796 11.4226C57.1852 12.0011 56.8789 12.7502 56.8789 13.67C56.8789 14.5897 57.1852 15.3454 57.796 15.9239C58.4135 16.4942 59.1408 16.7867 59.9797 16.7867C60.8701 16.7867 61.6191 16.4942 62.2099 15.9174C62.5994 15.5355 62.8207 15.009 62.879 14.3362H59.9797V13.397H63.8477C63.8943 13.6001 63.9076 13.7967 63.9076 13.9869Z" fill="white" stroke="white" stroke-width="0.16" stroke-miterlimit="10"/>
<path d="M70.0447 10.7303H66.4114V13.2003H69.6869V14.1396H66.4114V16.6096H70.0447V17.5667H65.3828V9.77319H70.0447V10.7303Z" fill="white" stroke="white" stroke-width="0.16" stroke-miterlimit="10"/>
<path d="M74.3753 17.5667H73.3468V10.7303H71.1182V9.77319H76.6056V10.7303H74.3753V17.5667Z" fill="white" stroke="white" stroke-width="0.16" stroke-miterlimit="10"/>
<path d="M80.5762 17.5667V9.77319H81.6031V17.5667H80.5762Z" fill="white" stroke="white" stroke-width="0.16" stroke-miterlimit="10"/>
<path d="M86.1556 17.5667H85.1354V10.7303H82.8984V9.77319H88.3925V10.7303H86.1556V17.5667Z" fill="white" stroke="white" stroke-width="0.16" stroke-miterlimit="10"/>
<path d="M98.7814 16.5641C97.9942 17.3522 97.0188 17.7455 95.8554 17.7455C94.6854 17.7455 93.7101 17.3522 92.9228 16.5641C92.1372 15.7776 91.7461 14.8124 91.7461 13.67C91.7461 12.5276 92.1372 11.5624 92.9228 10.7759C93.7101 9.98773 94.6854 9.59448 95.8554 9.59448C97.0122 9.59448 97.9875 9.98773 98.7748 10.7824C99.567 11.5754 99.9581 12.5341 99.9581 13.67C99.9581 14.8124 99.567 15.7776 98.7814 16.5641ZM93.6834 15.9109C94.2759 16.4942 94.9966 16.7867 95.8554 16.7867C96.7076 16.7867 97.4349 16.4942 98.0208 15.9109C98.6116 15.3275 98.9112 14.5784 98.9112 13.67C98.9112 12.7616 98.6116 12.0125 98.0208 11.4291C97.4349 10.8457 96.7076 10.5532 95.8554 10.5532C94.9966 10.5532 94.2759 10.8457 93.6834 11.4291C93.0926 12.0125 92.793 12.7616 92.793 13.67C92.793 14.5784 93.0926 15.3275 93.6834 15.9109Z" fill="white" stroke="white" stroke-width="0.16" stroke-miterlimit="10"/>
<path d="M101.401 17.5667V9.77319H102.65L106.531 15.8344H106.576L106.531 14.3362V9.77319H107.558V17.5667H106.486L102.422 11.2064H102.377L102.422 12.7112V17.5667H101.401Z" fill="white" stroke="white" stroke-width="0.16" stroke-miterlimit="10"/>
<path d="M91.493 28.9482C88.3656 28.9482 85.8108 31.272 85.8108 34.4781C85.8108 37.6582 88.3656 40.0063 91.493 40.0063C94.627 40.0063 97.1818 37.6582 97.1818 34.4781C97.1818 31.272 94.627 28.9482 91.493 28.9482ZM91.493 37.8288C89.777 37.8288 88.3007 36.446 88.3007 34.4781C88.3007 32.4842 89.777 31.1257 91.493 31.1257C93.209 31.1257 94.6919 32.4842 94.6919 34.4781C94.6919 36.446 93.209 37.8288 91.493 37.8288ZM79.0951 28.9482C75.9611 28.9482 73.4129 31.272 73.4129 34.4781C73.4129 37.6582 75.9611 40.0063 79.0951 40.0063C82.2274 40.0063 84.7773 37.6582 84.7773 34.4781C84.7773 31.272 82.2274 28.9482 79.0951 28.9482ZM79.0951 37.8288C77.3774 37.8288 75.8962 36.446 75.8962 34.4781C75.8962 32.4842 77.3774 31.1257 79.0951 31.1257C80.811 31.1257 82.2874 32.4842 82.2874 34.4781C82.2874 36.446 80.811 37.8288 79.0951 37.8288ZM64.3421 30.6431V32.9928H70.0891C69.921 34.3058 69.4717 35.2711 68.7826 35.9438C67.9438 36.7563 66.6372 37.6582 64.3421 37.6582C60.8053 37.6582 58.0357 34.8713 58.0357 31.4182C58.0357 27.9651 60.8053 25.1782 64.3421 25.1782C66.2544 25.1782 67.6458 25.9078 68.6728 26.8536L70.3688 25.1977C68.9324 23.8587 67.0217 22.8301 64.3421 22.8301C59.4921 22.8301 55.416 26.683 55.416 31.4182C55.416 36.1535 59.4921 40.0063 64.3421 40.0063C66.9634 40.0063 68.9324 39.1678 70.4803 37.5948C72.0664 36.0462 72.5607 33.8687 72.5607 32.1105C72.5607 31.5645 72.5141 31.0623 72.4309 30.6431H64.3421ZM124.669 32.4647C124.201 31.2281 122.758 28.9482 119.819 28.9482C116.906 28.9482 114.481 31.1891 114.481 34.4781C114.481 37.5753 116.881 40.0063 120.099 40.0063C122.7 40.0063 124.201 38.4577 124.819 37.5558L122.888 36.2997C122.244 37.2195 121.367 37.8288 120.099 37.8288C118.839 37.8288 117.935 37.265 117.356 36.1535L124.93 33.0936L124.669 32.4647ZM116.946 34.3058C116.881 32.1738 118.642 31.0818 119.904 31.0818C120.893 31.0818 121.731 31.5645 122.011 32.2551L116.946 34.3058ZM110.79 39.67H113.28V23.42H110.79V39.67ZM106.712 30.18H106.629C106.07 29.5332 105.003 28.9482 103.651 28.9482C100.815 28.9482 98.2221 31.3792 98.2221 34.496C98.2221 37.5948 100.815 40.0063 103.651 40.0063C105.003 40.0063 106.07 39.4165 106.629 38.7502H106.712V39.5432C106.712 41.6573 105.555 42.7932 103.69 42.7932C102.168 42.7932 101.225 41.7207 100.835 40.8188L98.6698 41.7012C99.2939 43.167 100.947 44.9707 103.69 44.9707C106.609 44.9707 109.072 43.2937 109.072 39.2133V29.2846H106.712V30.18ZM103.864 37.8288C102.148 37.8288 100.712 36.4265 100.712 34.496C100.712 32.5476 102.148 31.1257 103.864 31.1257C105.555 31.1257 106.888 32.5476 106.888 34.496C106.888 36.4265 105.555 37.8288 103.864 37.8288ZM136.326 23.42H130.371V39.67H132.854V33.5128H136.326C139.084 33.5128 141.789 31.5645 141.789 28.4656C141.789 25.3683 139.077 23.42 136.326 23.42ZM136.391 31.2525H132.854V25.6803H136.391C138.245 25.6803 139.304 27.1835 139.304 28.4656C139.304 29.7233 138.245 31.2525 136.391 31.2525ZM151.742 28.9173C149.948 28.9173 148.082 29.6908 147.314 31.4052L149.518 32.3071C149.992 31.4052 150.865 31.1127 151.787 31.1127C153.075 31.1127 154.381 31.8683 154.401 33.2025V33.3731C153.952 33.1196 152.99 32.7442 151.807 32.7442C149.433 32.7442 147.015 34.0198 147.015 36.4005C147.015 38.578 148.959 39.9803 151.144 39.9803C152.815 39.9803 153.737 39.2442 154.317 38.3878H154.401V39.644H156.8V33.4105C156.8 30.5293 154.596 28.9173 151.742 28.9173ZM151.442 37.8223C150.63 37.8223 149.498 37.4291 149.498 36.446C149.498 35.1882 150.91 34.7056 152.131 34.7056C153.225 34.7056 153.737 34.9412 154.401 35.2516C154.207 36.7563 152.88 37.8223 151.442 37.8223ZM165.538 29.2732L162.683 36.3176H162.598L159.648 29.2732H156.97L161.403 39.1175L158.874 44.5953H161.468L168.301 29.2732H165.538ZM143.154 39.67H145.643V23.42H143.154V39.67Z" fill="white"/>
<path d="M14.6653 10.4704C14.2742 10.8701 14.0479 11.4925 14.0479 12.2985V41.048C14.0479 41.854 14.2742 42.4764 14.6653 42.8761L14.7619 42.9639L31.2625 26.8601V26.4799L14.7619 10.3761L14.6653 10.4704Z" fill="url(#paint0_linear)"/>
<path d="M36.7568 32.2307L31.2627 26.8601V26.4798L36.7635 21.1092L36.8866 21.1791L43.401 24.798C45.2601 25.825 45.2601 27.515 43.401 28.5485L36.8866 32.1608L36.7568 32.2307Z" fill="url(#paint1_linear)"/>
<path d="M36.8871 32.1609L31.2632 26.67L14.666 42.8761C15.2835 43.5099 16.2904 43.5863 17.4355 42.9525L36.8871 32.1609Z" fill="url(#paint2_linear)"/>
<path d="M36.8871 21.179L17.4355 10.3874C16.2904 9.76018 15.2835 9.83655 14.666 10.4703L31.2632 26.6699L36.8871 21.179Z" fill="url(#paint3_linear)"/>
<defs>
<linearGradient id="paint0_linear" x1="29.7974" y1="41.3474" x2="7.98656" y2="19.008" gradientUnits="userSpaceOnUse">
<stop stop-color="#00A0FF"/>
<stop offset="0.0066" stop-color="#00A1FF"/>
<stop offset="0.2601" stop-color="#00BEFF"/>
<stop offset="0.5122" stop-color="#00D2FF"/>
<stop offset="0.7604" stop-color="#00DFFF"/>
<stop offset="1" stop-color="#00E3FF"/>
</linearGradient>
<linearGradient id="paint1_linear" x1="45.8219" y1="26.6681" x2="13.6037" y2="26.6681" gradientUnits="userSpaceOnUse">
<stop stop-color="#FFE000"/>
<stop offset="0.4087" stop-color="#FFBD00"/>
<stop offset="0.7754" stop-color="#FFA500"/>
<stop offset="1" stop-color="#FF9C00"/>
</linearGradient>
<linearGradient id="paint2_linear" x1="33.829" y1="23.6851" x2="4.25166" y2="-6.60892" gradientUnits="userSpaceOnUse">
<stop stop-color="#FF3A44"/>
<stop offset="1" stop-color="#C31162"/>
</linearGradient>
<linearGradient id="paint3_linear" x1="10.4882" y1="52.4409" x2="23.6958" y2="38.9134" gradientUnits="userSpaceOnUse">
<stop stop-color="#32A071"/>
<stop offset="0.0685" stop-color="#2DA771"/>
<stop offset="0.4762" stop-color="#15CF74"/>
<stop offset="0.8009" stop-color="#06E775"/>
<stop offset="1" stop-color="#00F076"/>
</linearGradient>
</defs>
</svg>
