<svg width="98" height="24" viewBox="0 0 98 24" fill="none" xmlns="http://www.w3.org/2000/svg">
<rect x="0.130859" y="0.499023" width="97.468" height="23.3067" rx="11.6533" fill="#EB5757"/>
<path d="M46.1504 15.6514V12.1123H49.7832V11.0049H46.1504V8.32715H50.1172V7.19629H44.8379V15.6514H46.1504ZM51.1484 15.6514H52.4141V9.4873H51.1484V15.6514ZM51.7812 8.58496C52.1914 8.58496 52.5195 8.2627 52.5195 7.86426C52.5195 7.45996 52.1914 7.1377 51.7812 7.1377C51.377 7.1377 51.0488 7.45996 51.0488 7.86426C51.0488 8.2627 51.377 8.58496 51.7812 8.58496ZM53.709 15.6514H54.9746V12.0596C54.9746 11.1045 55.5488 10.4717 56.4395 10.4717C57.3184 10.4717 57.752 10.9814 57.752 11.9072V15.6514H59.0234V11.6611C59.0234 10.249 58.2441 9.38184 56.8848 9.38184C55.9355 9.38184 55.2793 9.81543 54.9453 10.5186H54.916V9.4873H53.709V15.6514ZM60.2891 15.6514H61.5547V9.4873H60.2891V15.6514ZM60.9219 8.58496C61.332 8.58496 61.6602 8.2627 61.6602 7.86426C61.6602 7.45996 61.332 7.1377 60.9219 7.1377C60.5176 7.1377 60.1895 7.45996 60.1895 7.86426C60.1895 8.2627 60.5176 8.58496 60.9219 8.58496ZM62.7383 11.2334C62.7383 12.0947 63.3008 12.6748 64.4141 12.9443L65.5156 13.2139C66.1602 13.3779 66.3945 13.5947 66.3945 13.9873C66.3945 14.4854 65.9258 14.8018 65.1641 14.8018C64.3906 14.8018 63.9336 14.4736 63.834 13.8818H62.5801C62.6797 15.0127 63.6465 15.7686 65.1055 15.7686C66.6172 15.7686 67.666 14.9951 67.666 13.8701C67.666 12.9619 67.1973 12.4932 65.9551 12.1943L64.918 11.9541C64.2793 11.7959 63.9746 11.5381 63.9746 11.1572C63.9746 10.6709 64.4316 10.3369 65.1172 10.3369C65.8262 10.3369 66.2773 10.6826 66.3359 11.2393H67.5254C67.4844 10.1436 66.5234 9.37598 65.1523 9.37598C63.7109 9.37598 62.7383 10.1318 62.7383 11.2334ZM68.6973 15.6514H69.9629V12.0889C69.9629 11.1162 70.5371 10.4717 71.4746 10.4717C72.3652 10.4717 72.8223 11.0166 72.8223 11.9248V15.6514H74.0938V11.6787C74.0938 10.2842 73.2852 9.38184 71.9316 9.38184C70.9941 9.38184 70.3203 9.79785 69.9805 10.5186H69.9512V7.19629H68.6973V15.6514Z" fill="white"/>
<path d="M35.5763 13.8426C35.1721 13.8426 34.8147 14.1031 34.69 14.4878C34.016 16.5699 32.0617 18.0806 29.7578 18.0806C26.8977 18.0806 24.5706 15.7533 24.5706 12.8929C24.5706 10.5986 26.0688 8.6505 28.1382 7.96884C28.5377 7.83719 28.8084 7.4636 28.8084 7.04243C28.8084 6.74411 28.6657 6.46366 28.4246 6.28823C28.1836 6.11254 27.873 6.06296 27.5893 6.15429C24.7398 7.07197 22.6719 9.74272 22.6719 12.893C22.6719 16.8006 25.8505 19.9794 29.7578 19.9794C32.8955 19.9794 35.5573 17.9277 36.4849 15.0963C36.5803 14.8051 36.5303 14.486 36.3504 14.2378C36.171 13.9898 35.8832 13.8426 35.5763 13.8426Z" fill="white"/>
<path d="M31.3514 7.96068C32.9266 8.4706 34.173 9.71428 34.6866 11.2878C34.8146 11.6795 35.1794 11.944 35.5915 11.944H35.6111C35.9086 11.944 36.1883 11.8017 36.3634 11.5613C36.5382 11.321 36.5882 11.011 36.497 10.7278C35.8021 8.56723 34.0967 6.85831 31.9379 6.15838C31.6519 6.0657 31.3381 6.1155 31.0947 6.29232C30.8513 6.46938 30.7072 6.75219 30.7072 7.0532V7.07386C30.7071 7.47764 30.9676 7.8362 31.3514 7.96068Z" fill="white"/>
</svg>
