<svg width="99" height="24" viewBox="0 0 99 24" fill="none" xmlns="http://www.w3.org/2000/svg">
<rect x="0.84375" y="0.479492" width="97.468" height="23.3067" rx="11.6533" fill="#6FCF97"/>
<path d="M36.4609 15.6328V8.30859H39.0449V7.17773H32.5586V8.30859H35.1484V15.6328H36.4609ZM41.1016 15.75C42.8652 15.75 44.0254 14.5371 44.0254 12.5508C44.0254 10.5703 42.8594 9.35742 41.1016 9.35742C39.3438 9.35742 38.1777 10.5703 38.1777 12.5508C38.1777 14.5371 39.3379 15.75 41.1016 15.75ZM41.1016 14.707C40.1113 14.707 39.4668 13.9219 39.4668 12.5508C39.4668 11.1855 40.1113 10.4004 41.1016 10.4004C42.0918 10.4004 42.7363 11.1855 42.7363 12.5508C42.7363 13.9219 42.0977 14.707 41.1016 14.707ZM46.3281 12.1113H46.3164V7.17773H45.0508V15.6328H46.3164V13.418L46.8438 12.8965L48.9355 15.6328H50.4062L47.752 12.123L50.3066 9.46875H48.8184L46.3281 12.1113ZM53.3477 10.377C54.2324 10.377 54.8301 11.0391 54.8594 11.9824H51.7773C51.8418 11.0508 52.4629 10.377 53.3477 10.377ZM54.8535 13.8223C54.6836 14.3613 54.1504 14.7246 53.4297 14.7246C52.416 14.7246 51.7715 14.0156 51.7715 12.9434V12.8672H56.125V12.4336C56.125 10.5645 55.0586 9.35742 53.3477 9.35742C51.6074 9.35742 50.4941 10.6465 50.4941 12.5801C50.4941 14.5254 51.5898 15.75 53.4004 15.75C54.8125 15.75 55.8789 14.9473 56.0547 13.8223H54.8535ZM57.1094 15.6328H58.375V12.041C58.375 11.0859 58.9492 10.4531 59.8398 10.4531C60.7188 10.4531 61.1523 10.9629 61.1523 11.8887V15.6328H62.4238V11.6426C62.4238 10.2305 61.6445 9.36328 60.2852 9.36328C59.3359 9.36328 58.6797 9.79688 58.3457 10.5H58.3164V9.46875H57.1094V15.6328ZM65.8633 13.2773C65.9453 14.8066 67.2109 15.7734 69.0859 15.7734C71.0898 15.7734 72.3496 14.7832 72.3496 13.2012C72.3496 11.9648 71.6289 11.2676 69.8945 10.8574L68.9629 10.6289C67.873 10.3594 67.4277 10.0078 67.4277 9.41016C67.4277 8.66016 68.125 8.14453 69.1445 8.14453C70.1641 8.14453 70.8613 8.6543 70.9375 9.49805H72.2148C72.1738 8.03906 70.9492 7.03711 69.1621 7.03711C67.3574 7.03711 66.0859 8.03906 66.0859 9.49805C66.0859 10.6758 66.8066 11.4023 68.3594 11.7773L69.4551 12.041C70.5508 12.3105 71.0137 12.7031 71.0137 13.3594C71.0137 14.1152 70.2461 14.666 69.1797 14.666C68.0664 14.666 67.252 14.1152 67.1582 13.2773H65.8633ZM75.5312 14.7363C74.8516 14.7363 74.4062 14.3848 74.4062 13.8457C74.4062 13.3184 74.834 12.9844 75.5898 12.9316L77.1074 12.8379V13.3242C77.1074 14.127 76.416 14.7363 75.5312 14.7363ZM75.1797 15.7383C75.9883 15.7383 76.7676 15.3047 77.125 14.6191H77.1543V15.6328H78.3672V11.3848C78.3672 10.1484 77.4121 9.35742 75.918 9.35742C74.3945 9.35742 73.4453 10.1777 73.375 11.291H74.5703C74.6816 10.7402 75.1387 10.3887 75.8711 10.3887C76.6445 10.3887 77.1074 10.7988 77.1074 11.4844V11.959L75.4199 12.0586C73.9551 12.1406 73.1289 12.8027 73.1289 13.8809C73.1289 14.9883 73.9727 15.7383 75.1797 15.7383ZM79.6445 15.6328H80.9102V7.17773H79.6445V15.6328ZM84.7891 10.377C85.6738 10.377 86.2715 11.0391 86.3008 11.9824H83.2188C83.2832 11.0508 83.9043 10.377 84.7891 10.377ZM86.2949 13.8223C86.125 14.3613 85.5918 14.7246 84.8711 14.7246C83.8574 14.7246 83.2129 14.0156 83.2129 12.9434V12.8672H87.5664V12.4336C87.5664 10.5645 86.5 9.35742 84.7891 9.35742C83.0488 9.35742 81.9355 10.6465 81.9355 12.5801C81.9355 14.5254 83.0312 15.75 84.8418 15.75C86.2539 15.75 87.3203 14.9473 87.4961 13.8223H86.2949Z" fill="white"/>
<path d="M23.7892 13.8241C23.385 13.8241 23.0276 14.0846 22.9029 14.4692C22.2289 16.5514 20.2745 18.062 17.9707 18.062C15.1105 18.062 12.7835 15.7348 12.7835 12.8744C12.7835 10.58 14.2817 8.63195 16.3511 7.95028C16.7506 7.81863 17.0213 7.44504 17.0213 7.02388C17.0213 6.72555 16.8786 6.44511 16.6375 6.26968C16.3965 6.09398 16.0859 6.0444 15.8022 6.13574C12.9527 7.05341 10.8848 9.72417 10.8848 12.8745C10.8848 16.782 14.0634 19.9608 17.9707 19.9608C21.1084 19.9608 23.7702 17.9091 24.6978 15.0777C24.7932 14.7866 24.7432 14.4674 24.5633 14.2193C24.3839 13.9712 24.0961 13.8241 23.7892 13.8241Z" fill="white"/>
<path d="M19.5643 7.94212C21.1395 8.45204 22.3859 9.69572 22.8995 11.2692C23.0275 11.6609 23.3923 11.9254 23.8044 11.9254H23.824C24.1215 11.9254 24.4012 11.7831 24.5763 11.5428C24.7511 11.3024 24.8011 10.9925 24.7099 10.7093C24.015 8.54867 22.3096 6.83975 20.1508 6.13982C19.8648 6.04715 19.5509 6.09695 19.3076 6.27377C19.0642 6.45083 18.9201 6.73364 18.9201 7.03464V7.0553C18.92 7.45908 19.1805 7.81764 19.5643 7.94212Z" fill="white"/>
</svg>
