<svg width="51" height="51" viewBox="0 0 51 51" fill="none" xmlns="http://www.w3.org/2000/svg">
<path d="M32.7678 32.6263C30.873 34.5205 28.3035 35.5846 25.6244 35.5846C22.9452 35.5846 20.3757 34.5205 18.4809 32.6263H32.7678ZM18.0464 20.4309H18.0717H18.0464ZM33.2023 20.4309H33.2275H33.2023ZM48.3581 25.4829C48.3581 28.4683 47.7701 31.4245 46.6276 34.1827C45.4851 36.9409 43.8105 39.447 41.6995 41.558C39.5885 43.6691 37.0824 45.3436 34.3242 46.4861C31.566 47.6286 28.6098 48.2166 25.6244 48.2166C22.6389 48.2166 19.6827 47.6286 16.9245 46.4861C14.1663 45.3436 11.6602 43.6691 9.54918 41.558C7.43816 39.447 5.7636 36.9409 4.62113 34.1827C3.47865 31.4245 2.89062 28.4683 2.89063 25.4829C2.89063 19.4535 5.28578 13.6711 9.54918 9.4077C13.8126 5.1443 19.595 2.74915 25.6244 2.74915C31.6537 2.74915 37.4361 5.1443 41.6995 9.4077C45.9629 13.6711 48.3581 19.4535 48.3581 25.4829Z" stroke="url(#paint0_linear)" stroke-width="4.54675" stroke-linecap="round" stroke-linejoin="round"/>
<defs>
<linearGradient id="paint0_linear" x1="-25.9815" y1="-17.3586" x2="49.0572" y2="-16.5485" gradientUnits="userSpaceOnUse">
<stop stop-color="#0B9985"/>
<stop offset="1" stop-color="#0B9985"/>
</linearGradient>
</defs>
</svg>
