<svg width="62" height="61" viewBox="0 0 62 61" fill="none" xmlns="http://www.w3.org/2000/svg">
<path d="M27.0545 31.6006L22.1478 26.6939L19.4766 29.3651L27.0545 36.943L42.2103 21.7872L39.5391 19.116L27.0545 31.6006Z" fill="url(#paint0_linear)"/>
<path d="M30.8431 57.0057L19.1428 50.7672C15.8073 48.9926 13.0179 46.3433 11.0741 43.1035C9.13027 39.8637 8.10537 36.1557 8.10939 32.3775V7.74928C8.11039 6.7447 8.5099 5.78154 9.22025 5.07119C9.9306 4.36084 10.8938 3.96133 11.8983 3.96033H49.7879C50.7925 3.96133 51.7556 4.36084 52.466 5.07119C53.1763 5.78154 53.5758 6.7447 53.5768 7.74928V32.3775C53.5809 36.1557 52.556 39.8637 50.6121 43.1035C48.6683 46.3433 45.879 48.9926 42.5434 50.7672L30.8431 57.0057ZM11.8983 7.74928V32.3775C11.8952 35.4689 12.734 38.5028 14.3247 41.1536C15.9154 43.8043 18.198 45.9718 20.9274 47.4234L30.8431 52.7109L40.7588 47.4253C43.4885 45.9736 45.7713 43.8058 47.362 41.1547C48.9527 38.5035 49.7914 35.4692 49.7879 32.3775V7.74928H11.8983Z" fill="url(#paint1_linear)"/>
<defs>
<linearGradient id="paint0_linear" x1="5.04049" y1="11.2321" x2="42.5571" y2="11.7485" gradientUnits="userSpaceOnUse">
<stop stop-color="#0B9985"/>
<stop offset="1" stop-color="#0B9985"/>
</linearGradient>
<linearGradient id="paint1_linear" x1="-20.7628" y1="-19.4987" x2="54.2783" y2="-18.8043" gradientUnits="userSpaceOnUse">
<stop stop-color="#0B9985"/>
<stop offset="1" stop-color="#0B9985"/>
</linearGradient>
</defs>
</svg>
