<svg width="62" height="61" viewBox="0 0 62 61" fill="none" xmlns="http://www.w3.org/2000/svg">
<g clip-path="url(#clip0)">
<path d="M24.1216 8.57432C24.1216 8.28933 24.3532 8.05769 24.6382 8.05769C24.9232 8.05769 25.1548 8.28933 25.1548 8.57432C25.1548 8.8593 24.9232 9.09094 24.6382 9.09094C24.3532 9.09094 24.1216 8.8593 24.1216 8.57432Z" stroke="url(#paint0_linear)" stroke-width="1.33121" stroke-linecap="round" stroke-linejoin="round"/>
<path d="M32.7042 12.9478C32.432 12.8575 32.2482 12.6029 32.2482 12.316V10.9388C32.2482 10.6535 32.0168 10.4222 31.7315 10.4222C31.4463 10.4222 31.2149 10.6535 31.2149 10.9388V12.3244C31.2149 12.6062 31.0374 12.8575 30.7718 12.9517C29.6522 13.3488 28.8505 14.418 28.8505 15.6677C28.8505 17.2558 30.1435 18.5488 31.7315 18.5488C32.751 18.5488 33.5794 19.3772 33.5794 20.3966C33.5794 21.4161 32.751 22.2445 31.7315 22.2445C30.9492 22.2445 30.2349 21.7646 29.687 21.1128L29.6869 21.1127C29.5035 20.8945 29.1776 20.8662 28.9591 21.0499L28.9591 21.0499C28.7407 21.2335 28.7125 21.5593 28.896 21.7777C29.4615 22.4503 30.1061 22.8951 30.7609 23.1147C31.0322 23.2056 31.2149 23.4597 31.2149 23.7458V25.1255C31.2149 25.4108 31.4463 25.6422 31.7315 25.6422C32.0168 25.6422 32.2482 25.4108 32.2482 25.1255V23.74C32.2482 23.4581 32.4257 23.2069 32.6913 23.1127C33.8109 22.7156 34.6126 21.6464 34.6126 20.3966C34.6126 18.8086 33.3196 17.5156 31.7315 17.5156C30.7121 17.5156 29.8837 16.6872 29.8837 15.6677C29.8837 14.6482 30.7121 13.8199 31.7315 13.8199C32.3808 13.8199 32.98 14.1479 33.4731 14.6252C33.6784 14.8236 34.0052 14.8181 34.2037 14.6131C34.4019 14.408 34.3966 14.081 34.1916 13.8826L32.7042 12.9478ZM32.7042 12.9478C33.1501 13.0956 33.6637 13.3717 34.1916 13.8825L32.7042 12.9478Z" stroke="url(#paint1_linear)" stroke-width="1.33121" stroke-linecap="round" stroke-linejoin="round"/>
<path d="M52.9465 31.2399C52.7839 31.366 52.572 31.4097 52.3728 31.3584C51.0219 31.0105 49.5333 31.3703 48.4837 32.4198L40.5551 40.3484L40.5548 40.3487C39.5628 41.3394 39.0176 42.6548 39.0176 44.0588V51.0162C39.0176 51.3838 38.7196 51.6818 38.352 51.6818H37.1698C36.8845 51.6818 36.6532 51.9132 36.6532 52.1985V59.6465C36.6532 59.9318 36.8845 60.1631 37.1698 60.1631H53.721C54.0063 60.1631 54.2376 59.9318 54.2376 59.6465V52.1985C54.2376 51.9132 54.0063 51.6818 53.721 51.6818H52.5388C52.1712 51.6818 51.8732 51.3838 51.8732 51.0162V50.4582C51.8732 49.9706 52.0697 49.4967 52.4147 49.1518L52.4149 49.1517M52.9465 31.2399L52.8854 49.6225L52.4149 49.1517M52.9465 31.2399C53.1092 31.1138 53.2044 30.9196 53.2044 30.7138V22.2881C53.2044 20.0482 55.0278 18.2248 57.2677 18.2248C59.5076 18.2248 61.331 20.0482 61.331 22.2881V38.0626C61.331 39.465 60.7861 40.7803 59.7942 41.7724L52.9465 31.2399ZM52.4149 49.1517L59.7942 41.7724L52.4149 49.1517ZM50.8399 51.0162C50.8399 51.3838 50.5419 51.6818 50.1743 51.6818H40.7165C40.3489 51.6818 40.0509 51.3838 40.0509 51.0162V44.0588C40.0509 42.9342 40.4897 41.8741 41.2851 41.0796L50.8399 51.0162ZM50.8399 51.0162V50.4582C50.8399 49.7016 51.1484 48.9569 51.684 48.4212L59.0635 41.0418C59.8585 40.2468 60.2977 39.1866 60.2977 38.0626V22.2881C60.2977 20.6167 58.939 19.2581 57.2677 19.2581C55.5963 19.2581 54.2376 20.6167 54.2376 22.2881V32.1668C54.2376 32.3292 54.297 32.486 54.4046 32.6077C55.061 33.3501 55.4198 34.2919 55.4198 35.2926C55.4198 36.3794 54.9979 37.3975 54.2293 38.1658L54.2292 38.1659L48.355 44.04M50.8399 51.0162L48.355 44.04M53.4986 37.4349L47.6242 43.3093C47.4226 43.511 47.4225 43.8381 47.6242 44.04C47.6242 44.04 47.6243 44.04 47.6243 44.0401M53.4986 37.4349L47.1536 44.5107L47.6243 44.0401M53.4986 37.4349C53.4987 37.4349 53.4987 37.4349 53.4987 37.4348L53.4986 37.4349ZM47.6243 44.0401C47.8262 44.2418 48.1531 44.2418 48.355 44.04M47.6243 44.0401L48.355 44.04M52.5388 59.1299C52.9064 59.1299 53.2044 58.8319 53.2044 58.4643V53.3807C53.2044 53.0131 52.9064 52.7151 52.5388 52.7151H38.352C37.9844 52.7151 37.6864 53.0131 37.6864 53.3807V58.4643C37.6864 58.8319 37.9844 59.1299 38.352 59.1299H52.5388ZM49.2143 33.1504L41.2855 41.0793L53.721 35.2926C53.721 34.6612 53.475 34.0677 53.0283 33.6214L53.499 33.1508C53.4989 33.1507 53.4988 33.1506 53.4988 33.1506C53.4722 33.124 53.4312 33.0833 53.3831 33.0421L53.381 33.0404C53.381 33.0404 53.3809 33.0403 53.3808 33.0402C53.3806 33.0399 53.3801 33.0396 53.3795 33.039L53.3755 33.0355L53.3723 33.0327C52.1759 31.9615 50.3502 32.0144 49.2143 33.1504C49.2143 33.1504 49.2143 33.1504 49.2143 33.1504Z" stroke="url(#paint2_linear)" stroke-width="1.33121" stroke-linecap="round" stroke-linejoin="round"/>
<path d="M4.39968 41.0419L4.39964 41.0419C3.6047 40.2468 3.16543 39.1866 3.16543 38.0626V22.2881C3.16543 20.6167 4.52413 19.2581 6.19549 19.2581C7.86685 19.2581 9.22555 20.6167 9.22555 22.2881V32.1667C9.22555 32.3291 9.16616 32.4859 9.05857 32.6076C8.40212 33.35 8.04332 34.2916 8.04332 35.2926C8.04332 36.3795 8.46531 37.3975 9.23364 38.1652L9.23382 38.1654L15.1449 44.0765C15.3467 44.2783 15.6738 44.2783 15.8758 44.0764C16.0773 43.8747 16.0774 43.5477 15.8757 43.3458L15.8756 43.3458M4.39968 41.0419L16.3463 42.8752L15.8756 43.3458M4.39968 41.0419L11.7791 48.4212C12.3148 48.9569 12.6232 49.7016 12.6231 50.4581V50.4582V51.0162C12.6231 51.3838 12.9211 51.6818 13.2887 51.6818H22.7466C23.1142 51.6818 23.4122 51.3838 23.4122 51.0162V44.0587C23.4122 42.9341 22.9734 41.8741 22.1785 41.0801C22.1784 41.08 22.1783 41.0799 22.1782 41.0798L14.2487 33.1504C13.1133 32.015 11.2884 31.9615 10.092 33.0315M4.39968 41.0419L10.092 33.0315M15.8756 43.3458L9.96444 37.4346L15.8756 43.3458ZM10.0766 33.045C10.0308 33.0845 9.99149 33.1233 9.9649 33.1498L9.96389 33.1508C9.39278 33.7218 9.07657 34.4846 9.07657 35.2926C9.07657 36.1006 9.39271 36.8633 9.96419 37.4343L10.075 33.0464L10.0766 33.045ZM10.0766 33.045L10.092 33.0315M10.0766 33.045L10.092 33.0315M24.4455 51.0162C24.4455 51.3838 24.7435 51.6818 25.1111 51.6818H26.2934C26.5786 51.6818 26.81 51.9132 26.81 52.1985V59.6465C26.81 59.9318 26.5786 60.1631 26.2934 60.1631H9.74217C9.45691 60.1631 9.22555 59.9318 9.22555 59.6465V52.1985C9.22555 51.9132 9.45691 51.6818 9.74217 51.6818H10.9244C11.292 51.6818 11.59 51.3838 11.59 51.0162V50.4582C11.59 49.9704 11.3933 49.4967 11.0484 49.1517L10.5778 49.6224L11.0484 49.1517L3.66899 41.7724C3.66898 41.7724 3.66897 41.7724 3.66896 41.7724C2.67702 40.7803 2.13219 39.465 2.13219 38.0626V22.2881C2.13219 20.0482 3.95557 18.2248 6.19549 18.2248C8.43541 18.2248 10.2588 20.0482 10.2588 22.2881V30.7138C10.2588 30.9196 10.354 31.1139 10.5167 31.2399C10.6793 31.366 10.8911 31.4097 11.0904 31.3584C12.4413 31.0104 13.9298 31.3701 14.9795 32.4198L22.9087 40.349L22.909 40.3493C23.9003 41.3393 24.4455 42.6547 24.4455 44.0588V51.0162ZM25.1111 59.1299C25.4787 59.1299 25.7767 58.8319 25.7767 58.4643V53.3807C25.7767 53.0131 25.4787 52.7151 25.1111 52.7151H10.9244C10.5568 52.7151 10.2588 53.0131 10.2588 53.3807V58.4643C10.2588 58.8319 10.5568 59.1299 10.9244 59.1299H25.1111Z" stroke="url(#paint3_linear)" stroke-width="1.33121" stroke-linecap="round" stroke-linejoin="round"/>
<path d="M14.6638 18.0321C14.6638 8.62152 22.321 0.96431 31.7316 0.96431C41.1422 0.96431 48.7994 8.62152 48.7994 18.0321C48.7994 27.4427 41.1422 35.0999 31.7316 35.0999C22.321 35.0999 14.6638 27.4427 14.6638 18.0321ZM15.697 18.0321C15.697 26.8742 22.8894 34.0667 31.7316 34.0667C40.5737 34.0667 47.7661 26.8742 47.7661 18.0321C47.7661 9.19007 40.5737 1.99756 31.7316 1.99756C22.8894 1.99756 15.697 9.19007 15.697 18.0321Z" stroke="url(#paint4_linear)" stroke-width="1.33121" stroke-linecap="round" stroke-linejoin="round"/>
<path d="M39.4772 8.42641L39.4772 8.42639C36.5611 6.07184 32.7412 5.17992 28.9912 5.98842L28.8511 5.33882L28.9912 5.98842C28.7122 6.04856 28.5349 6.32338 28.595 6.60231C28.655 6.88076 28.9298 7.0584 29.2092 6.9983C32.6405 6.25853 36.1495 7.06762 38.8282 9.23017L38.8283 9.23021C41.5021 11.3892 43.0373 14.5987 43.0373 18.032C43.0373 24.2666 37.9661 29.3377 31.7316 29.3377C25.4971 29.3377 20.426 24.2666 20.426 18.032C20.426 16.1705 20.8878 14.3251 21.7632 12.6938L39.4772 8.42641ZM39.4772 8.42641C42.3973 10.7839 44.0705 14.2835 44.0705 18.032C44.0705 24.8351 38.5347 30.3709 31.7316 30.3709C24.9285 30.3709 19.3927 24.8351 19.3927 18.032C19.3927 15.9999 19.8981 13.9844 20.8528 12.2052L20.8528 12.2051M39.4772 8.42641L20.8528 12.2051M20.8528 12.2051C20.9875 11.9539 21.3007 11.8593 21.5522 11.9942L20.8528 12.2051ZM21.5522 11.9943C21.8037 12.1293 21.898 12.4425 21.7632 12.6938L21.5522 11.9943Z" stroke="url(#paint5_linear)" stroke-width="1.33121" stroke-linecap="round" stroke-linejoin="round"/>
</g>
<defs>
<linearGradient id="paint0_linear" x1="21.9545" y1="6.34642" x2="25.8568" y2="6.38855" gradientUnits="userSpaceOnUse">
<stop stop-color="#0B9985"/>
<stop offset="1" stop-color="#0B9985"/>
</linearGradient>
<linearGradient id="paint1_linear" x1="23.557" y1="2.43694" x2="35.3896" y2="2.49226" gradientUnits="userSpaceOnUse">
<stop stop-color="#0B9985"/>
<stop offset="1" stop-color="#0B9985"/>
</linearGradient>
<linearGradient id="paint2_linear" x1="19.4717" y1="-1.57647" x2="62.3997" y2="-1.29792" gradientUnits="userSpaceOnUse">
<stop stop-color="#0B9985"/>
<stop offset="1" stop-color="#0B9985"/>
</linearGradient>
<linearGradient id="paint3_linear" x1="-15.0493" y1="-1.57647" x2="27.8787" y2="-1.29792" gradientUnits="userSpaceOnUse">
<stop stop-color="#0B9985"/>
<stop offset="1" stop-color="#0B9985"/>
</linearGradient>
<linearGradient id="paint4_linear" x1="-8.5235" y1="-15.3863" x2="50.0103" y2="-14.7544" gradientUnits="userSpaceOnUse">
<stop stop-color="#0B9985"/>
<stop offset="1" stop-color="#0B9985"/>
</linearGradient>
<linearGradient id="paint5_linear" x1="2.21122" y1="-6.46943" x2="45.136" y2="-6.006" gradientUnits="userSpaceOnUse">
<stop stop-color="#0B9985"/>
<stop offset="1" stop-color="#0B9985"/>
</linearGradient>
<clipPath id="clip0">
<rect width="60.6233" height="60.6233" fill="white" transform="translate(0.996582)"/>
</clipPath>
</defs>
</svg>
