<svg width="61" height="61" viewBox="0 0 61 61" fill="none" xmlns="http://www.w3.org/2000/svg">
<g clip-path="url(#clip0)">
<path d="M60.5938 30.7589C60.5938 14.1904 47.1623 0.758911 30.5938 0.758911C14.0252 0.758911 0.59375 14.1904 0.59375 30.7589C0.59375 47.3275 14.0252 60.7589 30.5938 60.7589C47.1623 60.7589 60.5938 47.3275 60.5938 30.7589Z" fill="url(#paint0_linear)"/>
<path d="M30.592 45.2716C29.4397 45.3051 28.4614 44.4339 28.3618 43.2855L28.1108 41.3186C25.7205 40.6375 24.3221 38.8689 23.9588 36.0606L21.8075 19.4886C21.346 19.4143 20.8789 19.3807 20.4115 19.3882C19.7197 19.3825 19.0305 19.4718 18.363 19.6535V44.7865H14.1416V24.584C14.1416 21.8427 15.3726 19.9068 17.6148 19.1014V17.7988C17.6148 16.2932 18.5303 15.2822 19.8904 15.2822C21.2505 15.2822 22.1039 16.1282 22.3238 17.6722L22.4911 18.8791C24.946 19.565 26.3802 21.5368 26.8057 24.7369L28.7945 40.7115C29.9827 40.941 31.2038 40.941 32.392 40.7115L34.3807 24.7393C34.7967 21.5368 36.2476 19.565 38.6953 18.8719L38.8626 17.665C39.0826 16.1282 39.9479 15.275 41.296 15.275C42.6442 15.275 43.5716 16.286 43.5716 17.7917V19.0942C45.8138 19.8996 47.0448 21.8355 47.0448 24.5768V44.7793H42.8187V19.6511C42.1512 19.4694 41.4619 19.3801 40.7701 19.3858C40.3028 19.3783 39.8357 19.4119 39.3742 19.4862L37.2229 36.0606C36.8667 38.8187 35.4349 40.6303 33.0708 41.3186L32.8342 43.2879C32.7573 44.4521 31.757 45.3371 30.592 45.2716ZM28.8925 41.5098L29.11 43.2043C29.1575 43.9775 29.8181 44.5688 30.592 44.5307C30.9658 44.5575 31.3345 44.4319 31.6142 44.1825C31.8938 43.9331 32.0606 43.581 32.0764 43.2067L32.294 41.5098C31.1677 41.6946 30.0188 41.6946 28.8925 41.5098ZM43.5716 44.0456H46.2919V24.584C46.2919 22.2609 45.3548 20.6573 43.5716 19.9092V44.0456ZM14.8874 44.0456H17.6148V19.9092C15.834 20.6573 14.9065 22.2609 14.9065 24.584L14.8874 44.0456ZM22.5987 19.6941L24.707 35.9627C25.0082 38.3168 26.1197 39.8392 28.008 40.5036L26.0599 24.8302C25.7014 22.0673 24.5659 20.38 22.5987 19.6941ZM38.5878 19.6941C36.6205 20.38 35.4803 22.0673 35.1265 24.8325L33.1784 40.4941C35.0692 39.8296 36.1783 38.3072 36.4795 35.9531L38.5878 19.6941ZM18.3677 18.8624C19.0383 18.6994 19.7262 18.6191 20.4163 18.6234C20.8478 18.6188 21.2791 18.6444 21.7071 18.6999L21.578 17.7606C21.4131 16.6086 20.8442 16.0255 19.8904 16.0255C18.9367 16.0255 18.3677 16.7018 18.3677 17.7893V18.8624ZM40.7701 18.6234C41.4602 18.6191 42.1482 18.6994 42.8187 18.8624V17.7988C42.8187 16.7114 42.2354 16.035 41.296 16.035C40.3566 16.035 39.7734 16.6182 39.6084 17.7702L39.4794 18.7094C39.9073 18.6539 40.3386 18.6284 40.7701 18.6329V18.6234Z" fill="white"/>
</g>
<defs>
<linearGradient id="paint0_linear" x1="30.5938" y1="0.758911" x2="30.5938" y2="60.7589" gradientUnits="userSpaceOnUse">
<stop stop-color="#FF5A2F"/>
<stop offset="1" stop-color="#9F59E3"/>
</linearGradient>
<clipPath id="clip0">
<rect width="60" height="60" fill="white" transform="translate(0.59375 0.758911)"/>
</clipPath>
</defs>
</svg>
