<svg width="24" height="24" viewBox="0 0 24 24" fill="none" xmlns="http://www.w3.org/2000/svg">
<path d="M20.5109 11.8242V22.8242H2.91094V11.8242M11.7109 22.8242V6.32422M11.7109 6.32422H6.76094C6.03159 6.32422 5.33212 6.03449 4.81639 5.51876C4.30067 5.00304 4.01094 4.30356 4.01094 3.57422C4.01094 2.84487 4.30067 2.1454 4.81639 1.62967C5.33212 1.11395 6.03159 0.824219 6.76094 0.824219C10.6109 0.824219 11.7109 6.32422 11.7109 6.32422ZM11.7109 6.32422H16.6609C17.3903 6.32422 18.0898 6.03449 18.6055 5.51876C19.1212 5.00304 19.4109 4.30356 19.4109 3.57422C19.4109 2.84487 19.1212 2.1454 18.6055 1.62967C18.0898 1.11395 17.3903 0.824219 16.6609 0.824219C12.8109 0.824219 11.7109 6.32422 11.7109 6.32422ZM0.710938 6.32422H22.7109V11.8242H0.710938V6.32422Z" stroke="url(#paint0_linear)" stroke-linecap="round" stroke-linejoin="round"/>
<defs>
<linearGradient id="paint0_linear" x1="-13.2592" y1="-8.90514" x2="23.0492" y2="-8.51321" gradientUnits="userSpaceOnUse">
<stop stop-color="#0B9985"/>
<stop offset="1" stop-color="#0B9985"/>
</linearGradient>
</defs>
</svg>
