<svg width="19" height="22" viewBox="0 0 19 22" fill="none" xmlns="http://www.w3.org/2000/svg">
<path d="M18.8329 5.66458C18.8214 5.07062 18.8104 4.5095 18.8104 3.96667C18.8104 3.54139 18.4588 3.19661 18.0249 3.19661C14.6655 3.19661 12.1078 2.25016 9.97577 0.218041C9.67078 -0.0727316 9.18543 -0.072629 8.88055 0.218041C6.74876 2.25016 4.19143 3.19661 0.832247 3.19661C0.398432 3.19661 0.0467304 3.54139 0.0467304 3.96667C0.0467304 4.5096 0.0358379 5.07092 0.0242123 5.66499C-0.0834559 11.1925 -0.230923 18.7628 9.17088 21.9575C9.25424 21.9858 9.34118 22 9.42811 22C9.51504 22 9.60207 21.9858 9.68534 21.9575C19.0879 18.7627 18.9406 11.1922 18.8329 5.66458ZM9.42821 20.4128C1.36493 17.5413 1.48684 11.251 1.59504 5.69436C1.60153 5.36087 1.60781 5.03766 1.61221 4.72081C4.75847 4.59061 7.27443 3.65597 9.42821 1.81667C11.5822 3.65597 14.0986 4.59072 17.245 4.72081C17.2494 5.03755 17.2557 5.36057 17.2622 5.69385C17.3703 11.2507 17.4921 17.5412 9.42821 20.4128Z" fill="#4F4F4F"/>
<path d="M12.1332 8.32497L8.34189 12.0415L6.72404 10.4555C6.41727 10.1548 5.91988 10.1548 5.61322 10.4555C5.30645 10.7563 5.30645 11.2438 5.61322 11.5445L7.78648 13.675C7.93981 13.8253 8.14091 13.9005 8.34189 13.9005C8.54288 13.9005 8.74397 13.8253 8.89731 13.675L13.2439 9.41403C13.5508 9.1133 13.5508 8.6257 13.244 8.32507C12.9374 8.02434 12.44 8.02424 12.1332 8.32497Z" fill="#4F4F4F"/>
</svg>
