<svg width="20" height="17" viewBox="0 0 20 17" fill="none" xmlns="http://www.w3.org/2000/svg">
<path d="M8.16324 15.1018C8.13768 15.0338 8.12888 14.976 8.13755 14.9292C8.14617 14.8827 8.11646 14.8442 8.04834 14.8145C7.98021 14.7849 7.94621 14.7613 7.94621 14.7445C7.94621 14.7276 7.89738 14.7147 7.7995 14.7063C7.70166 14.6978 7.65283 14.6935 7.65283 14.6935H3.67336C3.11215 14.6935 2.63167 14.4938 2.23196 14.0939C1.83235 13.6942 1.63256 13.2139 1.63256 12.6528V3.67318C1.63256 3.11197 1.8323 2.63167 2.23196 2.23201C2.63167 1.8323 3.11215 1.63238 3.67336 1.63238H7.75491C7.86548 1.63238 7.95242 1.60495 8.01635 1.54955C8.08001 1.49429 8.12245 1.41133 8.14381 1.3008C8.16507 1.19028 8.17789 1.09047 8.18218 1.00117C8.18638 0.911951 8.18433 0.799191 8.17575 0.663155C8.1673 0.527165 8.16306 0.442148 8.16306 0.407972C8.16306 0.297446 8.12263 0.201976 8.0419 0.121025C7.96109 0.0404309 7.86548 0 7.75495 0H3.67336C2.66156 0 1.79629 0.359276 1.0777 1.07778C0.359276 1.79629 0 2.66142 0 3.67331V12.6527C0 13.6645 0.359276 14.5299 1.0777 15.2481C1.79629 15.967 2.66156 16.3263 3.67336 16.3263H7.75509C7.86566 16.3263 7.95264 16.2985 8.01653 16.2434C8.08019 16.1881 8.12263 16.1052 8.14398 15.9945C8.16525 15.8842 8.17807 15.7839 8.18236 15.6949C8.18656 15.6056 8.18451 15.4931 8.17593 15.357C8.16739 15.2209 8.16324 15.1359 8.16324 15.1018Z" fill="#4F4F4F"/>
<path d="M19.7576 7.58924L12.819 0.650363C12.6575 0.488997 12.4661 0.408046 12.245 0.408046C12.0239 0.408046 11.8326 0.488997 11.6709 0.650363C11.5093 0.811953 11.4286 1.00347 11.4286 1.22444V4.89788H5.71441C5.49318 4.89788 5.30193 4.97883 5.14034 5.1402C4.97875 5.30179 4.89802 5.49318 4.89802 5.71427V10.6123C4.89802 10.8333 4.97875 11.0247 5.14034 11.1862C5.3021 11.3475 5.49331 11.4287 5.71441 11.4287H11.4287V15.1021C11.4287 15.323 11.5094 15.5145 11.671 15.676C11.8326 15.8376 12.0239 15.9185 12.2451 15.9185C12.4661 15.9185 12.6575 15.8376 12.819 15.676L19.7576 8.73743C19.9192 8.57571 20 8.38459 20 8.16345C20 7.94239 19.9192 7.75083 19.7576 7.58924Z" fill="#4F4F4F"/>
</svg>
