<svg width="29" height="29" viewBox="0 0 29 29" fill="none" xmlns="http://www.w3.org/2000/svg">
<circle cx="14.5" cy="14.5" r="14.5" fill="#45AEE4"/>
<path fill-rule="evenodd" clip-rule="evenodd" d="M10.8919 15.4781L7.93469 14.3141C7.63434 14.1953 7.63173 13.7481 7.93123 13.6263L20.0679 8.68838C20.3252 8.58342 20.5907 8.82117 20.5346 9.10614L18.3566 20.1556C18.3053 20.4164 18.0153 20.5347 17.8106 20.3778L14.8374 18.1012C14.6568 17.9629 14.4107 17.9703 14.2379 18.1188L12.5895 19.5361C12.3981 19.7011 12.1098 19.6092 12.0366 19.3606L10.8919 15.4781ZM17.6304 11.1047L11.8508 14.8589C11.6293 15.0032 11.525 15.2853 11.5966 15.5494L12.2214 17.8652C12.2658 18.0293 12.4917 18.0125 12.5132 17.8429L12.6757 16.573C12.7063 16.3339 12.8144 16.1136 12.9821 15.949L17.7519 11.2728C17.8411 11.1855 17.7342 11.0374 17.6304 11.1047Z" fill="white"/>
<path d="M11.8508 14.8592L17.6304 11.1049C17.7343 11.0376 17.8411 11.1857 17.7519 11.273L12.9821 15.9492C12.8145 16.1138 12.7063 16.3341 12.6757 16.5732L12.5132 17.8432C12.4917 18.0127 12.2658 18.0295 12.2215 17.8654L11.5966 15.5497C11.525 15.2855 11.6293 15.0034 11.8508 14.8592Z" fill="#EAEAEA"/>
</svg>
