<svg width="18" height="17" viewBox="0 0 18 17" fill="none" xmlns="http://www.w3.org/2000/svg">
<path d="M15.9461 4.34983C15.2698 3.17761 14.2998 2.18817 13.141 1.48848L12.8972 1.8922C13.3861 2.18736 13.8326 2.53014 14.2327 2.91261L13.3215 3.82383C12.2527 2.80389 10.8238 2.15873 9.24753 2.09989V0.817266C10.2951 0.848984 11.3029 1.09211 12.2464 1.5417L12.4493 1.11598C11.3713 0.602266 10.2147 0.341797 9.01172 0.341797C6.87481 0.341797 4.86584 1.17392 3.35488 2.68495C1.84388 4.19595 1.01172 6.20492 1.01172 8.3418C1.01172 10.4787 1.84384 12.4877 3.35488 13.9986C4.86588 15.5097 6.87484 16.3418 9.01172 16.3418C11.1486 16.3418 13.1576 15.5097 14.6686 13.9986C16.1795 12.4876 17.0117 10.4787 17.0117 8.3418C17.0117 6.9387 16.6432 5.5583 15.9461 4.34983ZM14.5632 3.24902C15.7733 4.56064 16.4806 6.2672 16.5364 8.10598H15.2536C15.1972 6.59273 14.6002 5.21542 13.6501 4.16211L14.5632 3.24902ZM8.77591 0.817453V2.09989C7.23112 2.15752 5.82816 2.77861 4.76678 3.76339L3.8605 2.85708C5.15475 1.64077 6.87787 0.876141 8.77591 0.817453ZM3.527 3.19055L4.43334 4.09686C3.44856 5.15827 2.82747 6.5612 2.76984 8.10598H1.48737C1.54606 6.20795 2.31069 4.4848 3.527 3.19055ZM1.48737 8.57761H2.76978C2.82859 10.1539 3.47378 11.5828 4.49372 12.6515L3.58794 13.5573C2.33622 12.2561 1.54706 10.5072 1.48737 8.57761ZM8.77591 15.8661C6.90944 15.8084 5.21203 15.0681 3.92531 13.8869L4.83206 12.9801C5.88538 13.9302 7.26269 14.5272 8.77594 14.5837L8.77591 15.8661ZM3.23653 8.3418C3.23653 5.15733 5.82728 2.56661 9.01172 2.56661C12.1962 2.56661 14.7869 5.15736 14.7869 8.3418C14.7869 11.5263 12.1962 14.117 9.01172 14.117C5.82728 14.117 3.23653 11.5263 3.23653 8.3418ZM9.24753 15.8661V14.5837C10.7923 14.5261 12.1953 13.905 13.2567 12.9202L14.163 13.8265C12.8687 15.0428 11.1456 15.8075 9.24753 15.8661ZM14.4964 13.493L13.5901 12.5867C14.5749 11.5253 15.196 10.1224 15.2536 8.57761H16.536C16.4774 10.4756 15.7127 12.1988 14.4964 13.493Z" fill="#4F4F4F"/>
<path d="M9.01166 4.59958C6.94819 4.59958 5.26947 6.27833 5.26947 8.3418C5.26947 9.32673 5.64919 10.2567 6.33866 10.9604L6.6755 10.6303C6.07288 10.0153 5.74103 9.20258 5.74103 8.3418C5.74103 6.53839 7.20822 5.0712 9.01162 5.0712C10.815 5.0712 12.2822 6.53839 12.2822 8.3418C12.2822 10.1452 10.815 11.6124 9.01162 11.6124C8.33887 11.6124 7.69266 11.4096 7.14284 11.026L6.873 11.4128C7.50234 11.8519 8.24187 12.084 9.01162 12.084C11.0751 12.084 12.7538 10.4052 12.7538 8.34177C12.7539 6.27833 11.0751 4.59958 9.01166 4.59958Z" fill="#4F4F4F"/>
<path d="M6.77225 8.3418H7.24384C7.24384 7.36698 8.03691 6.57395 9.01169 6.57395V6.10236C7.77687 6.10233 6.77225 7.10695 6.77225 8.3418Z" fill="#4F4F4F"/>
<path d="M9.01172 10.5813C10.2466 10.5813 11.2512 9.57664 11.2512 8.3418H10.7796C10.7796 9.31661 9.9865 10.1096 9.01175 10.1096L9.01172 10.5813Z" fill="#4F4F4F"/>
<path d="M15.9461 4.34983C15.2698 3.17761 14.2998 2.18817 13.141 1.48848L12.8972 1.8922C13.3861 2.18736 13.8326 2.53014 14.2327 2.91261L13.3215 3.82383C12.2527 2.80389 10.8238 2.15873 9.24753 2.09989V0.817266C10.2951 0.848984 11.3029 1.09211 12.2464 1.5417L12.4493 1.11598C11.3713 0.602266 10.2147 0.341797 9.01172 0.341797C6.87481 0.341797 4.86584 1.17392 3.35488 2.68495C1.84388 4.19595 1.01172 6.20492 1.01172 8.3418C1.01172 10.4787 1.84384 12.4877 3.35488 13.9986C4.86588 15.5097 6.87484 16.3418 9.01172 16.3418C11.1486 16.3418 13.1576 15.5097 14.6686 13.9986C16.1795 12.4876 17.0117 10.4787 17.0117 8.3418C17.0117 6.9387 16.6432 5.5583 15.9461 4.34983ZM14.5632 3.24902C15.7733 4.56064 16.4806 6.2672 16.5364 8.10598H15.2536C15.1972 6.59273 14.6002 5.21542 13.6501 4.16211L14.5632 3.24902ZM8.77591 0.817453V2.09989C7.23112 2.15752 5.82816 2.77861 4.76678 3.76339L3.8605 2.85708C5.15475 1.64077 6.87787 0.876141 8.77591 0.817453ZM3.527 3.19055L4.43334 4.09686C3.44856 5.15827 2.82747 6.5612 2.76984 8.10598H1.48737C1.54606 6.20795 2.31069 4.4848 3.527 3.19055ZM1.48737 8.57761H2.76978C2.82859 10.1539 3.47378 11.5828 4.49372 12.6515L3.58794 13.5573C2.33622 12.2561 1.54706 10.5072 1.48737 8.57761ZM8.77591 15.8661C6.90944 15.8084 5.21203 15.0681 3.92531 13.8869L4.83206 12.9801C5.88538 13.9302 7.26269 14.5272 8.77594 14.5837L8.77591 15.8661ZM3.23653 8.3418C3.23653 5.15733 5.82728 2.56661 9.01172 2.56661C12.1962 2.56661 14.7869 5.15736 14.7869 8.3418C14.7869 11.5263 12.1962 14.117 9.01172 14.117C5.82728 14.117 3.23653 11.5263 3.23653 8.3418ZM9.24753 15.8661V14.5837C10.7923 14.5261 12.1953 13.905 13.2567 12.9202L14.163 13.8265C12.8687 15.0428 11.1456 15.8075 9.24753 15.8661ZM14.4964 13.493L13.5901 12.5867C14.5749 11.5253 15.196 10.1224 15.2536 8.57761H16.536C16.4774 10.4756 15.7127 12.1988 14.4964 13.493Z" stroke="#4F4F4F" stroke-width="0.5"/>
<path d="M9.01166 4.59958C6.94819 4.59958 5.26947 6.27833 5.26947 8.3418C5.26947 9.32673 5.64919 10.2567 6.33866 10.9604L6.6755 10.6303C6.07288 10.0153 5.74103 9.20258 5.74103 8.3418C5.74103 6.53839 7.20822 5.0712 9.01162 5.0712C10.815 5.0712 12.2822 6.53839 12.2822 8.3418C12.2822 10.1452 10.815 11.6124 9.01162 11.6124C8.33887 11.6124 7.69266 11.4096 7.14284 11.026L6.873 11.4128C7.50234 11.8519 8.24187 12.084 9.01162 12.084C11.0751 12.084 12.7538 10.4052 12.7538 8.34177C12.7539 6.27833 11.0751 4.59958 9.01166 4.59958Z" stroke="#4F4F4F" stroke-width="0.5"/>
<path d="M6.77225 8.3418H7.24384C7.24384 7.36698 8.03691 6.57395 9.01169 6.57395V6.10236C7.77687 6.10233 6.77225 7.10695 6.77225 8.3418Z" stroke="#4F4F4F" stroke-width="0.5"/>
<path d="M9.01172 10.5813C10.2466 10.5813 11.2512 9.57664 11.2512 8.3418H10.7796C10.7796 9.31661 9.9865 10.1096 9.01175 10.1096L9.01172 10.5813Z" stroke="#4F4F4F" stroke-width="0.5"/>
</svg>
