<svg width="67" height="66" viewBox="0 0 67 66" fill="none" xmlns="http://www.w3.org/2000/svg">
<g filter="url(#filter0_d)">
<circle cx="32.5391" cy="28.7852" r="22.5" fill="white"/>
<circle cx="32.5391" cy="28.7852" r="22.5" stroke="#D7D7D7" stroke-width="0.5"/>
</g>
<g filter="url(#filter1_d)">
<circle cx="32.5341" cy="28.788" r="19.8368" fill="#FFEECC"/>
<circle cx="32.5341" cy="28.788" r="19.3368" stroke="#F2994A"/>
</g>
<path d="M44.3039 34.9473C44.1781 35.9304 43.9539 36.7837 43.6315 37.5073C43.309 38.2308 42.9197 38.8522 42.4636 39.3712C42.0074 39.8824 41.5001 40.3032 40.9417 40.6335C40.3833 40.9638 39.8053 41.2234 39.2075 41.4121C38.6098 41.6009 38.0082 41.7307 37.4026 41.8014C36.8049 41.8722 36.2307 41.9076 35.6802 41.9076C34.2724 41.9076 32.9826 41.7071 31.8107 41.306C30.6389 40.9049 29.6047 40.3032 28.7081 39.501C27.8115 38.6988 27.0604 37.696 26.4548 36.4927C25.8571 35.2816 25.4285 33.8738 25.1689 32.2693C25.3498 32.3323 25.5425 32.3913 25.747 32.4463C25.9515 32.5014 26.156 32.5485 26.3605 32.5879C26.502 30.9913 26.9189 29.5914 27.611 28.3881C28.3031 27.1769 29.1996 26.1663 30.3007 25.3562C31.4096 24.5383 32.6877 23.9248 34.1348 23.5159C35.5898 23.099 37.1509 22.8906 38.8182 22.8906C39.5811 22.8906 40.3951 22.9299 41.2602 23.0086C42.1332 23.0872 43.0691 23.217 44.068 23.3979C43.8399 24.1136 43.6669 24.8332 43.5489 25.5568C43.4388 26.2725 43.3837 26.9882 43.3837 27.7039C43.3837 28.4589 43.4427 29.206 43.5607 29.9453C43.0967 29.5993 42.6326 29.3122 42.1686 29.0841C41.7046 28.8482 41.2485 28.6634 40.8002 28.5297C40.3597 28.3881 39.9272 28.2898 39.5025 28.2347C39.0778 28.1718 38.6727 28.1404 38.2874 28.1404C37.5638 28.1404 36.8167 28.2426 36.0459 28.4471C35.2752 28.6437 34.5437 28.9347 33.8516 29.3201C33.1674 29.7054 32.554 30.1773 32.0113 30.7357C31.4686 31.2863 31.0636 31.9194 30.7962 32.6351C31.1186 32.5879 31.4293 32.5289 31.7282 32.4581C32.027 32.3795 32.3219 32.2929 32.6129 32.1986C32.5658 32.5446 32.5422 32.8671 32.5422 33.1659C32.5422 33.9052 32.6719 34.5659 32.9315 35.1479C33.191 35.722 33.5449 36.2096 33.9932 36.6107C34.4415 37.0039 34.9724 37.3067 35.5858 37.5191C36.1993 37.7236 36.8599 37.8258 37.5677 37.8258C37.9688 37.8258 38.425 37.7904 38.9362 37.7196C39.4553 37.641 40.0058 37.4994 40.5878 37.2949C41.1698 37.0826 41.7754 36.7916 42.4046 36.4219C43.0338 36.0444 43.6669 35.5529 44.3039 34.9473Z" fill="#F2C94C"/>
<path d="M20.7791 27.503C20.9049 28.4861 21.1291 29.3394 21.4515 30.0629C21.774 30.7865 22.1633 31.4078 22.6195 31.9269C23.0756 32.4381 23.5829 32.8589 24.1413 33.1892C24.6997 33.5195 25.2777 33.779 25.8755 33.9678C26.4732 34.1565 27.0748 34.2863 27.6804 34.3571C28.2781 34.4279 28.8523 34.4633 29.4028 34.4633C30.8106 34.4633 32.1004 34.2627 33.2723 33.8616C34.4441 33.4605 35.4783 32.8589 36.3749 32.0567C37.2715 31.2545 38.0226 30.2517 38.6282 29.0484C39.2259 27.8372 39.6545 26.4294 39.9141 24.825C39.7332 24.8879 39.5405 24.9469 39.336 25.002C39.1315 25.057 38.927 25.1042 38.7226 25.1435C38.581 23.547 38.1642 22.1471 37.4721 20.9438C36.78 19.7326 35.8834 18.722 34.7823 17.9119C33.6734 17.094 32.3954 16.4805 30.9482 16.0715C29.4933 15.6547 27.9321 15.4463 26.2648 15.4463C25.5019 15.4463 24.6879 15.4856 23.8228 15.5643C22.9498 15.6429 22.0139 15.7727 21.015 15.9536C21.2431 16.6693 21.4161 17.3889 21.5341 18.1124C21.6442 18.8281 21.6993 19.5438 21.6993 20.2595C21.6993 21.0145 21.6403 21.7617 21.5223 22.501C21.9863 22.1549 22.4504 21.8679 22.9144 21.6398C23.3784 21.4038 23.8346 21.219 24.2828 21.0853C24.7233 20.9438 25.1558 20.8454 25.5805 20.7904C26.0052 20.7275 26.4103 20.696 26.7956 20.696C27.5192 20.696 28.2664 20.7983 29.0371 21.0027C29.8078 21.1994 30.5393 21.4904 31.2314 21.8757C31.9156 22.2611 32.5291 22.733 33.0717 23.2914C33.6144 23.8419 34.0194 24.475 34.2868 25.1907C33.9644 25.1435 33.6537 25.0845 33.3549 25.0138C33.056 24.9351 32.7611 24.8486 32.4701 24.7542C32.5173 25.1003 32.5408 25.4227 32.5408 25.7216C32.5408 26.4609 32.4111 27.1215 32.1515 27.7035C31.892 28.2776 31.5381 28.7653 31.0898 29.1664C30.6415 29.5596 30.1106 29.8624 29.4972 30.0747C28.8837 30.2792 28.2231 30.3815 27.5153 30.3815C27.1142 30.3815 26.658 30.3461 26.1468 30.2753C25.6277 30.1966 25.0772 30.0551 24.4952 29.8506C23.9132 29.6382 23.3076 29.3472 22.6784 28.9776C22.0493 28.6001 21.4161 28.1085 20.7791 27.503Z" fill="#F2C94C"/>
<path fill-rule="evenodd" clip-rule="evenodd" d="M26.779 30.3446C26.5707 31.0443 26.4312 31.7931 26.3605 32.5911C26.156 32.5518 25.9515 32.5046 25.747 32.4495C25.5425 32.3945 25.3498 32.3355 25.1689 32.2726C25.2566 32.8145 25.3636 33.3341 25.4898 33.8311C25.619 33.8793 25.7491 33.9241 25.8801 33.9655C26.4779 34.1543 27.0795 34.284 27.6851 34.3548C28.2828 34.4256 28.8569 34.461 29.4075 34.461C30.5536 34.461 31.6216 34.3281 32.6113 34.0622C32.5652 33.7785 32.5422 33.4808 32.5422 33.1692C32.5422 32.8703 32.5658 32.5479 32.6129 32.2018C32.3219 32.2962 32.027 32.3827 31.7282 32.4613C31.4293 32.5321 31.1186 32.5911 30.7962 32.6383C31.0636 31.9226 31.4686 31.2895 32.0113 30.739C32.554 30.1806 33.1674 29.7087 33.8516 29.3233C34.5437 28.9379 35.2752 28.6469 36.0459 28.4503C36.8167 28.2458 37.5638 28.1436 38.2874 28.1436C38.5237 28.1436 38.7674 28.1554 39.0185 28.1791C39.4188 27.1769 39.7189 26.0581 39.9187 24.8227C39.7378 24.8856 39.5452 24.9446 39.3407 24.9997C39.1362 25.0547 38.9317 25.1019 38.7272 25.1412C38.6567 24.3454 38.5177 23.5985 38.3104 22.9004C36.8329 22.9386 35.4411 23.1449 34.1348 23.5191C33.9074 23.5834 33.6842 23.6527 33.4652 23.727C33.817 24.1684 34.0924 24.6555 34.2915 25.1884C33.969 25.1412 33.6584 25.0823 33.3595 25.0115C33.0607 24.9328 32.7657 24.8463 32.4747 24.7519C32.5219 25.098 32.5455 25.4204 32.5455 25.7193C32.5455 26.4586 32.4158 27.1192 32.1562 27.7012C31.8967 28.2754 31.5428 28.763 31.0945 29.1641C30.6462 29.5573 30.1153 29.8601 29.5019 30.0724C28.8884 30.2769 28.2278 30.3792 27.5199 30.3792C27.2909 30.3792 27.0439 30.3676 26.779 30.3446Z" fill="#F2994A"/>
<defs>
<filter id="filter0_d" x="0.789062" y="0.0351562" width="65.5" height="65.5" filterUnits="userSpaceOnUse" color-interpolation-filters="sRGB">
<feFlood flood-opacity="0" result="BackgroundImageFix"/>
<feColorMatrix in="SourceAlpha" type="matrix" values="0 0 0 0 0 0 0 0 0 0 0 0 0 0 0 0 0 0 127 0" result="hardAlpha"/>
<feOffset dx="1" dy="4"/>
<feGaussianBlur stdDeviation="5"/>
<feColorMatrix type="matrix" values="0 0 0 0 0.691667 0 0 0 0 0.691667 0 0 0 0 0.691667 0 0 0 0.09 0"/>
<feBlend mode="normal" in2="BackgroundImageFix" result="effect1_dropShadow"/>
<feBlend mode="normal" in="SourceGraphic" in2="effect1_dropShadow" result="shape"/>
</filter>
<filter id="filter1_d" x="4.76254" y="3.66135" width="57.3064" height="57.3064" filterUnits="userSpaceOnUse" color-interpolation-filters="sRGB">
<feFlood flood-opacity="0" result="BackgroundImageFix"/>
<feColorMatrix in="SourceAlpha" type="matrix" values="0 0 0 0 0 0 0 0 0 0 0 0 0 0 0 0 0 0 127 0" result="hardAlpha"/>
<feOffset dx="0.881636" dy="3.52655"/>
<feGaussianBlur stdDeviation="4.40818"/>
<feColorMatrix type="matrix" values="0 0 0 0 0.691667 0 0 0 0 0.691667 0 0 0 0 0.691667 0 0 0 0.09 0"/>
<feBlend mode="normal" in2="BackgroundImageFix" result="effect1_dropShadow"/>
<feBlend mode="normal" in="SourceGraphic" in2="effect1_dropShadow" result="shape"/>
</filter>
</defs>
</svg>
