<svg width="23" height="25" viewBox="0 0 23 25" fill="none" xmlns="http://www.w3.org/2000/svg">
<path d="M22.2007 13.3713C21.0826 12.2583 19.7901 13.3 19.7901 13.3V7.44056C19.7901 7.24379 19.6306 7.08415 19.4339 7.08415C19.2369 7.08415 19.0774 7.24379 19.0774 7.44056V13.8014C19.0774 13.8014 17.378 15.1411 16.6475 15.4686V4.91838C16.6475 4.42793 17.0464 4.02901 17.5369 4.02901H18.1881C18.6785 4.02901 19.0774 4.42793 19.0774 4.91838V5.98149C19.0774 6.17845 19.2369 6.3379 19.4339 6.3379C19.6306 6.3379 19.7901 6.17845 19.7901 5.98149V4.91838C19.7901 4.03495 19.0715 3.31637 18.1881 3.31637H17.5369C16.6535 3.31637 15.9347 4.03495 15.9347 4.91838V15.7511C15.7221 15.8107 15.504 15.8512 15.2824 15.8725V8.3587C15.2824 7.47082 14.5601 6.74852 13.6724 6.74852H13.037C12.1493 6.74852 11.427 7.47082 11.427 8.3587V11.99L10.7745 12.3364V11.128C10.7745 10.3286 10.1242 9.67836 9.32507 9.67836H8.36869C7.56936 9.67836 6.91928 10.3286 6.91928 11.128V14.3828L5.75555 15.0004L2.48768 15.9344C1.91909 16.0968 1.44424 16.4692 1.15094 16.9826C0.857456 17.4963 0.777819 18.0944 0.926697 18.6667L1.29221 20.073C1.34158 20.2635 1.53613 20.3776 1.72677 20.3283C1.91723 20.2787 2.03158 20.0842 1.98202 19.8935L1.61651 18.4874C1.40451 17.6717 1.87324 16.8512 2.68371 16.6197L5.67146 15.7658L7.91705 21.7591C8.06741 22.1605 8.04365 23.3054 6.85579 23.7274L4.59795 24.2403C3.81105 24.4189 3.03566 23.9472 2.83258 23.166L2.37426 21.4023C2.32469 21.2119 2.13015 21.0975 1.93969 21.1469C1.74905 21.1965 1.63488 21.391 1.68426 21.5817L2.14277 23.3455C2.40043 24.3364 3.2807 24.9912 4.26065 24.9912C4.98072 24.9912 7.01376 24.4224 7.01376 24.4224C7.63248 24.282 8.16004 23.8811 8.46095 23.3227C8.70933 22.862 8.78302 22.3318 8.67647 21.8267L16.4879 19.9143C17.1339 19.756 17.7472 19.4491 18.261 19.0268L22.0624 15.9034C23.2213 14.8755 22.5415 13.7105 22.2007 13.3713ZM13.037 7.46135H13.6724C14.1671 7.46135 14.5696 7.86399 14.5696 8.3587V15.8904L12.3206 15.8894C12.114 15.8876 12.2569 15.7511 12.2683 15.7418L12.9159 15.2173C13.5202 14.7277 13.9148 14.0472 14.0888 13.1942C14.1992 12.6531 13.9928 12.1114 13.5504 11.7806C13.1372 11.4718 12.6057 11.4123 12.1398 11.6165V8.3587C12.1398 7.86399 12.5423 7.46135 13.037 7.46135ZM7.6321 11.128C7.6321 10.7218 7.96253 10.3912 8.36869 10.3912H9.32507C9.73123 10.3912 10.0618 10.7218 10.0618 11.128V12.7147L7.63192 14.0045V11.128H7.6321ZM21.61 15.3528L17.8085 18.4762C17.3767 18.8311 16.8614 19.089 16.3184 19.2219L8.44944 21.1486L6.33324 15.5011L12.3756 12.2937C12.6212 12.1632 12.9009 12.185 13.1235 12.3515C13.3461 12.518 13.4459 12.7797 13.3904 13.0519C13.2503 13.7385 12.9397 14.2807 12.4673 14.6633L11.8196 15.1881C11.5541 15.4031 11.4563 15.75 11.5703 16.0721C11.6843 16.394 11.9787 16.6023 12.3202 16.6023L14.9189 16.6034C15.8434 16.6034 16.7318 16.3223 17.4881 15.7905L20.3902 13.7496C20.7966 13.4638 21.3436 13.5143 21.6908 13.8696C21.8907 14.0738 22.282 14.6806 21.61 15.3528Z" fill="url(#paint0_linear)"/>
<path d="M6.5521 21.9874C6.5521 21.2132 5.92225 20.5831 5.14797 20.5831C4.3737 20.5831 3.74385 21.2132 3.74385 21.9874C3.74385 22.7615 4.3737 23.3916 5.14797 23.3916C5.92225 23.3916 6.5521 22.7615 6.5521 21.9874ZM4.45668 21.9874C4.45668 21.6062 4.76669 21.296 5.14797 21.296C5.52908 21.296 5.83927 21.6062 5.83927 21.9874C5.83927 22.3686 5.52926 22.6787 5.14797 22.6787C4.76669 22.6787 4.45668 22.3686 4.45668 21.9874Z" fill="url(#paint1_linear)"/>
<path d="M2.58495 11.8506L7.76595 6.62972L8.93135 7.23247C9.34883 7.44836 9.85691 7.37448 10.1955 7.04851L13.0156 4.33382C13.0156 4.33382 12.938 5.7281 14.1122 5.7281C14.7166 5.7281 15.2085 5.23618 15.2085 4.63157V1.7565C15.2085 1.75316 15.2083 1.74963 15.2083 1.74611C15.2044 0.995965 14.6559 0.660156 14.1122 0.660156H11.2621C10.6575 0.660156 10.1658 1.15208 10.1658 1.7565C10.1658 2.96163 11.3923 2.85284 11.3923 2.85284L9.24079 4.92376L8.0585 4.31229C7.63099 4.09101 7.11586 4.17213 6.77653 4.5137L1.02861 10.306C0.602768 10.7352 0.605367 11.4307 1.03455 11.8566C1.24134 12.0617 1.94749 12.4881 2.58495 11.8506ZM1.53446 10.8081L7.28237 5.01583C7.35663 4.94121 7.4758 4.81052 7.73105 4.94548L9.14018 5.67427C9.27588 5.74444 9.44109 5.72049 9.55117 5.6145L12.5235 2.75335C12.6282 2.65255 12.6613 2.4981 12.6069 2.36333C12.5525 2.22838 12.4218 2.1402 12.2763 2.1402H11.2621C11.0507 2.1402 10.8786 1.96812 10.8786 1.7565C10.8786 1.54507 11.0507 1.37298 11.2621 1.37298H14.1122C14.217 1.37298 14.4955 1.37298 14.4955 1.75427C14.4955 1.75743 14.4957 1.76058 14.4957 1.76393V4.63157C14.4957 4.84301 14.3236 5.01509 14.1122 5.01509C13.9005 5.01509 13.7285 4.84301 13.7285 4.63157V3.49606C13.7285 3.35312 13.6431 3.22392 13.5116 3.16805C13.3802 3.11199 13.228 3.1402 13.125 3.23933L9.70116 6.53505C9.58273 6.64902 9.40489 6.67501 9.25899 6.59946L7.86118 5.87642C7.72288 5.80496 7.55414 5.8315 7.44443 5.94195L2.0791 11.3485C1.84521 11.5824 1.6089 11.4224 1.5365 11.3505C1.38651 11.2015 1.38558 10.9581 1.53446 10.8081Z" fill="url(#paint2_linear)"/>
<defs>
<linearGradient id="paint0_linear" x1="-13.2592" y1="-10.1001" x2="23.05" y2="-9.74568" gradientUnits="userSpaceOnUse">
<stop stop-color="#0B9985"/>
<stop offset="1" stop-color="#0B9985"/>
</linearGradient>
<linearGradient id="paint1_linear" x1="-13.2592" y1="-10.1001" x2="23.05" y2="-9.74568" gradientUnits="userSpaceOnUse">
<stop stop-color="#0B9985"/>
<stop offset="1" stop-color="#0B9985"/>
</linearGradient>
<linearGradient id="paint2_linear" x1="-13.2592" y1="-10.1001" x2="23.05" y2="-9.74568" gradientUnits="userSpaceOnUse">
<stop stop-color="#0B9985"/>
<stop offset="1" stop-color="#0B9985"/>
</linearGradient>
</defs>
</svg>
