<svg width="31" height="31" viewBox="0 0 31 31" fill="none" xmlns="http://www.w3.org/2000/svg">
<circle cx="15.3711" cy="15.6816" r="15" fill="url(#paint0_linear)"/>
<path d="M25.9507 7.06241C25.0297 7.71205 24.0099 8.20893 22.9307 8.5339C22.3515 7.86789 21.5817 7.39584 20.7255 7.18159C19.8692 6.96735 18.9678 7.02124 18.1432 7.33598C17.3186 7.65072 16.6105 8.21113 16.1147 8.94141C15.619 9.67168 15.3595 10.5366 15.3713 11.4192V12.3809C13.6812 12.4248 12.0064 12.0499 10.4962 11.2898C8.98597 10.5296 7.68719 9.40778 6.71551 8.02416C6.71551 8.02416 2.86848 16.68 11.5243 20.527C9.54358 21.8715 7.18403 22.5457 4.79199 22.4505C13.4478 27.2593 24.0271 22.4505 24.0271 11.3903C24.0263 11.1224 24.0005 10.8552 23.9502 10.5921C24.9318 9.62404 25.6245 8.40186 25.9507 7.06241Z" fill="white"/>
<defs>
<linearGradient id="paint0_linear" x1="-18.6791" y1="-12.5857" x2="30.8324" y2="-12.0512" gradientUnits="userSpaceOnUse">
<stop stop-color="#0B9985"/>
<stop offset="1" stop-color="#0B9985"/>
</linearGradient>
</defs>
</svg>
