<svg width="29" height="29" viewBox="0 0 29 29" fill="none" xmlns="http://www.w3.org/2000/svg">
<circle cx="14.5" cy="14.5" r="14.5" fill="#2AA3EF"/>
<path fill-rule="evenodd" clip-rule="evenodd" d="M20.4487 10.8122C20.0112 11.0062 19.5402 11.1374 19.0467 11.1968C19.5507 10.8943 19.9378 10.4165 20.1197 9.84681C19.648 10.1265 19.1258 10.3295 18.5694 10.4386C18.1242 9.9642 17.4901 9.66797 16.7881 9.66797C15.44 9.66797 14.3467 10.7604 14.3467 12.1083C14.3467 12.3003 14.3691 12.486 14.4104 12.6648C12.382 12.5633 10.5839 11.5911 9.37999 10.1147C9.16931 10.4752 9.04962 10.8943 9.04962 11.3418C9.04962 12.1884 9.48078 12.9355 10.1352 13.3726C9.73485 13.3602 9.35829 13.2504 9.03002 13.0674C9.03002 13.0778 9.03002 13.0881 9.03002 13.0985C9.03002 14.2807 9.87064 15.2667 10.9877 15.4912C10.7827 15.5471 10.5678 15.5768 10.3445 15.5768C10.1877 15.5768 10.0344 15.5616 9.88534 15.5326C10.1961 16.5021 11.0976 17.2078 12.1657 17.2278C11.33 17.8818 10.2773 18.2719 9.13361 18.2719C8.93693 18.2719 8.74235 18.2609 8.55127 18.2381C9.63126 18.9307 10.9142 19.3346 12.2931 19.3346C16.7825 19.3346 19.2378 15.6162 19.2378 12.3914C19.2378 12.2851 19.235 12.1808 19.2308 12.0758C19.7075 11.7319 20.1218 11.3018 20.4487 10.8129V10.8122Z" fill="white"/>
</svg>
