<svg width="31" height="31" viewBox="0 0 31 31" fill="none" xmlns="http://www.w3.org/2000/svg">
<circle cx="15.4902" cy="15.1699" r="15" fill="url(#paint0_linear)"/>
<path d="M26.0698 6.55093C25.1488 7.20058 24.1291 7.69745 23.0499 8.02242C22.4707 7.35641 21.7009 6.88436 20.8446 6.67012C19.9884 6.45587 19.087 6.50976 18.2623 6.82451C17.4377 7.13925 16.7296 7.69966 16.2339 8.42993C15.7381 9.16021 15.4786 10.0251 15.4905 10.9077V11.8695C13.8003 11.9133 12.1255 11.5384 10.6153 10.7783C9.10511 10.0181 7.80633 8.89631 6.83465 7.51269C6.83465 7.51269 2.98762 16.1685 11.6434 20.0155C9.66272 21.36 7.30318 22.0342 4.91113 21.9391C13.567 26.7478 24.1463 21.9391 24.1463 10.8788C24.1454 10.6109 24.1196 10.3437 24.0693 10.0806C25.0509 9.11257 25.7436 7.89038 26.0698 6.55093Z" fill="white"/>
<defs>
<linearGradient id="paint0_linear" x1="-18.56" y1="-13.0974" x2="30.9515" y2="-12.5629" gradientUnits="userSpaceOnUse">
<stop stop-color="#0B9985"/>
<stop offset="1" stop-color="#0B9985"/>
</linearGradient>
</defs>
</svg>
