<svg width="38" height="39" viewBox="0 0 38 39" fill="none" xmlns="http://www.w3.org/2000/svg">
<circle cx="18.9039" cy="19.3287" r="18.3746" stroke="url(#paint0_linear)"/>
<path d="M27.7671 25.635C27.529 24.2054 26.5266 23.0323 25.1512 22.5738L22.0982 21.5562V21.1023H21.3885V21.768L20.8587 23.8867L19.4255 22.1668H18.3834L16.9502 23.8867L16.4208 21.768V21.1023H15.7111V21.5562L12.6581 22.5738C11.2831 23.0323 10.2806 24.2054 10.0422 25.635L9.25977 30.3281H28.5492L27.7671 25.635ZM17.1776 29.6184H13.2645L13.5803 26.4604L12.8742 26.3898L12.5512 29.6188H10.0979L10.7423 25.7521C10.9371 24.5822 11.7575 23.6227 12.8827 23.2473L15.8147 22.2697L16.601 25.4147L17.4012 24.4545L17.8245 25.0896L17.1776 29.6184ZM19.9149 29.6184H17.8944L18.5654 24.9214L17.8749 23.8857L18.7159 22.8765H19.0931L19.934 23.8857L19.2435 24.9214L19.9149 29.6184ZM25.258 29.6184L24.9351 26.3894L24.229 26.46L24.5448 29.6181H20.6316L19.9848 25.0893L20.4081 24.4541L21.2082 25.4143L21.9946 22.2694L24.9266 23.247C26.0518 23.622 26.8718 24.5819 27.067 25.7518L27.7114 29.6184H25.258Z" fill="url(#paint1_linear)"/>
<path d="M14.4486 17.8889C14.6295 18.5116 14.9638 19.0826 15.435 19.5538L16.8189 20.9377C17.1539 21.2726 17.5992 21.4572 18.0732 21.4572H19.7364C20.2101 21.4572 20.6558 21.2726 20.9907 20.9377L22.3746 19.5538C22.8458 19.0826 23.1801 18.5113 23.3611 17.8889C24.245 17.7888 24.9369 17.0451 24.9369 16.1346C24.9369 15.5523 24.6509 15.0388 24.2162 14.7152H24.2272V12.5862C24.2272 11.698 23.5708 10.96 22.7177 10.8319C22.1837 9.3458 20.7548 8.32812 19.1601 8.32812H18.9046C15.9698 8.32812 13.5821 10.7158 13.5821 13.6507V14.7152H13.5931C13.1584 15.0388 12.8724 15.5523 12.8724 16.1346C12.8724 17.0451 13.5643 17.7888 14.4486 17.8889ZM22.8079 16.7935C22.8079 17.6469 22.4757 18.4488 21.8725 19.0521L20.4886 20.4359C20.2906 20.6339 20.0163 20.7475 19.736 20.7475H18.0729C17.7926 20.7475 17.5186 20.6339 17.3203 20.4359L15.9364 19.0521C15.3332 18.4488 15.0011 17.6469 15.0011 16.7939V15.0701H16.3952C17.9569 15.0701 19.4333 14.5154 20.6001 13.4995L20.7086 13.6805C21.1614 14.4353 21.9449 14.937 22.8079 15.0463V16.7935ZM24.2272 16.1346C24.2272 16.6026 23.9213 16.9968 23.5009 17.1388C23.5108 17.0249 23.5175 16.9099 23.5175 16.7939V15.1354C23.9295 15.2823 24.2272 15.6726 24.2272 16.1346ZM14.2917 13.6507C14.2917 11.1072 16.3612 9.0378 18.9046 9.0378H19.1601C20.5234 9.0378 21.7373 9.95329 22.112 11.2644L22.1855 11.5217H22.453C23.0399 11.5217 23.5175 11.9993 23.5175 12.5862V14.3962C23.4029 14.3728 23.2841 14.3604 23.1627 14.3604C22.4112 14.3604 21.704 13.9601 21.3172 13.3154L20.7491 12.3687L20.4276 12.6902C19.3507 13.7671 17.9189 14.3604 16.3956 14.3604H14.6466C14.5252 14.3604 14.4063 14.3728 14.2917 14.3962V13.6507ZM14.2917 15.1354V16.7939C14.2917 16.9099 14.2985 17.0249 14.3084 17.1391C13.8879 16.9968 13.5821 16.6026 13.5821 16.1346C13.5821 15.6726 13.8798 15.2823 14.2917 15.1354Z" fill="url(#paint2_linear)"/>
<path d="M27.7671 25.635C27.529 24.2054 26.5266 23.0323 25.1512 22.5738L22.0982 21.5562V21.1023H21.3885V21.768L20.8587 23.8867L19.4255 22.1668H18.3834L16.9502 23.8867L16.4208 21.768V21.1023H15.7111V21.5562L12.6581 22.5738C11.2831 23.0323 10.2806 24.2054 10.0422 25.635L9.25977 30.3281H28.5492L27.7671 25.635ZM17.1776 29.6184H13.2645L13.5803 26.4604L12.8742 26.3898L12.5512 29.6188H10.0979L10.7423 25.7521C10.9371 24.5822 11.7575 23.6227 12.8827 23.2473L15.8147 22.2697L16.601 25.4147L17.4012 24.4545L17.8245 25.0896L17.1776 29.6184ZM19.9149 29.6184H17.8944L18.5654 24.9214L17.8749 23.8857L18.7159 22.8765H19.0931L19.934 23.8857L19.2435 24.9214L19.9149 29.6184ZM25.258 29.6184L24.9351 26.3894L24.229 26.46L24.5448 29.6181H20.6316L19.9848 25.0893L20.4081 24.4541L21.2082 25.4143L21.9946 22.2694L24.9266 23.247C26.0518 23.622 26.8718 24.5819 27.067 25.7518L27.7114 29.6184H25.258Z" stroke="url(#paint3_linear)" stroke-width="0.2"/>
<path d="M14.4486 17.8889C14.6295 18.5116 14.9638 19.0826 15.435 19.5538L16.8189 20.9377C17.1539 21.2726 17.5992 21.4572 18.0732 21.4572H19.7364C20.2101 21.4572 20.6558 21.2726 20.9907 20.9377L22.3746 19.5538C22.8458 19.0826 23.1801 18.5113 23.3611 17.8889C24.245 17.7888 24.9369 17.0451 24.9369 16.1346C24.9369 15.5523 24.6509 15.0388 24.2162 14.7152H24.2272V12.5862C24.2272 11.698 23.5708 10.96 22.7177 10.8319C22.1837 9.3458 20.7548 8.32812 19.1601 8.32812H18.9046C15.9698 8.32812 13.5821 10.7158 13.5821 13.6507V14.7152H13.5931C13.1584 15.0388 12.8724 15.5523 12.8724 16.1346C12.8724 17.0451 13.5643 17.7888 14.4486 17.8889ZM22.8079 16.7935C22.8079 17.6469 22.4757 18.4488 21.8725 19.0521L20.4886 20.4359C20.2906 20.6339 20.0163 20.7475 19.736 20.7475H18.0729C17.7926 20.7475 17.5186 20.6339 17.3203 20.4359L15.9364 19.0521C15.3332 18.4488 15.0011 17.6469 15.0011 16.7939V15.0701H16.3952C17.9569 15.0701 19.4333 14.5154 20.6001 13.4995L20.7086 13.6805C21.1614 14.4353 21.9449 14.937 22.8079 15.0463V16.7935ZM24.2272 16.1346C24.2272 16.6026 23.9213 16.9968 23.5009 17.1388C23.5108 17.0249 23.5175 16.9099 23.5175 16.7939V15.1354C23.9295 15.2823 24.2272 15.6726 24.2272 16.1346ZM14.2917 13.6507C14.2917 11.1072 16.3612 9.0378 18.9046 9.0378H19.1601C20.5234 9.0378 21.7373 9.95329 22.112 11.2644L22.1855 11.5217H22.453C23.0399 11.5217 23.5175 11.9993 23.5175 12.5862V14.3962C23.4029 14.3728 23.2841 14.3604 23.1627 14.3604C22.4112 14.3604 21.704 13.9601 21.3172 13.3154L20.7491 12.3687L20.4276 12.6902C19.3507 13.7671 17.9189 14.3604 16.3956 14.3604H14.6466C14.5252 14.3604 14.4063 14.3728 14.2917 14.3962V13.6507ZM14.2917 15.1354V16.7939C14.2917 16.9099 14.2985 17.0249 14.3084 17.1391C13.8879 16.9968 13.5821 16.6026 13.5821 16.1346C13.5821 15.6726 13.8798 15.2823 14.2917 15.1354Z" stroke="url(#paint4_linear)" stroke-width="0.2"/>
<defs>
<linearGradient id="paint0_linear" x1="-23.9417" y1="-16.2403" x2="38.359" y2="-15.5678" gradientUnits="userSpaceOnUse">
<stop stop-color="#0B9985"/>
<stop offset="1" stop-color="#0B9985"/>
</linearGradient>
<linearGradient id="paint1_linear" x1="-2.98913" y1="-1.40124" x2="28.8466" y2="-1.09992" gradientUnits="userSpaceOnUse">
<stop stop-color="#0B9985"/>
<stop offset="1" stop-color="#0B9985"/>
</linearGradient>
<linearGradient id="paint2_linear" x1="-2.98913" y1="-1.40124" x2="28.8466" y2="-1.09992" gradientUnits="userSpaceOnUse">
<stop stop-color="#0B9985"/>
<stop offset="1" stop-color="#0B9985"/>
</linearGradient>
<linearGradient id="paint3_linear" x1="-2.98913" y1="-1.40124" x2="28.8466" y2="-1.09992" gradientUnits="userSpaceOnUse">
<stop stop-color="#0B9985"/>
<stop offset="1" stop-color="#0B9985"/>
</linearGradient>
<linearGradient id="paint4_linear" x1="-2.98913" y1="-1.40124" x2="28.8466" y2="-1.09992" gradientUnits="userSpaceOnUse">
<stop stop-color="#0B9985"/>
<stop offset="1" stop-color="#0B9985"/>
</linearGradient>
</defs>
</svg>
