<svg width="15" height="15" viewBox="0 0 15 15" fill="none" xmlns="http://www.w3.org/2000/svg">
<path d="M13.7638 8.72152C13.3596 8.72152 13.0022 8.98204 12.8775 9.3667C12.2035 11.4488 10.2492 12.9595 7.94532 12.9595C5.08516 12.9595 2.75813 10.6322 2.75813 7.77185C2.75813 5.47748 4.25633 3.52941 6.32567 2.84774C6.72523 2.71609 6.99594 2.34251 6.99594 1.92134C6.99594 1.62301 6.85319 1.34257 6.61214 1.16714C6.37108 0.991444 6.06046 0.941862 5.7768 1.0332C2.92734 1.95087 0.859375 4.62163 0.859375 7.77195C0.859375 11.6795 4.038 14.8583 7.9453 14.8583C11.083 14.8583 13.7448 12.8066 14.6724 9.9752C14.7678 9.68404 14.7178 9.36489 14.5379 9.11672C14.3585 8.86868 14.0707 8.72152 13.7638 8.72152Z" fill="white"/>
<path d="M9.53894 2.83958C11.1141 3.3495 12.3605 4.59318 12.8741 6.16667C13.0021 6.55837 13.3669 6.82287 13.779 6.82287H13.7986C14.0961 6.82287 14.3758 6.68059 14.5509 6.44021C14.7257 6.19986 14.7757 5.88995 14.6845 5.60675C13.9896 3.44613 12.2842 1.73722 10.1254 1.03728C9.83936 0.944606 9.52555 0.994408 9.28222 1.17123C9.03885 1.34829 8.89469 1.6311 8.89469 1.93211V1.95276C8.89459 2.35654 9.15506 2.7151 9.53894 2.83958Z" fill="white"/>
</svg>
