<svg width="24" height="23" viewBox="0 0 24 23" fill="none" xmlns="http://www.w3.org/2000/svg">
<path d="M19.8795 6.48784H3.54308C1.68839 6.48784 0.179688 7.99654 0.179688 9.85118V19.4608C0.179688 21.3155 1.68839 22.8242 3.54308 22.8242H19.8795C21.7342 22.8242 23.2429 21.3155 23.2429 19.4608V9.85118C23.2429 7.99654 21.7342 6.48784 19.8795 6.48784ZM22.2819 19.4609C22.2819 20.7851 21.2047 21.8633 19.8795 21.8633H3.54308C2.2179 21.8633 1.14068 20.7851 1.14068 19.4609V9.85118C1.14068 8.52699 2.21794 7.44879 3.54308 7.44879H19.8795C21.2047 7.44879 22.2819 8.52699 22.2819 9.85118V19.4609Z" fill="url(#paint0_linear)"/>
<path d="M18.9185 13.2146C18.1238 13.2146 17.4771 13.8613 17.4771 14.656C17.4771 15.4507 18.1238 16.0975 18.9185 16.0975C19.7132 16.0975 20.36 15.4507 20.36 14.656C20.36 13.8613 19.7132 13.2146 18.9185 13.2146ZM18.9185 15.1365C18.6542 15.1365 18.438 14.9212 18.438 14.656C18.438 14.3908 18.6542 14.1755 18.9185 14.1755C19.1828 14.1755 19.399 14.3908 19.399 14.656C19.399 14.9212 19.1828 15.1365 18.9185 15.1365Z" fill="url(#paint1_linear)"/>
<path d="M22.7624 11.2926H18.9185C17.0639 11.2926 15.5551 12.8013 15.5551 14.656C15.5551 16.5107 17.0638 18.0194 18.9185 18.0194H22.7624C23.0276 18.0194 23.2429 17.8041 23.2429 17.5389V11.7731C23.2429 11.5079 23.0276 11.2926 22.7624 11.2926ZM22.2819 17.0584H18.9185C17.5933 17.0584 16.5161 15.9802 16.5161 14.656C16.5161 13.3318 17.5934 12.2536 18.9185 12.2536H22.2819V17.0584Z" fill="url(#paint2_linear)"/>
<path d="M19.8288 6.75311L17.7945 2.68436C17.3841 1.86368 16.6759 1.25926 15.8014 0.982501C14.927 0.706689 14.0006 0.793176 13.1915 1.22755L3.31561 6.54555C3.08209 6.67046 2.99466 6.96262 3.12052 7.19613C3.24642 7.42965 3.53854 7.51708 3.77111 7.39123L13.6489 2.07512C14.2254 1.76377 14.8894 1.70129 15.5122 1.89926C16.1368 2.09625 16.6422 2.52868 16.9354 3.1149L18.9697 7.18361C19.0543 7.35177 19.2234 7.44884 19.3993 7.44884C19.4714 7.44884 19.5444 7.43249 19.6136 7.39789C19.8509 7.27875 19.947 6.99046 19.8288 6.75311Z" fill="url(#paint3_linear)"/>
<path d="M17.9005 2.89757C17.7737 2.66311 17.4815 2.57662 17.249 2.70153L10.11 6.54537C9.87645 6.67127 9.78902 6.96244 9.91488 7.19596C10.0014 7.3574 10.1666 7.44871 10.3377 7.44871C10.4146 7.44871 10.4934 7.43046 10.5664 7.39199L17.7054 3.54815C17.9389 3.42225 18.0264 3.13108 17.9005 2.89757Z" fill="url(#paint4_linear)"/>
<path d="M8.82838 3.60493H5.46498C2.55137 3.60493 0.179688 5.97562 0.179688 8.89023V9.85118C0.179688 10.1164 0.394959 10.3317 0.660185 10.3317C0.925412 10.3317 1.14068 10.1164 1.14068 9.85118V8.89023C1.14068 6.50607 3.08087 4.56588 5.46503 4.56588H8.82838C9.0936 4.56588 9.30888 4.35061 9.30888 4.08538C9.30888 3.82016 9.0936 3.60493 8.82838 3.60493Z" fill="url(#paint5_linear)"/>
<path d="M17.9576 3.60493C17.6923 3.60493 17.4771 3.8202 17.4771 4.08543C17.4771 4.35066 17.6923 4.56593 17.9576 4.56593C20.3417 4.56593 22.2819 6.50612 22.2819 8.89027V9.85118C22.2819 10.1164 22.4972 10.3317 22.7624 10.3317C23.0276 10.3317 23.2429 10.1164 23.2429 9.85118V8.89027C23.2429 5.97562 20.8712 3.60493 17.9576 3.60493Z" fill="url(#paint6_linear)"/>
<defs>
<linearGradient id="paint0_linear" x1="-14.4656" y1="-8.90514" x2="23.5971" y2="-8.47441" gradientUnits="userSpaceOnUse">
<stop stop-color="#0B9985"/>
<stop offset="1" stop-color="#0B9985"/>
</linearGradient>
<linearGradient id="paint1_linear" x1="-14.4656" y1="-8.90514" x2="23.5971" y2="-8.47441" gradientUnits="userSpaceOnUse">
<stop stop-color="#0B9985"/>
<stop offset="1" stop-color="#0B9985"/>
</linearGradient>
<linearGradient id="paint2_linear" x1="-14.4656" y1="-8.90514" x2="23.5971" y2="-8.47441" gradientUnits="userSpaceOnUse">
<stop stop-color="#0B9985"/>
<stop offset="1" stop-color="#0B9985"/>
</linearGradient>
<linearGradient id="paint3_linear" x1="-14.4656" y1="-8.90514" x2="23.5971" y2="-8.47441" gradientUnits="userSpaceOnUse">
<stop stop-color="#0B9985"/>
<stop offset="1" stop-color="#0B9985"/>
</linearGradient>
<linearGradient id="paint4_linear" x1="-14.4656" y1="-8.90514" x2="23.5971" y2="-8.47441" gradientUnits="userSpaceOnUse">
<stop stop-color="#0B9985"/>
<stop offset="1" stop-color="#0B9985"/>
</linearGradient>
<linearGradient id="paint5_linear" x1="-14.4656" y1="-8.90514" x2="23.5971" y2="-8.47441" gradientUnits="userSpaceOnUse">
<stop stop-color="#0B9985"/>
<stop offset="1" stop-color="#0B9985"/>
</linearGradient>
<linearGradient id="paint6_linear" x1="-14.4656" y1="-8.90514" x2="23.5971" y2="-8.47441" gradientUnits="userSpaceOnUse">
<stop stop-color="#0B9985"/>
<stop offset="1" stop-color="#0B9985"/>
</linearGradient>
</defs>
</svg>
