<svg width="18" height="19" viewBox="0 0 18 19" fill="none" xmlns="http://www.w3.org/2000/svg">
<path d="M15.3733 0.970703H2.20459C1.09317 0.970703 0.188965 1.87491 0.188965 2.98633V7.01758C0.188965 8.12899 1.09317 9.0332 2.20459 9.0332H2.87646V7.68945H2.20459C1.83412 7.68945 1.53271 7.38805 1.53271 7.01758V2.98633C1.53271 2.61586 1.83412 2.31445 2.20459 2.31445H15.3733C15.7438 2.31445 16.0452 2.61586 16.0452 2.98633V7.01758C16.0452 7.38805 15.7438 7.68945 15.3733 7.68945H14.7015V9.0332H15.3733C16.4848 9.0332 17.389 8.12899 17.389 7.01758V2.98633C17.389 1.87491 16.4848 0.970703 15.3733 0.970703Z" fill="url(#paint0_linear)"/>
<path d="M14.7016 5.00195V3.6582H2.8766V5.00195H4.08598V16.1551C4.08598 17.2665 4.99018 18.1707 6.1016 18.1707H11.4766C12.588 18.1707 13.4922 17.2665 13.4922 16.1551V5.00195H14.7016ZM5.42973 16.1551V15.4832H6.1016C6.47207 15.4832 6.77348 15.7846 6.77348 16.1551V16.827H6.1016C5.73113 16.827 5.42973 16.5256 5.42973 16.1551ZM11.4766 16.827H10.8047V16.1551C10.8047 15.7846 11.1061 15.4832 11.4766 15.4832H12.1485V16.1551C12.1485 16.5256 11.8471 16.827 11.4766 16.827ZM12.1485 14.1395H11.4766C10.3652 14.1395 9.46098 15.0437 9.46098 16.1551V16.827H8.11723V16.1551C8.11723 15.0437 7.21302 14.1395 6.1016 14.1395H5.42973V5.00195H12.1485V14.1395Z" fill="url(#paint1_linear)"/>
<path d="M8.7891 11.7207C9.90052 11.7207 10.8047 10.8165 10.8047 9.70508C10.8047 8.59366 9.90052 7.68945 8.7891 7.68945C7.67768 7.68945 6.77348 8.59366 6.77348 9.70508C6.77348 10.8165 7.67768 11.7207 8.7891 11.7207ZM8.7891 9.0332C9.15957 9.0332 9.46097 9.33461 9.46097 9.70508C9.46097 10.0756 9.15957 10.377 8.7891 10.377C8.41863 10.377 8.11723 10.0756 8.11723 9.70508C8.11723 9.33461 8.41863 9.0332 8.7891 9.0332Z" fill="url(#paint2_linear)"/>
<defs>
<linearGradient id="paint0_linear" x1="-10.7332" y1="-6.63589" x2="17.6534" y2="-6.32947" gradientUnits="userSpaceOnUse">
<stop stop-color="#0B9985"/>
<stop offset="1" stop-color="#0B9985"/>
</linearGradient>
<linearGradient id="paint1_linear" x1="-10.7332" y1="-6.63589" x2="17.6534" y2="-6.32947" gradientUnits="userSpaceOnUse">
<stop stop-color="#0B9985"/>
<stop offset="1" stop-color="#0B9985"/>
</linearGradient>
<linearGradient id="paint2_linear" x1="-10.7332" y1="-6.63589" x2="17.6534" y2="-6.32947" gradientUnits="userSpaceOnUse">
<stop stop-color="#0B9985"/>
<stop offset="1" stop-color="#0B9985"/>
</linearGradient>
</defs>
</svg>
