<svg width="72" height="80" viewBox="0 0 72 80" fill="none" xmlns="http://www.w3.org/2000/svg">
<path d="M19.6838 11.3868L36.1704 20.9554L52.6569 11.3868M19.6838 68.7248V49.6244L3.19727 40.0558M69.1435 40.0558L52.6569 49.6244V68.7248M4.18646 21.5074L36.1704 40.0926L68.1543 21.5074M36.1704 77.1525V40.0558M69.1435 54.7767V25.3348C69.1422 24.0441 68.803 22.7764 68.1599 21.6589C67.5169 20.5414 66.5926 19.6134 65.4798 18.968L39.8341 4.2471C38.7202 3.60109 37.4566 3.26099 36.1704 3.26099C34.8842 3.26099 33.6206 3.60109 32.5067 4.2471L6.86094 18.968C5.74815 19.6134 4.82387 20.5414 4.18082 21.6589C3.53778 22.7764 3.19858 24.0441 3.19727 25.3348V54.7767C3.19858 56.0675 3.53778 57.3352 4.18082 58.4527C4.82387 59.5702 5.74815 60.4982 6.86094 61.1435L32.5067 75.8645C33.6206 76.5105 34.8842 76.8506 36.1704 76.8506C37.4566 76.8506 38.7202 76.5105 39.8341 75.8645L65.4798 61.1435C66.5926 60.4982 67.5169 59.5702 68.1599 58.4527C68.803 57.3352 69.1422 56.0675 69.1435 54.7767Z" stroke="url(#paint0_linear)" stroke-width="5.68343" stroke-linecap="round" stroke-linejoin="round"/>
<defs>
<linearGradient id="paint0_linear" x1="-38.679" y1="-29.4171" x2="70.1601" y2="-28.3685" gradientUnits="userSpaceOnUse">
<stop stop-color="#0B9985"/>
<stop offset="1" stop-color="#0B9985"/>
</linearGradient>
</defs>
</svg>
