<svg width="98" height="25" viewBox="0 0 98 25" fill="none" xmlns="http://www.w3.org/2000/svg">
<rect x="0.380859" y="0.838623" width="97.468" height="23.3067" rx="11.6533" fill="#F2C94C"/>
<path d="M36.4756 15.9921H37.7412V9.828H36.4756V15.9921ZM37.1084 8.92566C37.5186 8.92566 37.8467 8.60339 37.8467 8.20496C37.8467 7.80066 37.5186 7.47839 37.1084 7.47839C36.7041 7.47839 36.376 7.80066 36.376 8.20496C36.376 8.60339 36.7041 8.92566 37.1084 8.92566ZM39.0361 15.9921H40.3018V12.4003C40.3018 11.4452 40.876 10.8124 41.7666 10.8124C42.6455 10.8124 43.0791 11.3221 43.0791 12.2479V15.9921H44.3506V12.0018C44.3506 10.5897 43.5713 9.72253 42.2119 9.72253C41.2627 9.72253 40.6064 10.1561 40.2725 10.8593H40.2432V9.828H39.0361V15.9921ZM50.8662 11.9491C50.7549 10.7362 49.7881 9.71667 48.2002 9.71667C46.4482 9.71667 45.2998 10.953 45.2998 12.91C45.2998 14.9022 46.4482 16.1093 48.2119 16.1093C49.6943 16.1093 50.7432 15.2186 50.8779 13.9061H49.6592C49.5127 14.621 49.0029 15.0487 48.2236 15.0487C47.2393 15.0487 46.5889 14.2635 46.5889 12.91C46.5889 11.5858 47.2334 10.7714 48.2119 10.7714C49.0381 10.7714 49.5303 11.2928 49.6592 11.9491H50.8662ZM54.4229 16.1093C56.1865 16.1093 57.3467 14.8964 57.3467 12.91C57.3467 10.9296 56.1807 9.71667 54.4229 9.71667C52.665 9.71667 51.499 10.9296 51.499 12.91C51.499 14.8964 52.6592 16.1093 54.4229 16.1093ZM54.4229 15.0663C53.4326 15.0663 52.7881 14.2811 52.7881 12.91C52.7881 11.5448 53.4326 10.7596 54.4229 10.7596C55.4131 10.7596 56.0576 11.5448 56.0576 12.91C56.0576 14.2811 55.4189 15.0663 54.4229 15.0663ZM58.3252 15.9921H59.5908V12.1835C59.5908 11.3925 60.124 10.8065 60.874 10.8065C61.5889 10.8065 62.04 11.2577 62.04 11.9667V15.9921H63.2822V12.1425C63.2822 11.3632 63.8037 10.8065 64.5537 10.8065C65.3037 10.8065 65.7314 11.2635 65.7314 12.0604V15.9921H67.0029V11.7557C67.0029 10.5311 66.2061 9.72253 64.9873 9.72253C64.1084 9.72253 63.3818 10.1796 63.0654 10.9296H63.0361C62.79 10.162 62.1689 9.72253 61.3135 9.72253C60.4814 9.72253 59.8369 10.1796 59.5615 10.8651H59.5322V9.828H58.3252V15.9921ZM68.2686 15.9921H69.5342V9.828H68.2686V15.9921ZM68.9014 8.92566C69.3115 8.92566 69.6396 8.60339 69.6396 8.20496C69.6396 7.80066 69.3115 7.47839 68.9014 7.47839C68.4971 7.47839 68.1689 7.80066 68.1689 8.20496C68.1689 8.60339 68.4971 8.92566 68.9014 8.92566ZM70.8291 15.9921H72.0947V12.4003C72.0947 11.4452 72.6689 10.8124 73.5596 10.8124C74.4385 10.8124 74.8721 11.3221 74.8721 12.2479V15.9921H76.1436V12.0018C76.1436 10.5897 75.3643 9.72253 74.0049 9.72253C73.0557 9.72253 72.3994 10.1561 72.0654 10.8593H72.0361V9.828H70.8291V15.9921ZM79.9932 14.9667C79.0205 14.9667 78.3877 14.1815 78.3877 12.8925C78.3877 11.6093 79.0205 10.7948 79.9932 10.7948C80.9834 10.7948 81.6338 11.6268 81.6338 12.8925C81.6338 14.1639 80.9834 14.9667 79.9932 14.9667ZM80.0049 18.3124C81.7627 18.3124 82.8994 17.3514 82.8994 15.8807V9.828H81.6689V10.8827H81.6455C81.2705 10.1678 80.5557 9.72839 79.6826 9.72839C78.1006 9.72839 77.0928 10.9471 77.0928 12.8866C77.0928 14.8085 78.1064 16.0155 79.6533 16.0155C80.5322 16.0155 81.2588 15.576 81.6045 14.9081H81.6279V15.9218C81.6279 16.7655 81.042 17.328 80.0518 17.328C79.3311 17.328 78.7686 16.9882 78.5869 16.4725H77.3154C77.4736 17.5389 78.5518 18.3124 80.0049 18.3124Z" fill="white"/>
<path d="M27.3244 14.1835C26.9201 14.1835 26.5627 14.444 26.438 14.8287C25.764 16.9108 23.8097 18.4215 21.5059 18.4215C18.6457 18.4215 16.3187 16.0942 16.3187 13.2338C16.3187 10.9395 17.8169 8.99138 19.8862 8.30972C20.2858 8.17807 20.5565 7.80448 20.5565 7.38331C20.5565 7.08499 20.4137 6.80454 20.1727 6.62912C19.9316 6.45342 19.621 6.40384 19.3373 6.49517C16.4879 7.41285 14.4199 10.0836 14.4199 13.2339C14.4199 17.1414 17.5986 20.3203 21.5058 20.3203C24.6435 20.3203 27.3053 18.2685 28.2329 15.4372C28.3283 15.146 28.2783 14.8269 28.0985 14.5787C27.9191 14.3307 27.6312 14.1835 27.3244 14.1835Z" fill="white"/>
<path d="M23.0995 8.30156C24.6746 8.81148 25.921 10.0552 26.4347 11.6286C26.5626 12.0203 26.9275 12.2848 27.3396 12.2848H27.3591C27.6567 12.2848 27.9363 12.1426 28.1115 11.9022C28.2863 11.6618 28.3363 11.3519 28.245 11.0687C27.5502 8.90811 25.8448 7.19919 23.686 6.49926C23.3999 6.40658 23.0861 6.45638 22.8428 6.6332C22.5994 6.81026 22.4552 7.09307 22.4552 7.39408V7.41474C22.4551 7.81852 22.7156 8.17708 23.0995 8.30156Z" fill="white"/>
</svg>
