<svg width="122" height="122" viewBox="0 0 122 122" fill="none" xmlns="http://www.w3.org/2000/svg">
<g filter="url(#filter0_d)">
<circle cx="60.4766" cy="57.1589" r="50" fill="white"/>
<circle cx="60.4766" cy="57.1589" r="50" stroke="#D7D7D7"/>
</g>
<g filter="url(#filter1_d)">
<circle cx="60.4764" cy="57.159" r="44.0818" fill="#FFEECC"/>
<circle cx="60.4764" cy="57.159" r="42.5818" stroke="#F2994A" stroke-width="3"/>
</g>
<path d="M86.6149 70.8503C86.3353 73.035 85.8372 74.9313 85.1206 76.5392C84.404 78.1471 83.5389 79.5278 82.5252 80.6813C81.5115 81.8173 80.3843 82.7523 79.1434 83.4864C77.9025 84.2204 76.6179 84.7972 75.2896 85.2166C73.9614 85.6361 72.6244 85.9245 71.2786 86.0818C69.9503 86.2391 68.6745 86.3177 67.4511 86.3177C64.3227 86.3177 61.4564 85.872 58.8523 84.9807C56.2482 84.0894 53.9499 82.7523 51.9575 80.9697C49.9651 79.187 48.296 76.9586 46.9503 74.2846C45.622 71.5931 44.6695 68.4647 44.0928 64.8993C44.4947 65.0392 44.9229 65.1702 45.3774 65.2926C45.8318 65.4149 46.2862 65.5198 46.7406 65.6072C47.0552 62.0593 47.9815 58.9483 49.5195 56.2743C51.0575 53.5828 53.0499 51.337 55.4967 49.5369C57.961 47.7192 60.801 46.356 64.0168 45.4472C67.2501 44.5209 70.7193 44.0577 74.4245 44.0577C76.1198 44.0577 77.9287 44.1451 79.8512 44.3199C81.7912 44.4947 83.871 44.783 86.0906 45.185C85.5837 46.7754 85.1992 48.3746 84.9371 49.9825C84.6924 51.573 84.5701 53.1634 84.5701 54.7538C84.5701 56.4316 84.7011 58.092 84.9633 59.7348C83.9321 58.9658 82.901 58.3279 81.8698 57.8211C80.8387 57.2967 79.825 56.886 78.8288 56.5889C77.8501 56.2743 76.8888 56.0559 75.945 55.9335C75.0013 55.7937 74.1012 55.7238 73.2448 55.7238C71.6369 55.7238 69.9766 55.951 68.2638 56.4054C66.551 56.8423 64.9256 57.489 63.3876 58.3454C61.8671 59.2018 60.5039 60.2504 59.298 61.4913C58.092 62.7147 57.192 64.1216 56.5977 65.712C57.3143 65.6072 58.0047 65.4761 58.6688 65.3188C59.3329 65.144 59.9883 64.9518 60.635 64.7421C60.5301 65.511 60.4777 66.2276 60.4777 66.8918C60.4777 68.5346 60.7661 70.0027 61.3428 71.296C61.9196 72.5719 62.706 73.6554 63.7022 74.5468C64.6984 75.4206 65.8782 76.0935 67.2414 76.5654C68.6046 77.0198 70.0727 77.247 71.6456 77.247C72.537 77.247 73.5507 77.1684 74.6867 77.0111C75.8402 76.8363 77.0636 76.5217 78.3569 76.0673C79.6502 75.5954 80.996 74.9488 82.3941 74.1273C83.7923 73.2884 85.1992 72.1961 86.6149 70.8503Z" fill="#F2C94C"/>
<path d="M34.3421 54.3002C34.6218 56.4848 35.1199 58.3811 35.8364 59.989C36.553 61.5969 37.4181 62.9776 38.4318 64.1311C39.4455 65.2671 40.5728 66.2022 41.8137 66.9362C43.0545 67.6703 44.3391 68.247 45.6674 68.6665C46.9957 69.0859 48.3327 69.3743 49.6784 69.5316C51.0067 69.6889 52.2825 69.7675 53.5059 69.7675C56.6344 69.7675 59.5006 69.3219 62.1047 68.4305C64.7088 67.5392 67.0071 66.2022 68.9995 64.4195C70.9919 62.6368 72.661 60.4085 74.0067 57.7345C75.335 55.043 76.2875 51.9145 76.8643 48.3492C76.4623 48.489 76.0341 48.6201 75.5797 48.7424C75.1253 48.8648 74.6709 48.9696 74.2165 49.057C73.9019 45.5091 72.9756 42.3982 71.4376 39.7242C69.8996 37.0327 67.9072 34.7868 65.4604 32.9867C62.9961 31.169 60.156 29.8058 56.9402 28.897C53.7069 27.9707 50.2377 27.5076 46.5325 27.5076C44.8372 27.5076 43.0283 27.595 41.1058 27.7697C39.1659 27.9445 37.0861 28.2329 34.8665 28.6349C35.3733 30.2253 35.7578 31.8244 36.0199 33.4324C36.2646 35.0228 36.387 36.6132 36.387 38.2036C36.387 39.8815 36.2559 41.5418 35.9937 43.1847C37.0249 42.4157 38.056 41.7777 39.0872 41.2709C40.1184 40.7466 41.132 40.3359 42.1282 40.0387C43.107 39.7242 44.0682 39.5057 45.012 39.3834C45.9558 39.2435 46.8558 39.1736 47.7122 39.1736C49.3201 39.1736 50.9805 39.4008 52.6932 39.8552C54.406 40.2922 56.0314 40.9388 57.5694 41.7952C59.0899 42.6516 60.4531 43.7002 61.6591 44.9411C62.865 46.1645 63.7651 47.5714 64.3593 49.1619C63.6427 49.057 62.9524 48.9259 62.2882 48.7686C61.6241 48.5939 60.9687 48.4016 60.3221 48.1919C60.4269 48.9609 60.4793 49.6774 60.4793 50.3416C60.4793 51.9844 60.191 53.4525 59.6142 54.7458C59.0375 56.0217 58.251 57.1053 57.2548 57.9966C56.2586 58.8705 55.0789 59.5433 53.7157 60.0152C52.3524 60.4696 50.8843 60.6968 49.3114 60.6968C48.42 60.6968 47.4064 60.6182 46.2703 60.4609C45.1169 60.2861 43.8934 59.9715 42.6001 59.5171C41.3068 59.0452 39.9611 58.3986 38.5629 57.5772C37.1647 56.7383 35.7578 55.6459 34.3421 54.3002Z" fill="#F2C94C"/>
<path fill-rule="evenodd" clip-rule="evenodd" d="M47.6691 60.6129C47.2072 62.1663 46.8976 63.8287 46.7406 65.5999C46.2862 65.5126 45.8318 65.4077 45.3774 65.2853C44.9229 65.163 44.4947 65.0319 44.0928 64.8921C44.2881 66.0995 44.5265 67.2568 44.808 68.364C45.0918 68.4697 45.3777 68.568 45.6656 68.6589C46.9939 69.0784 48.3309 69.3668 49.6767 69.524C51.0049 69.6813 52.2808 69.76 53.5042 69.76C56.0543 69.76 58.4302 69.4639 60.6319 68.8716C60.5291 68.2404 60.4777 67.578 60.4777 66.8845C60.4777 66.2204 60.5301 65.5038 60.635 64.7348C59.9883 64.9445 59.3329 65.1368 58.6688 65.3116C58.0047 65.4689 57.3143 65.5999 56.5977 65.7048C57.192 64.1144 58.092 62.7075 59.298 61.484C60.5039 60.2432 61.8671 59.1945 63.3876 58.3381C64.9256 57.4818 66.551 56.8351 68.2638 56.3982C69.9766 55.9438 71.6369 55.7166 73.2448 55.7166C73.7682 55.7166 74.308 55.7427 74.8641 55.7949C75.7526 53.5691 76.4188 51.0847 76.8625 48.3416C76.4605 48.4815 76.0323 48.6125 75.5779 48.7349C75.1235 48.8572 74.6691 48.9621 74.2147 49.0495C74.0577 47.2793 73.7485 45.6179 73.287 44.0652C70.0071 44.1508 66.917 44.6091 64.0168 45.4399C63.5085 45.5836 63.0095 45.7386 62.52 45.905C63.3023 46.8862 63.9148 47.9693 64.3575 49.1543C63.641 49.0495 62.9506 48.9184 62.2865 48.7611C61.6224 48.5863 60.967 48.3941 60.3203 48.1843C60.4252 48.9533 60.4776 49.6699 60.4776 50.334C60.4776 51.9769 60.1892 53.445 59.6125 54.7383C59.0357 56.0141 58.2492 57.0977 57.253 57.9891C56.2568 58.8629 55.0771 59.5358 53.7139 60.0077C52.3507 60.4621 50.8826 60.6893 49.3096 60.6893C48.8024 60.6893 48.2556 60.6638 47.6691 60.6129Z" fill="#F2994A"/>
<defs>
<filter id="filter0_d" x="0.976562" y="0.658936" width="121" height="121" filterUnits="userSpaceOnUse" color-interpolation-filters="sRGB">
<feFlood flood-opacity="0" result="BackgroundImageFix"/>
<feColorMatrix in="SourceAlpha" type="matrix" values="0 0 0 0 0 0 0 0 0 0 0 0 0 0 0 0 0 0 127 0" result="hardAlpha"/>
<feOffset dx="1" dy="4"/>
<feGaussianBlur stdDeviation="5"/>
<feColorMatrix type="matrix" values="0 0 0 0 0.691667 0 0 0 0 0.691667 0 0 0 0 0.691667 0 0 0 0.09 0"/>
<feBlend mode="normal" in2="BackgroundImageFix" result="effect1_dropShadow"/>
<feBlend mode="normal" in="SourceGraphic" in2="effect1_dropShadow" result="shape"/>
</filter>
<filter id="filter1_d" x="8.4598" y="7.78733" width="105.796" height="105.796" filterUnits="userSpaceOnUse" color-interpolation-filters="sRGB">
<feFlood flood-opacity="0" result="BackgroundImageFix"/>
<feColorMatrix in="SourceAlpha" type="matrix" values="0 0 0 0 0 0 0 0 0 0 0 0 0 0 0 0 0 0 127 0" result="hardAlpha"/>
<feOffset dx="0.881636" dy="3.52655"/>
<feGaussianBlur stdDeviation="4.40818"/>
<feColorMatrix type="matrix" values="0 0 0 0 0.691667 0 0 0 0 0.691667 0 0 0 0 0.691667 0 0 0 0.09 0"/>
<feBlend mode="normal" in2="BackgroundImageFix" result="effect1_dropShadow"/>
<feBlend mode="normal" in="SourceGraphic" in2="effect1_dropShadow" result="shape"/>
</filter>
</defs>
</svg>
