<svg width="191" height="126" viewBox="0 0 191 126" fill="none" xmlns="http://www.w3.org/2000/svg">
<path d="M190.152 63.079C190.146 74.442 187.037 85.584 181.166 95.2841C175.296 104.984 166.889 112.868 156.869 118.071C156.282 118.381 155.686 118.677 155.086 118.963C154.816 119.097 154.551 119.221 154.277 119.345C152.564 120.136 150.808 120.847 149.007 121.476C147.588 121.977 146.131 122.43 144.66 122.821C130.765 126.551 116.013 125.257 102.966 119.163C102.431 118.911 101.897 118.653 101.372 118.386C91.6035 113.46 83.3171 105.995 77.3687 96.7604C71.4202 87.526 68.0256 76.858 67.5354 65.8586C67.0453 54.8591 69.4774 43.9272 74.5805 34.1924C79.6837 24.4576 87.2727 16.2729 96.5634 10.4841C105.854 4.69521 116.51 1.51216 127.429 1.26379C138.349 1.01541 149.136 3.71072 158.676 9.07122C168.216 14.4317 176.164 22.263 181.697 31.7559C187.231 41.2488 190.15 52.0589 190.152 63.0695V63.079Z" fill="url(#paint0_linear)"/>
<path d="M104.769 101.248L97.9951 90.5804C97.9951 90.5804 116.761 68.7113 118.639 67.4189C118.639 67.4189 109.173 83.4274 104.769 101.248Z" fill="url(#paint1_linear)"/>
<path d="M97.9956 90.5801L85.2235 102.025L61.7275 90.5801L43.752 91.572C43.752 91.572 54.9488 95.3869 58.0993 95.2295L61.2545 95.0722C61.2545 95.0722 80.5498 113.827 84.9869 115.258C89.4241 116.689 103.998 105.473 103.998 105.473L104.845 101.281L97.9956 90.5801Z" fill="url(#paint2_linear)"/>
<path d="M133.237 64.8294C131.462 65.6957 129.553 66.2505 127.593 66.4699C125.328 66.8132 121.884 65.5447 121.884 65.5447C124.486 63.4799 123.88 58.6111 123.88 58.6111L123.937 58.5825C126.714 58.3679 129.036 56.7799 130.659 55.2444C130.072 59.4122 133.237 64.8294 133.237 64.8294Z" fill="url(#paint3_linear)"/>
<path d="M133.237 49.3213V52.1825C132.498 53.2941 131.635 54.3165 130.664 55.2297C129.041 56.77 126.719 58.358 123.942 58.5678C122.681 58.665 121.414 58.4776 120.233 58.0194C112.665 55.1582 117.987 40.0176 117.987 40.0176C120.39 33.8565 131.27 36.8369 131.27 36.8369C132.726 38.587 133.006 43.4749 132.949 43.9518C132.706 44.6217 132.389 45.2617 132.003 45.8593C132.003 45.8593 134.07 43.8946 134.779 45.2012C135.489 46.5078 133.237 49.3213 133.237 49.3213Z" fill="url(#paint4_linear)"/>
<path d="M133.237 52.1925V49.3313C133.237 49.3313 135.484 46.5416 134.775 45.2255C134.065 43.9093 131.998 45.8835 131.998 45.8835C132.384 45.286 132.702 44.646 132.944 43.9761C133.001 43.4992 132.764 38.8879 131.265 36.8612C131.265 36.8612 120.385 33.8808 117.982 40.0419C117.982 40.0419 114.869 39.2455 112.187 35.5116C107.802 29.403 113.039 28.6543 118.228 29.8321C124.524 31.2627 130.834 26.5704 138.048 31.339C145.262 36.1077 138.796 46.9469 133.237 52.1925Z" fill="url(#paint5_linear)"/>
<path d="M149.601 87.8668C152.836 97.5758 155.235 108.816 156.871 118.072C156.285 118.382 155.689 118.677 155.088 118.963C154.818 119.097 154.553 119.221 154.279 119.345C152.567 120.136 150.81 120.847 149.009 121.476C147.59 121.977 146.133 122.43 144.662 122.821C130.767 126.552 116.015 125.257 102.968 119.164C102.434 118.911 101.899 118.653 101.374 118.386C102.32 113.489 103.446 107.733 104.766 101.252C105.245 98.9031 105.748 96.4584 106.275 93.9183C108.985 80.9045 112.874 73.8183 116.086 69.9795L116.119 69.9413C116.729 69.2115 117.39 68.5263 118.096 67.8908C118.116 67.8677 118.138 67.8469 118.162 67.8288C118.323 67.6857 118.484 67.5522 118.635 67.4234C120.57 65.8355 121.885 65.5446 121.885 65.5446L122.003 65.5875H122.07C123.097 65.996 124.174 66.2638 125.272 66.3839H125.457H125.485C126.186 66.4515 126.892 66.4627 127.595 66.4173H127.637C129.59 66.2918 131.491 65.7385 133.21 64.7959C135.225 65.4677 137.123 66.4541 138.834 67.7191C143.725 71.3385 153.579 84.6098 153.579 84.6098L149.601 87.8668Z" fill="url(#paint6_linear)"/>
<path d="M167.618 105.988C167.589 107.314 166.393 110.003 164.642 113.265C162.173 115.061 159.573 116.668 156.865 118.072C156.279 118.382 155.683 118.677 155.082 118.963C154.812 119.097 154.548 119.221 154.273 119.345C152.561 120.137 150.804 120.847 149.004 121.477L153.573 106.794L141.747 94.276L149.595 87.8669L153.573 84.6194C153.573 84.6194 167.741 100.862 167.618 105.988Z" fill="url(#paint7_linear)"/>
<path fill-rule="evenodd" clip-rule="evenodd" d="M49.8382 103.352L0.918945 100.608V74.7927L49.8382 77.5366V103.352Z" fill="#8F97B9"/>
<path fill-rule="evenodd" clip-rule="evenodd" d="M49.8382 77.5678L0.918945 74.7836L45.6172 59.3318L94.5365 62.116L49.8382 77.5678Z" fill="#A9DDB4"/>
<path fill-rule="evenodd" clip-rule="evenodd" d="M94.5451 82.6554L49.8618 103.309L49.8428 77.5678L94.5318 62.0007L94.5451 82.6554Z" fill="#BBC0D6"/>
<defs>
<linearGradient id="paint0_linear" x1="129.065" y1="7.96292" x2="126.932" y2="129.84" gradientUnits="userSpaceOnUse">
<stop stop-color="white" stop-opacity="0"/>
<stop offset="1" stop-color="#64B5F6" stop-opacity="0.6"/>
</linearGradient>
<linearGradient id="paint1_linear" x1="91.742" y1="62.8246" x2="109.016" y2="99.0734" gradientUnits="userSpaceOnUse">
<stop stop-color="#75E573"/>
<stop offset="1" stop-color="#277413"/>
</linearGradient>
<linearGradient id="paint2_linear" x1="68.8704" y1="99.9172" x2="108.144" y2="105.08" gradientUnits="userSpaceOnUse">
<stop stop-color="#FFE082"/>
<stop offset="1" stop-color="#FFA726"/>
</linearGradient>
<linearGradient id="paint3_linear" x1="8833.14" y1="2385.03" x2="8835.95" y2="2170.62" gradientUnits="userSpaceOnUse">
<stop stop-color="#FFE082"/>
<stop offset="1" stop-color="#FFA726"/>
</linearGradient>
<linearGradient id="paint4_linear" x1="14050.9" y1="3819.59" x2="14793.9" y2="3819.59" gradientUnits="userSpaceOnUse">
<stop stop-color="#FFE082"/>
<stop offset="1" stop-color="#FFA726"/>
</linearGradient>
<linearGradient id="paint5_linear" x1="135.388" y1="29.0306" x2="118.72" y2="56.4051" gradientUnits="userSpaceOnUse">
<stop stop-color="#3C3C3C"/>
<stop offset="1" stop-color="#211C1A"/>
</linearGradient>
<linearGradient id="paint6_linear" x1="25441.4" y1="33207.5" x2="23955.1" y2="41192.5" gradientUnits="userSpaceOnUse">
<stop stop-color="#36AA48"/>
<stop offset="1" stop-color="#173F09"/>
</linearGradient>
<linearGradient id="paint7_linear" x1="21566.6" y1="11492.3" x2="21188.7" y2="9132.78" gradientUnits="userSpaceOnUse">
<stop stop-color="#FFE082"/>
<stop offset="1" stop-color="#FFA726"/>
</linearGradient>
</defs>
</svg>
