<svg width="217" height="177" viewBox="0 0 217 177" fill="none" xmlns="http://www.w3.org/2000/svg">
<path d="M160.796 116.2C160.803 124.028 159.162 131.772 155.98 138.935C152.798 146.097 148.145 152.521 142.318 157.793C140.697 159.261 138.993 160.636 137.214 161.911C134.931 163.547 132.527 165.01 130.024 166.289H129.998C129.464 166.567 128.922 166.832 128.375 167.088C128.126 167.21 127.881 167.323 127.627 167.436C126.044 168.157 124.42 168.804 122.755 169.377C121.443 169.811 120.096 170.246 118.736 170.602C110.89 172.675 102.689 173.058 94.6819 171.727C93.7328 171.571 92.7969 171.392 91.8654 171.188L91.0781 171.01C88.7018 170.459 86.3643 169.754 84.0806 168.899C82.754 168.404 81.4536 167.861 80.1795 167.27C79.6852 167.04 79.191 166.806 78.7056 166.562C78.3732 166.397 78.0452 166.228 77.7172 166.059C68.8184 161.417 61.3216 154.511 55.9944 146.046C50.6671 137.581 47.701 127.862 47.3995 117.884C47.0981 107.906 49.4723 98.0276 54.2789 89.2607C59.0856 80.4937 66.152 73.153 74.7546 67.9902C83.3572 62.8274 93.1868 60.0281 103.237 59.8789C113.287 59.7296 123.197 62.2358 131.951 67.1408C140.705 72.0459 147.989 79.1735 153.058 87.7938C158.126 96.4141 160.797 106.217 160.796 116.2Z" fill="url(#paint0_linear)"/>
<path d="M118.944 120.274C122.557 123.966 133.079 138.334 133.079 138.334L126.615 147.746L120.803 129.048L118.944 120.274Z" fill="url(#paint1_linear)"/>
<path d="M129.996 166.319C129.463 166.597 128.92 166.862 128.374 167.118C128.125 167.24 127.88 167.353 127.626 167.466C126.043 168.187 124.419 168.834 122.754 169.407C121.442 169.842 120.095 170.276 118.735 170.632C110.889 172.705 102.688 173.088 94.6806 171.757C93.7315 171.601 92.7956 171.423 91.864 171.219C88.4527 173.555 85.3038 175.532 83.2177 176.431L83.3883 174.984L84.0968 168.934L85.7368 154.857L92.2358 148.615L77.624 149.74C77.624 149.74 79.1591 128.587 85.1508 124.235C91.1424 119.883 97.4271 115.982 97.4271 115.982C98.1769 116.473 99.0028 116.839 99.8719 117.064C101.95 117.634 104.11 117.853 106.262 117.711C108.824 117.594 111.387 115.227 111.51 115.105C111.51 115.105 115.533 115.9 118.945 120.291C120.646 122.552 121.867 125.132 122.535 127.875C123.375 131.085 124.866 138.582 126.563 147.638C127.674 153.467 128.842 159.93 129.996 166.319Z" fill="url(#paint2_linear)"/>
<path d="M133.08 138.351L139.317 145.609L161.25 123.987L162.081 119.561L166.454 115.787L164.508 121.542V129.039C164.508 129.039 147.591 156.273 142.929 157.675C137.476 159.322 126.625 147.738 126.625 147.738L133.08 138.351Z" fill="url(#paint3_linear)"/>
<path d="M110.312 148.276L115.398 160.438L121.971 157.632L117.152 145.731L110.312 148.276Z" fill="#2A7817"/>
<path d="M117.397 156.134C116.579 156.803 115.359 156.646 113.845 156.725C111.812 156.778 109.863 157.537 108.335 158.87C106.301 160.569 100.616 165.012 94.9302 169.069C93.898 169.803 92.8659 170.528 91.8688 171.241C88.4574 173.577 85.3085 175.554 83.2224 176.453C82.6739 176.723 82.0817 176.895 81.473 176.961C78.5515 177.035 77.9261 170.954 77.7468 166.102C77.69 164.491 77.6768 163.018 77.6462 161.954C77.5238 157.698 77.6462 149.792 77.6462 149.792L92.258 148.663L90.7098 158.714L90.4386 160.49V160.503L94.8121 158.896L94.9477 158.849L110.474 153.12L111.545 151.282L112.227 153.02H112.293L118.941 152.151C118.941 152.151 119.054 154.783 117.397 156.134Z" fill="url(#paint4_linear)"/>
<path d="M114.042 92.7449C113.661 91.7111 113.333 91.0075 113.237 90.799V90.7469C113.237 90.7469 112.9 91.5722 110.364 91.3724C107.827 91.1726 106.987 89.9216 106.987 89.9216C106.987 89.9216 107.783 92.632 104.761 93.7917C101.853 94.9123 100.707 94.1869 100.628 94.1348C100.782 94.2999 103.056 96.7148 101.547 98.6303C99.9855 100.615 96.4736 100.224 96.4736 100.224V100.25C96.9156 101.244 97.4105 102.214 97.9562 103.156C98.2449 103.651 98.5292 104.107 98.8309 104.533V104.564C99.6054 105.815 100.651 106.879 101.892 107.678C101.347 110.856 99.7804 113.774 97.4271 115.996C98.2187 116.406 99.0352 116.767 99.8718 117.077C101.503 117.69 103.694 118.298 105.649 118.128C107.914 117.888 110.007 116.816 111.518 115.123L110.517 111.305L109.616 107.865C117.759 105.801 115.52 96.8278 114.042 92.7449ZM109.161 107.991L109.305 107.956L109.537 107.891C109.2 108.036 108.844 108.132 108.479 108.177C108.667 108.13 108.859 108.077 109.06 108.017L109.161 107.991Z" fill="url(#paint5_linear)"/>
<path d="M118.946 90.634C115.587 93.7005 114.135 92.8362 114.043 92.7536V92.745C113.663 91.7112 113.335 91.0076 113.243 90.7991L113.221 90.747C113.221 90.747 112.88 91.5722 110.343 91.3724C107.807 91.1726 106.971 89.9217 106.971 89.9217C106.971 89.9217 107.767 92.632 104.745 93.7917C101.832 94.9124 100.687 94.187 100.612 94.1349C100.765 94.2956 103.039 96.7106 101.531 98.6261C99.9693 100.611 96.4574 100.224 96.4574 100.224V100.246C96.8992 101.242 97.3941 102.213 97.94 103.156C98.2315 103.649 98.5231 104.108 98.8147 104.533V104.564C98.8147 104.564 97.6163 106.905 95.4777 106.857C93.3391 106.809 93.291 104.685 93.291 104.685C93.291 104.685 91.7777 107.396 87.1025 104.785C82.4273 102.175 85.5456 98.3915 85.5456 98.3915C85.5456 98.3915 82.2305 95.8723 82.2305 92.0978C82.2305 88.3233 87.3912 85.4522 87.3912 85.4522C87.3912 85.4522 85.5456 81.0697 88.6595 78.6547C91.7734 76.2397 96.453 77.8772 96.453 77.8772C96.453 77.8772 96.3612 72.2698 101.128 72.361C105.895 72.4522 106.976 75.3493 106.976 75.3493C106.976 75.3493 111.262 72.0569 115.504 75.1582C119.746 78.2594 118.001 83.6671 118.001 83.6671C118.001 83.6671 122.449 87.4416 118.946 90.634Z" fill="url(#paint6_linear)"/>
<path opacity="0.15" d="M110.553 111.292C108.519 110.653 104.902 108.217 104.902 108.217C106.33 108.366 107.772 108.29 109.175 107.991L109.32 107.956L109.599 107.874H109.639L110.553 111.292Z" fill="black"/>
<path opacity="0.15" d="M94.2093 135.624L92.2369 148.654L90.6887 158.705L87.085 161.68L94.9266 158.853C94.9266 158.853 92.8929 153.085 94.2093 135.624Z" fill="black"/>
<path opacity="0.15" d="M91.8564 171.219C92.788 171.423 93.7239 171.601 94.673 171.757C94.7211 170.867 94.8085 169.968 94.931 169.069L91.8564 171.219Z" fill="black"/>
<g filter="url(#filter0_d)">
<path d="M72.9008 8.98486H49.5158C46.2888 8.98486 43.6729 11.5829 43.6729 14.7878V38.0124C43.6729 41.2173 46.2888 43.8153 49.5158 43.8153H72.9008C76.1277 43.8153 78.7437 41.2173 78.7437 38.0124V14.7878C78.7437 11.5829 76.1277 8.98486 72.9008 8.98486Z" fill="#56CCF2"/>
</g>
<rect x="52.0781" y="26.8" width="18.8442" height="10.0038" rx="3.75107" fill="white"/>
<path d="M55.9114 26.8003C55.9114 26.8003 55.0775 15.8049 61.4967 15.8049C67.916 15.8049 67.4535 26.8108 67.4535 26.8108" stroke="white" stroke-width="1.61978"/>
<g filter="url(#filter1_d)">
<path d="M193.839 96.7937H170.454C167.227 96.7937 164.611 99.3917 164.611 102.597V125.821C164.611 129.026 167.227 131.624 170.454 131.624H193.839C197.066 131.624 199.682 129.026 199.682 125.821V102.597C199.682 99.3917 197.066 96.7937 193.839 96.7937Z" fill="#F2C94C"/>
</g>
<path d="M187.682 111.602L189.96 103.847C190.234 103.237 190.184 102.527 189.826 101.963C189.468 101.398 188.852 101.057 188.191 101.056H186.069L185.361 102.635C184.843 103.767 183.724 104.492 182.492 104.492C181.261 104.492 180.141 103.767 179.623 102.635L178.916 101.056H177.2C176.453 101.056 175.756 101.442 175.352 102.079C174.948 102.717 174.891 103.52 175.202 104.209L177.324 111.602L174.14 122.005C173.817 123.088 174.016 124.262 174.678 125.173C175.341 126.084 176.388 126.625 177.504 126.632H187.526C188.641 126.624 189.688 126.083 190.35 125.172C191.011 124.261 191.21 123.087 190.887 122.005L187.682 111.602Z" fill="white"/>
<g filter="url(#filter2_d)">
<path d="M37.8295 96.7937H14.4445C11.2175 96.7937 8.60156 99.3917 8.60156 102.597V125.821C8.60156 129.026 11.2175 131.624 14.4445 131.624H37.8295C41.0565 131.624 43.6724 129.026 43.6724 125.821V102.597C43.6724 99.3917 41.0565 96.7937 37.8295 96.7937Z" fill="#F58A8A"/>
</g>
<path d="M33.5902 116.082C32.1041 116.083 30.649 116.507 29.3944 117.303C28.1397 118.1 27.1373 119.237 26.5037 120.581C25.8702 119.237 24.8677 118.1 23.613 117.303C22.3584 116.507 20.9033 116.083 19.4172 116.082H15.3145V116.828C15.3145 121.147 18.8281 124.66 23.1469 124.66H29.8605C34.1794 124.66 37.693 121.147 37.693 116.828V116.082H33.5902ZM23.1469 123.168C19.9029 123.168 17.2202 120.72 16.85 117.574H19.4172C22.6612 117.574 25.3439 120.022 25.7141 123.168H23.1469ZM29.8605 123.168H27.2933C27.6635 120.022 30.3462 117.574 33.5902 117.574H36.1574C35.7873 120.72 33.1045 123.168 29.8605 123.168Z" fill="white"/>
<path d="M22.4593 114.16C22.6004 114.999 23.0006 115.772 23.6038 116.372L23.8223 116.591H24.1312C24.9819 116.593 25.8119 116.329 26.5049 115.835C27.1978 116.329 28.0278 116.593 28.8785 116.591H29.1874L29.406 116.372C30.0091 115.772 30.4093 114.999 30.5504 114.16C31.3893 114.019 32.1629 113.619 32.7627 113.016L32.9812 112.797V112.488C32.9836 111.637 32.7196 110.807 32.2261 110.114C32.7196 109.421 32.9837 108.591 32.9814 107.741V107.432L32.7629 107.213C32.1631 106.61 31.3894 106.21 30.5506 106.069C30.4095 105.23 30.0093 104.456 29.4061 103.856L29.1876 103.638H28.8787C28.028 103.635 27.1978 103.9 26.5049 104.393C25.812 103.9 24.9819 103.635 24.1312 103.638H23.8223L23.6038 103.856C23.0006 104.456 22.6004 105.23 22.4593 106.069C21.6205 106.21 20.8468 106.61 20.247 107.213L20.0285 107.431V107.74C20.0261 108.591 20.2902 109.421 20.7836 110.114C20.2901 110.807 20.026 111.637 20.0283 112.488V112.797L20.2468 113.015C20.8467 113.619 21.6204 114.019 22.4593 114.16ZM22.2852 109.587C21.8715 109.176 21.6086 108.637 21.5392 108.058C21.9978 107.697 22.5647 107.502 23.1481 107.503H23.894V106.757C23.8924 106.174 24.0876 105.607 24.4481 105.149C25.0273 105.218 25.5661 105.481 25.9773 105.895L26.5049 106.422L27.0323 105.894C27.4435 105.481 27.9823 105.218 28.5615 105.148C28.9221 105.607 29.1174 106.174 29.1157 106.757V107.503H29.8616C30.445 107.502 31.0118 107.697 31.4704 108.057C31.401 108.637 31.1381 109.175 30.7244 109.587L30.1973 110.114L30.7248 110.642C31.1385 111.053 31.4013 111.592 31.4707 112.171C31.0121 112.532 30.4451 112.727 29.8616 112.725H29.1157V113.471C29.1174 114.054 28.9222 114.621 28.5616 115.08C27.9825 115.01 27.4437 114.748 27.0324 114.334L26.5049 113.807L25.9774 114.334C25.5662 114.748 25.0274 115.011 24.4482 115.08C24.0876 114.621 23.8923 114.054 23.894 113.471V112.725H23.1481C22.5648 112.727 21.9979 112.532 21.5394 112.171C21.6088 111.592 21.8716 111.053 22.2853 110.642L22.8124 110.114L22.2852 109.587Z" fill="white"/>
<g filter="url(#filter3_d)">
<path d="M155.476 8.98486H132.091C128.864 8.98486 126.248 11.5829 126.248 14.7878V38.0124C126.248 41.2173 128.864 43.8153 132.091 43.8153H155.476C158.703 43.8153 161.319 41.2173 161.319 38.0124V14.7878C161.319 11.5829 158.703 8.98486 155.476 8.98486Z" fill="#6FCF97"/>
</g>
<path d="M149.371 14.1001C145.694 15.2479 141.755 15.2479 138.077 14.1001C137.669 15.0592 136.479 18.0741 136.479 20.8959C136.479 24.775 137.728 35.6267 137.728 35.6267C137.728 35.6267 140.295 37.9181 143.726 37.9705C147.153 37.9116 149.721 35.6201 149.721 35.6201C149.721 35.6201 150.972 24.7619 150.972 20.8894C150.972 18.0741 149.78 15.0592 149.371 14.1001Z" fill="white"/>
<defs>
<filter id="filter0_d" x="35.1477" y="0.459714" width="60.6463" height="60.4059" filterUnits="userSpaceOnUse" color-interpolation-filters="sRGB">
<feFlood flood-opacity="0" result="BackgroundImageFix"/>
<feColorMatrix in="SourceAlpha" type="matrix" values="0 0 0 0 0 0 0 0 0 0 0 0 0 0 0 0 0 0 127 0" result="hardAlpha"/>
<feOffset dx="4.26257" dy="4.26257"/>
<feGaussianBlur stdDeviation="6.39386"/>
<feColorMatrix type="matrix" values="0 0 0 0 0 0 0 0 0 0 0 0 0 0 0 0 0 0 0.15 0"/>
<feBlend mode="normal" in2="BackgroundImageFix" result="effect1_dropShadow"/>
<feBlend mode="normal" in="SourceGraphic" in2="effect1_dropShadow" result="shape"/>
</filter>
<filter id="filter1_d" x="156.086" y="88.2686" width="60.6463" height="60.4059" filterUnits="userSpaceOnUse" color-interpolation-filters="sRGB">
<feFlood flood-opacity="0" result="BackgroundImageFix"/>
<feColorMatrix in="SourceAlpha" type="matrix" values="0 0 0 0 0 0 0 0 0 0 0 0 0 0 0 0 0 0 127 0" result="hardAlpha"/>
<feOffset dx="4.26257" dy="4.26257"/>
<feGaussianBlur stdDeviation="6.39386"/>
<feColorMatrix type="matrix" values="0 0 0 0 0 0 0 0 0 0 0 0 0 0 0 0 0 0 0.15 0"/>
<feBlend mode="normal" in2="BackgroundImageFix" result="effect1_dropShadow"/>
<feBlend mode="normal" in="SourceGraphic" in2="effect1_dropShadow" result="shape"/>
</filter>
<filter id="filter2_d" x="0.0764136" y="88.2686" width="60.6463" height="60.4059" filterUnits="userSpaceOnUse" color-interpolation-filters="sRGB">
<feFlood flood-opacity="0" result="BackgroundImageFix"/>
<feColorMatrix in="SourceAlpha" type="matrix" values="0 0 0 0 0 0 0 0 0 0 0 0 0 0 0 0 0 0 127 0" result="hardAlpha"/>
<feOffset dx="4.26257" dy="4.26257"/>
<feGaussianBlur stdDeviation="6.39386"/>
<feColorMatrix type="matrix" values="0 0 0 0 0 0 0 0 0 0 0 0 0 0 0 0 0 0 0.15 0"/>
<feBlend mode="normal" in2="BackgroundImageFix" result="effect1_dropShadow"/>
<feBlend mode="normal" in="SourceGraphic" in2="effect1_dropShadow" result="shape"/>
</filter>
<filter id="filter3_d" x="117.723" y="0.459714" width="60.6463" height="60.4059" filterUnits="userSpaceOnUse" color-interpolation-filters="sRGB">
<feFlood flood-opacity="0" result="BackgroundImageFix"/>
<feColorMatrix in="SourceAlpha" type="matrix" values="0 0 0 0 0 0 0 0 0 0 0 0 0 0 0 0 0 0 127 0" result="hardAlpha"/>
<feOffset dx="4.26257" dy="4.26257"/>
<feGaussianBlur stdDeviation="6.39386"/>
<feColorMatrix type="matrix" values="0 0 0 0 0 0 0 0 0 0 0 0 0 0 0 0 0 0 0.15 0"/>
<feBlend mode="normal" in2="BackgroundImageFix" result="effect1_dropShadow"/>
<feBlend mode="normal" in="SourceGraphic" in2="effect1_dropShadow" result="shape"/>
</filter>
<linearGradient id="paint0_linear" x1="104.318" y1="65.9885" x2="102.404" y2="176.995" gradientUnits="userSpaceOnUse">
<stop stop-color="white" stop-opacity="0"/>
<stop offset="1" stop-color="#64B5F6" stop-opacity="0.6"/>
</linearGradient>
<linearGradient id="paint1_linear" x1="114.663" y1="116.543" x2="130.136" y2="143.92" gradientUnits="userSpaceOnUse">
<stop stop-color="#75E573"/>
<stop offset="1" stop-color="#277413"/>
</linearGradient>
<linearGradient id="paint2_linear" x1="23990.8" y1="33925.8" x2="22360.9" y2="42026" gradientUnits="userSpaceOnUse">
<stop stop-color="#36AA48"/>
<stop offset="1" stop-color="#173F09"/>
</linearGradient>
<linearGradient id="paint3_linear" x1="172.389" y1="126.58" x2="130.161" y2="151.212" gradientUnits="userSpaceOnUse">
<stop stop-color="#FFF8E1"/>
<stop offset="1" stop-color="#FFCC80"/>
</linearGradient>
<linearGradient id="paint4_linear" x1="18459.1" y1="19028.3" x2="16182.2" y2="17482.5" gradientUnits="userSpaceOnUse">
<stop stop-color="#FFF8E1"/>
<stop offset="1" stop-color="#FFCC80"/>
</linearGradient>
<linearGradient id="paint5_linear" x1="118.323" y1="97.1681" x2="95.2699" y2="106.728" gradientUnits="userSpaceOnUse">
<stop stop-color="#FFF8E1"/>
<stop offset="1" stop-color="#FFCC80"/>
</linearGradient>
<linearGradient id="paint6_linear" x1="113.024" y1="72.1959" x2="86.2271" y2="108.653" gradientUnits="userSpaceOnUse">
<stop stop-color="#3C3C3C"/>
<stop offset="1" stop-color="#211C1A"/>
</linearGradient>
</defs>
</svg>
