<svg width="169" height="130" viewBox="0 0 169 130" fill="none" xmlns="http://www.w3.org/2000/svg">
<path d="M168.279 65.2252C168.273 77.0278 164.989 88.6008 158.789 98.6762C152.588 108.752 143.709 116.94 133.125 122.345C132.649 122.593 132.169 122.831 131.686 123.058L131.586 123.108L131.242 123.271C130.957 123.41 130.677 123.539 130.387 123.668C128.579 124.49 126.723 125.228 124.821 125.882C123.742 126.255 122.651 126.6 121.549 126.917L120.23 127.278C105.554 131.153 89.9722 129.809 76.1919 123.479C75.6273 123.217 75.0627 122.949 74.5081 122.672L73.5088 122.177C63.6183 117.039 55.2284 109.463 49.1466 100.18C48.5071 99.2122 47.8976 98.2215 47.318 97.2078C46.8017 96.3261 46.3021 95.4329 45.8191 94.5281C41.125 85.4622 38.684 75.4156 38.6993 65.2252C38.6993 64.0232 38.7326 62.8278 38.7992 61.6391C39.7359 44.939 47.2076 29.2601 59.6251 17.9369C72.0426 6.61378 88.4262 0.539865 105.291 1.00701C122.156 1.47417 138.172 8.44552 149.933 20.4384C161.693 32.4312 168.27 48.4993 168.264 65.2252H168.279Z" fill="url(#paint0_linear)"/>
<path d="M90.7648 62.9418C90.7648 62.9418 76.2754 56.1312 75.0163 46.7598C73.7572 37.3884 74.6416 28.4331 81.8613 25.9268C81.8613 25.9268 86.428 11.4932 102.616 17.2934C118.804 23.0936 116.251 40.5089 125.1 42.5942C133.948 44.6795 150.471 35.8975 153.624 46.6112C156.776 57.3249 146.409 56.6711 139.519 65.7651C132.629 74.8591 143.271 79.634 141.323 85.8948C139.374 92.1556 132.015 96.4599 132.015 96.4599L90.7648 62.9418Z" fill="url(#paint1_linear)"/>
<path d="M70.9248 83.4977L75.0168 94.5284H75.4615L81.8618 65.7654C77.8198 69.2772 70.9248 83.4977 70.9248 83.4977Z" fill="url(#paint2_linear)"/>
<path d="M63.7403 98.7137L61.1472 100.006C57.9295 101.918 53.123 101.374 53.123 101.374C55.7211 104.271 70.3504 107.55 74.4624 107.466L75.2219 97.203H66.1085L63.7403 98.7137Z" fill="url(#paint3_linear)"/>
<path d="M131.686 123.044L131.586 123.093L131.242 123.257C130.957 123.395 130.677 123.524 130.387 123.653C128.578 124.475 126.723 125.213 124.821 125.867C123.742 126.24 122.651 126.585 121.549 126.902L120.23 127.264C105.554 131.139 89.9721 129.794 76.1918 123.465C75.6272 123.202 75.0627 122.935 74.5081 122.657L73.5088 122.162C73.6487 117.912 73.8635 112.825 74.1783 107.461C74.3782 104.108 74.623 100.645 74.9128 97.208C74.9877 96.3115 75.0676 95.4199 75.1476 94.5283C76.3267 81.8581 78.2153 70.1092 81.2431 66.3745L81.2881 66.325C81.6725 65.8005 82.2148 65.4103 82.837 65.2105C87.2088 64.1803 90.2915 63.8335 90.7761 62.942C91.2608 62.0504 90.7761 60.297 90.7761 60.297L91.6455 60.1781C92.9096 59.9899 95.3628 59.5936 97.6861 58.9993C97.7007 59.0038 97.7164 59.0038 97.7311 58.9993C99.7846 58.4693 101.728 57.7857 102.677 56.9635L104.626 62.0999C104.626 62.0999 119.28 60.2623 125.001 65.7851C125.036 65.8108 125.068 65.8408 125.096 65.8743C125.156 65.9283 125.213 65.9862 125.266 66.0476C125.606 66.4044 125.909 66.7944 126.17 67.2116C128.034 70.1835 129.353 82.1107 130.267 95.0484C130.477 98.0203 130.667 101.091 130.832 104.098C131.212 111.042 131.496 117.769 131.686 123.044Z" fill="url(#paint4_linear)"/>
<path opacity="0.15" d="M131.587 123.108L131.242 123.272C130.957 123.41 130.678 123.539 130.388 123.668C128.579 124.49 126.724 125.228 124.822 125.882C123.743 126.255 122.652 126.6 121.549 126.917C114.799 119.79 112.121 110.537 112.121 110.537L130.822 104.098L131.587 123.108Z" fill="black"/>
<path d="M124.995 65.7654C131.765 72.3531 133.239 86.1823 131.99 96.475C130.741 106.768 128.423 116.407 123.606 116.109C118.79 115.812 102.122 104.351 95.6816 98.0997L99.4439 90.9423L113.054 96.5642V81.5808L124.995 65.7654Z" fill="url(#paint5_linear)"/>
<path d="M124.995 65.7654C131.765 72.3531 133.239 86.1823 131.99 96.475C130.741 106.768 128.423 116.407 123.606 116.109C118.79 115.812 102.122 104.351 95.6816 98.0997L99.4439 90.9423L113.054 96.5642V81.5808L124.995 65.7654Z" fill="url(#paint6_linear)"/>
<g filter="url(#filter0_d)">
<path d="M89.9815 94.5281H27.5322V97.2077H89.9815V94.5281Z" fill="url(#paint7_linear)"/>
<path d="M62.8115 61.6393H15.3213L27.5324 94.5283H75.0176L62.8115 61.6393Z" fill="url(#paint8_linear)"/>
</g>
<path d="M41.791 97.2081C41.791 97.2081 49.985 101.275 55.1912 101.374C60.3974 101.473 66.1132 97.2081 66.1132 97.2081H41.791Z" fill="url(#paint9_linear)"/>
<path d="M99.4435 90.9421C99.4435 90.9421 92.2388 87.3362 89.1361 86.9399C86.0333 86.5437 76.4004 94.5282 76.4004 94.5282H89.9904L95.6963 98.0994L99.4435 90.9421Z" fill="url(#paint10_linear)"/>
<path d="M102.067 48.84C102.103 51.5523 102.303 54.2599 102.667 56.9484C99.4442 58.7464 95.672 59.7122 91.6349 60.1828L91.4001 56.9484L91.2602 54.9671V54.9027C90.482 54.8854 89.7148 54.7171 89.0018 54.4074C84.1254 52.3221 83.0762 42.1285 83.0762 42.1285C85.0297 42.0492 87.5729 38.5573 87.5729 38.5573C88.9968 40.7168 95.602 44.8874 99.4342 43.768C103.266 42.6486 102.967 39.9689 102.967 39.9689C103.66 40.2587 104.259 40.7315 104.7 41.336C105.14 41.9404 105.405 42.6532 105.465 43.3965C105.67 46.0118 102.067 48.84 102.067 48.84Z" fill="url(#paint11_linear)"/>
<path opacity="0.15" d="M98.7951 51.7181C97.8908 53.2338 93.7988 55.646 91.4055 56.9586L91.2656 54.9773C91.4155 54.9773 91.5604 54.9278 91.7003 54.8981C93.6541 54.5552 95.5295 53.8656 97.2362 52.8623C97.2566 52.8544 97.2753 52.8426 97.2912 52.8277C97.8041 52.5271 98.2846 52.1752 98.7252 51.7776L98.7951 51.7181Z" fill="black"/>
<path opacity="0.15" d="M107.438 94.2509L118.041 98.5503L113.044 94.979V81.6055C113.044 81.6055 111.481 93.2256 107.438 94.2509Z" fill="black"/>
<defs>
<filter id="filter0_d" x="0.61378" y="46.9318" width="113.88" height="74.7885" filterUnits="userSpaceOnUse" color-interpolation-filters="sRGB">
<feFlood flood-opacity="0" result="BackgroundImageFix"/>
<feColorMatrix in="SourceAlpha" type="matrix" values="0 0 0 0 0 0 0 0 0 0 0 0 0 0 0 0 0 0 127 0" result="hardAlpha"/>
<feOffset dx="4.9025" dy="4.9025"/>
<feGaussianBlur stdDeviation="9.80501"/>
<feColorMatrix type="matrix" values="0 0 0 0 0 0 0 0 0 0 0 0 0 0 0 0 0 0 0.2 0"/>
<feBlend mode="normal" in2="BackgroundImageFix" result="effect1_dropShadow"/>
<feBlend mode="normal" in="SourceGraphic" in2="effect1_dropShadow" result="shape"/>
</filter>
<linearGradient id="paint0_linear" x1="103.755" y1="7.95769" x2="101.577" y2="134.571" gradientUnits="userSpaceOnUse">
<stop stop-color="white" stop-opacity="0"/>
<stop offset="1" stop-color="#64B5F6" stop-opacity="0.6"/>
</linearGradient>
<linearGradient id="paint1_linear" x1="138.995" y1="15.5362" x2="74.718" y2="93.9413" gradientUnits="userSpaceOnUse">
<stop stop-color="#3C3C3C"/>
<stop offset="1" stop-color="#211C1A"/>
</linearGradient>
<linearGradient id="paint2_linear" x1="67.6119" y1="61.8591" x2="85.8613" y2="85.722" gradientUnits="userSpaceOnUse">
<stop stop-color="#75E573"/>
<stop offset="1" stop-color="#277413"/>
</linearGradient>
<linearGradient id="paint3_linear" x1="46.4291" y1="95.809" x2="48.2194" y2="109.064" gradientUnits="userSpaceOnUse">
<stop stop-color="#75E573"/>
<stop offset="1" stop-color="#277413"/>
</linearGradient>
<linearGradient id="paint4_linear" x1="26637.3" y1="40011.8" x2="24598.7" y2="49535.1" gradientUnits="userSpaceOnUse">
<stop stop-color="#36AA48"/>
<stop offset="1" stop-color="#173F09"/>
</linearGradient>
<linearGradient id="paint5_linear" x1="13688.8" y1="9580.04" x2="17281.4" y2="15615.5" gradientUnits="userSpaceOnUse">
<stop stop-color="#7E57C2"/>
<stop offset="1" stop-color="#4527A0"/>
</linearGradient>
<linearGradient id="paint6_linear" x1="84.5615" y1="58.9272" x2="107.342" y2="116.045" gradientUnits="userSpaceOnUse">
<stop stop-color="#75E573"/>
<stop offset="1" stop-color="#277413"/>
</linearGradient>
<linearGradient id="paint7_linear" x1="27.5322" y1="95.8654" x2="89.9815" y2="95.8654" gradientUnits="userSpaceOnUse">
<stop stop-color="#D2D4D5"/>
<stop offset="1" stop-color="#AAACAE"/>
</linearGradient>
<linearGradient id="paint8_linear" x1="528.113" y1="4116.86" x2="4061.87" y2="8169.6" gradientUnits="userSpaceOnUse">
<stop stop-color="#D2D4D5"/>
<stop offset="1" stop-color="#AAACAE"/>
</linearGradient>
<linearGradient id="paint9_linear" x1="43.3399" y1="92.7354" x2="63.2511" y2="101.345" gradientUnits="userSpaceOnUse">
<stop stop-color="#FFF8E1"/>
<stop offset="1" stop-color="#FFCC80"/>
</linearGradient>
<linearGradient id="paint10_linear" x1="7722.11" y1="2884.39" x2="8230.24" y2="3441.55" gradientUnits="userSpaceOnUse">
<stop stop-color="#FFF8E1"/>
<stop offset="1" stop-color="#FFCC80"/>
</linearGradient>
<linearGradient id="paint11_linear" x1="7888.22" y1="3164.31" x2="8334.29" y2="4008.98" gradientUnits="userSpaceOnUse">
<stop stop-color="#FFF8E1"/>
<stop offset="1" stop-color="#FFCC80"/>
</linearGradient>
</defs>
</svg>
