<svg width="358" height="312" viewBox="0 0 358 312" fill="none" xmlns="http://www.w3.org/2000/svg">
<path d="M156.304 22.1933L165.803 20.8017L156.304 19.4102L158.651 15.6871L154.933 18.0463L153.543 8.52661L152.153 18.0463L148.435 15.6871L150.791 19.4102L141.283 20.8017L150.791 22.2025L148.435 25.9164L152.153 23.5664L153.543 33.0861L154.933 23.5664L158.651 25.9164L156.304 22.1933Z" fill="#F5F5F5"/>
<path d="M251.869 47.6005L261.377 46.209L251.869 44.8174L254.226 41.0943L250.507 43.4535L249.117 33.9338L247.728 43.4535L244.009 41.0943L246.356 44.8174L236.857 46.209L246.356 47.6005L244.009 51.3236L247.728 48.9736L249.117 58.4841L250.507 48.9736L254.226 51.3236L251.869 47.6005Z" fill="#F5F5F5"/>
<path d="M118.207 88.8862L127.715 87.4946L118.207 86.1031L120.563 82.38L116.845 84.7392L115.455 75.2195L114.065 84.7392L110.346 82.38L112.693 86.1031L103.186 87.4946L112.693 88.8862L110.346 92.6092L114.065 90.2593L115.455 99.7697L116.845 90.2593L120.563 92.6092L118.207 88.8862Z" fill="#F5F5F5"/>
<path d="M37.8362 88.8862L47.3441 87.4946L37.8362 86.1031L40.1925 82.38L36.474 84.7392L35.0842 75.2195L33.6944 84.7392L29.9759 82.38L32.3229 86.1031L22.8242 87.4946L32.3229 88.8862L29.9759 92.6092L33.6944 90.2593L35.0842 99.7697L36.474 90.2593L40.1925 92.6092L37.8362 88.8862Z" fill="#F5F5F5"/>
<path d="M83.3689 145.553L92.8768 144.161L83.3689 142.77L85.7159 139.046L82.0067 141.396L80.6168 131.886L79.2178 141.396L75.5085 139.046L77.8556 142.77L68.3477 144.161L77.8556 145.553L75.5085 149.276L79.2178 146.917L80.6168 156.436L82.0067 146.917L85.7159 149.276L83.3689 145.553Z" fill="#F5F5F5"/>
<path d="M270.131 115.049L279.639 113.658L270.131 112.257L272.487 108.543L268.769 110.893L267.379 101.373L265.989 110.893L262.271 108.543L264.618 112.257L255.119 113.658L264.618 115.049L262.271 118.763L265.989 116.413L267.379 125.933L268.769 116.413L272.487 118.763L270.131 115.049Z" fill="#F5F5F5"/>
<path d="M337.185 199.39L346.693 197.998L337.185 196.607L339.541 192.884L335.823 195.234L334.433 185.714L333.043 195.234L329.325 192.884L331.681 196.607L322.173 197.998L331.681 199.39L329.325 203.113L333.043 200.754L334.433 210.273L335.823 200.754L339.541 203.113L337.185 199.39Z" fill="#F5F5F5"/>
<path d="M257.871 196.459L267.379 195.068L257.871 193.676L260.218 189.953L256.509 192.312L255.119 182.793L253.72 192.312L250.01 189.953L252.358 193.676L242.85 195.068L252.358 196.459L250.01 200.182L253.72 197.832L255.119 207.352L256.509 197.832L260.218 200.182L257.871 196.459Z" fill="#F5F5F5"/>
<path d="M83.3689 216.291L92.8768 214.9L83.3689 213.499L85.7159 209.785L82.0067 212.135L80.6168 202.615L79.2178 212.135L75.5085 209.785L77.8556 213.499L68.3477 214.9L77.8556 216.291L75.5085 220.014L79.2178 217.655L80.6168 227.175L82.0067 217.655L85.7159 220.014L83.3689 216.291Z" fill="#F5F5F5"/>
<path d="M186.676 173.024L196.184 171.633L186.676 170.241L189.033 166.518L185.314 168.877L183.924 159.358L182.525 168.877L178.816 166.518L181.163 170.241L171.655 171.633L181.163 173.024L178.816 176.747L182.525 174.397L183.924 183.917L185.314 174.397L189.033 176.747L186.676 173.024Z" fill="#F5F5F5"/>
<path d="M132.74 275.538L142.239 274.137L132.74 272.746L135.087 269.023L131.369 271.382L129.979 261.862L128.589 271.382L124.87 269.023L127.227 272.746L117.719 274.137L127.227 275.538L124.87 279.252L128.589 276.902L129.979 286.422L131.369 276.902L135.087 279.252L132.74 275.538Z" fill="#F5F5F5"/>
<path d="M238.507 269.327L248.014 267.926L238.507 266.535L240.854 262.812L237.135 265.171L235.745 255.651L234.355 265.171L230.637 262.812L232.993 266.535L223.485 267.926L232.993 269.327L230.637 273.041L234.355 270.691L235.745 280.211L237.135 270.691L240.854 273.041L238.507 269.327Z" fill="#F5F5F5"/>
<path d="M239.702 97.4842C234.051 89.1073 231.63 75.9659 226.448 70.796C231.096 67.248 235.257 64.6677 239.178 62.585C242.353 71.736 244.24 85.9372 252.432 89.2732C247.774 92.8212 243.614 95.4015 239.702 97.4842Z" fill="#EBEBEB"/>
<path d="M249.276 90.8397C248.484 90.3144 248.687 89.2823 249.653 88.6372C243.983 84.0663 241.949 73.4592 239.381 65.5061C238.516 65.9301 237.531 65.4693 237.181 64.4924C234.706 65.8748 232.11 67.4598 229.358 69.3859C229.827 70.1231 229.422 71.2843 228.438 71.9478C232.266 77.3758 234.604 87.3931 238.811 94.8761C239.667 94.4614 240.835 94.8577 241.48 95.6687L241.489 95.6779C243.965 94.314 246.542 92.7289 249.285 90.8305C249.285 90.8397 249.276 90.8397 249.276 90.8397ZM235.488 81.532C234.659 79.2926 235.423 76.8597 237.145 76.0672C238.866 75.2746 240.799 76.5925 241.609 78.8871C242.419 81.1726 241.784 83.5594 240.081 84.3151C238.378 85.0708 236.316 83.7898 235.488 81.532Z" fill="#E0E0E0"/>
<path d="M237.089 81.3478C236.942 81.4123 236.785 81.4768 236.638 81.5413C236.583 81.3939 236.527 81.2464 236.481 81.0898C236.629 81.0253 236.785 80.9608 236.932 80.8963C236.767 80.3525 236.712 79.772 236.804 79.4125C236.969 79.431 237.135 79.4586 237.301 79.4771C237.227 79.818 237.255 80.2788 237.374 80.7027C237.641 80.5829 237.917 80.4723 238.184 80.3525C238.083 79.6982 238 78.9794 238.562 78.7306C238.976 78.5555 239.473 78.8043 239.832 79.6429C239.988 79.5784 240.136 79.5139 240.292 79.4494C240.347 79.5969 240.402 79.7535 240.448 79.901C240.301 79.9655 240.145 80.03 239.997 80.0945C240.126 80.5092 240.182 80.9608 240.154 81.311C239.988 81.2925 239.823 81.2833 239.666 81.2649C239.685 80.9239 239.648 80.5829 239.565 80.2788C239.289 80.3986 239.022 80.5092 238.746 80.629C238.847 81.2833 238.957 82.0113 238.387 82.2509C237.963 82.4353 237.457 82.1772 237.089 81.3478ZM238.663 80.1498C238.902 80.0484 239.141 79.9471 239.381 79.8365C239.197 79.4678 238.994 79.3573 238.819 79.4402C238.626 79.5231 238.617 79.7996 238.663 80.1498ZM238.083 81.569C238.285 81.4861 238.285 81.2004 238.239 80.841C238 80.9423 237.761 81.0437 237.522 81.1451C237.715 81.5413 237.917 81.6519 238.083 81.569Z" fill="#E0E0E0"/>
<path d="M111.167 69.9946C103.067 74.3627 90.8074 74.9157 85.6899 79.2562C82.7354 74.2153 80.646 69.7826 78.9893 65.6632C87.632 63.8201 100.84 63.9492 104.466 56.4016C107.421 61.4425 109.51 65.8752 111.167 69.9946Z" fill="#EBEBEB"/>
<path d="M105.7 59.7103C105.166 60.4107 104.227 60.0697 103.702 59.0376C99.1094 63.9495 89.1965 64.4748 81.7043 65.8847C82.0356 66.7879 81.5386 67.691 80.6182 67.8937C81.7227 70.511 83.0112 73.2664 84.5944 76.2246C85.3031 75.8652 86.3432 76.4273 86.8954 77.4779C92.1602 74.4829 101.539 73.5797 108.719 70.511C108.396 69.6171 108.838 68.5296 109.63 68.0135L109.639 68.0043C108.544 65.3963 107.273 62.6501 105.7 59.7011C105.7 59.7011 105.7 59.7011 105.7 59.7103ZM96.2008 71.9025C94.0839 72.4002 91.8933 71.3127 91.2766 69.5249C90.6599 67.7371 92.0129 66.023 94.1759 65.553C96.3297 65.083 98.4835 66.023 99.0725 67.8016C99.6524 69.5618 98.327 71.4141 96.2008 71.9025Z" fill="#E0E0E0"/>
<path d="M96.1267 70.317C96.182 70.4737 96.228 70.6304 96.274 70.787C96.1359 70.8147 95.9887 70.8515 95.8506 70.8792C95.7954 70.7225 95.7494 70.5659 95.7033 70.4092C95.1879 70.4921 94.6541 70.4645 94.3227 70.3355C94.3503 70.1788 94.3872 70.0221 94.4148 69.8563C94.7185 69.9761 95.1511 70.0129 95.5561 69.9576C95.464 69.6812 95.3812 69.3955 95.2892 69.119C94.6817 69.1282 94.0098 69.1098 93.8257 68.52C93.6876 68.0869 93.9546 67.6353 94.7553 67.4049C94.7093 67.2483 94.6541 67.0916 94.6081 66.9349C94.7461 66.9073 94.8934 66.8704 95.0314 66.8428C95.0775 66.9994 95.1327 67.1561 95.1787 67.3128C95.5653 67.2483 95.9887 67.2483 96.3108 67.3312C96.2832 67.4879 96.2556 67.6445 96.2372 67.8012C95.9242 67.7367 95.6113 67.7275 95.326 67.7643C95.418 68.05 95.5009 68.3265 95.5929 68.6122C96.2096 68.6029 96.8815 68.6029 97.0656 69.1835C97.1944 69.6074 96.9183 70.0682 96.1267 70.317ZM95.1327 68.6122C95.0499 68.3633 94.9762 68.1145 94.8934 67.8657C94.5344 67.9947 94.4332 68.179 94.4884 68.3633C94.5528 68.5569 94.8105 68.6029 95.1327 68.6122ZM96.4029 69.3678C96.3384 69.1651 96.0807 69.119 95.7494 69.1098C95.8322 69.3586 95.9058 69.6074 95.9887 69.8563C96.3476 69.7272 96.4673 69.5521 96.4029 69.3678Z" fill="#E0E0E0"/>
<path d="M191.464 57.7376C184.588 51.6184 179.875 40.2649 174.04 36.9473C177.759 32.4409 181.201 28.9574 184.496 25.99C189.181 33.4915 193.59 45.9509 201.919 46.7803C198.201 51.2775 194.768 54.7702 191.464 57.7376Z" fill="#EBEBEB"/>
<path d="M199.242 49.0654C198.404 48.7982 198.395 47.8029 199.196 46.9551C193.011 44.3194 189.126 35.1776 185.242 28.6069C184.515 29.2243 183.493 29.0677 182.987 28.2751C180.907 30.2104 178.762 32.3669 176.535 34.8735C177.115 35.4172 176.949 36.5876 176.148 37.4631C180.76 41.3889 184.819 49.904 190.166 55.6085C190.894 55.0002 192.062 55.0463 192.826 55.6085L192.836 55.6177C194.907 53.7009 197.042 51.5536 199.279 49.0746C199.251 49.0654 199.251 49.0654 199.242 49.0654ZM184.543 44.301C183.346 42.4763 183.613 40.0526 185.086 38.8546C186.558 37.6658 188.629 38.3477 189.807 40.2185C190.995 42.0893 190.838 44.4392 189.375 45.5912C187.921 46.7523 185.739 46.1441 184.543 44.301Z" fill="#E0E0E0"/>
<path d="M186.015 43.7022C185.886 43.8036 185.758 43.905 185.629 44.0063C185.555 43.8865 185.472 43.7667 185.399 43.6377C185.528 43.5363 185.656 43.435 185.785 43.3336C185.528 42.882 185.371 42.366 185.38 42.0158C185.546 41.9881 185.702 41.9697 185.859 41.942C185.859 42.2738 185.969 42.6885 186.153 43.0479C186.384 42.8636 186.614 42.6885 186.853 42.5042C186.632 41.9328 186.42 41.297 186.908 40.9191C187.267 40.6426 187.783 40.744 188.27 41.4075C188.399 41.3062 188.537 41.2048 188.666 41.1034C188.74 41.2232 188.823 41.3522 188.896 41.472C188.767 41.5734 188.639 41.6748 188.51 41.7669C188.703 42.1079 188.841 42.5042 188.878 42.836C188.721 42.8636 188.565 42.8912 188.408 42.9281C188.362 42.6056 188.261 42.3107 188.132 42.0526C187.893 42.2369 187.663 42.412 187.433 42.5963C187.654 43.1677 187.884 43.8036 187.396 44.1722C187.037 44.4579 186.512 44.3565 186.015 43.7022ZM187.267 42.1816C187.47 42.025 187.681 41.8591 187.884 41.7024C187.645 41.4075 187.433 41.3707 187.286 41.4905C187.12 41.6195 187.166 41.8683 187.267 42.1816ZM186.991 43.6377C187.166 43.5087 187.111 43.2507 187 42.9281C186.798 43.0848 186.586 43.2414 186.384 43.4073C186.641 43.7022 186.844 43.7483 186.991 43.6377Z" fill="#E0E0E0"/>
<path d="M213.038 153.856C209.899 145.193 211.151 132.964 207.607 127.269C213.019 125.085 217.704 123.656 222.012 122.615C222.573 131.443 220.521 144.511 227.442 149.202C222.03 151.386 217.345 152.814 213.038 153.856Z" fill="#EBEBEB"/>
<path d="M224 149.939C223.384 149.303 223.862 148.428 224.958 148.059C220.779 142.797 221.709 132.899 221.414 125.269C220.475 125.462 219.656 124.845 219.582 123.905C216.84 124.615 213.922 125.49 210.774 126.624C211.023 127.379 210.314 128.328 209.2 128.716C211.391 134.365 210.912 143.792 212.9 151.349C213.83 151.155 214.842 151.754 215.238 152.621C215.238 152.621 215.238 152.63 215.247 152.63C217.99 151.93 220.88 151.063 224.019 149.948C224.001 149.939 224 149.939 224 149.939ZM213.342 138.742C213.158 136.567 214.548 134.558 216.407 134.217C218.266 133.876 219.767 135.452 219.905 137.673C220.061 139.876 218.809 141.875 216.969 142.189C215.146 142.502 213.508 140.926 213.342 138.742Z" fill="#E0E0E0"/>
<path d="M214.916 138.908C214.759 138.936 214.594 138.963 214.428 138.991C214.419 138.844 214.41 138.705 214.4 138.558C214.566 138.53 214.723 138.503 214.888 138.475C214.879 137.95 214.989 137.434 215.164 137.12C215.321 137.176 215.468 137.231 215.625 137.286C215.468 137.572 215.367 137.996 215.367 138.401C215.652 138.355 215.947 138.309 216.232 138.263C216.306 137.655 216.425 137.001 217.033 136.899C217.475 136.825 217.88 137.157 217.999 137.977C218.165 137.95 218.331 137.922 218.487 137.894C218.496 138.042 218.505 138.189 218.515 138.328C218.358 138.355 218.192 138.383 218.036 138.401C218.045 138.798 217.981 139.212 217.852 139.526C217.695 139.48 217.548 139.424 217.392 139.378C217.502 139.074 217.557 138.77 217.567 138.484C217.272 138.53 216.987 138.576 216.692 138.622C216.609 139.231 216.517 139.903 215.91 139.996C215.459 140.069 215.045 139.728 214.916 138.908ZM216.747 138.171C217.005 138.125 217.263 138.088 217.521 138.051C217.447 137.682 217.281 137.544 217.097 137.581C216.885 137.609 216.803 137.848 216.747 138.171ZM215.809 139.323C216.02 139.286 216.103 139.037 216.158 138.705C215.901 138.751 215.643 138.788 215.385 138.825C215.468 139.212 215.625 139.35 215.809 139.323Z" fill="#E0E0E0"/>
<path d="M335.298 118.588C328.422 112.469 323.709 101.115 317.874 97.7976C321.593 93.2912 325.035 89.8077 328.33 86.8403C333.015 94.3418 337.424 106.801 345.754 107.631C342.035 112.128 338.593 115.621 335.298 118.588Z" fill="#EBEBEB"/>
<path d="M343.076 109.916C342.238 109.649 342.229 108.653 343.03 107.805C336.844 105.17 332.96 96.0279 329.076 89.4572C328.349 90.0747 327.327 89.918 326.821 89.1255C324.741 91.0608 322.596 93.2172 320.369 95.7146C320.949 96.2583 320.783 97.4287 319.982 98.3042C324.594 102.23 328.653 110.745 334 116.44C334.728 115.832 335.896 115.878 336.66 116.44L336.67 116.45C338.741 114.533 340.876 112.386 343.113 109.907C343.085 109.916 343.076 109.916 343.076 109.916ZM328.377 105.151C327.18 103.327 327.447 100.903 328.92 99.7049C330.392 98.5161 332.463 99.1981 333.641 101.069C334.829 102.94 334.672 105.29 333.209 106.442C331.755 107.603 329.573 106.994 328.377 105.151Z" fill="#E0E0E0"/>
<path d="M329.84 104.553C329.711 104.654 329.582 104.755 329.453 104.857C329.379 104.737 329.297 104.617 329.223 104.488C329.352 104.387 329.481 104.285 329.609 104.184C329.352 103.732 329.195 103.216 329.204 102.866C329.37 102.838 329.527 102.82 329.683 102.792C329.683 103.124 329.794 103.539 329.978 103.898C330.208 103.714 330.438 103.539 330.677 103.355C330.456 102.783 330.245 102.147 330.732 101.769C331.091 101.493 331.607 101.594 332.095 102.258C332.223 102.157 332.361 102.055 332.49 101.954C332.564 102.074 332.647 102.203 332.72 102.322C332.592 102.424 332.463 102.525 332.334 102.617C332.527 102.958 332.665 103.355 332.702 103.686C332.546 103.714 332.389 103.742 332.233 103.778C332.187 103.456 332.085 103.161 331.957 102.903C331.717 103.087 331.487 103.262 331.257 103.447C331.478 104.018 331.708 104.654 331.22 105.023C330.87 105.308 330.346 105.207 329.84 104.553ZM331.101 103.032C331.303 102.875 331.515 102.709 331.717 102.553C331.478 102.258 331.266 102.221 331.119 102.341C330.953 102.47 330.999 102.719 331.101 103.032ZM330.824 104.488C330.999 104.359 330.944 104.101 330.834 103.778C330.631 103.935 330.419 104.092 330.217 104.258C330.475 104.553 330.677 104.599 330.824 104.488Z" fill="#E0E0E0"/>
<path d="M172.254 100.415C166.078 108.386 160.436 116.92 157.941 126.034C153.781 124.311 149.51 122.569 145.341 120.56C148.608 111.077 154.25 102.765 159.653 94.9409C163.814 96.6642 168.084 98.406 172.254 100.415Z" fill="#EBEBEB"/>
<path d="M161.587 96.526C160.979 97.383 159.746 97.7516 158.816 97.3554C154.362 103.862 149.907 110.746 146.906 118.367C147.836 118.818 148.278 119.98 147.937 120.984C150.542 122.182 153.174 123.297 155.779 124.385C156.074 123.399 157.114 122.938 158.034 123.334C160.565 115.915 165.011 108.912 169.944 102.286C169.015 101.843 168.775 100.784 169.429 99.9265L169.438 99.9173C166.833 98.7193 164.201 97.6134 161.596 96.526C161.587 96.5167 161.587 96.5167 161.587 96.526ZM160.777 111.603C159.691 113.483 157.39 114.358 155.521 113.492C153.653 112.626 152.972 110.34 154.067 108.469C155.153 106.599 157.592 105.815 159.461 106.663C161.329 107.52 161.872 109.713 160.777 111.603Z" fill="#E0E0E0"/>
<path d="M159.415 110.506C159.581 110.58 159.746 110.663 159.912 110.736C159.838 110.856 159.765 110.985 159.7 111.105C159.535 111.031 159.369 110.948 159.203 110.875C158.918 111.308 158.531 111.667 158.2 111.815C158.089 111.676 157.979 111.538 157.869 111.4C158.172 111.262 158.494 110.976 158.725 110.653C158.43 110.515 158.135 110.377 157.832 110.239C157.418 110.681 156.957 111.151 156.341 110.865C155.89 110.653 155.678 110.128 156.019 109.391C155.853 109.308 155.687 109.234 155.521 109.151C155.595 109.031 155.669 108.902 155.733 108.783C155.899 108.856 156.065 108.939 156.23 109.013C156.442 108.691 156.736 108.396 157.04 108.23C157.151 108.359 157.27 108.488 157.381 108.626C157.105 108.801 156.874 109.013 156.709 109.243C157.003 109.382 157.307 109.52 157.611 109.658C158.025 109.216 158.504 108.746 159.12 109.031C159.571 109.243 159.755 109.769 159.415 110.506ZM157.298 109.99C157.031 109.87 156.773 109.741 156.506 109.621C156.368 109.962 156.451 110.174 156.644 110.266C156.856 110.368 157.068 110.22 157.298 109.99ZM158.817 109.63C158.596 109.529 158.375 109.677 158.145 109.916C158.412 110.036 158.669 110.156 158.936 110.285C159.074 109.925 159.01 109.723 158.817 109.63Z" fill="#E0E0E0"/>
<path d="M329.194 147.672C323.018 155.644 317.376 164.177 314.882 173.292C310.721 171.568 306.451 169.826 302.281 167.817C305.549 158.335 311.191 150.022 316.594 142.198C320.754 143.922 325.016 145.654 329.194 147.672Z" fill="#EBEBEB"/>
<path d="M318.527 143.783C317.92 144.64 316.686 145.009 315.757 144.613C311.302 151.119 306.847 158.003 303.847 165.624C304.776 166.076 305.218 167.237 304.878 168.241C307.482 169.439 310.115 170.554 312.72 171.642C313.014 170.656 314.054 170.195 314.975 170.591C317.506 163.173 321.951 156.169 326.885 149.543C325.955 149.101 325.716 148.041 326.369 147.184L326.378 147.174C323.774 145.976 321.141 144.871 318.537 143.783C318.527 143.774 318.527 143.774 318.527 143.783ZM317.717 158.86C316.631 160.74 314.33 161.615 312.462 160.749C310.593 159.883 309.912 157.597 311.008 155.727C312.094 153.856 314.533 153.072 316.401 153.92C318.27 154.777 318.813 156.971 317.717 158.86Z" fill="#E0E0E0"/>
<path d="M316.356 157.763C316.522 157.837 316.688 157.92 316.853 157.993C316.78 158.113 316.706 158.242 316.642 158.362C316.476 158.288 316.31 158.205 316.145 158.132C315.859 158.565 315.473 158.924 315.141 159.072C315.031 158.933 314.92 158.795 314.81 158.657C315.114 158.519 315.436 158.233 315.666 157.911C315.371 157.772 315.077 157.634 314.773 157.496C314.359 157.938 313.899 158.408 313.282 158.122C312.831 157.911 312.619 157.385 312.96 156.648C312.794 156.565 312.629 156.491 312.463 156.408C312.537 156.289 312.61 156.16 312.675 156.04C312.84 156.113 313.006 156.196 313.172 156.27C313.383 155.948 313.678 155.653 313.982 155.487C314.092 155.616 314.212 155.745 314.322 155.883C314.046 156.058 313.816 156.27 313.65 156.501C313.945 156.639 314.248 156.777 314.552 156.915C314.966 156.473 315.445 156.003 316.062 156.289C316.513 156.501 316.697 157.017 316.356 157.763ZM314.239 157.247C313.972 157.127 313.715 156.998 313.448 156.878C313.31 157.219 313.392 157.431 313.586 157.523C313.797 157.625 314.009 157.477 314.239 157.247ZM315.758 156.888C315.537 156.786 315.316 156.934 315.086 157.173C315.353 157.293 315.611 157.413 315.878 157.542C316.016 157.182 315.942 156.971 315.758 156.888Z" fill="#E0E0E0"/>
<path d="M289.515 40.3019C289.018 30.2477 280.044 23.3269 279.547 13.2819C283.827 11.6968 288.107 10.1117 292.396 8.53589C292.893 18.5901 301.867 25.5109 302.364 35.5559C298.084 37.141 293.804 38.7168 289.515 40.3019Z" fill="#EBEBEB"/>
<path d="M299.888 35.6848C299.787 34.625 300.394 33.5099 301.361 33.1505C299.815 25.3265 293.593 19.235 292.046 11.4018C291.08 11.7612 290.123 11.2267 290.021 10.1577C287.352 11.1438 284.683 12.1298 282.014 13.1159C282.106 14.1757 281.507 15.2908 280.541 15.6502C282.078 23.4742 288.309 29.5749 289.856 37.3989C290.822 37.0395 291.779 37.574 291.881 38.643C291.881 38.6522 291.881 38.6522 291.881 38.6614C294.55 37.6754 297.219 36.6893 299.888 35.7032C299.888 35.7032 299.888 35.694 299.888 35.6848ZM287.509 25.5108C286.459 23.6493 287.269 21.5297 289.248 20.8017C291.218 20.0737 293.611 21.0136 294.66 22.866C295.709 24.7275 294.909 26.8379 292.93 27.5751C290.96 28.3124 288.558 27.3724 287.509 25.5108Z" fill="#E0E0E0"/>
<path d="M289.377 25.2531C289.202 25.3176 289.027 25.3821 288.843 25.4466C288.779 25.3268 288.705 25.207 288.641 25.078C288.816 25.0135 288.99 24.949 289.165 24.8845C288.954 24.4329 288.862 23.9537 288.954 23.6404C289.147 23.6496 289.349 23.6588 289.543 23.668C289.478 23.9537 289.524 24.3408 289.681 24.6909C289.994 24.5711 290.316 24.4606 290.629 24.3408C290.481 23.797 290.353 23.198 291.015 22.9584C291.503 22.7833 292.101 22.9584 292.562 23.6219C292.736 23.5574 292.921 23.4929 293.095 23.4284C293.16 23.5482 293.233 23.668 293.298 23.797C293.123 23.8615 292.948 23.9261 292.773 23.9906C292.939 24.3315 293.022 24.7002 292.985 25.0043C292.792 25.0043 292.598 25.0043 292.405 24.9951C292.424 24.7094 292.359 24.4237 292.258 24.1749C291.936 24.2947 291.623 24.4145 291.301 24.5251C291.448 25.0688 291.586 25.6678 290.923 25.9166C290.454 26.1101 289.846 25.9258 289.377 25.2531ZM291.199 24.138C291.485 24.0366 291.761 23.9261 292.046 23.8247C291.816 23.5298 291.568 23.4561 291.365 23.5298C291.135 23.6219 291.135 23.8523 291.199 24.138ZM290.573 25.3729C290.804 25.29 290.804 25.0504 290.739 24.7555C290.463 24.8568 290.178 24.9582 289.902 25.0688C290.132 25.3729 290.371 25.4466 290.573 25.3729Z" fill="#E0E0E0"/>
<path d="M28.6781 159.385C28.1811 149.331 19.207 142.41 18.71 132.365C22.9899 130.78 27.2698 129.195 31.559 127.619C32.056 137.674 41.0301 144.594 41.5271 154.639C37.238 156.215 32.958 157.8 28.6781 159.385Z" fill="#EBEBEB"/>
<path d="M39.0523 154.769C38.951 153.709 39.5585 152.594 40.5249 152.234C38.9786 144.41 32.7566 138.319 31.2103 130.486C30.2439 130.845 29.2866 130.31 29.1854 129.241C26.5162 130.228 23.847 131.214 21.1777 132.2C21.2698 133.259 20.6715 134.375 19.7051 134.734C21.2422 142.558 27.4734 148.659 29.0197 156.483C29.9861 156.123 30.9434 156.658 31.0446 157.727C31.0446 157.736 31.0446 157.736 31.0446 157.745C33.7138 156.759 36.383 155.773 39.0523 154.787C39.0523 154.778 39.0523 154.778 39.0523 154.769ZM26.6634 144.595C25.6142 142.733 26.4241 140.613 28.403 139.885C30.3727 139.157 32.7658 140.097 33.8151 141.95C34.8644 143.811 34.0636 145.922 32.0847 146.659C30.115 147.387 27.7127 146.456 26.6634 144.595Z" fill="#E0E0E0"/>
<path d="M28.541 144.336C28.3661 144.401 28.1913 144.465 28.0072 144.53C27.9427 144.41 27.8691 144.29 27.8047 144.161C27.9796 144.097 28.1544 144.032 28.3293 143.968C28.1176 143.516 28.0256 143.037 28.1176 142.724C28.3109 142.733 28.5134 142.742 28.7067 142.751C28.6423 143.037 28.6883 143.424 28.8448 143.774C29.1577 143.654 29.4798 143.544 29.7928 143.424C29.6455 142.88 29.5167 142.281 30.1794 142.042C30.6672 141.866 31.2655 142.042 31.7257 142.705C31.9005 142.641 32.0846 142.576 32.2595 142.512C32.3239 142.631 32.3976 142.751 32.462 142.88C32.2871 142.945 32.1122 143.009 31.9374 143.074C32.103 143.415 32.1859 143.783 32.1491 144.087C31.9558 144.087 31.7625 144.087 31.5692 144.078C31.5876 143.793 31.5232 143.507 31.4219 143.258C31.0998 143.378 30.7868 143.498 30.4647 143.608C30.612 144.152 30.75 144.751 30.0873 145C29.6087 145.193 29.0104 145.009 28.541 144.336ZM30.3635 143.221C30.6488 143.12 30.9249 143.009 31.2102 142.908C30.9801 142.613 30.7316 142.539 30.5291 142.613C30.299 142.705 30.299 142.935 30.3635 143.221ZM29.7284 144.456C29.9585 144.373 29.9585 144.133 29.894 143.839C29.6179 143.94 29.3326 144.041 29.0565 144.152C29.2866 144.456 29.5259 144.53 29.7284 144.456Z" fill="#E0E0E0"/>
<path d="M61.5559 40.0992C58.0491 49.794 45.9456 49.6005 41.9142 57.8207C38.1773 54.5308 34.5048 51.3975 30.9336 48.5499C34.4404 38.8551 46.5439 39.0486 50.5753 30.8284C54.303 34.1183 57.9755 37.2516 61.5559 40.0992Z" fill="#EBEBEB"/>
<path d="M52.36 33.2977C51.8906 34.1548 50.7309 34.1456 49.8933 33.3899C45.5305 39.0851 36.6761 40.0251 32.6631 46.6787C33.4823 47.3607 33.7032 48.5955 33.2614 49.5263C35.5164 51.3879 37.8082 53.3416 40.1277 55.369C40.5971 54.5119 41.7568 54.5119 42.5944 55.2676C46.948 49.5632 55.8116 48.6232 59.8338 41.9788C59.0146 41.2968 58.7937 40.0712 59.2355 39.1404C59.2355 39.1404 59.2447 39.1312 59.2447 39.122C56.9897 37.2604 54.6979 35.3067 52.3784 33.2793C52.36 33.2885 52.36 33.2885 52.36 33.2977ZM49.0925 47.1303C47.3253 48.0518 44.5365 47.5358 42.7877 45.9599C41.0389 44.3748 40.9929 42.2645 42.7509 41.3245C44.5089 40.3937 47.3161 40.9282 49.0649 42.5041C50.8137 44.1076 50.8505 46.2087 49.0925 47.1303Z" fill="#E0E0E0"/>
<path d="M47.9432 45.6008C48.0997 45.7483 48.2561 45.8865 48.4126 46.0339C48.293 46.0985 48.1825 46.1537 48.0721 46.2183C47.9156 46.08 47.7591 45.9326 47.6026 45.7943C47.1701 45.9879 46.6362 46.08 46.222 46.0247C46.1484 45.8589 46.0655 45.7022 45.9827 45.5363C46.3509 45.5824 46.7927 45.5271 47.1424 45.3796C46.8663 45.1216 46.581 44.8636 46.3049 44.6147C45.725 44.7622 45.0715 44.882 44.4916 44.3567C44.059 43.9697 43.9946 43.4536 44.5929 43.0481C44.4364 42.9007 44.2799 42.7624 44.1143 42.615C44.2247 42.5505 44.3444 42.4952 44.4548 42.4307C44.6113 42.5689 44.7678 42.7163 44.9242 42.8546C45.2556 42.7071 45.6606 42.6242 46.0379 42.6334C46.1208 42.7901 46.2036 42.956 46.2864 43.1126C45.9367 43.1126 45.6237 43.1679 45.3752 43.2693C45.6606 43.5273 45.9459 43.7854 46.222 44.0434C46.8019 43.9052 47.4554 43.7669 48.0444 44.3014C48.4862 44.6793 48.5323 45.1861 47.9432 45.6008ZM45.7986 44.1355C45.5501 43.9052 45.3016 43.6748 45.0531 43.4536C44.7954 43.6563 44.823 43.8591 45.0071 44.025C45.2188 44.2093 45.4857 44.2001 45.7986 44.1355ZM47.5566 44.6055C47.3449 44.4212 47.0688 44.4304 46.7467 44.4949C46.9952 44.7253 47.2437 44.9465 47.4922 45.1769C47.7499 44.9742 47.7315 44.7714 47.5566 44.6055Z" fill="#E0E0E0"/>
<path d="M70.9895 177.208C67.4827 186.903 55.3792 186.709 51.3478 194.929C47.6109 191.64 43.9384 188.506 40.3672 185.659C43.874 175.964 55.9775 176.157 60.0089 167.937C63.7458 171.227 67.4183 174.36 70.9895 177.208Z" fill="#EBEBEB"/>
<path d="M61.7946 170.407C61.3252 171.264 60.1655 171.255 59.3279 170.499C54.9651 176.194 46.1107 177.134 42.0977 183.788C42.9168 184.47 43.1377 185.705 42.6959 186.635C44.9509 188.497 47.2428 190.451 49.5622 192.478C50.0317 191.621 51.1822 191.621 52.029 192.377C56.3825 186.672 65.2462 185.732 69.2592 179.088C68.44 178.406 68.2191 177.18 68.6609 176.249C68.6609 176.249 68.6701 176.24 68.6701 176.231C66.4151 174.369 64.1232 172.416 61.8038 170.388C61.8038 170.398 61.7946 170.398 61.7946 170.407ZM58.5271 184.239C56.7599 185.161 53.971 184.645 52.2223 183.069C50.4735 181.484 50.4274 179.373 52.1854 178.433C53.9434 177.503 56.7507 178.037 58.4995 179.613C60.2483 181.207 60.2851 183.318 58.5271 184.239Z" fill="#E0E0E0"/>
<path d="M57.3856 182.7C57.542 182.848 57.6985 182.986 57.855 183.133C57.7353 183.198 57.6249 183.253 57.5144 183.318C57.358 183.179 57.2015 183.032 57.045 182.894C56.6124 183.087 56.0786 183.179 55.6644 183.124C55.5908 182.958 55.5079 182.802 55.4251 182.636C55.7933 182.682 56.2351 182.627 56.5848 182.479C56.3087 182.221 56.0234 181.963 55.7472 181.714C55.1674 181.862 54.5139 181.981 53.934 181.456C53.5014 181.069 53.437 180.553 54.0353 180.148C53.8788 180 53.7223 179.862 53.5566 179.714C53.6671 179.65 53.7867 179.595 53.8972 179.53C54.0537 179.668 54.2101 179.816 54.3666 179.954C54.698 179.807 55.1029 179.724 55.4803 179.733C55.5631 179.89 55.646 180.055 55.7288 180.212C55.3791 180.212 55.0661 180.267 54.8176 180.369C55.1029 180.627 55.3883 180.885 55.6644 181.143C56.2443 181.005 56.8977 180.866 57.4868 181.401C57.9194 181.788 57.9746 182.295 57.3856 182.7ZM55.241 181.244C54.9925 181.014 54.744 180.783 54.4955 180.562C54.2377 180.765 54.2654 180.968 54.4494 181.134C54.6519 181.318 54.9281 181.309 55.241 181.244ZM56.9898 181.714C56.7781 181.53 56.502 181.539 56.1798 181.604C56.4283 181.834 56.6768 182.055 56.9254 182.286C57.1831 182.083 57.1739 181.88 56.9898 181.714Z" fill="#E0E0E0"/>
<path d="M179.229 311.147C277.79 311.147 357.689 306.477 357.689 300.715C357.689 294.954 277.79 290.283 179.229 290.283C80.6687 290.283 0.769531 294.954 0.769531 300.715C0.769531 306.477 80.6687 311.147 179.229 311.147Z" fill="#F5F5F5"/>
<path d="M107.361 31.7776C98.5526 26.8381 90.4898 16.1849 83.5498 13.8902C86.1086 8.63736 88.6673 4.4535 91.2353 0.831787C98.1844 7.57757 106.238 19.4196 115.046 18.7192C112.479 23.972 109.92 28.1559 107.361 31.7776Z" fill="#27AE60"/>
<path opacity="0.5" d="M107.361 31.7776C98.5526 26.8381 90.4898 16.1849 83.5498 13.8902C86.1086 8.63736 88.6673 4.4535 91.2353 0.831787C98.1844 7.57757 106.238 19.4196 115.046 18.7192C112.479 23.972 109.92 28.1559 107.361 31.7776Z" fill="white"/>
<path opacity="0.2" d="M112.929 21.5302C111.99 21.4196 111.705 20.4059 112.285 19.3922C105.17 17.8624 98.5889 9.30115 92.7258 3.3479C92.146 4.11279 91.0599 4.14044 90.3051 3.43084C88.7036 5.78081 87.1113 8.37038 85.5098 11.3194C86.2645 11.7709 86.421 12.9874 85.8411 14.0287C91.7042 17.1528 98.2852 25.0505 105.4 29.8518C105.98 29.0962 107.195 28.9211 108.143 29.3634C108.143 29.3634 108.152 29.3634 108.161 29.3726C109.763 27.0411 111.355 24.47 112.947 21.5302C112.938 21.5302 112.929 21.5302 112.929 21.5302ZM96.4443 19.429C94.6955 17.7979 94.2906 15.282 95.4687 13.7983C96.6468 12.3146 98.9755 12.628 100.715 14.3144C102.464 15.9916 102.97 18.4061 101.783 19.853C100.614 21.2814 98.1839 21.0694 96.4443 19.429Z" fill="black"/>
<g opacity="0.2">
<path opacity="0.2" d="M97.7792 18.5349C97.6779 18.6639 97.5675 18.7837 97.4662 18.9127C97.3558 18.8021 97.2361 18.6915 97.1257 18.5809C97.2269 18.4519 97.3374 18.3321 97.4386 18.2031C97.0428 17.7884 96.7391 17.3 96.6562 16.9406C96.8127 16.8853 96.9692 16.83 97.1257 16.7747C97.2177 17.1064 97.4478 17.5119 97.7423 17.8437C97.9264 17.6133 98.1197 17.3921 98.313 17.171C97.9264 16.6272 97.5306 16.0282 97.9264 15.549C98.2118 15.1988 98.7732 15.208 99.4727 15.7886C99.5832 15.6596 99.6844 15.5306 99.7949 15.4108C99.9053 15.5214 100.025 15.632 100.135 15.7425C100.034 15.8716 99.9237 15.9914 99.8225 16.1204C100.126 16.4337 100.375 16.8115 100.504 17.1433C100.347 17.1986 100.2 17.2631 100.043 17.3184C99.9053 17.0051 99.7212 16.7194 99.5095 16.4798C99.3163 16.7102 99.1322 16.9313 98.9389 17.1617C99.3255 17.7055 99.7489 18.3045 99.3531 18.7745C99.0585 19.1154 98.4879 19.1154 97.7792 18.5349ZM98.6536 16.7563C98.8192 16.5535 98.9941 16.36 99.1598 16.1572C98.8284 15.9084 98.6075 15.9084 98.4787 16.0559C98.3406 16.2217 98.4511 16.4706 98.6536 16.7563ZM98.7732 18.286C98.9113 18.1202 98.7916 17.8621 98.5891 17.5672C98.4235 17.77 98.2578 17.9635 98.0829 18.1662C98.4327 18.4243 98.6536 18.4335 98.7732 18.286Z" fill="black"/>
</g>
<path d="M182.929 70.7778C174.829 75.1459 162.569 75.6989 157.452 80.0394C154.497 74.9985 152.408 70.5658 150.751 66.4464C159.394 64.6033 172.602 64.7324 176.228 57.1848C179.173 62.2349 181.272 66.6584 182.929 70.7778Z" fill="#27AE60"/>
<path opacity="0.5" d="M182.929 70.7778C174.829 75.1459 162.569 75.6989 157.452 80.0394C154.497 74.9985 152.408 70.5658 150.751 66.4464C159.394 64.6033 172.602 64.7324 176.228 57.1848C179.173 62.2349 181.272 66.6584 182.929 70.7778Z" fill="white"/>
<path opacity="0.2" d="M177.453 60.493C176.92 61.1934 175.981 60.8525 175.456 59.8203C170.863 64.7322 160.95 65.2575 153.458 66.6675C153.79 67.5706 153.292 68.4737 152.372 68.6765C153.477 71.2937 154.765 74.0491 156.348 77.0073C157.057 76.6479 158.097 77.2101 158.649 78.2606C163.914 75.2656 173.293 74.3625 180.472 71.2937C180.15 70.3998 180.592 69.3123 181.384 68.7963L181.393 68.787C180.298 66.179 179.027 63.4328 177.453 60.4838C177.463 60.493 177.463 60.493 177.453 60.493ZM167.955 72.6944C165.838 73.1921 163.647 72.1046 163.031 70.3168C162.414 68.529 163.767 66.8149 165.93 66.3449C168.084 65.8749 170.237 66.8149 170.826 68.5935C171.406 70.3537 170.09 72.1968 167.955 72.6944Z" fill="black"/>
<g opacity="0.2">
<path opacity="0.2" d="M167.889 71.1002C167.945 71.2569 167.991 71.4136 168.037 71.5702C167.899 71.5979 167.751 71.6348 167.613 71.6624C167.567 71.5057 167.512 71.3491 167.466 71.1924C166.951 71.2753 166.417 71.2477 166.085 71.1187C166.113 70.962 166.15 70.8054 166.177 70.6395C166.481 70.7593 166.914 70.7961 167.319 70.7408C167.227 70.4644 167.144 70.1787 167.052 69.9022C166.444 69.9114 165.772 69.893 165.588 69.3032C165.45 68.8701 165.717 68.4185 166.518 68.1881C166.472 68.0315 166.417 67.8748 166.371 67.7181C166.509 67.6905 166.656 67.6536 166.794 67.626C166.84 67.7826 166.895 67.9393 166.941 68.096C167.328 68.0315 167.751 68.0315 168.074 68.1144C168.046 68.2711 168.018 68.4277 168 68.5844C167.687 68.5199 167.374 68.5107 167.089 68.5475C167.181 68.8332 167.264 69.1097 167.356 69.3954C167.972 69.3862 168.644 69.3861 168.828 69.9667C168.957 70.3906 168.681 70.8514 167.889 71.1002ZM166.895 69.3954C166.813 69.1465 166.739 68.8977 166.656 68.6489C166.297 68.7779 166.196 68.9622 166.251 69.1465C166.316 69.3493 166.573 69.3954 166.895 69.3954ZM168.166 70.1603C168.101 69.9575 167.843 69.9114 167.503 69.9022C167.586 70.151 167.659 70.3999 167.742 70.6487C168.11 70.5105 168.221 70.3354 168.166 70.1603Z" fill="black"/>
</g>
<path d="M249.115 12.7105C239.561 15.9359 230.163 19.9355 223.048 26.156C220.526 22.4145 217.931 18.6084 215.565 14.6181C223.518 8.51741 232.814 4.71138 241.632 1.17261C244.154 4.91412 246.749 8.72015 249.115 12.7105Z" fill="#27AE60"/>
<path opacity="0.5" d="M249.115 12.7105C239.561 15.9359 230.163 19.9355 223.048 26.156C220.526 22.4145 217.931 18.6084 215.565 14.6181C223.518 8.51741 232.814 4.71138 241.632 1.17261C244.154 4.91412 246.749 8.72015 249.115 12.7105Z" fill="white"/>
<path opacity="0.2" d="M242.368 3.56884C241.393 3.94668 240.15 3.56884 239.607 2.73022C232.299 5.68842 224.788 8.96916 218.088 13.6599C218.612 14.5446 218.345 15.761 217.508 16.4061C219.017 18.8482 220.591 21.2258 222.165 23.585C222.957 22.9307 224.08 23.115 224.623 23.9536C230.826 19.1708 238.392 15.7979 246.16 12.9964C245.636 12.1117 246.013 11.0979 247.035 10.7385C247.044 10.7385 247.044 10.7385 247.053 10.7293C245.544 8.2872 243.961 5.90959 242.396 3.55962C242.377 3.55962 242.377 3.55962 242.368 3.56884ZM233.376 15.6873C231.434 16.6549 229.031 16.1112 227.955 14.3603C226.878 12.6093 227.568 10.3238 229.519 9.36542C231.461 8.40701 233.928 9.10739 235.005 10.8491C236.091 12.5909 235.327 14.7197 233.376 15.6873Z" fill="black"/>
<g opacity="0.2">
<path opacity="0.2" d="M232.85 14.0194C232.942 14.176 233.043 14.3327 233.135 14.4894C233.006 14.5539 232.877 14.6184 232.748 14.6829C232.656 14.5262 232.555 14.3696 232.463 14.2221C231.994 14.4249 231.469 14.517 231.11 14.4525C231.092 14.2774 231.073 14.1023 231.055 13.9272C231.386 13.9733 231.81 13.918 232.178 13.7706C232.012 13.4941 231.837 13.2084 231.662 12.9319C231.073 13.0794 230.429 13.2084 230.07 12.6278C229.803 12.2039 229.923 11.651 230.613 11.2271C230.521 11.0704 230.42 10.9137 230.328 10.7571C230.457 10.6926 230.585 10.628 230.714 10.5728C230.806 10.7294 230.908 10.8861 231 11.0335C231.359 10.8769 231.764 10.8031 232.113 10.8308C232.141 11.0059 232.159 11.1718 232.178 11.3469C231.846 11.3376 231.543 11.3929 231.276 11.4943C231.451 11.78 231.616 12.0565 231.791 12.3421C232.38 12.2039 233.043 12.0749 233.402 12.6555C233.669 13.061 233.54 13.5955 232.85 14.0194ZM231.368 12.4159C231.211 12.167 231.064 11.9182 230.908 11.6694C230.604 11.8814 230.558 12.1025 230.668 12.2868C230.788 12.4896 231.046 12.4804 231.368 12.4159ZM232.831 12.9596C232.702 12.7568 232.435 12.7568 232.113 12.8213C232.27 13.0702 232.417 13.319 232.564 13.5586C232.877 13.3466 232.942 13.1347 232.831 12.9596Z" fill="black"/>
</g>
<path d="M80.9093 110.958C73.9417 103.696 62.639 104.378 55.6807 97.1159C57.8713 93.1071 60.0711 89.0984 62.2616 85.0896C69.2292 92.3515 80.5319 91.6695 87.4903 98.9314C85.2997 102.949 83.0999 106.949 80.9093 110.958Z" fill="#27AE60"/>
<path opacity="0.5" d="M80.9093 110.958C73.9417 103.696 62.639 104.378 55.6807 97.1159C57.8713 93.1071 60.0711 89.0984 62.2616 85.0896C69.2292 92.3515 80.5319 91.6695 87.4903 98.9314C85.2997 102.949 83.0999 106.949 80.9093 110.958Z" fill="white"/>
<path opacity="0.2" d="M85.7137 100.664C84.9406 99.9267 84.6736 98.6918 85.1615 97.7794C78.8658 92.8952 70.1771 92.3791 63.8814 87.4949C63.3844 88.398 62.3167 88.6284 61.5435 87.8911C60.1721 90.3886 58.8099 92.886 57.4385 95.3834C58.2024 96.1206 58.4785 97.3555 57.9907 98.2679C64.2864 103.161 72.9751 103.668 79.2708 108.552C79.7678 107.649 80.8355 107.419 81.6086 108.156L81.6178 108.165C82.9893 105.668 84.3515 103.171 85.7229 100.673L85.7137 100.664ZM69.6984 101.125C67.6919 100.415 66.9096 98.2771 67.922 96.4247C68.9345 94.5816 71.346 93.7154 73.3617 94.425C75.3682 95.1346 76.1598 97.2634 75.1381 99.1065C74.1349 100.968 71.7049 101.834 69.6984 101.125Z" fill="black"/>
<g opacity="0.2">
<path opacity="0.2" d="M70.9412 99.6964C70.8491 99.8623 70.7571 100.028 70.6651 100.194C70.5362 100.148 70.3981 100.102 70.2693 100.056C70.3613 99.8899 70.4442 99.7241 70.5362 99.5674C70.076 99.3739 69.6986 99.0605 69.5605 98.7749C69.717 98.6551 69.8643 98.526 70.0208 98.4062C70.1588 98.6735 70.4442 98.9315 70.7939 99.0882C70.9596 98.7933 71.1161 98.4984 71.2817 98.2035C70.8123 97.8902 70.3245 97.5215 70.6651 96.9041C70.9136 96.4525 71.4842 96.1853 72.2666 96.388C72.3586 96.2221 72.4507 96.0563 72.5427 95.8904C72.6716 95.9365 72.8096 95.9825 72.9385 96.0286C72.8464 96.1945 72.7636 96.3604 72.6716 96.517C73.0213 96.6645 73.3251 96.8857 73.4999 97.1437C73.3527 97.2727 73.2054 97.3925 73.0581 97.5215C72.8833 97.2911 72.6532 97.116 72.4138 96.9962C72.2482 97.2911 72.0917 97.5953 71.926 97.8902C72.3954 98.2035 72.8925 98.5721 72.5519 99.1803C72.3126 99.6411 71.7419 99.8992 70.9412 99.6964ZM71.5855 97.6598C71.7327 97.3925 71.8708 97.1345 72.0181 96.8672C71.6499 96.7935 71.4198 96.9041 71.3093 97.0976C71.1989 97.3096 71.3462 97.4847 71.5855 97.6598ZM71.926 99.0052C72.0457 98.7841 71.8892 98.609 71.6407 98.4339C71.4934 98.6919 71.3554 98.9592 71.2081 99.2172C71.5855 99.2909 71.8156 99.1988 71.926 99.0052Z" fill="black"/>
</g>
<path d="M308.574 74.0125C302.002 81.9563 290.681 77.6711 284.109 84.0483C281.707 79.6893 279.305 75.4962 276.902 71.6073C283.474 63.6635 294.795 67.9487 301.367 61.5715C303.769 65.9397 306.172 70.1236 308.574 74.0125Z" fill="#27AE60"/>
<path opacity="0.5" d="M308.574 74.0125C302.002 81.9563 290.681 77.6711 284.109 84.0483C281.707 79.6893 279.305 75.4962 276.902 71.6073C283.474 63.6635 294.795 67.9487 301.367 61.5715C303.769 65.9397 306.172 70.1236 308.574 74.0125Z" fill="white"/>
<path opacity="0.2" d="M302.213 64.5021C301.486 65.1472 300.4 64.7509 299.857 63.7556C293.828 67.6354 285.176 65.525 279.148 70.4369C279.691 71.3585 279.479 72.5841 278.752 73.3214C280.252 75.8372 281.743 78.4544 283.244 81.1454C283.971 80.4911 285.057 80.8873 285.6 81.8918C291.629 78.0029 300.281 80.1132 306.309 75.2198C305.766 74.2982 305.978 73.0725 306.705 72.3445L306.714 72.3353C305.214 69.8194 303.723 67.2022 302.223 64.5113C302.223 64.4929 302.223 64.4929 302.213 64.5021ZM294.473 76.4178C292.503 76.685 290.045 75.2566 288.941 73.1831C287.827 71.1004 288.499 69.0914 290.469 68.815C292.439 68.5385 294.905 69.9853 296.01 72.0588C297.114 74.1508 296.442 76.1413 294.473 76.4178Z" fill="black"/>
<g opacity="0.2">
<path opacity="0.2" d="M293.911 74.5838C294.012 74.7681 294.113 74.9617 294.205 75.146C294.076 75.1644 293.947 75.1828 293.819 75.2013C293.717 75.017 293.625 74.8326 293.524 74.6391C293.045 74.676 292.512 74.5746 292.153 74.3903C292.134 74.206 292.116 74.0309 292.097 73.8466C292.429 74.0125 292.861 74.1138 293.239 74.0954C293.064 73.7636 292.889 73.4227 292.705 73.0909C292.107 73.0264 291.453 72.925 291.085 72.2339C290.818 71.7178 290.919 71.2201 291.619 71.0358C291.518 70.8423 291.416 70.658 291.315 70.4645C291.444 70.446 291.573 70.4276 291.702 70.4092C291.803 70.5935 291.895 70.7778 291.996 70.9713C292.355 70.9437 292.769 70.999 293.11 71.1372C293.137 71.3123 293.165 71.4966 293.183 71.6717C292.852 71.5519 292.539 71.5058 292.281 71.5058C292.466 71.8468 292.64 72.1878 292.815 72.5195C293.414 72.5841 294.076 72.6762 294.444 73.3766C294.73 73.9019 294.61 74.3995 293.911 74.5838ZM292.392 72.4827C292.235 72.1878 292.079 71.8837 291.922 71.5888C291.619 71.6901 291.573 71.8929 291.692 72.1141C291.812 72.3537 292.07 72.4366 292.392 72.4827ZM293.874 73.524C293.745 73.2752 293.478 73.1923 293.147 73.1462C293.303 73.4411 293.46 73.7452 293.616 74.0401C293.938 73.9295 293.993 73.736 293.874 73.524Z" fill="black"/>
</g>
<path d="M268.538 136.024C242.25 186.764 207.394 232.557 165.497 271.382C144.051 255.015 122.605 238.648 101.15 222.281C143.048 183.456 177.904 137.664 204.191 86.9231C225.637 103.29 247.083 119.657 268.538 136.024Z" fill="#27AE60"/>
<path opacity="0.2" d="M268.538 136.015C266.375 140.198 264.147 144.345 261.855 148.456C236.461 194.257 203.943 235.745 165.497 271.373C144.051 255.006 122.605 238.639 101.15 222.272C143.048 183.447 177.913 137.655 204.191 86.9141C225.637 103.281 247.092 119.648 268.538 136.015Z" fill="white"/>
<path opacity="0.2" d="M214.298 100.028C211.436 105.447 205.076 106.783 200.243 103.088C177.426 143.959 148.93 181.383 115.62 214.236C120.462 217.932 120.857 224.42 116.402 228.622C129.767 238.824 143.141 249.025 156.505 259.227C160.96 255.025 168.406 254.527 173.238 258.213C206.557 225.36 235.054 187.935 257.862 147.064C253.02 143.378 251.538 136.061 254.401 130.642C254.419 130.614 254.428 130.587 254.447 130.559C241.082 120.358 227.709 110.156 214.344 99.9543C214.326 99.9728 214.307 100 214.298 100.028ZM206.972 197.28C199.397 207.205 184.808 208.808 174.923 201.261C165.028 193.704 163.583 179.881 171.158 169.946C178.752 160.031 192.484 157.782 202.379 165.329C212.273 172.877 214.565 187.364 206.972 197.28Z" fill="black"/>
<g opacity="0.2">
<path opacity="0.2" d="M200.048 188.967C200.932 189.64 201.816 190.322 202.708 190.995C202.211 191.649 201.714 192.303 201.217 192.948C200.343 192.275 199.459 191.612 198.585 190.939C196.661 193.16 194.149 194.828 192.114 195.234C191.59 194.275 191.074 193.308 190.55 192.349C192.409 191.916 194.471 190.672 196.017 188.986C194.434 187.778 192.851 186.571 191.277 185.364C188.617 187.52 185.561 189.667 182.266 187.152C179.845 185.299 179.118 181.963 181.603 177.982C180.71 177.3 179.818 176.618 178.925 175.936C179.422 175.282 179.919 174.637 180.416 173.983C181.29 174.655 182.174 175.319 183.048 175.992C184.484 174.296 186.343 172.895 188.138 172.222C188.69 173.162 189.252 174.102 189.804 175.042C188.12 175.761 186.712 176.793 185.616 177.945C187.218 179.162 188.81 180.378 190.412 181.604C193.062 179.438 196.035 177.153 199.33 179.669C201.733 181.502 202.506 184.921 200.048 188.967ZM188.405 183.171C186.997 182.092 185.589 181.023 184.18 179.945C183.15 181.834 183.453 183.198 184.493 183.991C185.635 184.866 186.951 184.24 188.405 183.171ZM197.25 182.903C196.091 182.019 194.756 182.654 193.265 183.779C194.664 184.848 196.063 185.917 197.462 186.986C198.52 185.041 198.263 183.687 197.25 182.903Z" fill="black"/>
</g>
<path opacity="0.2" d="M261.856 148.456C236.462 194.257 203.943 235.745 165.498 271.373C165.498 271.373 138.235 229.728 126.923 221.987C126.923 221.987 214.749 189.354 261.856 148.456Z" fill="black"/>
<path d="M329.948 203.804C287.149 241.625 238.127 271.732 185.065 292.799C170.964 269.787 156.863 246.767 142.763 223.756C195.825 202.689 244.846 172.582 287.646 134.761C301.746 157.772 315.847 180.783 329.948 203.804Z" fill="#27AE60"/>
<path opacity="0.3" d="M329.957 203.795C287.149 241.616 238.127 271.723 185.065 292.79C178.972 282.846 172.879 272.902 166.776 262.95V262.94C158.769 249.882 150.77 236.814 142.763 223.747C195.825 202.68 244.846 172.573 287.646 134.752C301.746 157.773 315.847 180.784 329.957 203.795Z" fill="white"/>
<path opacity="0.2" d="M292.34 150.631C287.72 154.649 281.304 153.598 278.129 148.401C242.113 178.268 202.056 202.874 159.137 221.471C162.322 226.659 160.352 232.861 154.683 235.165C163.473 249.514 172.263 263.853 181.053 278.202C186.722 275.898 193.846 278.11 197.022 283.307C239.941 264.71 279.997 240.105 316.013 210.237C312.829 205.049 314.09 197.685 318.71 193.667C318.738 193.649 318.756 193.631 318.784 193.603C309.994 179.254 301.204 164.915 292.414 150.566C292.386 150.594 292.368 150.612 292.34 150.631ZM250.461 238.685C239.812 245.21 225.638 241.422 219.139 230.825C212.632 220.208 216.268 206.781 226.917 200.266C237.575 193.76 251.198 196.626 257.696 207.251C264.194 217.84 261.11 232.179 250.461 238.685Z" fill="black"/>
<g opacity="0.2">
<path opacity="0.2" d="M247.001 228.428C247.581 229.377 248.17 230.327 248.75 231.276C248.05 231.709 247.36 232.133 246.661 232.566C246.081 231.626 245.51 230.686 244.93 229.737C242.335 231.119 239.389 231.755 237.346 231.405C237.208 230.317 237.07 229.23 236.932 228.143C238.819 228.41 241.193 227.995 243.246 226.981C242.206 225.286 241.166 223.59 240.126 221.894C236.867 222.945 233.241 223.848 231.078 220.309C229.486 217.711 230.01 214.328 233.765 211.518C233.176 210.559 232.587 209.601 232.007 208.642C232.707 208.219 233.407 207.785 234.097 207.352C234.677 208.292 235.247 209.232 235.827 210.181C237.778 209.122 240.024 208.486 241.93 208.504C242.114 209.582 242.289 210.651 242.463 211.73C240.641 211.785 238.957 212.246 237.512 212.928C238.561 214.642 239.61 216.356 240.659 218.07C243.908 217.01 247.507 215.95 249.679 219.489C251.263 222.079 250.747 225.544 247.001 228.428ZM238.229 218.816C237.3 217.305 236.379 215.794 235.45 214.282C233.802 215.674 233.6 217.047 234.281 218.171C235.036 219.397 236.49 219.286 238.229 218.816ZM246.568 221.765C245.805 220.521 244.332 220.632 242.537 221.148C243.457 222.65 244.378 224.152 245.298 225.654C246.992 224.217 247.24 222.862 246.568 221.765Z" fill="black"/>
</g>
<path opacity="0.2" d="M329.957 203.795C287.148 241.616 238.127 271.723 185.065 292.79C178.972 282.846 172.879 272.902 166.776 262.95V262.94L163.555 216.715C163.555 216.715 265.104 224.051 329.957 203.795Z" fill="black"/>
<path d="M342.236 293.278C286.67 306.382 229.263 309.746 172.547 303.221C170.973 276.266 169.4 249.31 167.816 222.355C224.533 228.87 281.939 225.507 337.505 212.411C339.079 239.367 340.662 266.322 342.236 293.278Z" fill="#27AE60"/>
<path opacity="0.4" d="M342.236 293.278C286.67 306.382 229.263 309.746 172.547 303.221C170.973 276.266 169.4 249.31 167.816 222.355C224.533 228.87 281.939 225.507 337.505 212.411C339.079 239.367 340.662 266.322 342.236 293.278Z" fill="white"/>
<path opacity="0.2" d="M334.154 228.631C328.19 229.986 323.026 226.032 322.676 219.95C276.849 229.258 229.926 232.004 183.325 228.106C183.684 234.188 179.027 238.722 172.934 238.068C173.918 254.868 174.894 271.668 175.879 288.467C181.963 289.113 187.2 294.439 187.55 300.512C234.151 304.41 281.073 301.664 326.901 292.356C326.542 286.283 331.117 280.385 337.09 279.031C337.118 279.022 337.154 279.012 337.182 279.012C336.197 262.212 335.222 245.412 334.237 228.612C334.218 228.612 334.191 228.622 334.154 228.631ZM255.707 286.44C243.244 287.15 232.531 277.114 231.803 264.701C231.076 252.26 240.612 242.15 253.074 241.441C265.537 240.74 276.186 249.716 276.913 262.148C277.649 274.57 268.169 285.749 255.707 286.44Z" fill="black"/>
<g opacity="0.2">
<path opacity="0.2" d="M257.501 275.769C257.566 276.884 257.63 277.999 257.695 279.105C256.875 279.151 256.065 279.206 255.246 279.252C255.182 278.146 255.117 277.049 255.053 275.944C252.117 275.934 249.218 275.105 247.579 273.833C247.966 272.81 248.362 271.787 248.748 270.764C250.285 271.889 252.577 272.654 254.86 272.727C254.74 270.737 254.63 268.755 254.51 266.765C251.141 266.147 247.524 265.226 247.285 261.088C247.11 258.047 249.172 255.31 253.801 254.61C253.737 253.485 253.672 252.361 253.608 251.246C254.427 251.2 255.237 251.154 256.056 251.099C256.121 252.204 256.185 253.301 256.25 254.407C258.468 254.388 260.75 254.895 262.416 255.817C262.067 256.849 261.717 257.881 261.367 258.913C259.729 258.102 258.026 257.706 256.434 257.623C256.553 259.632 256.673 261.641 256.783 263.641C260.152 264.249 263.815 265.014 264.064 269.161C264.248 272.184 262.159 274.994 257.501 275.769ZM254.298 263.152C254.197 261.383 254.087 259.614 253.985 257.844C251.878 258.287 251.049 259.402 251.123 260.72C251.215 262.148 252.54 262.738 254.298 263.152ZM260.263 269.686C260.18 268.221 258.827 267.631 257.004 267.235C257.106 268.995 257.207 270.755 257.317 272.515C259.471 272.055 260.336 270.976 260.263 269.686Z" fill="black"/>
</g>
<path d="M210.009 293.361C210.248 296.107 210.533 298.918 210.865 301.775H17.3008C23.3663 250.546 17.3008 228.336 17.3008 228.336C81.9877 223.461 210.865 228.336 210.865 228.336C210.865 228.336 206.98 253.006 209.594 288.357C209.714 290.007 209.843 291.675 210.009 293.361Z" fill="#27AE60"/>
<path opacity="0.2" d="M210.865 228.345C202.397 232.308 160.923 232.861 137.066 231.386C113.208 229.903 81.9877 234.428 81.9877 234.428C63.9107 228.179 17.3008 228.355 17.3008 228.355C81.9877 223.47 210.865 228.345 210.865 228.345Z" fill="white"/>
<path opacity="0.2" d="M17.3008 301.775C23.3663 250.545 17.3008 228.336 17.3008 228.336C17.3008 228.336 55.673 227.488 81.9877 234.409C81.9877 234.409 82.8713 242.224 81.9877 246.242C81.9877 246.242 113.65 241.099 141.861 241.781C141.861 241.781 98.2515 246.813 81.9877 250.545C81.9877 250.545 55.9123 246.463 39.4092 246.242C39.4092 246.242 73.7224 250.711 81.9877 253.384C81.9877 253.384 91.7994 251.596 96.9353 251.596C96.9353 251.596 84.6477 253.826 81.9877 255.835V269.99C81.9877 269.99 54.5961 270.534 40.8635 268.571C47.3892 269.594 73.9801 273.704 81.9877 273.704C81.9877 273.704 112.214 272.589 129.767 273.704C129.767 273.704 89.7745 276.008 81.9877 277.87H47.6562L81.9877 280.754V283.611H96.7052L81.9877 286.154C81.9877 286.154 39.4092 283.436 27.1493 286.154C27.1493 286.154 77.4133 288.44 81.9417 290.218L81.9969 294.458C81.9969 294.458 138.363 287.002 188.222 293.407C188.222 293.407 115.427 290.523 81.9969 298.632C81.9969 298.632 186.566 296.356 210.874 301.766H17.3008V301.775Z" fill="black"/>
<path d="M18.4237 234.418L13.3154 236.206C13.3154 236.206 44.085 237.266 63.9292 240.307C63.9292 240.307 33.3437 234.86 18.4237 234.418Z" fill="#27AE60"/>
<path opacity="0.2" d="M86.4697 240.307L94.2473 241.781C94.2473 241.781 130.502 237.846 173.357 237.358C173.357 237.367 111.468 234.372 86.4697 240.307Z" fill="white"/>
<path opacity="0.2" d="M111.027 248.657C111.027 248.657 132.768 242.722 151.829 243.007C170.891 243.293 207.174 240.307 207.174 240.307L208.601 243.007C208.601 243.007 180.16 244.675 156.68 244.482C133.2 244.288 111.027 248.657 111.027 248.657Z" fill="white"/>
<path opacity="0.2" d="M89.4619 257.531C89.4619 257.531 115.381 252.002 140.794 252.509C166.206 253.016 198.2 255.006 198.2 255.006C198.2 255.006 128.755 255.024 111.027 258.701L89.4619 257.531Z" fill="white"/>
<path d="M134.295 249.495C134.295 249.495 156.624 247.652 175.879 248.656C195.144 249.661 215.374 250.564 215.374 250.564L208.609 252.481C208.609 252.472 162.23 247.818 134.295 249.495Z" fill="#27AE60"/>
<path opacity="0.2" d="M134.295 249.495C134.295 249.495 156.624 247.652 175.879 248.656C195.144 249.661 215.374 250.564 215.374 250.564L208.609 252.481C208.609 252.472 162.23 247.818 134.295 249.495Z" fill="black"/>
<path opacity="0.2" d="M90.2988 262.212C90.2988 262.212 128.947 261.733 147.576 260.802C166.215 259.872 191.167 265.042 191.167 265.042C191.167 265.042 160.361 264.387 150.825 265.899L90.2988 262.212Z" fill="black"/>
<path opacity="0.2" d="M86.4697 268.074L111.026 265.899L163.371 268.074L110.364 270.248L86.4697 268.074Z" fill="white"/>
<path opacity="0.2" d="M104.842 279.63C104.842 279.63 140.563 276.285 154.471 276.119C168.378 275.953 205.839 273.437 205.839 273.437L201.679 278.966C201.679 278.957 131.267 277.455 104.842 279.63Z" fill="white"/>
<path d="M195.421 260.802L208.601 262.046L212.191 260.802C212.2 260.802 203.401 259.89 195.421 260.802Z" fill="#27AE60"/>
<path d="M210.276 232.926L215.375 233.755L209.899 236.612L177.666 235.93C177.666 235.93 201.836 235.616 210.276 232.926Z" fill="#27AE60"/>
<path opacity="0.2" d="M195.421 260.802L208.601 262.046L212.191 260.802C212.2 260.802 203.401 259.89 195.421 260.802Z" fill="white"/>
<path opacity="0.2" d="M210.276 232.926L215.375 233.755L209.899 236.612L177.666 235.93C177.666 235.93 201.836 235.616 210.276 232.926Z" fill="black"/>
<path opacity="0.2" d="M210.008 293.361C201.356 292.79 140.729 285.168 140.729 285.168C144.76 284.698 197.684 287.832 209.594 288.357C209.714 290.007 209.843 291.675 210.008 293.361Z" fill="black"/>
<path d="M118.722 284.127C118.722 284.127 175.41 283.98 191.628 285.15C207.846 286.32 209.3 284.127 209.3 284.127L217.372 288.035C217.372 288.035 217.786 291.905 196.515 289.196C175.245 286.496 118.722 284.127 118.722 284.127Z" fill="#27AE60"/>
<path d="M72.4055 255.587C72.4055 255.587 39.206 250.325 19.8496 251.661C19.8496 251.661 24.5806 252.638 27.756 255.587H72.4055Z" fill="#27AE60"/>
<path d="M19.8146 270C20.5693 269.917 44.6475 273.096 53.8516 273.428L16.3906 274.93L19.8146 270Z" fill="#27AE60"/>
<path d="M18.4509 290.854L54.8443 292.144L13.3242 295.213L18.4509 290.854Z" fill="#27AE60"/>
<path d="M84.7563 225.866C84.7563 225.866 136.447 234.713 166.425 199.298L222.902 213.803C222.902 213.803 212.51 235.395 134.459 232.52C56.4074 229.663 84.7563 225.866 84.7563 225.866Z" fill="#27AE60"/>
<path opacity="0.5" d="M84.7563 225.866C84.7563 225.866 136.447 234.713 166.425 199.298L222.902 213.803C222.902 213.803 212.51 235.395 134.459 232.52C56.4074 229.663 84.7563 225.866 84.7563 225.866Z" fill="white"/>
<path opacity="0.2" d="M114.265 227.756C114.265 227.756 145.863 226.088 163.728 205.859C163.728 205.859 169.103 207.721 172.895 203.039L214.121 213.978C214.121 213.978 209.684 215.545 211.249 220.678C211.249 220.669 157.119 242.629 114.265 227.756Z" fill="black"/>
<path d="M161.437 125.112L162.404 119.979C162.404 119.979 160.407 118.081 160.637 116.33C160.867 114.579 169.749 111.685 171.323 111.566C172.897 111.455 172.298 117.851 171.82 119.021C171.341 120.191 166.003 121.601 166.003 121.601L165.34 127.011L161.437 125.112Z" fill="#EBB376"/>
<path d="M58.9308 150.345L55.4056 146.493C55.4056 146.493 56.0959 143.83 54.9822 142.456C53.8593 141.093 44.7932 143.332 43.3942 144.069C41.9951 144.806 45.8793 149.93 46.9102 150.667C47.941 151.405 53.2058 149.783 53.2058 149.783L56.6298 154.031L58.9308 150.345Z" fill="#EBB376"/>
<path d="M129.039 142.069C138.952 141.526 147.935 143.59 152.547 142.069C157.158 140.549 161.631 121.353 161.631 121.353L166.482 122.984C166.482 122.984 164.678 142.982 156.67 148.327C148.662 153.672 130.226 153.644 130.226 153.644L129.039 142.069Z" fill="#C59A46"/>
<path opacity="0.7" d="M166.482 122.984C166.482 122.984 164.687 142.973 156.67 148.327C152.114 151.368 144.18 152.667 138.188 153.23C133.65 153.644 130.226 153.635 130.226 153.635L129.674 148.235L129.039 142.07C138.952 141.517 147.935 143.59 152.547 142.07C157.158 140.549 161.631 121.344 161.631 121.344L166.482 122.984Z" fill="#248864"/>
<path opacity="0.2" d="M138.188 153.229C133.65 153.644 130.226 153.635 130.226 153.635L129.674 148.235C131.855 149.082 135.049 150.621 138.188 153.229Z" fill="black"/>
<path d="M192.41 297.324L198.825 295.554L197.675 279.87L191.269 281.639L192.41 297.324Z" fill="#B97964"/>
<path d="M199.212 294.697L191.766 295.213C191.508 295.222 191.297 295.434 191.306 295.702V295.711L191.352 301.646C191.398 302.291 191.95 302.779 192.595 302.742C195.19 302.521 196.423 302.282 199.7 302.033C201.716 301.885 205.701 301.793 208.417 301.157C211.132 300.521 210.441 297.849 209.236 297.877C206.373 297.932 202.36 296.347 200.39 295.01C200.041 294.78 199.627 294.67 199.212 294.697Z" fill="#263238"/>
<path d="M201.651 295.665C201.053 295.693 200.455 295.656 199.866 295.545C199.801 295.536 199.755 295.499 199.737 295.435C199.728 295.379 199.746 295.315 199.783 295.269C199.985 295.103 201.78 293.693 202.618 293.951C202.811 294.015 202.958 294.172 203.004 294.366C203.133 294.66 203.087 295.001 202.875 295.241C202.535 295.545 202.093 295.693 201.651 295.665ZM202.526 294.292C202.084 294.154 201.016 294.79 200.28 295.333C201.486 295.481 202.351 295.389 202.645 295.057C202.765 294.9 202.793 294.688 202.719 294.495C202.691 294.393 202.618 294.32 202.526 294.292Z" fill="#263238"/>
<path d="M199.893 295.554C199.874 295.564 199.847 295.573 199.828 295.573C199.782 295.554 199.745 295.508 199.736 295.453C199.736 295.398 199.442 293.472 200.068 292.771C200.233 292.596 200.473 292.495 200.712 292.513C200.988 292.504 201.227 292.679 201.31 292.947C201.513 293.656 200.62 295.121 199.985 295.554C199.957 295.564 199.92 295.564 199.893 295.554ZM200.62 292.845C200.491 292.854 200.381 292.91 200.298 293.011C199.92 293.426 199.948 294.522 200.012 295.149C200.546 294.624 201.108 293.536 201.006 293.057C200.988 292.965 200.924 292.864 200.703 292.854L200.62 292.845Z" fill="#263238"/>
<path opacity="0.2" d="M191.269 281.639L197.684 279.879L198.337 288.845L191.885 290.283L191.269 281.639Z" fill="black"/>
<path d="M184.015 297.093L177.95 299.858L176.404 293.343L174.342 284.569L180.38 281.786L182.46 290.56L184.015 297.093Z" fill="#B97964"/>
<path opacity="0.2" d="M182.46 290.56L176.404 293.343L174.342 284.57L180.38 281.786L182.46 290.56Z" fill="black"/>
<path d="M184.265 296.19L176.993 297.886C176.736 297.932 176.57 298.181 176.616 298.439V298.448L177.61 304.3C177.757 304.927 178.383 305.323 179.009 305.185C181.54 304.549 182.709 304.125 185.903 303.351C187.864 302.89 191.785 302.153 194.371 301.102C196.957 300.042 195.844 297.517 194.656 297.738C191.84 298.245 187.633 297.324 185.47 296.319C185.084 296.126 184.661 296.089 184.265 296.19Z" fill="#263238"/>
<path d="M186.822 296.752C186.233 296.872 185.635 296.927 185.037 296.927C184.972 296.937 184.917 296.9 184.899 296.845C184.88 296.789 184.88 296.725 184.917 296.679C185.092 296.485 186.638 294.808 187.504 294.928C187.706 294.955 187.872 295.094 187.955 295.278C188.129 295.545 188.129 295.895 187.964 296.163C187.669 296.485 187.264 296.706 186.822 296.752ZM187.467 295.25C187.007 295.186 186.049 295.978 185.414 296.633C186.629 296.587 187.467 296.356 187.706 295.988C187.798 295.812 187.789 295.591 187.688 295.425C187.642 295.333 187.559 295.269 187.467 295.25Z" fill="#263238"/>
<path d="M185.066 296.918C185.048 296.937 185.029 296.946 185.002 296.946C184.956 296.928 184.91 296.891 184.891 296.845C184.882 296.789 184.293 294.937 184.79 294.144C184.928 293.942 185.149 293.813 185.388 293.785C185.655 293.73 185.922 293.868 186.042 294.117C186.355 294.79 185.701 296.375 185.149 296.9C185.13 296.918 185.094 296.928 185.066 296.918ZM185.361 294.135C185.241 294.163 185.13 294.237 185.066 294.347C184.762 294.817 184.965 295.895 185.121 296.504C185.572 295.895 185.95 294.734 185.766 294.283C185.729 294.2 185.655 294.108 185.425 294.126L185.361 294.135Z" fill="#263238"/>
<path d="M139.071 208.016L137.12 186.341L100.975 187.189C100.975 187.189 96.6952 217.388 99.8062 222.936C105.356 232.842 141.796 227.212 150.319 228.06C153.798 229.912 172.418 291.702 172.418 291.702L182.846 287.491C182.846 287.491 171.636 235.34 169.077 225.516C165.515 211.868 151.046 212.108 139.071 208.016Z" fill="#263238"/>
<path d="M198.973 286.431L189.778 287.279C189.778 287.279 178.503 229.774 177.629 229.534C176.055 229.083 171.48 228.566 169.032 227.931C151.968 223.489 109.941 215.305 109.941 215.305L125.441 200.358C125.441 200.358 195.706 208.799 197.271 225.313C198.007 233.266 198.973 286.431 198.973 286.431Z" fill="#263238"/>
<path opacity="0.2" d="M175.134 229.58C173.56 229.129 171.47 228.576 169.022 227.94C169.703 228.299 167.724 219.342 165.755 217.029C161.843 212.412 146.15 209.923 140.517 209.011C135.804 208.255 120.01 206.864 120.01 206.864C120.01 206.864 147.898 204.449 168.921 210.227C179.312 213.084 177.462 223.24 175.134 229.58Z" fill="black"/>
<path d="M96.1436 147.332C96.1436 147.332 109.48 140.245 129.039 142.07C129.039 142.07 135.823 159.34 137.111 186.341L100.736 188.866C100.746 188.866 101.399 165.717 96.1436 147.332Z" fill="#FF9E0D"/>
<path opacity="0.7" d="M100.746 188.866C100.746 188.866 100.976 180.591 100.046 170.011C99.724 166.362 99.2638 162.445 98.6011 158.492C97.9752 154.732 97.1744 150.935 96.1436 147.332C96.1436 147.332 109.48 140.245 129.039 142.07C129.039 142.07 135.823 159.34 137.111 186.341L100.746 188.866Z" fill="#248864"/>
<path opacity="0.2" d="M100.047 170.011C99.7245 166.362 99.2643 162.445 98.6016 158.492C99.3195 157.792 100.093 157.276 100.884 156.99L100.93 156.584C100.93 157.027 102.854 163.837 100.047 170.011Z" fill="black"/>
<path d="M106.223 144.825C109.555 147.857 117.709 146.732 117.709 146.732C117.709 146.732 122.799 145.341 121.732 143.746C118.731 143.249 117.277 141.848 116.679 140.06C116.329 139.019 116.283 137.839 116.375 136.632C116.421 135.996 116.513 135.351 116.623 134.715L106.545 127.241C107.87 132.172 109.481 141.249 106.223 144.825Z" fill="#EBB376"/>
<path opacity="0.2" d="M108.874 131.988C109.27 138.042 114.249 139.719 116.679 140.051C116.329 139.01 116.283 137.83 116.375 136.623L108.874 131.988Z" fill="black"/>
<path d="M115.26 106.47C119.015 107.474 122.126 116.137 119.319 121.86C116.511 127.582 108.053 111.584 108.053 111.584C108.053 111.584 112.848 105.825 115.26 106.47Z" fill="#263238"/>
<path d="M123.046 126.274C123.074 126.624 123.083 126.974 123.074 127.324C123.046 128.587 122.779 129.794 122.31 130.891C121.831 132.061 121.123 133.102 120.257 133.987C118.693 135.581 116.603 136.604 114.339 136.733C112.839 136.816 111.265 136.512 109.709 135.71C105.236 133.425 104.031 129.481 101.463 122.984C100.892 121.592 100.634 120.09 100.763 118.597C101.159 113.326 105.742 109.382 110.998 109.778C118.361 110.276 122.513 119.832 123.046 126.274Z" fill="#EBB376"/>
<path d="M112.149 121.519C112.287 122.062 112.747 122.403 113.106 122.284C113.465 122.164 113.594 121.629 113.428 121.095C113.253 120.551 112.821 120.21 112.471 120.33C112.112 120.44 111.974 120.975 112.149 121.519Z" fill="#263238"/>
<path d="M118.251 119.51C118.389 120.054 118.859 120.395 119.208 120.275C119.558 120.155 119.696 119.62 119.53 119.086C119.356 118.542 118.923 118.201 118.573 118.321C118.214 118.432 118.085 118.994 118.251 119.51Z" fill="#263238"/>
<path d="M116.4 120.413C117.588 121.85 118.968 123.122 120.496 124.191C119.926 124.975 119.033 125.463 118.057 125.527L116.4 120.413Z" fill="#D58745"/>
<path d="M119.659 116.155C119.576 116.247 119.447 116.284 119.327 116.257C118.508 116.035 117.634 116.211 116.962 116.736C116.833 116.865 116.621 116.856 116.493 116.717C116.364 116.588 116.373 116.376 116.511 116.247C117.339 115.565 118.444 115.326 119.484 115.602C119.659 115.639 119.778 115.814 119.742 115.999V116.008C119.714 116.063 119.686 116.109 119.659 116.155Z" fill="#263238"/>
<path d="M110.133 119.473C110.069 119.491 109.995 119.491 109.94 119.464C109.783 119.371 109.728 119.169 109.82 119.012C109.82 119.012 109.82 119.012 109.82 119.003C110.354 118.072 111.32 117.455 112.388 117.362C112.572 117.353 112.729 117.501 112.729 117.685C112.729 117.869 112.591 118.017 112.406 118.026C111.56 118.127 110.814 118.625 110.391 119.362C110.326 119.436 110.234 119.482 110.133 119.473Z" fill="#263238"/>
<path d="M103.616 113.096L105.07 115.842C104.315 116.708 104.159 117.989 105.024 118.957C106.874 121.021 106.939 125.297 105.659 127.509C105.659 127.509 105.199 126.486 104.417 127.067C103.625 127.656 105.963 133.02 108.678 134.964C108.678 134.964 105.171 133.61 101.508 128.44C98.1209 123.657 96.2617 119.307 96.5654 116.837L103.616 113.096Z" fill="#263238"/>
<path d="M100.358 129.38C101.591 130.642 103.267 131.361 105.025 131.379C107.353 131.398 107.906 129.159 106.755 127.269C105.715 125.601 103.239 123.528 101.15 124.44C99.0604 125.352 98.8763 127.813 100.358 129.38Z" fill="#EBB376"/>
<path d="M118.775 127.841C118.259 128.827 117.707 130.707 117.707 130.707C117.532 130.688 117.348 130.67 117.173 130.642C114.752 130.32 113.74 129.371 113.344 128.412C113.132 127.887 113.114 127.362 113.151 126.938C113.188 126.449 113.335 126.108 113.335 126.108C114.513 127.048 116.75 127.518 117.946 127.73C118.452 127.813 118.775 127.841 118.775 127.841Z" fill="#263238"/>
<path d="M117.954 127.721L117.623 128.559C115.349 128.246 113.785 127.721 113.168 126.937C113.205 126.449 113.352 126.108 113.352 126.108C114.521 127.039 116.748 127.518 117.954 127.721Z" fill="white"/>
<path d="M117.174 130.642C114.753 130.319 113.741 129.37 113.345 128.412C114.164 128.55 115.14 128.817 115.959 129.306C116.594 129.674 116.953 130.172 117.174 130.642Z" fill="#DE5753"/>
<path d="M109.774 113.575C109.774 113.575 109.13 109.17 111.91 110.018C114.689 110.865 114.883 109.197 114.054 105.797C113.226 102.396 105.255 101.18 100.745 106.765C96.2349 112.358 94.6702 117.012 96.8424 119.482C99.0238 121.952 107.344 114.662 107.344 114.662C107.344 114.662 107.694 112.57 108.881 111.253C108.872 111.253 108.872 112.478 109.774 113.575Z" fill="#263238"/>
<path d="M114.075 146.382L118.447 150.271C118.447 150.271 120.868 166.675 126.814 173.845H130.459L131.186 171.301C131.186 171.301 122.828 162.694 119.607 149.663V144.438L114.075 146.382Z" fill="#FF881A"/>
<path d="M107.337 141.277L116.403 144.686L117.176 140.06L121.88 141.774L123.076 147.598L116.679 146.023L113.504 150.271L104.263 144.29L107.337 141.277Z" fill="#693D13"/>
<path opacity="0.5" d="M107.337 141.277L116.403 144.686L117.176 140.06L121.88 141.774L123.076 147.598L116.679 146.023L113.504 150.271L104.263 144.29L107.337 141.277Z" fill="#3EA80D"/>
<path d="M100.23 188.267L137.535 184.71L137.618 189.244L100.249 192.303L100.23 188.267Z" fill="black"/>
<path d="M129.638 185.64C129.298 185.336 128.838 185.189 128.378 185.235L125.082 185.576C124.226 185.668 123.591 186.378 123.61 187.244L123.647 189.354C123.656 189.815 123.858 190.248 124.199 190.552C124.503 190.829 124.908 190.976 125.313 190.967C125.359 190.967 125.405 190.967 125.46 190.958L128.755 190.608C129.611 190.515 130.237 189.806 130.228 188.949L130.191 186.838C130.182 186.387 129.979 185.944 129.638 185.64ZM128.672 189.769L125.377 190.119C125.147 190.147 124.935 190.073 124.769 189.926C124.604 189.778 124.503 189.566 124.503 189.345L124.466 187.235C124.457 186.82 124.769 186.47 125.174 186.433L128.47 186.092C128.497 186.092 128.516 186.092 128.543 186.092C128.746 186.092 128.93 186.156 129.086 186.295C129.252 186.442 129.353 186.654 129.353 186.875L129.362 187.198C129.316 187.189 129.28 187.179 129.234 187.179L128.313 187.262C128.009 187.29 127.779 187.566 127.807 187.871C127.834 188.175 128.111 188.405 128.414 188.377L129.335 188.294C129.353 188.294 129.362 188.285 129.381 188.285L129.39 188.976C129.39 189.382 129.086 189.723 128.672 189.769Z" fill="white"/>
<path d="M96.1432 147.331C89.9211 150.999 80.9379 163.154 77.7808 162.915C74.6238 162.675 57.5961 147.515 57.5961 147.515L53.7119 151.727C53.7119 151.727 69.4418 170.536 76.7684 171.955C84.0949 173.374 100.23 159.781 100.23 159.781C100.23 159.781 101.804 156.141 100.23 152.483C98.6559 148.815 96.1432 147.331 96.1432 147.331Z" fill="#E69317"/>
<path opacity="0.7" d="M96.1432 147.331C89.9211 150.999 80.9379 163.154 77.7808 162.915C74.6238 162.675 57.5961 147.515 57.5961 147.515L53.7119 151.727C53.7119 151.727 69.4418 170.536 76.7684 171.955C84.0949 173.374 100.23 159.781 100.23 159.781C100.23 159.781 101.804 156.141 100.23 152.483C98.6559 148.815 96.1432 147.331 96.1432 147.331Z" fill="#248864"/>
<path d="M153.099 232.999C153.099 232.999 29.5602 233.856 21.9023 216.485L76.9065 212.485C76.9065 212.485 90.9337 218.632 110.373 224.309C123.102 228.023 138.142 231.552 153.099 232.999Z" fill="#27AE60"/>
<path opacity="0.2" d="M153.098 232.999C153.098 232.999 149.214 233.027 142.78 232.972C116.355 231.119 85.5028 217.978 85.5028 217.978C74.3565 220.429 66.7079 216.043 66.7079 216.043L36.6838 217.757C37.3373 220.061 35.6714 222.014 35.6714 222.014C51.2356 226.392 68.0149 229.055 81.7015 230.668C52.8188 228.511 25.3903 224.383 21.9111 216.485L76.9153 212.485C76.9153 212.485 115.306 229.313 153.098 232.999Z" fill="white"/>
<path opacity="0.2" d="M153.099 232.999C153.099 232.999 29.5602 233.856 21.9023 216.485C21.9023 216.485 63.6341 234.538 110.382 224.309C123.102 228.023 138.142 231.552 153.099 232.999Z" fill="black"/>
</svg>
